<svg version="1.1" xmlns="http://www.w3.org/2000/svg" xmlns:xlink="http://www.w3.org/1999/xlink" width="62.94088" height="130.94387" viewBox="0,0,62.94088,130.94387"><defs><linearGradient x1="236.79629" y1="193.32959" x2="233.92534" y2="211.88493" gradientUnits="userSpaceOnUse" id="color-1"><stop offset="0" stop-color="#606060"/><stop offset="1" stop-color="#191919"/></linearGradient></defs><g transform="translate(-204.67958,-138.30598)"><g data-paper-data="{&quot;isPaintingLayer&quot;:true}" fill-rule="nonzero" stroke-linejoin="miter" stroke-miterlimit="10" stroke-dasharray="" stroke-dashoffset="0" style="mix-blend-mode: normal"><path d="M261.30251,177.25789c0.83062,1.54574 -6.8803,10.11505 -6.8803,10.11505c0,0 -7.0149,8.11641 -8.95919,11.25853c-2.25387,3.64244 -3.77301,9.31774 -3.77301,9.31774c0,0 -2.78849,2.481 -4.69267,2.27558c-1.80026,-0.1942 -2.69181,-3.08926 -3.68146,-2.63679c-1.13942,0.52095 -1.72989,1.55169 -1.72989,1.55169c0,0 -2.21833,0.8618 -2.27123,-0.89531c-0.04315,-1.43337 0.90164,-4.95444 0.90164,-4.95444c0,0 -2.84799,1.86957 -3.95599,1.62748c-0.81887,-0.17891 -2.09093,-2.94859 -2.09093,-2.94859l2.67808,-1.62053c0,0 -3.20563,-0.76259 -3.91663,-3.36945c-0.46922,-1.72037 0.27855,-7.5763 0.27855,-7.5763c0,0 -3.41357,-1.03668 -3.65258,-7.33245c-0.06671,-1.757 1.32135,-6.98048 -0.34373,-9.3208c-4.63246,-6.51107 20.08912,-22.98617 20.08912,-22.98617c0,0 19.60854,23.04403 22.0002,27.49476z" data-paper-data="{&quot;index&quot;:null}" fill="#2f2f2f" stroke="none" stroke-width="0" stroke-linecap="butt"/><path d="M259.69907,177.46996c0,0 4.31791,16.76076 -6.52615,25.96745c-9.30257,7.89795 -15.14052,-11.11566 -15.14052,-11.11566c0,0 -10.46321,1.172 -17.37987,11.21162c-6.62705,9.61923 -7.45346,19.78837 -7.45346,19.78837" fill="none" stroke="#000000" stroke-width="2" stroke-linecap="round"/><path d="M247.36175,262.52811c0,0 2.47305,-12.05626 -1.08174,-20.44703c-3.86729,-9.12841 -11.0754,-11.63173 -11.0754,-11.63173c0,0 -5.123,-12.12189 -1.82757,-25.72469c3.17566,-13.1084 8.16031,-17.92807 8.16031,-17.92807" fill="none" stroke="#5f5f5f" stroke-width="2" stroke-linecap="round"/><path d="M263.51283,168.87182c0,11.27936 -9.14372,20.42308 -20.42308,20.42308c-11.27936,0 -20.42309,-9.14372 -20.42309,-20.42308c0,-11.27936 9.14373,-20.42308 20.42309,-20.42308c11.27936,0 20.42308,9.14373 20.42308,20.42308z" fill="#ebf5ff" stroke="#000000" stroke-width="2" stroke-linecap="butt"/><path d="M262.08797,168.15938c0,9.70549 -7.86786,17.57335 -17.57335,17.57335c-9.70549,0 -17.57335,-7.86786 -17.57335,-17.57335c0,-9.70549 7.86786,-17.57335 17.57335,-17.57335c9.70549,0 17.57335,7.86786 17.57335,17.57335z" fill="#ffffff" stroke="none" stroke-width="0" stroke-linecap="butt"/><path d="M241.56923,141.98281c0,0 0.48216,-1.14435 1.90217,-2.01435c2.10223,-1.28799 3.2036,-0.83538 3.2036,-0.83538" fill="none" stroke="#000000" stroke-width="1.5" stroke-linecap="round"/><path d="M251.66203,139.13309c0,0 1.76494,-0.12126 2.67575,0.41451c0.91081,0.53577 1.36138,1.96026 1.36138,1.96026" fill="none" stroke="#000000" stroke-width="1.5" stroke-linecap="round"/><path d="M246.31879,153.38175c0,0 5.46494,5.55997 6.70698,13.40741c1.38862,8.7736 -1.71995,15.08991 -1.71995,15.08991" fill="none" stroke="#000000" stroke-width="2" stroke-linecap="round"/><path d="M253.02001,154.21292c0,0 4.78182,4.86497 5.86861,11.73148c1.21505,7.6769 -1.50496,13.20368 -1.50496,13.20368" fill="none" stroke="#000000" stroke-width="2" stroke-linecap="round"/><path d="M236.40878,182.05957c0,0 1.97694,-0.24815 2.71244,-0.16708c0.68223,0.07521 1.55278,0.63726 1.55278,0.63726" fill="none" stroke="#000000" stroke-width="1.5" stroke-linecap="round"/><path d="M235.06299,230.52593c0,0 -2.45818,13.13508 -3.98128,19.39726c-3.03759,10.01135 -10.53453,17.24936 -10.53453,17.24936" fill="none" stroke="#5f5f5f" stroke-width="2" stroke-linecap="round"/><path d="M233.75619,267.42782c0,2.41207 -13.55712,0 -13.55712,0c0,0 3.03486,-4.36744 6.77856,-4.36744c3.7437,0 6.77856,1.95537 6.77856,4.36744z" fill="#5f5f5f" stroke="#000000" stroke-width="1.5" stroke-linecap="butt"/><path d="M260.75619,263.03132c0,2.17917 -13.55712,0 -13.55712,0c0,0 3.03486,-3.94573 6.77856,-3.94573c3.74369,0 6.77856,1.76657 6.77856,3.94573z" fill="#5f5f5f" stroke="#000000" stroke-width="1.5" stroke-linecap="butt"/><path d="M209.92399,230.82489c-1.09793,2.77563 -0.88197,5.46922 -2.76447,5.76849c-2.32769,0.37005 -2.09176,-3.43702 -0.56059,-6.80403c1.67614,-3.6858 5.70874,-6.21085 5.70874,-6.21085c0,0 -1.28576,4.47076 -2.38368,7.24639z" fill="#ffffff" stroke="#000000" stroke-width="1.5" stroke-linecap="butt"/><path d="M212.52554,231.4752c-0.19147,2.97875 0.8421,5.4755 -0.85724,6.339c-2.1012,1.06771 -3.04708,-2.62752 -2.62515,-6.3022c0.46187,-4.02259 3.52294,-7.66507 3.52294,-7.66507c0,0 0.15092,4.64953 -0.04055,7.62827z" fill="#ffffff" stroke="#000000" stroke-width="1.5" stroke-linecap="butt"/><path d="M230.09131,189.01382c0,0 -10.08123,-10.57455 -11.13242,-19.87991c-0.92759,-8.21113 2.63111,-15.96491 3.10585,-16.35522c1.398,-1.14938 5.45916,-3.33474 5.45916,-3.33474l-0.26596,-6.38485c0,0 3.88124,2.73719 7.08224,2.82005c1.86383,0.04825 4.16538,-2.06325 7.39577,-2.50765c4.59101,-0.63159 10.04119,0.32231 10.04119,0.32231c0,0 3.09954,2.55297 6.0715,6.51606c2.74898,3.66574 5.35267,8.64716 6.15344,11.33056c0.28021,0.93901 1.72607,3.40046 1.92219,6.13378c0.22507,3.13672 -0.82978,6.5943 -1.01627,7.89336c-0.2616,1.82233 -1.49438,-3.13664 -1.49438,-3.13664l-1.98746,3.59718c0,0 1.81012,1.2641 0.96509,-0.87927c-1.05905,-2.68621 1.50304,-7.90572 0.02203,-12.36875c-0.7426,-2.23783 -12.22623,-7.58856 -14.77911,-8.88528c-2.64361,-1.34281 -6.08521,-1.96972 -6.08521,-1.96972c0,0 -0.82167,1.01581 -2.80286,3.02601c-3.40533,3.4552 -8.95551,9.46602 -10.39966,15.54644c-1.57998,6.65237 5.42905,14.42464 4.74404,16.47825c-0.5934,1.77898 -2.35531,-2.63159 -2.35531,-2.63159z" data-paper-data="{&quot;index&quot;:null}" fill="#2f2f2f" stroke="none" stroke-width="0" stroke-linecap="butt"/><path d="M214.11526,223.66685c0,0 2.85878,1.84459 4.2193,4.33845c1.24285,2.27817 1.64924,4.78352 0.07017,4.43125c-1.27706,-0.2849 -1.30883,-2.03943 -2.22363,-3.90971c-0.9148,-1.87028 -2.06585,-4.86 -2.06585,-4.86z" data-paper-data="{&quot;index&quot;:null}" fill="#ffffff" stroke="#000000" stroke-width="1.5" stroke-linecap="butt"/><g data-paper-data="{&quot;index&quot;:null}" stroke="#000000" stroke-width="0.7" stroke-linecap="butt"><path d="M260.98446,177.42846c1.36165,-2.29561 2.42041,-6.05893 2.11387,-9.67361c-0.39151,-4.61684 -3.02294,-8.98472 -4.38573,-11.07524c-0.48955,-0.75098 -2.65554,-1.34455 -1.9139,-1.35879c2.39605,-0.04599 4.70295,0.5642 6.54737,2.06909c2.20719,1.80089 3.74754,4.76519 3.92439,7.82115c0.36371,6.28451 -0.79945,8.69268 -3.12239,10.51128c-1.64455,1.28751 -5.30291,3.85005 -5.30291,3.85005c0,0 1.43102,-0.94985 2.13929,-2.14395z" data-paper-data="{&quot;index&quot;:null}" fill="#5f5f5f"/><path d="M263.83074,166.5759c2.13475,12.81686 -4.74253,12.85882 -4.74253,12.85882c0,0 4.30312,-3.79701 2.43033,-15.22536c-1.1253,-6.86683 -5.32293,-8.80599 -5.32293,-8.80599c0,0 5.1061,-4.01154 7.63513,11.17254z" data-paper-data="{&quot;index&quot;:null}" fill="#b1b1b1"/><path d="M259.60007,155.85761c-3.80669,-5.6753 -8.87345,-6.74773 -8.87345,-6.74773l-0.15369,-1.56005c0,0 8.57372,0.59682 11.55161,7.98778c5.228,12.97562 1.29523,12.89822 1.29523,12.89822c0,0 -1.39077,-8.95698 -3.81971,-12.57822z" data-paper-data="{&quot;index&quot;:null}" fill="#5f5f5f"/><path d="M229.96635,183.93189c-1.35192,-0.34431 -2.4099,-0.9695 -2.4099,-0.9695l-1.55169,-23.33265c0,0 3.61674,-1.02465 4.55523,-1.16454c0.40534,-0.0604 0.98244,0.33909 0.98244,0.33909c0,0 8.98789,9.21875 3.32267,24.23158c-0.55825,1.47936 -2.99906,1.37985 -4.89874,0.89601z" data-paper-data="{&quot;index&quot;:null}" fill="#b1b1b1"/><path d="M230.2247,182.98658c-2.12047,0.50584 -4.80276,-0.35317 -6.72318,-1.16956c-2.71257,-1.15319 -4.45478,-3.15873 -5.71424,-9.24283c-1.12421,-5.43073 2.51757,-11.25443 7.63319,-12.47472c5.11562,-1.2203 9.91988,21.66682 4.80424,22.88713z" data-paper-data="{&quot;index&quot;:null}" fill="#5f5f5f"/><path d="M228.09233,174.9061c0,0 -0.04708,-3.00198 -0.69955,-6.86178c-0.46176,-2.73153 -1.43435,-6.42033 -1.9888,-7.44314c-0.76012,-1.40222 -2.86449,1.18957 -3.56031,-0.55693c-0.13671,-0.34312 0.46139,-1.78253 2.13974,-2.03224c1.02285,-0.15218 2.69796,-0.75297 4.12396,2.1898c4.50888,9.30466 2.64881,15.22507 2.64881,15.22507c0,0 -0.36578,0.64234 -1.31946,0.67686c-0.91933,0.03328 -1.34439,-1.19765 -1.34439,-1.19765z" data-paper-data="{&quot;index&quot;:null}" fill="#5f5f5f"/><path d="M232.36452,151.12255c0,0 -3.72327,0.41264 -5.35817,2.92241c-0.83198,1.27718 -0.75328,4.42673 -0.75328,4.42673c0,0 -1.14062,1.09094 -2.11905,1.05304c-0.97933,-0.03792 -1.4759,-1.24159 -1.4759,-1.24159c0,0 1.29401,-4.44262 2.49183,-5.93871c2.52664,-3.15586 6.65145,-3.12472 6.65145,-3.12472l0.56314,1.90283z" data-paper-data="{&quot;index&quot;:null}" fill="#5f5f5f"/><path d="M250.90117,149.24792c0,0 -6.98811,0.66311 -8.6473,0.91994c-3.18736,0.49338 -9.10257,1.82763 -9.10257,1.82763c0,0 -0.47129,-0.0988 -0.64095,-0.32558c-0.2516,-0.33631 -0.72217,-1.49656 -0.72217,-1.49656l18.84941,-3.17504c0,0 0.31244,1.07996 0.36107,1.49504c0.03308,0.28229 -0.09751,0.75455 -0.09751,0.75455z" data-paper-data="{&quot;index&quot;:null}" fill="#b1b1b1"/><path d="M250.6551,147.53381c0,0 -6.74093,0.6895 -9.8161,1.1789c-3.16357,0.50349 -8.90763,1.80099 -8.90763,1.80099c0,0 -1.93092,0.17218 -2.13985,-0.48983c-0.40222,-1.27429 0.67081,-1.89083 0.67081,-1.89083c0,0 7.12184,-1.54091 10.46705,-2.01837c3.26084,-0.4654 9.35757,-0.81117 9.35757,-0.81117c0,0 0.45816,0.02997 0.85742,1.18541c0.27517,0.79631 -0.48924,1.04491 -0.48924,1.04491z" data-paper-data="{&quot;index&quot;:null}" fill="#5f5f5f"/><path d="M232.59067,185.59486c0,0 0.1608,0.78497 -0.01005,0.95153c-0.32334,0.31519 -1.78452,0.79796 -1.78452,0.79796l-6.57562,-4.21259l2.657,-0.88157z" data-paper-data="{&quot;index&quot;:null}" fill="#b1b1b1"/><path d="M223.47088,183.16605c0,0 -4.36865,-1.90558 -2.60637,-3.71416c2.34242,-2.40395 6.26954,2.75773 6.26954,2.75773c0,0 -1.18757,0.61196 -1.86155,0.78792c-0.47993,0.1253 -1.80162,0.16851 -1.80162,0.16851z" data-paper-data="{&quot;index&quot;:null}" fill="#b1b1b1"/><path d="M236.34308,188.1891c-1.06347,0.25368 -3.13481,0.25225 -3.13481,0.25225l-0.56853,-2.38332c0,0 1.71088,-0.21543 2.68954,-0.32771c1.34702,-0.15452 4.64658,-0.51383 4.64658,-0.51383l0.78979,1.42205c0,0 -3.04777,1.22255 -4.42258,1.55052z" data-paper-data="{&quot;index&quot;:null}" fill="#b1b1b1"/><path d="M234.29367,189.18507c0,0 -0.42208,0.49658 -2.51176,-0.22671c-1.92434,-0.66604 -2.16113,-1.96212 -2.16113,-1.96212c0,0 0.92402,-0.79863 1.45433,-1.05676c0.57518,-0.27998 1.87312,-0.56287 1.87312,-0.56287c0,0 0.57791,1.17702 0.79393,1.78847c0.2314,0.65503 0.55149,2.02 0.55149,2.02z" data-paper-data="{&quot;index&quot;:null}" fill="#b1b1b1"/><g data-paper-data="{&quot;index&quot;:null}"><path d="M248.45259,184.23947c0.40164,1.6837 -1.0972,2.90364 -3.63719,3.50954c-2.53997,0.60589 -4.51948,0.2157 -4.92113,-1.46799c-0.40165,-1.68368 1.16404,-2.62335 3.70403,-3.22925c2.53998,-0.60591 4.45264,-0.49599 4.85429,1.18769z" fill="#5f5f5f"/><g fill="#b1b1b1"><path d="M245.39912,184.93431c-0.17837,0.04255 -0.35774,-0.06873 -0.40063,-0.24855c-0.04289,-0.17982 0.06692,-0.36009 0.24529,-0.40264c0.17837,-0.04255 0.35774,0.06873 0.40063,0.24855c0.04291,0.17983 -0.06692,0.36009 -0.24529,0.40264z"/><path d="M246.51535,184.8057c-0.17837,0.04255 -0.35774,-0.06875 -0.40063,-0.24857c-0.04289,-0.17982 0.06691,-0.36007 0.24528,-0.40262c0.17837,-0.04255 0.35774,0.06873 0.40063,0.24855c0.04291,0.17983 -0.06692,0.36009 -0.24529,0.40264z"/><path d="M247.45368,184.38916c-0.17837,0.04255 -0.35774,-0.06873 -0.40063,-0.24855c-0.04291,-0.17983 0.06692,-0.36009 0.24529,-0.40264c0.17836,-0.04254 0.35774,0.06874 0.40063,0.24856c0.04291,0.17983 -0.06691,0.36007 -0.24528,0.40263z"/><path d="M246.25962,183.84811c-0.17836,0.04254 -0.35774,-0.06873 -0.40063,-0.24855c-0.04291,-0.17983 0.06692,-0.36008 0.24529,-0.40264c0.17837,-0.04255 0.35775,0.06873 0.40064,0.24855c0.04291,0.17983 -0.06692,0.36008 -0.24529,0.40264z"/><path d="M245.30461,183.9658c-0.17837,0.04255 -0.35773,-0.06872 -0.40062,-0.24854c-0.04291,-0.17983 0.06692,-0.36009 0.24529,-0.40264c0.17837,-0.04255 0.35773,0.06872 0.40062,0.24854c0.04291,0.17983 -0.06692,0.36008 -0.24529,0.40264z"/></g></g></g><path d="M249.7809,155.19686c0,0 -6.79245,-2.63584 -9.84819,-4.66154c-1.88375,-1.24877 5.39186,2.41062 5.39186,2.41062c0,0 -0.87633,-2.74708 -0.18264,-1.58931c1.19575,1.99572 3.08076,1.98622 3.08076,1.98622c0,0 0.51528,-3.00672 0.40438,-1.6168c-0.21695,2.71901 1.22732,3.40456 1.22732,3.40456l-9.18899,-2.49913l7.74076,0.93183l1.37473,1.63354z" data-paper-data="{&quot;index&quot;:null}" fill="#000000" stroke="#000000" stroke-width="0.5" stroke-linecap="round"/><path d="M238.97098,212.6656c0,0 -3.32753,-0.57471 -4.87558,-0.84599c-1.67722,-0.29392 -4.83129,-0.85507 -4.83129,-0.85507c0,0 0.56998,-4.67526 0.99803,-7.44179c0.4212,-2.72226 -2.17775,-8.07844 -0.57657,-10.15246c0.5732,-0.74247 1.87633,-3.72119 3.95408,-3.39971c1.54794,0.2395 6.15277,2.13032 7.63154,1.16601c0.57183,-0.37289 1.2715,3.0821 1.2715,3.0821c0,0 0.69228,0.51089 0.92443,1.28394c1.05306,3.50669 -3.44763,7.41218 -3.84981,10.01155c-0.44319,2.86436 -0.64634,7.15142 -0.64634,7.15142z" data-paper-data="{&quot;index&quot;:null}" fill="url(#color-1)" stroke="#1c1c1c" stroke-width="0.5" stroke-linecap="butt"/></g></g></svg>