<svg version="1.1" xmlns="http://www.w3.org/2000/svg" xmlns:xlink="http://www.w3.org/1999/xlink" width="59.97611" height="130.94388" viewBox="0,0,59.97611,130.94388"><g transform="translate(-204.67958,-138.30598)"><g data-paper-data="{&quot;isPaintingLayer&quot;:true}" fill-rule="nonzero" stroke-linejoin="miter" stroke-miterlimit="10" stroke-dasharray="" stroke-dashoffset="0" style="mix-blend-mode: normal"><path d="M259.69907,177.46996c0,0 4.31791,16.76076 -6.52615,25.96745c-9.30257,7.89795 -15.14052,-11.11566 -15.14052,-11.11566c0,0 -10.46321,1.172 -17.37987,11.21162c-6.62705,9.61923 -7.45346,19.78837 -7.45346,19.78837" fill="none" stroke="#000000" stroke-width="2" stroke-linecap="round"/><path d="M247.36175,262.52811c0,0 2.47305,-12.05626 -1.08174,-20.44703c-3.86729,-9.12841 -11.0754,-11.63173 -11.0754,-11.63173c0,0 -5.123,-12.12189 -1.82757,-25.72469c3.17566,-13.1084 8.16031,-17.92807 8.16031,-17.92807" fill="none" stroke="#000000" stroke-width="2" stroke-linecap="round"/><path d="M263.65569,168.72896c0,11.27936 -9.14372,20.42308 -20.42308,20.42308c-11.27936,0 -20.42309,-9.14372 -20.42309,-20.42308c0,-11.27936 9.14373,-20.42308 20.42309,-20.42308c11.27936,0 20.42308,9.14373 20.42308,20.42308z" fill="#ebf5ff" stroke="#000000" stroke-width="2" stroke-linecap="butt"/><path d="M262.08797,168.15938c0,9.70549 -7.86786,17.57335 -17.57335,17.57335c-9.70549,0 -17.57335,-7.86786 -17.57335,-17.57335c0,-9.70549 7.86786,-17.57335 17.57335,-17.57335c9.70549,0 17.57335,7.86786 17.57335,17.57335z" fill="#ffffff" stroke="none" stroke-width="0" stroke-linecap="butt"/><path d="M250.65213,152.38175c0,0 6.10962,5.36487 7.49818,12.93693c1.55243,8.46573 -1.92285,14.56039 -1.92285,14.56039" fill="none" stroke="#000000" stroke-width="2" stroke-linecap="round"/><path d="M235.06299,230.52593c0,0 -2.45818,13.13508 -3.98128,19.39726c-3.03759,10.01135 -10.53453,17.24936 -10.53453,17.24936" fill="none" stroke="#000000" stroke-width="2" stroke-linecap="round"/><path d="M233.75619,267.42782c0,2.41207 -13.55712,0 -13.55712,0c0,0 3.03486,-4.36744 6.77856,-4.36744c3.7437,0 6.77856,1.95537 6.77856,4.36744z" fill="#9a5e4f" stroke="#000000" stroke-width="1.5" stroke-linecap="butt"/><path d="M260.75619,263.03132c0,2.17917 -13.55712,0 -13.55712,0c0,0 3.03486,-3.94573 6.77856,-3.94573c3.74369,0 6.77856,1.76657 6.77856,3.94573z" fill="#9a5e4f" stroke="#000000" stroke-width="1.5" stroke-linecap="butt"/><path d="M209.92399,230.82489c-1.09793,2.77563 -0.88197,5.46922 -2.76447,5.76849c-2.32769,0.37005 -2.09176,-3.43702 -0.56059,-6.80403c1.67614,-3.6858 5.70874,-6.21085 5.70874,-6.21085c0,0 -1.28576,4.47076 -2.38368,7.24639z" fill="#ffffff" stroke="#000000" stroke-width="1.5" stroke-linecap="butt"/><path d="M212.52554,231.4752c-0.19147,2.97875 0.8421,5.4755 -0.85724,6.339c-2.1012,1.06771 -3.04708,-2.62752 -2.62515,-6.3022c0.46187,-4.02259 3.52294,-7.66507 3.52294,-7.66507c0,0 0.15092,4.64953 -0.04055,7.62827z" fill="#ffffff" stroke="#000000" stroke-width="1.5" stroke-linecap="butt"/><path d="M214.11526,223.66685c0,0 2.85878,1.84459 4.2193,4.33845c1.24285,2.27817 1.64924,4.78352 0.07017,4.43125c-1.27706,-0.2849 -1.30883,-2.03943 -2.22363,-3.90971c-0.9148,-1.87028 -2.06585,-4.86 -2.06585,-4.86z" data-paper-data="{&quot;index&quot;:null}" fill="#ffffff" stroke="#000000" stroke-width="1.5" stroke-linecap="butt"/><g stroke="none" stroke-linecap="butt"><g><path d="M239.25375,183.35722c-0.27732,0.28665 -1.15187,0.33 -1.9534,0.09682c-0.80152,-0.23317 -1.22648,-0.65457 -0.94917,-0.94122c0.27732,-0.28665 1.15188,-0.33 1.9534,-0.09683c0.80152,0.23317 1.22647,0.65457 0.94916,0.94122z" fill="#c05f5f" stroke-width="0"/><path d="M238.67336,183.25556l0.155,-0.00679c0.05332,-0.17778 -0.07071,-0.39193 -0.31561,-0.51203c0,0 -0.13856,-0.08418 -0.18956,-0.20403c-0.28736,-0.03729 -0.58293,-0.05577 -0.90392,-0.03675c-0.1788,0.0106 -1.61451,0.24372 -0.85658,0.46346c0.59286,0.17188 1.2917,0.30336 1.99307,0.43028c0.04597,-0.08022 0.11761,-0.13414 0.11761,-0.13414zM240.32555,183.29901l-0.35617,0.35704c0.10473,0.02195 0.20771,0.04441 0.30852,0.06753l0.50312,0.14445c0,0 0.66254,0.19274 0.31106,0.55606c-0.35148,0.36332 -1.01403,0.17057 -1.01403,0.17057l-0.38027,-0.11254c-1.03962,-0.23971 -3.27529,-0.48733 -4.07291,-0.88075c-3.34122,-1.64803 2.72002,-1.92238 4.41102,-1.62752c0,0 0.71473,0.12464 0.48743,0.51657c-0.07811,0.13469 -0.21379,0.20838 -0.35824,0.24708c0.10813,0.18283 0.16401,0.37485 0.16046,0.56149z" fill="#000000" stroke-width="0.5"/></g><path d="M242.09101,182.61842c-0.19938,0.39648 -0.9224,0.28714 -0.9224,0.28714l-0.39597,-0.08178c-0.27728,0.00802 -0.55456,0.01603 -0.83184,0.02405c0,0 -0.74896,0.02165 -0.78844,-0.38906c-0.03948,-0.41071 0.70948,-0.43235 0.70948,-0.43235c0.27728,-0.00802 0.55456,-0.01603 0.83184,-0.02404l0.87371,0.11024c0,0 0.72301,0.10934 0.52363,0.50582z" fill="#000000" stroke-width="0.5"/></g><path d="M247.42637,141.98281c0,0 0.28229,-1.14435 1.11368,-2.01435c1.23081,-1.28799 1.87564,-0.83538 1.87564,-0.83538" fill="none" stroke="#000000" stroke-width="1.5" stroke-linecap="round"/><path d="M253.3355,139.13309c0,0 1.03334,-0.12126 1.5666,0.41451c0.53326,0.53577 0.79706,1.96026 0.79706,1.96026" fill="none" stroke="#000000" stroke-width="1.5" stroke-linecap="round"/></g></g></svg>