<svg version="1.1" xmlns="http://www.w3.org/2000/svg" xmlns:xlink="http://www.w3.org/1999/xlink" width="626.90401" height="455.42759" viewBox="0,0,626.90401,455.42759"><defs><radialGradient cx="233.87981" cy="119.57289" r="313.45201" gradientUnits="userSpaceOnUse" id="color-1"><stop offset="0" stop-color="#9ddeed" stop-opacity="0"/><stop offset="1" stop-color="#9ddeed"/></radialGradient></defs><g transform="translate(79.57219,89.65503)"><g data-paper-data="{&quot;isPaintingLayer&quot;:true}" fill-rule="nonzero" stroke="none" stroke-linecap="butt" stroke-linejoin="miter" stroke-miterlimit="10" stroke-dasharray="" stroke-dashoffset="0" style="mix-blend-mode: normal"><path d="M-8.90279,365.77256v-373.5h494.5v373.5z" fill="#aad0ff" stroke-width="0"/><path d="M547.33182,119.57289c0,115.55339 -140.33724,209.22792 -313.45201,209.22792c-173.11476,0 -313.45201,-93.67453 -313.45201,-209.22792c0,-115.55339 140.33724,-209.22792 313.45201,-209.22792c173.11476,0 313.45201,93.67453 313.45201,209.22792z" fill="url(#color-1)" stroke-width="0"/><path d="M83.18334,203.63803c-0.33788,0.25855 -0.68167,0.50774 -1.03082,0.74842c-3.59519,4.7539 -9.45536,7.64163 -15.84117,7.16529c-1.30029,0.53338 -3.27782,-0.31956 -4.35129,-0.86383c-3.43233,-1.13231 -6.38645,-3.25169 -8.55486,-6.00105c-1.87419,-2.07472 -3.21443,-4.60296 -3.66087,-7.83288c-2.12344,-15.36269 9.76031,-30.08262 25.62798,-30.96139c16.0953,-0.89138 31.7762,2.5594 46.54327,8.50868c1.87158,0.75402 4.82403,0.34701 6.89417,0.80942c12.06678,2.69538 14.94527,3.19646 25.64161,8.36998c4.8714,2.35615 8.78474,7.06696 12.36979,10.72512c0.53812,0.54909 1.92106,2.98472 2.60183,3.18596c14.5039,4.28753 29.61596,6.1548 44.43261,9.19009c9.6703,1.98103 23.93466,7.02046 29.16833,8.2214c3.17677,0.72896 6.5027,0.45828 9.75091,0.72734c8.53756,0.70718 17.10362,2.29059 25.41082,4.35686c4.05473,1.00854 8.10618,2.03086 12.14784,3.09055c3.31375,0.86884 6.546,2.65781 9.74498,3.53327c1.47935,0.40485 3.036,-0.53714 4.56975,-0.53748c1.38871,-0.0003 5.23365,0.1234 7.79601,0.21029c1.27983,0.0434 2.62385,0.54176 3.8392,0.13831c0.90595,-0.30074 1.23178,-1.47587 1.9791,-2.06975c2.79815,-2.22364 6.97433,-3.81939 10.43803,-4.73694c5.80117,-1.53676 11.15199,-1.75671 16.99463,-2.05416c4.25191,-0.21647 11.21235,-1.1425 16.63646,-0.94995c5.75504,0.20429 11.89509,1.75519 17.21684,2.74052c7.10562,1.31562 13.63253,4.83773 20.53246,6.89712c1.12904,0.33698 2.22714,-0.79902 3.38463,-1.01922c2.6511,-0.50434 7.4667,-1.54333 10.95451,-1.76113c2.57447,-0.16077 8.53511,-0.67208 12.56187,-0.6356c6.62795,0.06005 16.68207,-0.19422 23.43497,1.28586c9.98279,2.188 21.30651,13.61137 20.26621,24.58748c-0.59389,6.26609 -3.84578,13.96289 -9.43479,17.12931c-1.98134,1.12252 -4.48347,0.80616 -6.70936,1.28693c-0.84416,0.18233 -3.22528,0.95215 -3.96728,0.76097c-3.50915,-0.90415 -7.17009,-1.70737 -10.25466,-3.60921c-1.76513,-1.08832 -1.77139,-4.24768 -3.7047,-4.99764c-2.95893,-1.14781 -6.34695,-0.18079 -9.52034,-0.13255c-2.39041,0.03634 -4.7758,0.23433 -7.16166,0.38616c-0.27808,0.0177 -0.44976,0.7902 -0.56985,0.92815c-1.5446,1.77452 -3.83907,4.49332 -5.83843,5.82195c-2.55358,1.69693 -7.60436,2.8075 -10.56891,2.88226c-4.48218,0.11304 -13.91128,-1.56404 -16.9064,-4.56764c-1.60502,-1.60958 -3.09623,-3.34116 -4.44986,-5.16722c-0.26981,-0.36398 0.07276,-1.15879 -0.35347,-1.31247c-5.17629,-1.86629 -10.68413,-4.20202 -16.32341,-4.47321c-0.2955,-0.01421 0.01471,0.59245 0.05087,0.88607c0.07692,0.6247 0.29282,1.22789 0.35889,1.85383c0.29799,2.82317 0.27171,6.62946 -0.69594,9.32995c-2.40149,6.70202 -8.55172,11.24525 -15.69448,11.7815c-7.00855,0.52617 -14.75691,-1.59235 -20.47174,-5.58882c-2.96388,-2.07268 -6.40669,-4.41465 -9.32851,-6.54621c-2.25993,-1.64869 -2.87482,-3.11065 -3.35025,-2.62452c-7.13218,7.29285 -17.55943,7.75831 -27.29761,6.03633c-1.29238,-0.22853 -3.26278,-0.12658 -4.47293,-0.46925c-7.89908,-2.23673 -7.07024,-5.97304 -11.4889,-9.59985c-0.57997,-0.47604 -0.56997,1.40187 -1.00051,2.01637c-0.73609,1.05062 -1.56786,2.04019 -2.47624,2.946c-2.3982,2.39143 -5.02785,3.45335 -8.24495,4.42188c-12.92052,3.88981 -23.08708,0.80212 -35.81214,-2.33774c-8.3074,-2.04983 -17.5535,-7.92705 -23.45189,-14.08768c-1.98981,-2.07828 -3.91549,-5.07813 -4.97655,-7.75259c-0.20345,-0.5128 -0.5832,-3.77411 -0.88436,-3.86636c-5.24506,-1.60664 -10.72251,-2.33965 -16.12846,-3.27115c-1.23118,-0.21215 -1.2138,2.18536 -1.87772,3.24367c-1.27335,2.02971 -1.76239,2.39983 -3.91367,4.25245c-4.74517,4.0864 -11.39473,6.58654 -17.80034,6.12426c-4.54111,-0.32772 -10.38023,-1.30302 -14.75763,-3.46859c-2.23853,-1.10743 -4.23631,-2.76615 -6.62188,-3.50541c-2.25279,-0.69811 -4.69464,-0.46039 -7.03793,-0.72761c-3.94458,-0.44982 -9.00994,-1.73562 -12.10499,-2.31348c-0.15775,-0.02945 -0.32339,0.05512 -0.48083,0.02402c-5.77782,-1.14164 -10.33153,-5.0249 -14.74525,-8.62418c-4.61826,-3.76607 -8.95541,-9.22509 -10.47925,-15.10572c-0.81608,-3.14933 -1.14848,-6.69368 -1.42459,-10.00457c-0.10355,-1.24179 1.23932,-3.04271 0.20179,-3.73286c-0.77408,-0.51491 -4.48782,-0.42328 -4.94759,-0.43199z" fill="#edf5ff" stroke-width="0.5"/><path d="M51.8359,249.42743c-1.6999,-0.1268 -3.3276,-0.48382 -4.85484,-1.03825l-1.97997,-0.39891l-0.97017,-0.9856c-5.50227,-3.21815 -9.09995,-9.22795 -8.99639,-15.94312l-0.34494,-1.35324l0.68923,-1.91853c0.35756,-1.81313 0.98178,-3.52184 1.82761,-5.08732l0.27079,-0.75376l0.4931,-0.53016c1.5018,-2.30225 3.50791,-4.23258 5.84946,-5.64558l1.38431,-1.19213l0.29809,-0.20891l0.26116,-0.25356l5.03079,-3.99358l2.39789,-1.54136l0.21938,-0.0833l0.18843,-0.13985l2.59094,-1.18859l10.46162,-3.58848l1.41175,-0.33169l1.39758,-0.38708l13.27704,-2.28626l1.98465,-0.14086l0.1981,-0.04022l0.33074,0.00268l0.32992,-0.02342l0.20024,0.02772l1.98957,0.01613l2.4654,0.26674l0.57822,-0.12026l3.74419,-0.39611l0.78549,-0.21801l1.31504,0.17671l1.04242,-0.00597l2.05418,0.42208l2.07841,0.27929l0.98208,0.34956l1.29971,0.26706l0.66958,0.46496l0.97332,0.46015l3.68129,0.39829l2.14875,0.45225l0.17806,0.01574l0.22866,0.06987l0.23397,0.04924l0.16352,0.07221l2.09999,0.64164l6.06709,2.53803l0.4545,0.06753l0.62154,0.38261l0.27099,0.11336l2.50722,1.35629l1.02801,0.87339l1.14873,0.70714l2.06583,1.96419l0.19168,0.22258l0.55622,0.47256l0.2049,0.41127l0.92509,1.07422l6.91406,-1.84138l2.71944,-0.44057l0.03418,-0.00898l0.03031,-0.00147l0.02995,-0.00485l0.0353,0.00169l2.75166,-0.13346l15.59538,0.79922l1.78066,0.27071l0.20883,0.00238l0.41167,0.09196l0.41702,0.0634l0.1955,0.07342l1.75781,0.39264l7.10607,2.35041l1.9045,0.84845l0.18508,0.05613l0.25179,0.13849l0.26249,0.11694l0.15656,0.11355l1.82685,1.00481l4.15562,2.85846l1.28712,1.08897l1.30151,1.07173l4.09216,4.118l0.4168,0.25244l0.42955,0.59925l0.14123,0.14212l1.79813,2.21188l0.63542,1.23801l0.43896,0.61239l0.83962,0.35123l0.87718,-0.01785l2.21219,1.43085l1.52359,0.82419l0.7952,0.6756l2.39221,1.54728l0.7624,1.13286l1.04065,0.88413l0.6125,1.22936l6.25003,-0.60032l0.84899,0.00332l0.84458,-0.08644l18.93489,-0.04388l1.37307,0.13409l0.37915,0.01902l1.05619,-0.18188l1.10599,-0.0785l1.09665,-0.16355l29.59653,-1.43303l1.65987,0.08521l1.66102,0.05869l23.78761,3.23065l0.95107,0.22736l0.96789,0.13935l18.94586,4.68984l2.68516,0.95689l0.3246,0.19933l0.36488,0.10936l2.50217,1.36559l5.53016,3.7773l12.4802,-1.60081l0.21307,-0.00594l0.20874,-0.04315l26.41905,-2.76225l1.34557,-0.00606l1.34352,-0.07465l11.97483,0.52916l1.66323,0.24089l0.20569,-0.00052l0.47349,0.09889l0.47871,0.06933l0.19307,0.07096l1.64509,0.34356l6.04691,1.90733l1.06709,0.45773l12.56363,0.45263l1.42928,0.19513l1.43598,0.13743l23.67959,4.67887l1.5053,0.45699l0.19603,0.02803l0.50838,0.18581l0.51793,0.15724l0.17349,0.09548l1.47754,0.54006l24.94973,12.055l0.99409,0.60916l0.1196,0.04649l0.6523,0.42652l0.66453,0.40721l0.09317,0.08823l0.9758,0.63805l14.42313,11.63387l1.16879,1.15261l1.18962,1.1311l5.56894,6.4667l0.45751,0.33358l0.42196,0.70958l1.55349,2.21668l0.59539,1.39694l0.77615,1.3052l0.87226,2.56245l0.32369,0.75946l-0.0008,0.56621l1.1016,4.7383l0.32557,2.51446l0.28589,1.37156l-0.54627,2.71142l-0.22,2.75715l-0.65184,1.24016l-1.00413,2.32814l-2.08033,3.74667l-0.20109,0.64975l-0.75732,0.89105l-1.10954,1.5993l-1.25606,1.18402l-1.11788,1.31528l-1.54014,1.1903l-0.85094,0.80214l-0.63856,0.23423l-4.95373,3.09398l-1.77956,0.87864l-0.16846,0.11238l-0.30932,0.12352l-0.29865,0.14745l-0.1962,0.05015l-1.84314,0.736l-10.04555,2.89138l-1.24274,0.22689l-0.1414,0.0521l-0.71213,0.10373l-0.70794,0.12925l-0.15064,-0.00419l-1.25009,0.18208l-9.1324,0.411l-1.0826,-0.05927l-1.08388,0.02734l-10.4996,-0.78319l-1.47485,-0.25943l-1.48285,-0.20886l-6.43597,-1.57228l-2.68807,-0.94866l-0.47011,-0.28672l-0.52494,-0.16631l-2.48054,-1.40451l-1.54811,-1.09327l-1.31446,-0.46263l-4.91008,-6.6237l-0.01712,-0.07197l-0.04465,-0.059l-1.98843,-8.00178l0.47902,-1.30858l0.03752,-0.50295l0.49385,-2.80746l2.44417,-6.07513l0.75028,-0.74816l-3.95891,1.44394l-0.64092,0.1637l-0.61512,0.2433l-22.31745,6.34482l-1.12515,0.20163l-0.11481,0.04294l-0.78474,0.11826l-0.78116,0.13999l-0.12252,-0.00381l-1.13031,0.17033l-8.40467,0.41975l-0.787,0.17572l-1.30306,-0.24335l-1.12265,-0.05592l-1.98908,-0.5252l-2.02229,-0.37767l-0.94738,-0.39277l-1.08029,0.34135l-1.20371,0.25202l-1.18519,0.32826l-2.12348,0.36565l-0.03176,0.02747l-0.41614,0.04965l-3.32954,0.57333l-2.84341,0.20181l-0.14977,-0.02072l-1.44822,0.1728l-2.40536,-0.70614l-2.4832,-0.34368l-1.24958,-0.75215l-0.14507,-0.04259l-2.50985,-1.35143l-2.14919,-1.45023l-0.73812,-0.33477l-0.89512,-0.97895l-0.83647,-0.69499l-1.2871,-1.62747l-1.40016,-1.53129l-0.55195,-0.93704l-0.82284,-1.04043l-0.21215,-0.78223l-0.69712,-1.5095l-0.20447,-0.24056l-0.18974,-0.61304l-0.33569,-0.72686l-0.93173,-2.69399l-0.14176,-1.13192l-0.3373,-1.08976l-0.26126,-2.83856l0.00632,-0.80061l-0.07975,-0.63676l0.08716,-0.30345l0.02071,-2.62664l-0.19852,0.25928l-1.33666,1.91021l-0.44333,0.41455l-0.78362,1.02345l-0.78206,0.44058l-0.0731,0.06835l-6.9491,5.30677l-2.38019,1.46757l-0.01629,0.01231l-0.01542,0.00724l-0.0145,0.00894l-0.01922,0.00689l-2.53123,1.18826l-15.33038,5.40973l-1.27366,0.3111l-1.25471,0.38041l-21.4313,4.22651l-0.82384,0.07854l-0.81052,0.16709l-18.34582,1.90817l-0.41454,0.00165l-0.4094,0.06513l-5.48484,0.31901l-2.8481,-0.11846l-1.30655,-0.33356l-2.2916,0.0965l-1.8874,-1.16338l-0.85932,-0.21938l-2.06104,-1.58072l-2.21111,-1.36292l-0.51105,-0.72484l-1.7593,-1.34929l-0.72598,-2.1757l-0.77702,-1.10208l-1.12506,-2.61915l-0.58908,-1.86429l-0.58414,-2.79007l0.0007,-0.34786l-0.66382,-1.71042l0.67314,-2.95104l0.0001,-0.0501l-12.49781,-2.58756l-2.27564,-0.71349l-0.14028,-0.02742l-0.14931,-0.06337l-0.15477,-0.04853l-0.12459,-0.07005l-2.1953,-0.93182l-1.35044,-0.73964l-0.5444,4.66168l-0.02669,1.60091l-2.24856,3.20939l-1.94903,3.39964l-1.43769,0.70473l-4.66006,2.89152l-2.68069,0.96932l-2.22634,0.56207l-2.81955,0.4193l-0.06314,-0.00384l-0.06154,0.01464l-2.84965,0.07187l-6.51699,-0.48612l-2.80746,-0.49384l-0.05869,-0.02361l-0.06301,-0.00557l-2.72615,-0.83296l-10.07942,-4.21649l-3.3564,-1.16865l-0.42555,-0.03452l-0.63462,-0.33462l-0.38193,-0.13298l-2.58542,-1.20055l-1.04044,-0.77969l-1.15008,-0.60641l-2.19191,-1.82243l-0.2837,-0.28821l-0.57411,-0.43024l-0.21339,-0.36979l-1.06807,-1.08506l-0.18373,-0.04927l-13.48247,-1.00569l-2.62115,-0.46107l-0.06681,-0.00498l-0.059,-0.01714l-0.06051,-0.01064l-0.06215,-0.025l-2.55565,-0.74275l-7.77617,-3.12853l-2.52556,-1.32183l-0.31922,-0.26376l-0.37558,-0.17439l-2.28118,-1.70936l-5.17697,-4.75315l-0.2719,-0.13785l-0.40535,-0.48395l-0.61973,-0.569l-1.89752,-2.12723l-0.55934,-0.97691l-0.72283,-0.86298l-1.33868,-2.51667l-0.31924,-0.77841l-0.31367,-0.54784l-0.03519,-0.30281l-0.17573,-0.4285l-7.09295,3.16316l-1.83347,0.60723l-0.18504,0.08991l-0.34753,0.08648l-0.33997,0.11259l-0.20445,0.02288l-1.87426,0.46639l-13.25004,1.92421l-1.02252,0.04558l-0.08703,0.0207l-0.86939,0.02192l-0.86881,0.03873l-0.08825,-0.01459l-1.02321,0.02581l-2.8677,-0.21391l-0.85868,0.3002l-2.58963,-0.68378l-1.56022,-0.27445l-0.99449,-0.4001l-2.82758,-0.74661l-1.03513,-0.80745l-1.21793,-0.49l-2.065,-2.07084l-0.84522,-0.65931l-1.0205,-1.21169l-1.89123,-1.89658l-0.17135,-0.89336l-0.06639,-0.09699l-0.65337,-1.19422l-0.88229,-1.19021l-0.76588,-3.21874l-0.95318,-3.16833l0.16569,-1.47227l-0.03432,-1.36084l0.32408,-4.34466l0.01114,-0.0633l-0.57349,0.11954l-0.8142,-0.16403c-0.14429,-0.00736 -0.28886,-0.01644 -0.43372,-0.02724zM441.53165,305.43684l-3.27892,-2.64482l-9.23761,-4.46336l-0.01236,0.01887l-1.25552,0.83446l-1.64076,1.32929l-1.50942,0.9916l0.9076,-0.17409l10.25467,3.60921l0.05357,0.07226z" fill="#76869a" stroke-width="0.5"/></g></g></svg>