<svg version="1.1" xmlns="http://www.w3.org/2000/svg" xmlns:xlink="http://www.w3.org/1999/xlink" width="59.97611" height="130.94387" viewBox="0,0,59.97611,130.94387"><g transform="translate(-204.67958,-138.30598)"><g data-paper-data="{&quot;isPaintingLayer&quot;:true}" fill-rule="nonzero" stroke-linejoin="miter" stroke-miterlimit="10" stroke-dasharray="" stroke-dashoffset="0" style="mix-blend-mode: normal"><path d="M259.69907,177.46996c0,0 4.31791,16.76076 -6.52615,25.96745c-9.30257,7.89795 -15.14052,-11.11566 -15.14052,-11.11566c0,0 -10.46321,1.172 -17.37987,11.21162c-6.62705,9.61923 -7.45346,19.78837 -7.45346,19.78837" fill="none" stroke="#000000" stroke-width="2" stroke-linecap="round"/><path d="M247.36175,262.52811c0,0 2.47305,-12.05626 -1.08174,-20.44703c-3.86729,-9.12841 -11.0754,-11.63173 -11.0754,-11.63173c0,0 -5.123,-12.12189 -1.82757,-25.72469c3.17566,-13.1084 8.16031,-17.92807 8.16031,-17.92807" fill="none" stroke="#000000" stroke-width="2" stroke-linecap="round"/><path d="M263.65569,168.72896c0,11.27936 -9.14372,20.42308 -20.42308,20.42308c-11.27936,0 -20.42309,-9.14372 -20.42309,-20.42308c0,-11.27936 9.14373,-20.42308 20.42309,-20.42308c11.27936,0 20.42308,9.14373 20.42308,20.42308z" fill="#ebf5ff" stroke="#000000" stroke-width="2" stroke-linecap="butt"/><path d="M262.08797,168.15938c0,9.70549 -7.86786,17.57335 -17.57335,17.57335c-9.70549,0 -17.57335,-7.86786 -17.57335,-17.57335c0,-9.70549 7.86786,-17.57335 17.57335,-17.57335c9.70549,0 17.57335,7.86786 17.57335,17.57335z" fill="#ffffff" stroke="none" stroke-width="0" stroke-linecap="butt"/><path d="M250.65213,152.38175c0,0 6.10962,5.36487 7.49818,12.93693c1.55243,8.46573 -1.92285,14.56039 -1.92285,14.56039" fill="none" stroke="#000000" stroke-width="2" stroke-linecap="round"/><path d="M235.06299,230.52593c0,0 -2.45818,13.13508 -3.98128,19.39726c-3.03759,10.01135 -10.53453,17.24936 -10.53453,17.24936" fill="none" stroke="#000000" stroke-width="2" stroke-linecap="round"/><path d="M233.75619,267.42782c0,2.41207 -13.55712,0 -13.55712,0c0,0 3.03486,-4.36744 6.77856,-4.36744c3.7437,0 6.77856,1.95537 6.77856,4.36744z" fill="#9a5e4f" stroke="#000000" stroke-width="1.5" stroke-linecap="butt"/><path d="M260.75619,263.03132c0,2.17917 -13.55712,0 -13.55712,0c0,0 3.03486,-3.94573 6.77856,-3.94573c3.74369,0 6.77856,1.76657 6.77856,3.94573z" fill="#9a5e4f" stroke="#000000" stroke-width="1.5" stroke-linecap="butt"/><path d="M209.92399,230.82489c-1.09793,2.77563 -0.88197,5.46922 -2.76447,5.76849c-2.32769,0.37005 -2.09176,-3.43702 -0.56059,-6.80403c1.67614,-3.6858 5.70874,-6.21085 5.70874,-6.21085c0,0 -1.28576,4.47076 -2.38368,7.24639z" fill="#ffffff" stroke="#000000" stroke-width="1.5" stroke-linecap="butt"/><path d="M212.52554,231.4752c-0.19147,2.97875 0.8421,5.4755 -0.85724,6.339c-2.1012,1.06771 -3.04708,-2.62752 -2.62515,-6.3022c0.46187,-4.02259 3.52294,-7.66507 3.52294,-7.66507c0,0 0.15092,4.64953 -0.04055,7.62827z" fill="#ffffff" stroke="#000000" stroke-width="1.5" stroke-linecap="butt"/><path d="M214.11526,223.66685c0,0 2.85878,1.84459 4.2193,4.33845c1.24285,2.27817 1.64924,4.78352 0.07017,4.43125c-1.27706,-0.2849 -1.30883,-2.03943 -2.22363,-3.90971c-0.9148,-1.87028 -2.06585,-4.86 -2.06585,-4.86z" data-paper-data="{&quot;index&quot;:null}" fill="#ffffff" stroke="#000000" stroke-width="1.5" stroke-linecap="butt"/><g stroke="none" stroke-linecap="butt"><g><path d="M239.22384,182.69177c-0.01306,0.64868 -0.75899,1.15673 -1.6661,1.13478c-0.9071,-0.02195 -1.63188,-0.5656 -1.61882,-1.21427c0.01306,-0.64868 0.759,-1.15674 1.6661,-1.13479c0.9071,0.02195 1.63187,0.56561 1.61881,1.21429z" fill="#c05f5f" stroke-width="0"/><path d="M238.622,182.79591l0.13293,-0.08845c-0.09793,-0.34387 -0.38412,-0.66542 -0.70128,-0.75941c0,0 -0.19274,-0.08217 -0.33645,-0.2712c-0.28729,0.07487 -0.56653,0.18737 -0.83776,0.3794c-0.15108,0.10696 -1.24301,1.23037 -0.38586,1.24979c0.67048,0.01519 1.40256,-0.09399 2.13318,-0.21257c-0.02462,-0.16597 -0.00476,-0.29757 -0.00476,-0.29757zM240.13384,182.06005l-0.02588,0.81326c0.11155,-0.01235 0.22196,-0.02292 0.33097,-0.03125l0.56783,0.01036c0,0 0.74982,0.01815 0.73327,0.84032c-0.01655,0.82218 -0.76637,0.80403 -0.76637,0.80403l-0.43193,-0.01383c-1.1252,0.08361 -3.32557,0.74197 -4.36041,0.4318c-4.33493,-1.29932 0.85621,-4.77385 2.6086,-5.07963c0,0 0.74068,-0.12922 0.85853,0.68293c0.0405,0.2791 -0.02039,0.47756 -0.11777,0.61782c0.24633,0.27341 0.45349,0.58896 0.60316,0.92417z" fill="#000000" stroke-width="0.5"/></g><path d="M241.15399,179.97481c0.14651,0.80653 -0.58905,0.96717 -0.58905,0.96717l-0.42077,0.04886c-0.24119,0.15085 -0.48238,0.30169 -0.72357,0.45254c0,0 -0.65148,0.40745 -1.02306,-0.3069c-0.37159,-0.71435 0.27989,-1.12179 0.27989,-1.12179c0.24119,-0.15085 0.48238,-0.30169 0.72357,-0.45253l0.87094,-0.23324c0,0 0.73555,-0.16064 0.88206,0.64589z" fill="#000000" stroke-width="0.5"/></g><path d="M247.42637,141.98281c0,0 0.28229,-1.14435 1.11368,-2.01435c1.23081,-1.28799 1.87564,-0.83538 1.87564,-0.83538" fill="none" stroke="#000000" stroke-width="1.5" stroke-linecap="round"/><path d="M253.3355,139.13309c0,0 1.03334,-0.12126 1.5666,0.41451c0.53326,0.53577 0.79706,1.96026 0.79706,1.96026" fill="none" stroke="#000000" stroke-width="1.5" stroke-linecap="round"/></g></g></svg>