<svg version="1.1" xmlns="http://www.w3.org/2000/svg" xmlns:xlink="http://www.w3.org/1999/xlink" width="63.88396" height="130.94387" viewBox="0,0,63.88396,130.94387"><defs><linearGradient x1="236.7963" y1="193.32959" x2="233.92535" y2="211.88493" gradientUnits="userSpaceOnUse" id="color-1"><stop offset="0" stop-color="#606060"/><stop offset="1" stop-color="#191919"/></linearGradient></defs><g transform="translate(-204.67958,-138.30597)"><g data-paper-data="{&quot;isPaintingLayer&quot;:true}" fill-rule="nonzero" stroke-linejoin="miter" stroke-miterlimit="10" stroke-dasharray="" stroke-dashoffset="0" style="mix-blend-mode: normal"><path d="M259.69907,177.46996c0,0 4.31791,16.76076 -6.52615,25.96745c-9.30257,7.89795 -15.14052,-11.11566 -15.14052,-11.11566c0,0 -10.46321,1.172 -17.37987,11.21162c-6.62705,9.61923 -7.45346,19.78837 -7.45346,19.78837" fill="none" stroke="#000000" stroke-width="2" stroke-linecap="round"/><path d="M247.36175,262.52811c0,0 2.47305,-12.05626 -1.08174,-20.44703c-3.86729,-9.12841 -11.0754,-11.63173 -11.0754,-11.63173c0,0 -5.123,-12.12189 -1.82757,-25.72469c3.17566,-13.1084 8.16031,-17.92807 8.16031,-17.92807" fill="none" stroke="#000000" stroke-width="2" stroke-linecap="round"/><path d="M263.65569,168.72896c0,11.27936 -9.14372,20.42308 -20.42308,20.42308c-11.27936,0 -20.42309,-9.14372 -20.42309,-20.42308c0,-11.27936 9.14373,-20.42308 20.42309,-20.42308c11.27936,0 20.42308,9.14373 20.42308,20.42308z" fill="#ebf5ff" stroke="#000000" stroke-width="2" stroke-linecap="butt"/><path d="M262.08797,168.15938c0,9.70549 -7.86786,17.57335 -17.57335,17.57335c-9.70549,0 -17.57335,-7.86786 -17.57335,-17.57335c0,-9.70549 7.86786,-17.57335 17.57335,-17.57335c9.70549,0 17.57335,7.86786 17.57335,17.57335z" fill="#ffffff" stroke="none" stroke-width="0" stroke-linecap="butt"/><path d="M230.09132,189.01382c0,0 -10.08123,-10.57455 -11.13242,-19.87991c-0.92759,-8.21113 2.63111,-15.96491 3.10585,-16.35522c1.398,-1.14938 5.45916,-3.33474 5.45916,-3.33474l-0.26596,-6.38485c0,0 3.88124,2.73719 7.08224,2.82005c1.86383,0.04825 4.16538,-2.06325 7.39577,-2.50765c4.59101,-0.63159 10.04119,0.32231 10.04119,0.32231c0,0 3.09954,2.55297 6.0715,6.51606c2.74898,3.66574 5.35267,8.64716 6.15344,11.33056c0.28021,0.93901 1.72607,3.40046 1.92219,6.13378c0.22507,3.13672 -0.82978,6.5943 -1.01627,7.89336c-0.2616,1.82233 -1.49438,-3.13664 -1.49438,-3.13664l-1.98746,3.59718c0,0 1.81012,1.2641 0.96509,-0.87927c-1.05905,-2.68621 1.50304,-7.90572 0.02203,-12.36875c-0.7426,-2.23783 -12.22623,-7.58856 -14.77911,-8.88528c-2.64361,-1.34281 -6.08521,-1.96972 -6.08521,-1.96972c0,0 -0.82167,1.01581 -2.80286,3.02601c-3.40533,3.4552 -8.95551,9.46602 -10.39966,15.54644c-1.57998,6.65237 5.42905,14.42464 4.74404,16.47825c-0.5934,1.77898 -2.35531,-2.63159 -2.35531,-2.63159z" data-paper-data="{&quot;index&quot;:null}" fill="#2f2f2f" stroke="none" stroke-width="0" stroke-linecap="butt"/><path d="M235.06299,230.52593c0,0 -2.45818,13.13508 -3.98128,19.39726c-3.03759,10.01135 -10.53453,17.24936 -10.53453,17.24936" fill="none" stroke="#000000" stroke-width="2" stroke-linecap="round"/><path d="M250.65213,152.38175c0,0 6.10962,5.36487 7.49818,12.93693c1.55243,8.46573 -1.92285,14.56039 -1.92285,14.56039" fill="none" stroke="#000000" stroke-width="2" stroke-linecap="round"/><path d="M233.75619,267.42782c0,2.41207 -13.55712,0 -13.55712,0c0,0 3.03486,-4.36744 6.77856,-4.36744c3.7437,0 6.77856,1.95537 6.77856,4.36744z" fill="#9a5e4f" stroke="#000000" stroke-width="1.5" stroke-linecap="butt"/><path d="M260.75619,263.03132c0,2.17917 -13.55712,0 -13.55712,0c0,0 3.03486,-3.94573 6.77856,-3.94573c3.74369,0 6.77856,1.76657 6.77856,3.94573z" fill="#9a5e4f" stroke="#000000" stroke-width="1.5" stroke-linecap="butt"/><path d="M209.92399,230.82489c-1.09793,2.77563 -0.88197,5.46922 -2.76447,5.76849c-2.32769,0.37005 -2.09176,-3.43702 -0.56059,-6.80403c1.67614,-3.6858 5.70874,-6.21085 5.70874,-6.21085c0,0 -1.28576,4.47076 -2.38368,7.24639z" fill="#ffffff" stroke="#000000" stroke-width="1.5" stroke-linecap="butt"/><path d="M212.52554,231.4752c-0.19147,2.97875 0.8421,5.4755 -0.85724,6.339c-2.1012,1.06771 -3.04708,-2.62752 -2.62515,-6.3022c0.46187,-4.02259 3.52294,-7.66507 3.52294,-7.66507c0,0 0.15092,4.64953 -0.04055,7.62827z" fill="#ffffff" stroke="#000000" stroke-width="1.5" stroke-linecap="butt"/><path d="M214.11526,223.66685c0,0 2.85878,1.84459 4.2193,4.33845c1.24285,2.27817 1.64924,4.78352 0.07017,4.43125c-1.27706,-0.2849 -1.30883,-2.03943 -2.22363,-3.90971c-0.9148,-1.87028 -2.06585,-4.86 -2.06585,-4.86z" data-paper-data="{&quot;index&quot;:null}" fill="#ffffff" stroke="#000000" stroke-width="1.5" stroke-linecap="butt"/><g stroke="none" stroke-linecap="butt"><g><path d="M239.22384,182.69177c-0.01306,0.64868 -0.75899,1.15673 -1.6661,1.13478c-0.9071,-0.02195 -1.63188,-0.5656 -1.61882,-1.21427c0.01306,-0.64868 0.759,-1.15674 1.6661,-1.13479c0.9071,0.02195 1.63187,0.56561 1.61881,1.21429z" fill="#c05f5f" stroke-width="0"/><path d="M238.622,182.79591l0.13293,-0.08845c-0.09793,-0.34387 -0.38412,-0.66542 -0.70128,-0.75941c0,0 -0.19274,-0.08217 -0.33645,-0.2712c-0.28729,0.07487 -0.56653,0.18737 -0.83776,0.3794c-0.15108,0.10696 -1.24301,1.23037 -0.38586,1.24979c0.67048,0.01519 1.40256,-0.09399 2.13318,-0.21257c-0.02462,-0.16597 -0.00476,-0.29757 -0.00476,-0.29757zM240.13384,182.06005l-0.02588,0.81326c0.11155,-0.01235 0.22196,-0.02292 0.33097,-0.03125l0.56783,0.01036c0,0 0.74982,0.01815 0.73327,0.84032c-0.01655,0.82218 -0.76637,0.80403 -0.76637,0.80403l-0.43193,-0.01383c-1.1252,0.08361 -3.32557,0.74197 -4.36041,0.4318c-4.33493,-1.29932 0.85621,-4.77385 2.6086,-5.07963c0,0 0.74068,-0.12922 0.85853,0.68293c0.0405,0.2791 -0.02039,0.47756 -0.11777,0.61782c0.24633,0.27341 0.45349,0.58896 0.60316,0.92417z" fill="#000000" stroke-width="0.5"/></g><path d="M241.15399,179.97481c0.14651,0.80653 -0.58905,0.96717 -0.58905,0.96717l-0.42077,0.04886c-0.24119,0.15085 -0.48238,0.30169 -0.72357,0.45254c0,0 -0.65148,0.40745 -1.02306,-0.3069c-0.37159,-0.71435 0.27989,-1.12179 0.27989,-1.12179c0.24119,-0.15085 0.48238,-0.30169 0.72357,-0.45253l0.87094,-0.23324c0,0 0.73555,-0.16064 0.88206,0.64589z" fill="#000000" stroke-width="0.5"/></g><path d="M247.42637,141.98281c0,0 0.28229,-1.14435 1.11368,-2.01435c1.23081,-1.28799 1.87564,-0.83538 1.87564,-0.83538" fill="none" stroke="#000000" stroke-width="1.5" stroke-linecap="round"/><path d="M253.3355,139.13309c0,0 1.03334,-0.12126 1.5666,0.41451c0.53326,0.53577 0.79706,1.96026 0.79706,1.96026" fill="none" stroke="#000000" stroke-width="1.5" stroke-linecap="round"/><path d="M247.36176,262.52811c0,0 2.47305,-12.05626 -1.08174,-20.44703c-3.86729,-9.12841 -11.0754,-11.63173 -11.0754,-11.63173c0,0 -5.123,-12.12189 -1.82757,-25.72469c3.17566,-13.1084 8.16031,-17.92807 8.16031,-17.92807" fill="none" stroke="#5f5f5f" stroke-width="2" stroke-linecap="round"/><path d="M235.063,230.52593c0,0 -2.45818,13.13508 -3.98128,19.39726c-3.03759,10.01135 -10.53453,17.24936 -10.53453,17.24936" fill="none" stroke="#5f5f5f" stroke-width="2" stroke-linecap="round"/><path d="M233.7562,267.42782c0,2.41207 -13.55712,0 -13.55712,0c0,0 3.03486,-4.36744 6.77856,-4.36744c3.7437,0 6.77856,1.95537 6.77856,4.36744z" fill="#5f5f5f" stroke="#000000" stroke-width="1.5" stroke-linecap="butt"/><path d="M260.7562,263.03132c0,2.17917 -13.55712,0 -13.55712,0c0,0 3.03486,-3.94573 6.77856,-3.94573c3.74369,0 6.77856,1.76657 6.77856,3.94573z" fill="#5f5f5f" stroke="#000000" stroke-width="1.5" stroke-linecap="butt"/><path d="M252.85602,153.54103c0,0 -6.79245,-2.63584 -9.84819,-4.66154c-1.88375,-1.24877 5.39186,2.41062 5.39186,2.41062c0,0 -0.87633,-2.74708 -0.18264,-1.58931c1.19575,1.99572 3.08076,1.98622 3.08076,1.98622c0,0 0.51528,-3.00672 0.40438,-1.6168c-0.21695,2.71901 1.22732,3.40456 1.22732,3.40456l-9.18899,-2.49913l7.74076,0.93183l1.37473,1.63354z" data-paper-data="{&quot;index&quot;:null}" fill="#000000" stroke="#000000" stroke-width="0.5" stroke-linecap="round"/><path d="M238.97099,212.6656c0,0 -3.32753,-0.57471 -4.87558,-0.84599c-1.67722,-0.29392 -4.83129,-0.85507 -4.83129,-0.85507c0,0 0.56998,-4.67526 0.99803,-7.44179c0.4212,-2.72226 -2.17775,-8.07844 -0.57657,-10.15246c0.5732,-0.74247 1.87633,-3.72119 3.95408,-3.39971c1.54794,0.2395 6.15277,2.13032 7.63154,1.16601c0.57183,-0.37289 1.2715,3.0821 1.2715,3.0821c0,0 0.69228,0.51089 0.92443,1.28394c1.05306,3.50669 -3.44763,7.41218 -3.84981,10.01155c-0.44319,2.86436 -0.64634,7.15142 -0.64634,7.15142z" data-paper-data="{&quot;index&quot;:null}" fill="url(#color-1)" stroke="#1c1c1c" stroke-width="0.5" stroke-linecap="butt"/><g data-paper-data="{&quot;index&quot;:null}" stroke="#000000" stroke-width="0.7" stroke-linecap="butt"><path d="M261.62868,177.42846c1.42639,-2.29561 2.53549,-6.05893 2.21437,-9.67361c-0.41012,-4.61684 -3.16666,-8.98472 -4.59424,-11.07524c-0.51283,-0.75098 -2.78179,-1.34455 -2.00489,-1.35879c2.50997,-0.04599 4.92655,0.5642 6.85866,2.06909c2.31213,1.80089 3.92571,4.76519 4.11097,7.82115c0.381,6.28451 -0.83746,8.69268 -3.27084,10.51128c-1.72274,1.28751 -5.55503,3.85005 -5.55503,3.85005c0,0 1.49906,-0.94985 2.241,-2.14395z" data-paper-data="{&quot;index&quot;:null}" fill="#5f5f5f"/><path d="M264.61027,166.5759c2.23624,12.81686 -4.96801,12.85882 -4.96801,12.85882c0,0 4.50771,-3.79701 2.54588,-15.22536c-1.1788,-6.86683 -5.576,-8.80599 -5.576,-8.80599c0,0 5.34886,-4.01154 7.99813,11.17254z" data-paper-data="{&quot;index&quot;:null}" fill="#b1b1b1"/><path d="M260.17847,155.85761c-3.98767,-5.6753 -9.29533,-6.74773 -9.29533,-6.74773l-0.161,-1.56005c0,0 8.98135,0.59682 12.10082,7.98778c5.47656,12.97562 1.35681,12.89822 1.35681,12.89822c0,0 -1.45689,-8.95698 -4.00131,-12.57822z" data-paper-data="{&quot;index&quot;:null}" fill="#5f5f5f"/><path d="M229.13585,183.93189c-1.4162,-0.34431 -2.52448,-0.9695 -2.52448,-0.9695l-1.62546,-23.33265c0,0 3.78869,-1.02465 4.7718,-1.16454c0.42461,-0.0604 1.02915,0.33909 1.02915,0.33909c0,0 9.41521,9.21875 3.48064,24.23158c-0.58479,1.47936 -3.14165,1.37985 -5.13164,0.89601z" data-paper-data="{&quot;index&quot;:null}" fill="#b1b1b1"/><path d="M229.40648,182.98658c-2.22129,0.50584 -5.0311,-0.35317 -7.04283,-1.16956c-2.84154,-1.15319 -4.66658,-3.15873 -5.98592,-9.24283c-1.17766,-5.43073 2.63726,-11.25443 7.9961,-12.47472c5.35884,-1.2203 10.39151,21.66682 5.03265,22.88713z" data-paper-data="{&quot;index&quot;:null}" fill="#5f5f5f"/><path d="M227.17273,174.9061c0,0 -0.04932,-3.00198 -0.73281,-6.86178c-0.48371,-2.73153 -1.50254,-6.42033 -2.08336,-7.44314c-0.79626,-1.40222 -3.00068,1.18957 -3.72958,-0.55693c-0.14321,-0.34312 0.48333,-1.78253 2.24147,-2.03224c1.07148,-0.15218 2.82623,-0.75297 4.32003,2.1898c4.72325,9.30466 2.77474,15.22507 2.77474,15.22507c0,0 -0.38317,0.64234 -1.38219,0.67686c-0.96304,0.03328 -1.40831,-1.19765 -1.40831,-1.19765z" data-paper-data="{&quot;index&quot;:null}" fill="#5f5f5f"/><path d="M231.64804,151.12255c0,0 -3.90029,0.41264 -5.61292,2.92241c-0.87154,1.27718 -0.78909,4.42673 -0.78909,4.42673c0,0 -1.19485,1.09094 -2.2198,1.05304c-1.02589,-0.03792 -1.54607,-1.24159 -1.54607,-1.24159c0,0 1.35553,-4.44262 2.6103,-5.93871c2.64677,-3.15586 6.96769,-3.12472 6.96769,-3.12472l0.58991,1.90283z" data-paper-data="{&quot;index&quot;:null}" fill="#5f5f5f"/><path d="M251.06599,149.24792c0,0 -7.32035,0.66311 -9.05843,0.91994c-3.3389,0.49338 -9.53534,1.82763 -9.53534,1.82763c0,0 -0.4937,-0.0988 -0.67142,-0.32558c-0.26356,-0.33631 -0.7565,-1.49656 -0.7565,-1.49656l19.74558,-3.17504c0,0 0.32729,1.07996 0.37824,1.49504c0.03465,0.28229 -0.10215,0.75455 -0.10215,0.75455z" data-paper-data="{&quot;index&quot;:null}" fill="#b1b1b1"/><path d="M250.80822,147.53381c0,0 -7.06142,0.6895 -10.2828,1.1789c-3.31398,0.50349 -9.33113,1.80099 -9.33113,1.80099c0,0 -2.02272,0.17218 -2.24159,-0.48983c-0.42134,-1.27429 0.7027,-1.89083 0.7027,-1.89083c0,0 7.46044,-1.54091 10.96469,-2.01837c3.41587,-0.4654 9.80246,-0.81117 9.80246,-0.81117c0,0 0.47994,0.02997 0.89819,1.18541c0.28825,0.79631 -0.5125,1.04491 -0.5125,1.04491z" data-paper-data="{&quot;index&quot;:null}" fill="#5f5f5f"/><path d="M231.88494,185.59486c0,0 0.16845,0.78497 -0.01053,0.95153c-0.33871,0.31519 -1.86936,0.79796 -1.86936,0.79796l-6.88825,-4.21259l2.78332,-0.88157z" data-paper-data="{&quot;index&quot;:null}" fill="#b1b1b1"/><path d="M222.33156,183.16605c0,0 -4.57635,-1.90558 -2.73029,-3.71416c2.45379,-2.40395 6.56762,2.75773 6.56762,2.75773c0,0 -1.24403,0.61196 -1.95006,0.78792c-0.50275,0.1253 -1.88728,0.16851 -1.88728,0.16851z" data-paper-data="{&quot;index&quot;:null}" fill="#b1b1b1"/><path d="M235.81575,188.1891c-1.11403,0.25368 -3.28385,0.25225 -3.28385,0.25225l-0.59556,-2.38332c0,0 1.79222,-0.21543 2.81741,-0.32771c1.41106,-0.15452 4.8675,-0.51383 4.8675,-0.51383l0.82734,1.42205c0,0 -3.19267,1.22255 -4.63285,1.55052z" data-paper-data="{&quot;index&quot;:null}" fill="#b1b1b1"/><path d="M233.66891,189.18507c0,0 -0.44215,0.49658 -2.63118,-0.22671c-2.01583,-0.66604 -2.26388,-1.96212 -2.26388,-1.96212c0,0 0.96795,-0.79863 1.52347,-1.05676c0.60253,-0.27998 1.96218,-0.56287 1.96218,-0.56287c0,0 0.60539,1.17702 0.83168,1.78847c0.2424,0.65503 0.57771,2.02 0.57771,2.02z" data-paper-data="{&quot;index&quot;:null}" fill="#b1b1b1"/><g data-paper-data="{&quot;index&quot;:null}"><path d="M248.50099,184.23947c0.42074,1.6837 -1.14937,2.90364 -3.81012,3.50954c-2.66073,0.60589 -4.73435,0.2157 -5.1551,-1.46799c-0.42075,-1.68368 1.21938,-2.62335 3.88013,-3.22925c2.66074,-0.60591 4.66434,-0.49599 5.08508,1.18769z" fill="#5f5f5f"/><g fill="#b1b1b1"><path d="M245.30235,184.93431c-0.18685,0.04255 -0.37475,-0.06873 -0.41968,-0.24855c-0.04493,-0.17982 0.0701,-0.36009 0.25695,-0.40264c0.18685,-0.04255 0.37475,0.06873 0.41968,0.24855c0.04495,0.17983 -0.0701,0.36009 -0.25695,0.40264z"/><path d="M246.47165,184.8057c-0.18685,0.04255 -0.37475,-0.06875 -0.41968,-0.24857c-0.04493,-0.17982 0.07009,-0.36007 0.25694,-0.40262c0.18685,-0.04255 0.37475,0.06873 0.41968,0.24855c0.04495,0.17983 -0.0701,0.36009 -0.25695,0.40264z"/><path d="M247.45459,184.38916c-0.18685,0.04255 -0.37475,-0.06873 -0.41968,-0.24855c-0.04495,-0.17983 0.0701,-0.36009 0.25695,-0.40264c0.18684,-0.04254 0.37475,0.06874 0.41968,0.24856c0.04495,0.17983 -0.07009,0.36007 -0.25694,0.40263z"/><path d="M246.20376,183.84811c-0.18684,0.04254 -0.37475,-0.06873 -0.41968,-0.24855c-0.04495,-0.17983 0.0701,-0.36008 0.25695,-0.40264c0.18685,-0.04255 0.37476,0.06873 0.41969,0.24855c0.04495,0.17983 -0.0701,0.36008 -0.25695,0.40264z"/><path d="M245.20335,183.9658c-0.18685,0.04255 -0.37474,-0.06872 -0.41967,-0.24854c-0.04495,-0.17983 0.0701,-0.36009 0.25695,-0.40264c0.18685,-0.04255 0.37474,0.06872 0.41967,0.24854c0.04495,0.17983 -0.0701,0.36008 -0.25695,0.40264z"/></g></g></g></g></g></svg>