<svg version="1.1" xmlns="http://www.w3.org/2000/svg" xmlns:xlink="http://www.w3.org/1999/xlink" width="335.19408" height="265.01693" viewBox="0,0,335.19408,265.01693"><g transform="translate(-103.33202,-17.30016)"><g data-paper-data="{&quot;isPaintingLayer&quot;:true}" fill-rule="nonzero" stroke-linejoin="miter" stroke-miterlimit="10" stroke-dasharray="" stroke-dashoffset="0" style="mix-blend-mode: normal"><g stroke-width="1.5" stroke-linecap="butt"><path d="M243.15052,272.48121c-5.1397,7.45416 -15.12234,11.42139 -21.81129,7.62181c-6.68895,-3.79959 -8.73261,-12.52236 -4.26053,-20.3952c4.47208,-7.87284 16.23173,-17.46141 26.49539,-10.82671c6.4605,4.17623 4.66485,16.22033 -0.42356,23.60011z" fill="#43423e" stroke="#000000"/><path d="M240.26424,271.70599c-4.6308,5.84524 -11.41129,7.49193 -15.14464,3.67797c-3.73335,-3.81395 -3.00582,-11.64428 1.62498,-17.48952c4.6308,-5.84524 11.41129,-7.49193 15.14464,-3.67797c3.73335,3.81395 3.00582,11.64428 -1.62498,17.48952z" fill="#c1cbcd" stroke="#000000"/><path d="M238.17766,269.82971c-3.49883,4.41641 -8.49453,5.79065 -11.15822,3.06946c-2.66368,-2.72119 -1.98666,-8.50736 1.51217,-12.92376c3.49883,-4.41641 8.49453,-5.79065 11.15822,-3.06946c2.66368,2.72119 1.98666,8.50736 -1.51217,12.92376z" fill="none" stroke="#8b9394"/></g><path d="M234.53363,264.46995c-0.50705,1.01459 -26.0558,-13.43411 -26.0558,-13.43411l0.82342,-1.79214c0,0 25.69116,14.30824 25.23238,15.22625z" fill="#cbd4d1" stroke="#000000" stroke-width="1" stroke-linecap="butt"/><g stroke="#002c07" stroke-width="1.5"><path d="M276.33684,81.56321l-1.68107,11.86643" fill="none" stroke-linecap="round"/><path d="M278.61124,78.99214c0,1.03766 -0.79692,1.87885 -1.77997,1.87885c-0.98305,0 -1.77997,-0.84119 -1.77997,-1.87885c0,-1.03766 0.79692,-1.87886 1.77997,-1.87886c0.98305,0 1.77997,0.84119 1.77997,1.87886z" fill="#597357" stroke-linecap="butt"/></g><path d="M166.70111,255.67573l-35.34069,-69.39627c0,0 6.97574,-12.31636 18.16441,-23.27803c4.9974,-5.08457 15.38993,-13.39261 15.38993,-13.39261l56.70153,-20.70518l109.90096,-0.13312c0,0 23.46237,-1.96873 28.35791,-5.60627c6.62338,-4.92139 8.56005,-11.41172 8.56005,-11.41172c0,0 6.7344,6.72861 8.77219,9.49359c1.79687,2.43807 2.82299,6.23929 2.82299,6.23929c0,0 -13.76588,19.73659 -36.42342,39.78778c-21.93183,19.40895 -53.53341,36.59766 -73.55804,47.3191c-35.124,18.80583 -103.34782,41.08346 -103.34782,41.08346z" fill="#fffd94" stroke="#002c07" stroke-width="1.5" stroke-linecap="butt"/><path d="M135.85832,180.81772l29.55767,-30.52151l56.38564,-21.29684l53.46148,8.5802l-74.50643,32.95722l-37.58965,35.01942z" fill="#fffd94" stroke="none" stroke-width="0" stroke-linecap="butt"/><path d="M134.89447,183.06667c0,0 9.65338,-12.22459 14.6362,-17.52888c4.97682,-5.2979 15.24275,-14.27774 15.24275,-14.27774c0,0 13.51765,6.76395 18.23476,10.13331c5.01063,3.57902 11.00164,10.74982 11.00164,10.74982l-32.1279,31.16407z" fill="#354245" stroke="#000000" stroke-width="1.5" stroke-linecap="round"/><path d="M164.20097,204.14736l32.13825,-29.46831c0,0 7.23506,13.51659 8.77894,19.94944c1.61711,6.73793 0.71421,19.60533 0.71421,19.60533l-33.52268,9.69092z" fill="#354245" stroke="#000000" stroke-width="1.5" stroke-linecap="round"/><path d="M175.6583,223.0218l-3.64742,0.00221l-2.87533,-8.85161l31.2716,-30.69393l3.55614,9.73939z" fill="#e8e8e8" stroke="none" stroke-width="0" stroke-linecap="butt"/><path d="M179.76543,221.32087l25.21276,-26.55967l0.5183,3.96571l-22.54281,22.10976z" fill="#e8e8e8" stroke="none" stroke-width="0" stroke-linecap="butt"/><path d="M164.1395,204.36708l32.13825,-29.46831c0,0 7.23506,13.51658 8.77894,19.94944c1.61711,6.73793 0.7142,19.60533 0.7142,19.60533l-33.52267,9.69092z" fill="none" stroke="#000000" stroke-width="1.5" stroke-linecap="round"/><path d="M160.87481,167.27655c0,0 2.42029,-4.9423 11.42091,-1.02355c9.98491,4.3473 5.27377,9.23861 5.27377,9.23861" fill="none" stroke="#273239" stroke-width="1.5" stroke-linecap="round"/><path d="M162.40984,167.72337c1.95349,1.15329 2.02342,4.65217 0.15619,7.81497c-1.86724,3.1628 -4.96454,4.79183 -6.91804,3.63854c-1.95349,-1.15329 -2.02342,-4.65217 -0.15619,-7.81497c1.86724,-3.1628 4.96454,-4.79183 6.91804,-3.63854z" fill="#9d9a00" stroke="#273239" stroke-width="1.5" stroke-linecap="butt"/><path d="M163.70652,189.99926c0,0 -1.43894,3.14574 -2.68599,4.13299c-1.11032,0.879 -4.43387,1.50357 -4.43387,1.50357" fill="none" stroke="#273239" stroke-width="1.5" stroke-linecap="round"/><path d="M202.60777,129.91159c1.8604,-1.59077 22.61907,-18.00537 47.60661,-21.5165c37.18734,-5.2254 59.4559,4.95402 59.4559,4.95402c0,0 15.33436,4.82364 20.27816,12.97033c6.96825,11.48271 -4.53548,14.98094 -4.53548,14.98094c0,0 -30.28786,4.11777 -46.87114,5.09933c-17.71837,1.04875 -56.25943,1.00498 -56.25943,1.00498c0,0 -15.1106,0.26167 -19.97933,-1.72914c-15.42395,-6.30681 -3.10247,-12.85057 0.30471,-15.76396z" fill="#fffd94" stroke="#002c07" stroke-width="1.5" stroke-linecap="round"/><path d="M212.64401,146.11959c-8.06611,-0.22137 -11.62776,-1.34382 -15.46936,-6.68118c-3.8416,-5.33737 5.85011,-6.68345 5.85011,-6.68345c0,0 29.26079,8.83277 44.32136,8.93714c22.23021,0.15404 78.38812,-2.31937 78.38812,-2.31937c0,0 -21.01772,4.13245 -49.78187,6.03117c-19.79787,1.30686 -51.8044,1.03141 -63.30835,0.71569z" fill="#6d6b00" stroke="none" stroke-width="0" stroke-linecap="butt"/><path d="M278.07052,109.48455l0.46988,-7.38248l3.19035,0.30136l-0.4699,7.38248c0,0 -1.15117,0.45635 -1.66486,0.40782c-0.54759,-0.05173 -1.52548,-0.70918 -1.52548,-0.70918z" fill="#4b5345" stroke="#000000" stroke-width="1.5" stroke-linecap="butt"/><path d="M266.41192,108.00411l1.79535,-6.70897l2.50188,0.80546l-1.79535,6.70896c0,0 -1.01132,0.22886 -1.41416,0.09917c-0.42943,-0.13825 -1.08772,-0.90462 -1.08772,-0.90462z" fill="#4b5345" stroke="#000000" stroke-width="1.5" stroke-linecap="butt"/><path d="M168.80947,254.06935v-20.88314c0,0 60.96728,-8.75419 91.01474,-22.63402c14.08324,-6.50547 61.61166,-37.42078 73.12491,-45.84479c15.45774,-11.31011 43.48922,-40.68782 43.48922,-40.68782l1.84506,2.82327c0,0 -18.34228,25.48091 -45.59601,48.40437c-15.63813,13.15343 -36.90995,23.95633 -50.97433,32.45937c-28.41775,17.18081 -112.90359,46.36275 -112.90359,46.36275z" fill="#fffb00" stroke="none" stroke-width="0" stroke-linecap="butt"/><path d="M244.45064,153.18772l-41.76628,18.3129" fill="none" stroke="#3a5839" stroke-width="1.5" stroke-linecap="round"/><path d="M208.1461,177.60492c0,0 6.80361,15.55916 6.68899,29.23829c-0.15976,19.065 -4.76131,29.55577 -4.76131,29.55577" fill="none" stroke="#2a4327" stroke-width="1.5" stroke-linecap="round"/><path d="M294.57017,158.97072c0,0 2.28279,8.09165 0.04497,19.12069c-1.99067,9.81098 -9.68334,23.28814 -9.68334,23.28814l-33.41302,13.49372c0,0 3.63841,-14.49203 3.97735,-21.21446c0.29844,-5.91914 -2.04968,-17.01774 -2.04968,-17.01774z" fill="none" stroke="#283e25" stroke-width="1.5" stroke-linecap="round"/><path d="M262.12097,184.99433c0,0 1.56427,5.50907 0.42596,11.7918c-1.35139,7.45879 -3.31747,10.05518 -3.31747,10.05518c0,0 -1.19809,1.02773 -1.6089,0.97638c-0.44344,-0.05543 -1.28181,-1.25149 -1.24252,-2.28184c0.03929,-1.03035 0.96022,1.01175 1.33101,-0.03906c0.88221,-2.50018 1.98541,-7.8285 2.21766,-10.53811c0.18964,-2.21242 0.49602,-6.4815 0.04631,-8.93478c-0.28937,-1.57856 -1.58444,-1.02883 -1.3861,-1.9934c0.19834,-0.96457 1.35786,-0.93339 1.95447,-0.77068c0.581,0.15846 1.57959,1.73451 1.57959,1.73451z" fill="#9eb3a4" stroke="#283e25" stroke-width="1.5" stroke-linecap="round"/><path d="M313.476,172.94016c-0.63824,5.10595 -4.01026,8.88832 -7.5316,8.44815c-3.52134,-0.44017 -5.85856,-4.93619 -5.22032,-10.04214c0.63824,-5.10595 4.01026,-8.88832 7.53161,-8.44815c3.52134,0.44017 5.85856,4.93619 5.22031,10.04214z" fill="#3c5133" stroke="#2a4327" stroke-width="1.5" stroke-linecap="butt"/><path d="M306.01357,175.49244l2.0365,-6.56203l0.67883,7.01459l-3.84671,-4.97809l5.43065,0.67883z" fill="#83a088" stroke="#83a088" stroke-width="1.5" stroke-linecap="round"/><path d="M299.38934,110.7789c0,0 6.38661,7.7288 6.68292,17.65036c0.28328,9.48556 -4.11269,15.44138 -4.11269,15.44138" fill="none" stroke="#002c07" stroke-width="1.5" stroke-linecap="round"/><g stroke="#002c07" stroke-width="1.5" stroke-linecap="round"><path d="M243.1655,147.72598c0,0 4.29809,-12.2833 3.24681,-18.32047c-2.19757,-12.61994 -10.9575,-16.37767 -10.9575,-16.37767l14.45756,-4.17663c0,0 8.21878,8.59765 9.69552,16.37673c2.30648,12.14989 -3.91249,22.49803 -3.91249,22.49803z" fill="#6d6b00"/><path d="M254.73156,143.22805l-6.42558,0.64256" fill="none"/><path d="M255.6954,139.37272l-6.42558,0.64255" fill="none"/><path d="M255.05284,135.51736l-5.14046,0.32128" fill="none"/><path d="M249.5911,131.34072l8.67453,-0.96384" fill="none"/><path d="M255.05284,125.23645l-5.14046,0.32128" fill="none"/><path d="M247.34215,121.70238l5.14047,-0.32128" fill="none"/><path d="M245.41447,116.8832l7.71069,-0.96384" fill="none"/></g><path d="M164.99499,187.16862l-5.14046,9.95965" fill="none" stroke="#273239" stroke-width="1.5" stroke-linecap="round"/><path d="M177.84616,177.3696c0,5.76672 -4.74677,10.44157 -10.60221,10.44157c-5.85544,0 -10.60221,-4.67485 -10.60221,-10.44157c0,-5.76672 4.74677,-10.44157 10.60221,-10.44157c5.85544,0 10.60221,4.67485 10.60221,10.44157z" fill="#6c7379" stroke="#273239" stroke-width="1" stroke-linecap="butt"/><path d="M162.74563,190.80158c0,0 -2.69705,1.07287 -4.58562,1.73458c-1.88858,0.66171 -6.85774,-1.46336 -6.85774,-1.46336" fill="none" stroke="#273239" stroke-width="1.5" stroke-linecap="round"/><path d="M162.47228,182.74582c0,0 1.23575,1.42954 3.30967,1.57609c1.75657,0.12413 3.07847,-0.53538 3.07847,-0.53538c0,0 1.60376,3.77203 -2.05265,3.45887c-1.72248,-0.14753 -1.69161,-2.82914 -1.69161,-2.82914" fill="#563838" stroke="#273239" stroke-width="1" stroke-linecap="round"/><path d="M176.50808,175.09707c2.06951,0.92917 2.52765,4.39863 1.02328,7.74927c-1.50437,3.35064 -4.40156,5.31362 -6.47107,4.38445c-2.06951,-0.92917 -2.52765,-4.39862 -1.02328,-7.74926c1.50437,-3.35064 4.40156,-5.31363 6.47107,-4.38446z" fill="#9d9a00" stroke="#273239" stroke-width="1.5" stroke-linecap="butt"/><g stroke-linecap="butt"><path d="M173.76925,229.17019c1.6406,30.4187 -10.76285,27.14808 -10.76285,27.14808c0,0 -51.24401,8.7579 -58.63343,-33.89494c-3.77099,-21.76673 30.36087,-39.67796 30.36087,-39.67796c0,0 37.06495,9.89029 39.0354,46.42482z" fill="#fffb00" stroke="#002c07" stroke-width="1.5"/><path d="M133.28809,253.42679c-26.8771,-9.55058 -26.34488,-28.91511 -26.34488,-28.91511c0,0 3.66951,13.24133 28.83214,16.94944c28.74679,4.2363 36.70878,-7.31107 36.70878,-7.31107c0,0 -0.94812,8.49571 -2.08659,12.13886c-0.97932,3.13382 -4.33899,8.423 -4.33899,8.423c0,0 -20.309,3.14297 -32.77046,-1.28512z" fill="#6d6b00" stroke="none" stroke-width="0"/></g><g><path d="M225.35986,217.91249c0,0 0.45801,-11.98512 -0.05416,-17.90353c-0.44097,-5.09565 -2.83735,-15.50949 -2.83735,-15.50949c0,0 0.28639,-4.49791 2.24895,-4.49791c1.96256,0 4.49791,4.49791 4.49791,4.49791c0,0 2.63641,9.31478 3.00262,14.12783c0.38271,5.02994 -0.75367,15.42985 -0.75367,15.42985c0,0 -0.94542,3.91136 -2.89151,5.14047c-1.94609,1.22911 -3.21279,-1.28511 -3.21279,-1.28511z" fill="#354245" stroke="#000000" stroke-width="1.5" stroke-linecap="round"/><path d="M225.91687,208.84619l-0.70298,-12.79427l4.78028,-7.59221l2.67133,10.68533z" fill="#e8e8e8" stroke="none" stroke-width="0" stroke-linecap="butt"/><path d="M225.43898,218.13221c0,0 0.45801,-11.98512 -0.05416,-17.90353c-0.44097,-5.09565 -2.83735,-15.50949 -2.83735,-15.50949c0,0 0.28639,-4.49791 2.24895,-4.49791c1.96256,0 4.49791,4.49791 4.49791,4.49791c0,0 2.63641,9.31478 3.00262,14.12783c0.38271,5.02994 -0.75367,15.42985 -0.75367,15.42985c0,0 -0.94542,3.91135 -2.89151,5.14046c-1.94609,1.22911 -3.21279,-1.28511 -3.21279,-1.28511z" fill="none" stroke="#000000" stroke-width="1.5" stroke-linecap="round"/></g><g><path d="M236.5461,216.30447c0,0 0.45801,-11.98512 -0.05416,-17.90353c-0.44097,-5.09565 -2.83735,-15.50949 -2.83735,-15.50949c0,0 0.28639,-4.49791 2.24895,-4.49791c1.96256,0 4.49791,4.49791 4.49791,4.49791c0,0 2.63641,9.31478 3.00262,14.12783c0.38271,5.02994 -0.75367,15.42985 -0.75367,15.42985c0,0 -0.94542,3.91135 -2.89151,5.14046c-1.94609,1.22911 -3.21279,-1.28511 -3.21279,-1.28511z" fill="#354245" stroke="#000000" stroke-width="1.5" stroke-linecap="round"/><path d="M237.10311,207.23814l-0.70298,-12.79427l4.78028,-7.59221l2.67133,10.68533z" fill="#e8e8e8" stroke="none" stroke-width="0" stroke-linecap="butt"/><path d="M237.46343,210.83216l-0.28119,-2.24954l5.76445,-7.45161l0.42178,1.54656z" fill="#e8e8e8" stroke="none" stroke-width="0" stroke-linecap="butt"/><path d="M236.62522,216.5242c0,0 0.45801,-11.98512 -0.05416,-17.90353c-0.44097,-5.09565 -2.83735,-15.50949 -2.83735,-15.50949c0,0 0.28639,-4.49791 2.24895,-4.49791c1.96256,0 4.49791,4.49791 4.49791,4.49791c0,0 2.63641,9.31478 3.00262,14.12783c0.38271,5.02994 -0.75367,15.42985 -0.75367,15.42985c0,0 -0.94542,3.91136 -2.89151,5.14047c-1.94609,1.22911 -3.21279,-1.28511 -3.21279,-1.28511z" fill="none" stroke="#000000" stroke-width="1.5" stroke-linecap="round"/></g><g stroke-linecap="butt"><path d="M319.42863,169.78605l-0.72196,-14.43791l7.52294,-2.88244l-0.22554,13.58067z" fill="#354245" stroke="#000000" stroke-width="1.5"/><path d="M320.1696,168.31516l-0.31449,-3.23268l5.42604,-11.50289l0.10081,5.76772z" fill="#e8e8e8" stroke="none" stroke-width="0"/></g><g stroke-linecap="butt"><path d="M330.59444,163.95182l-0.72196,-14.43792l7.52294,-2.88244l-0.22553,13.58067z" fill="#354245" stroke="#000000" stroke-width="1.5"/><path d="M331.33541,162.48091l-0.31448,-3.23268l5.42604,-11.50289l0.1008,5.76771z" fill="#e8e8e8" stroke="none" stroke-width="0"/></g><path d="M274.08763,111.54549l0.82362,-9.06755l5.16388,0.37745l-0.82361,9.06754c0,0 -1.86809,0.55796 -2.69954,0.49718c-0.88634,-0.06479 -2.46434,-0.87463 -2.46434,-0.87463z" fill="#4b5345" stroke="#000000" stroke-width="1.5" stroke-linecap="butt"/><path d="M262.06297,109.12611l2.4525,-8.96946l4.03659,0.63504l-2.4525,8.96947c0,0 -1.5979,0.46043 -2.24784,0.35818c-0.69283,-0.10899 -1.78875,-0.99322 -1.78875,-0.99322z" fill="#4b5345" stroke="#000000" stroke-width="1.5" stroke-linecap="butt"/><path d="M263.08599,99.75841l0.7911,-4.25214l19.97516,2.47217l-0.59332,5.53767c0,0 -4.20092,1.11304 -11.019,0.26279c-5.74036,-0.71586 -9.15393,-4.02049 -9.15393,-4.02049z" fill="#4b5345" stroke="#000000" stroke-width="1.5" stroke-linecap="butt"/><path d="M284.03881,98.43644c-0.32052,1.99783 -5.09118,2.9696 -10.6556,2.17052c-5.56441,-0.79908 -9.81543,-3.06642 -9.49491,-5.06425c0.32052,-1.99783 5.09119,-2.9696 10.6556,-2.17052c5.56441,0.79908 9.81543,3.06642 9.49491,5.06425z" fill="#5f6759" stroke="#000000" stroke-width="1.5" stroke-linecap="butt"/><path d="M190.85449,247.79681l10.10779,-3.82124l9.36819,5.17716l-1.97225,2.95838z" fill="#3b503b" stroke="#002c07" stroke-width="1.5" stroke-linecap="butt"/><path d="M236.46279,250.50865l-13.06617,-14.66862l12.32657,-4.93062l7.39594,18.12006c0,0 -7.02472,15.65443 -8.253,15.92738c-0.83425,0.18539 1.59665,-14.44819 1.59665,-14.44819z" fill="#cbd4d1" stroke="#000000" stroke-width="1" stroke-linecap="butt"/><path d="M235.10687,263.9446l2.21878,-13.43596l4.6841,-1.23266z" fill="#b0b6b4" stroke="none" stroke-width="0" stroke-linecap="butt"/><path d="M433.80156,119.36166c-2.79915,2.69674 -5.85279,5.7326 -9.80622,7.54785c-0.53983,0.24787 -1.14714,0.39028 -1.75385,0.53369c-3.60863,2.92976 -7.2789,4.50099 -11.94869,6.36408c-4.01464,2.53352 -8.05083,5.06116 -12.67818,6.77849c-5.53042,2.05247 -12.07608,2.94035 -18.21156,3.95204c-1.65372,0.61812 -3.19032,1.56635 -5.0058,1.62355c-0.1467,0.00462 -0.29301,0.00568 -0.43893,0.00348l0.01083,0.06161l-3.66411,0.35559c-0.24656,0.02799 -0.50166,0.0337 -0.76148,0.01463c-1.74975,-0.1284 -3.05034,-1.33179 -2.90494,-2.68784c0.1087,-1.01371 0.99469,-1.82579 2.16607,-2.11755l4.77406,-1.28114l0.01764,0.0384l0.12054,-0.07273c1.0413,-0.19882 2.1103,-0.38341 3.19703,-0.56197c2.9046,-0.78379 6.31675,-1.5371 7.08984,-1.75333c4.06915,-1.13803 7.85864,-2.52327 11.59309,-4.00056c-2.09258,0.19053 -4.22308,0.3568 -6.3619,0.51734c-0.89354,0.16166 -1.78817,0.32008 -2.6835,0.4764c-1.82601,0.48124 -3.67225,0.94016 -5.52895,1.37718c-2.13218,1.11258 -4.37109,2.08914 -6.7967,2.82733c-2.07277,0.6308 -4.23424,1.58478 -6.45349,1.35704c-0.22978,-0.02358 -0.45735,-0.05375 -0.68295,-0.0898l-0.01196,0.05955l-3.34194,-0.43281c-1.12773,0.41292 -2.24594,0.85273 -3.46307,0.81386c-0.18178,-0.00581 -0.36286,-0.01543 -0.54331,-0.02853v0.06006l-3.18331,-0.02781c-5.36448,0.69721 -10.35168,1.11157 -15.72923,2.56104l-2.14892,0.06413c0,0 -3.16821,-0.23249 -2.90494,-2.68784c0.26328,-2.45536 3.43148,-2.22287 3.43148,-2.22287l-0.52031,0.18364c4.89984,-1.31311 9.54476,-1.84404 14.37782,-2.45146l2.54311,-1.36151l0.08249,0.09194l0.2297,-0.23899c2.37621,-0.72211 4.79756,-1.3215 7.24129,-1.85671l-0.95245,0.0519c-0.3444,0.02525 -0.75586,0.00719 -1.22762,-0.0599c-2.19384,-0.31197 -4.86076,-1.5659 -5.95676,-2.80073c-0.49717,-0.56017 -0.58567,-1.02017 -0.32916,-1.3265l1.27171,-1.56837l0.06622,0.02896c0.02219,-0.05555 0.04783,-0.10987 0.07717,-0.16284c0.56343,-1.01663 2.77187,-1.26052 4.16412,-1.88751c-1.0768,-0.10223 -2.15062,-0.20805 -3.21462,-0.31416c-3.93437,-0.39235 -7.61377,-0.29997 -12.15272,-1.5356l-4.08389,-0.58075v0c-1.75876,-0.2501 -3.82155,-1.10558 -5.13526,-2.07129c-0.76852,-0.42542 -1.42112,-0.90246 -1.84203,-1.37669c-0.97547,-1.09904 -0.37774,-1.81253 1.31227,-1.73621l4.52985,0.14912l0.02806,0.02371c0.03374,-0.00609 0.06767,-0.01208 0.10177,-0.01797c0.91409,-0.15759 2.56702,0.25559 3.74387,0.28932c0.60293,0.01727 1.21439,0.04095 1.83061,0.06821c1.01087,-0.17 1.95936,-0.38041 2.8762,-0.61214c-0.09827,-0.01355 -0.19705,-0.02782 -0.29636,-0.04274l0.07096,0.06996l-5.82645,-0.57937c-0.11801,-0.01106 -0.24052,-0.02555 -0.36738,-0.04358c-1.77591,-0.25254 -3.8618,-1.12234 -5.17346,-2.09957l-3.26573,-0.14321c-0.22901,-0.00738 -0.47899,-0.02971 -0.74867,-0.06806c-2.19384,-0.31197 -4.86076,-1.5659 -5.95676,-2.80073c-0.27116,-0.30552 -0.42076,-0.58125 -0.45912,-0.81849c-0.43254,-0.29331 -0.79987,-0.59998 -1.07105,-0.90551c-0.83514,-0.94093 -0.51715,-1.59926 0.65217,-1.72131c-5.59975,-0.60409 -11.53579,-1.5366 -17.1971,-2.95129c-0.00401,-0.001 -0.008,-0.00199 -0.01201,-0.003l0.00078,0.00099l-6.85507,-1.22456c-2.13732,-0.37213 -4.63182,-1.57349 -5.68251,-2.7573c-0.82503,-0.92952 -0.52469,-1.58327 0.61003,-1.71664l3.5098,-0.48705l0.05852,0.03881l0.08162,-0.05507c1.37321,-0.07576 2.82576,-0.24294 4.34079,-0.41592c-0.81967,-0.44139 -1.51782,-0.94284 -1.96013,-1.44118c-0.79199,-0.89234 -0.54692,-1.5305 0.47781,-1.69813c-0.31903,-0.05633 -0.6408,-0.11754 -0.96533,-0.18381c-3.26633,-0.66706 -8.09218,-1.63488 -10.35419,-3.4277c-1.01082,-0.80115 -1.0317,-1.39944 -0.65624,-1.90377l-1.42676,-0.20289c-2.19384,-0.31197 -4.86075,-1.5659 -5.95676,-2.80073c-0.76029,-0.85661 -0.56487,-1.47902 0.35855,-1.67576l3.07779,-0.72635c0.65317,-0.39763 1.18483,-0.814 1.79518,-1.15154l-0.81982,-0.14646c-2.13732,-0.37213 -4.63182,-1.57349 -5.68251,-2.7573c-0.98672,-1.11171 -0.36374,-1.82894 1.3712,-1.73324l5.04333,0.22114c0,0 1.92743,0.08451 4.00707,1.04827l1.65305,0.03184c0.26604,0.00146 0.56305,0.0244 0.88881,0.07073c2.19384,0.31197 4.86076,1.56591 5.95675,2.80072c0.46563,0.52461 0.57281,0.96139 0.37383,1.26633l-0.65759,1.06901c1.55019,-0.15056 3.2522,-0.18778 5.08011,-0.13556c2.04634,-0.58532 4.41408,-0.96661 7.68655,-0.67102c0.10632,0.00959 0.21313,0.01978 0.32047,0.0305l-0.0258,-0.0227l7.11631,0.37566c0.21389,0.00899 0.44545,0.03072 0.6937,0.06601c2.19384,0.31197 4.86075,1.5659 5.95676,2.80073c0.16014,0.18042 0.27787,0.35045 0.35534,0.50831c0.11927,0.06855 0.23542,0.1383 0.34799,0.20905c0.76481,-0.16595 1.54214,-0.32448 2.33776,-0.4721l2.69042,-0.81986c0.42011,-0.13822 1.04406,-0.16446 1.83939,-0.05136c2.19384,0.31197 4.86076,1.56591 5.95675,2.80073c0.61813,0.69644 0.60455,1.23805 0.08162,1.522l-1.77416,0.99349l-0.06481,-0.03313c-0.02613,0.03542 -0.0543,0.07004 -0.0846,0.10383c-0.79757,0.88903 -3.3087,0.89753 -4.90669,1.37925c-1.1331,0.34159 -2.26265,0.68354 -3.39216,1.02439c0.49821,-0.01737 0.99354,-0.03724 1.48543,-0.06012c1.3909,-0.37056 2.89786,-0.64351 5.04451,-0.37673c0.10552,-0.01159 0.21075,-0.02343 0.31569,-0.03554l0.76331,-0.08728c1.05053,-0.46435 2.10949,-0.91822 3.19894,-1.34523l0.09396,0.00178l-0.03608,-0.02083l2.95432,-0.9159c0.42016,-0.14046 1.04689,-0.1677 1.84708,-0.0539c2.19384,0.31197 4.86075,1.5659 5.95676,2.80073c0.46208,0.52062 0.57115,0.95472 0.37833,1.25933l-0.4724,0.79444c2.14249,0.3674 4.65142,1.57321 5.70596,2.76134c0.5173,0.58283 0.59217,1.05722 0.29635,1.36291l-2.02261,2.1287l-0.05491,-0.02472l0.00799,0.06983c-0.97532,0.72444 -1.98516,1.51365 -3.08659,2.28372c3.7007,-1.16202 7.36047,-2.34438 11.44889,-3.22362c3.4637,-0.74489 6.35615,-1.90633 10.77918,-1.99151c0.01453,-0.00028 0.02908,-0.00056 0.04363,-0.00082l-0.00777,-0.00506l5.4625,-0.85809c0.39889,-0.07181 0.92162,-0.0697 1.55199,0.01995c2.19384,0.31197 4.86075,1.5659 5.95676,2.80073c0.43899,0.4946 0.55935,0.91111 0.40495,1.21271c1.29315,0.38493 2.59119,0.99899 3.53231,1.67204l1.06863,-0.1633c0.39748,-0.0698 0.9164,-0.06691 1.54101,0.02191c2.19384,0.31197 4.86076,1.5659 5.95676,2.80073c0.7922,0.89255 0.5468,1.53082 -0.47862,1.69826l-2.85844,0.53048c-2.2099,0.85866 -4.67379,1.57305 -7.19243,2.25519c0.06843,0.31554 -0.05325,0.56663 -0.34213,0.73407l-2.03203,1.20917l-0.34265,-0.17294l-0.08017,0.33532c-1.79905,0.09884 -3.61926,0.1553 -5.45972,0.18105c-0.48586,0.15139 -0.96496,0.30652 -1.43565,0.46633c-2.0663,1.11894 -4.25525,2.16822 -6.41173,3.23684c1.34571,-0.16239 2.66718,-0.34199 4.0017,-0.51215c0.07714,-0.02706 0.15404,-0.05431 0.23069,-0.08171c1.35821,-0.59165 2.75117,-1.16453 4.26212,-1.67494c0.09709,-0.03279 0.19464,-0.06531 0.29259,-0.09754c1.80962,-0.69612 3.7068,-1.33791 5.95357,-1.74726c0.33399,-0.06086 0.67223,-0.11868 1.01454,-0.17356c1.7993,-0.46675 3.57424,-0.95008 5.21232,-1.52286l0.08742,-0.00113l-0.02763,-0.01633l4.75541,-1.30632c0.41909,-0.12534 1.02638,-0.14575 1.79282,-0.03675c1.75507,0.24958 3.81293,1.10202 5.12702,2.06525c0.4599,0.0114 0.92209,0.02463 1.38636,0.03957c1.08112,0.03481 3.13531,0.0672 5.38288,0.19379c3.99555,-1.63458 7.96015,-3.30885 11.79255,-5.15168l0.05343,-0.00847l-0.00883,-0.01179l4.45399,-1.98528c0.5526,-0.25381 1.21157,-0.37894 1.90396,-0.32814c1.50182,0.11021 2.67275,1.01234 2.88249,2.12321c0.05699,0.00182 0.11424,0.00483 0.17172,0.00905c1.74975,0.1284 3.05034,1.33179 2.90494,2.68784c-0.01113,0.10383 -0.03042,0.20556 -0.05735,0.30481l-0.70277,2.77492l-0.17177,-0.02765l0.06835,0.33133c-0.98399,1.46931 -1.36105,3.30663 -2.95197,4.40793c-0.26847,0.18585 -0.55378,0.35208 -0.8524,0.50269c-0.02874,0.03097 -0.04566,0.04736 -0.04566,0.04736zM381.73072,126.20695c1.17662,-0.27995 2.38654,-0.53883 3.6186,-0.78373c-0.61784,0.01607 -1.22957,0.03656 -1.83134,0.06419c-1.22894,0.0564 -2.25894,0.2529 -3.31791,0.42915l1.16942,0.00199l0.36123,0.28838zM374.10179,127.13741c-0.83195,0.30425 -1.70967,0.79747 -2.63669,1.34153c1.49695,0.01673 2.98469,0.02733 4.45791,0.02708c-0.40087,-0.27802 -0.74217,-0.5672 -0.99792,-0.85536c-0.21307,-0.24007 -0.35109,-0.46173 -0.41905,-0.66079c-0.13485,0.0491 -0.26961,0.09827 -0.40427,0.14752zM339.67582,104.72631c0.83723,-0.48563 1.63453,-0.99787 2.40235,-1.53763c-2.26273,0.7279 -4.61775,1.3981 -6.94336,2.09011c1.15521,0.02203 2.21093,-0.0281 3.09137,-0.2004c0.50332,-0.09849 0.98588,-0.21683 1.44965,-0.35209z" data-paper-data="{&quot;index&quot;:null}" fill="#000000" stroke="none" stroke-width="0.5" stroke-linecap="butt"/><path d="M124.52973,39.51667c2.70922,-2.23613 5.6633,-4.75447 9.52046,-6.23787c0.52668,-0.20255 1.12131,-0.31579 1.71532,-0.42988c3.50115,-2.42337 7.08375,-3.70471 11.64412,-5.22072c3.90621,-2.08619 7.83371,-4.1672 12.35464,-5.5612c5.40321,-1.66605 11.82207,-2.34297 17.83592,-3.12822c1.61562,-0.50187 3.11105,-1.28231 4.89427,-1.31124c0.14411,-0.00233 0.28787,-0.00169 0.43129,0.0017l-0.01159,-0.05187l3.59529,-0.26011c0.24185,-0.02091 0.49247,-0.02302 0.7481,-0.00426c1.72149,0.12633 3.01815,1.15106 2.89615,2.2888c-0.0912,0.85053 -0.94938,1.52344 -2.09601,1.75621l-4.67182,1.02598l-0.01792,-0.03246l-0.11733,0.05984c-1.02024,0.15606 -2.06793,0.29986 -3.13313,0.43843c-2.84234,0.62787 -6.1839,1.22479 -6.9403,1.39827c-3.98128,0.91318 -7.68393,2.03704 -11.33109,3.23878c2.05349,-0.138 4.14461,-0.25522 6.24398,-0.36755c0.87561,-0.1264 1.75234,-0.25005 2.62979,-0.37194c1.78703,-0.38505 3.59429,-0.75114 5.41216,-1.09873c2.07817,-0.91223 4.26335,-1.70908 6.63567,-2.30369c2.02724,-0.50811 4.13663,-1.28678 6.32105,-1.07204c0.22617,0.02223 0.45029,0.04998 0.67254,0.08266l0.01085,-0.04991l3.29086,0.39886c1.10188,-0.33502 2.19398,-0.69273 3.39068,-0.64724c0.17873,0.00679 0.35683,0.01679 0.53437,0.02969l-0.00093,-0.05046l3.12873,0.05694c5.26102,-0.52917 10.15565,-0.82471 15.41795,-1.98577l2.11078,-0.03122c0,0 3.11704,0.22873 2.89615,2.2888c-0.22089,2.06007 -3.33793,1.83134 -3.33793,1.83134l0.50849,-0.1488c-4.79493,1.05154 -9.35142,1.4486 -14.09158,1.90796l-2.47818,1.11705l-0.08248,-0.07812l-0.22207,0.19837c-2.32402,0.58162 -4.6943,1.05967 -7.08755,1.48355l0.9352,-0.03356c0.33806,-0.01758 0.74269,0.00193 1.20733,0.06327c2.16073,0.28523 4.80089,1.36684 5.89697,2.41582c0.49721,0.47586 0.59127,0.86327 0.34391,1.11793l-1.22556,1.30423l-0.06552,-0.02503c-0.02095,0.04644 -0.04531,0.09179 -0.07334,0.13599c-0.53803,0.84817 -2.70453,1.02978 -4.06308,1.54187c1.05978,0.09725 2.11668,0.19747 3.1639,0.29784c3.87243,0.37113 7.48682,0.33231 11.96636,1.41828l4.02225,0.53097v0c1.73221,0.22867 3.77255,0.96915 5.07842,1.79433c0.7618,0.36552 1.41048,0.77319 1.83143,1.17604c0.97555,0.93363 0.39915,1.52677 -1.26283,1.44483l-4.45386,-0.17306l-0.02794,-0.02022c-0.03307,0.00476 -0.06633,0.00943 -0.09974,0.01402c-0.89585,0.12275 -2.5266,-0.24181 -3.68363,-0.28255c-0.5928,-0.02087 -1.19404,-0.04721 -1.80005,-0.07661c-0.99079,0.13216 -1.91967,0.29895 -2.81707,0.48397c0.09678,0.01242 0.19407,0.02544 0.29189,0.03904l-0.0708,-0.05952l5.73468,0.54819c0.11613,0.01054 0.23675,0.024 0.3617,0.04051c1.7491,0.23089 3.81237,0.98364 5.11642,1.8185l3.21149,0.15475c0.22517,0.00861 0.47116,0.03002 0.73678,0.06507c2.16074,0.28523 4.80089,1.36684 5.89697,2.41582c0.2712,0.25954 0.42245,0.49276 0.4638,0.69249c0.42958,0.25098 0.79529,0.51251 1.06649,0.77206c0.83521,0.79932 0.53286,1.34906 -0.61437,1.43927c5.5123,0.56658 11.36011,1.4126 16.9454,2.66085c0.00395,0.00089 0.00789,0.00176 0.01184,0.00265l-0.00078,-0.00085l6.75548,1.1011c2.10612,0.33518 4.57601,1.3708 5.62679,2.37643c0.8251,0.78963 0.54002,1.3357 -0.57302,1.43579l-3.44164,0.37218l-0.05811,-0.03322l-0.07936,0.0454c-1.3483,0.04917 -2.77318,0.1743 -4.25935,0.30365c0.8123,0.37947 1.50612,0.80812 1.94846,1.23147c0.79204,0.75803 0.56105,1.2916 -0.44338,1.42163c0.3144,0.0507 0.63154,0.10551 0.95149,0.16462c3.22016,0.59487 7.97753,1.45887 10.22807,2.98894c1.0057,0.68373 1.03544,1.1866 0.67424,1.60636l1.40522,0.1855c2.16073,0.28523 4.80089,1.36684 5.89697,2.41582c0.76035,0.7277 0.57789,1.24854 -0.32654,1.4041l-3.0134,0.57778c-0.63576,0.32717 -1.1518,0.67138 -1.74642,0.94852l0.80792,0.13169c2.10612,0.33518 4.57601,1.3708 5.62679,2.37643c0.9868,0.9444 0.38563,1.5404 -1.3208,1.44171l-4.95959,-0.23897c0,0 -1.89542,-0.09133 -3.95398,-0.92295l-1.62499,-0.04418c-0.26144,-0.00403 -0.55368,-0.02644 -0.87453,-0.06879c-2.16073,-0.28523 -4.80089,-1.36684 -5.89696,-2.41582c-0.46566,-0.44565 -0.57772,-0.81374 -0.38688,-1.06784l0.62974,-0.89119c-1.52108,0.11015 -3.1931,0.12346 -4.99023,0.06032c-2.00195,0.47017 -4.32291,0.76555 -7.54337,0.48269c-0.1046,-0.00918 -0.20975,-0.01887 -0.3154,-0.02901l0.02569,0.01934l-6.99913,-0.39065c-0.21032,-0.00981 -0.43822,-0.03051 -0.68274,-0.06278c-2.16073,-0.28523 -4.80089,-1.36684 -5.89697,-2.41582c-0.16015,-0.15326 -0.27847,-0.29735 -0.35704,-0.43079c-0.11825,-0.05885 -0.23347,-0.11868 -0.34518,-0.17929c-0.74903,0.13136 -1.51048,0.25635 -2.29009,0.37197l-2.63128,0.66043c-0.41071,0.1117 -1.0235,0.12716 -1.80681,0.02375c-2.16074,-0.28523 -4.80089,-1.36684 -5.89696,-2.41583c-0.61819,-0.59162 -0.61318,-1.04652 -0.10367,-1.27955l1.7282,-0.81596l0.0642,0.02851c0.02513,-0.02948 0.05228,-0.05827 0.08154,-0.08634c0.77008,-0.73851 3.23769,-0.71917 4.80065,-1.10703c1.10827,-0.27504 2.21301,-0.55041 3.31776,-0.82487c-0.48935,0.00934 -0.9758,0.02081 -1.45883,0.03485c-1.36117,0.29666 -2.83789,0.51007 -4.95154,0.26331c-0.10352,0.00863 -0.20674,0.01746 -0.30967,0.02653l-0.74879,0.06528c-1.02523,0.37904 -2.05889,0.74919 -3.12294,1.09645l-0.09235,-0.00249l0.03577,0.01788l-2.88915,0.73833c-0.41072,0.11358 -1.02621,0.12985 -1.81433,0.02581c-2.16073,-0.28523 -4.80089,-1.36684 -5.89697,-2.41582c-0.46212,-0.44226 -0.57598,-0.80812 -0.39118,-1.062l0.452,-0.66246c-2.11113,-0.33126 -4.59528,-1.37077 -5.6499,-2.38009c-0.51735,-0.49511 -0.59823,-0.89447 -0.31222,-1.14816l1.95485,-1.76707l0.05434,0.02135l-0.00893,-0.05875c0.94729,-0.59834 1.92753,-1.25076 2.99807,-1.88609c-3.61886,0.93724 -7.19714,1.89199 -11.20136,2.58757c-3.39236,0.58929 -6.21692,1.53456 -10.5622,1.55948c-0.01428,0.00008 -0.02857,0.00016 -0.04286,0.00022l0.00772,0.00434l-5.35488,0.66332c-0.39089,0.05612 -0.9046,0.04883 -1.52547,-0.03313c-2.16073,-0.28523 -4.80089,-1.36684 -5.89697,-2.41583c-0.43902,-0.42017 -0.56373,-0.77137 -0.41663,-1.02311c-1.27675,-0.33704 -2.5618,-0.86661 -3.49703,-1.442l-1.04764,0.12592c-0.38953,0.05446 -0.89953,0.04655 -1.51472,-0.03465c-2.16074,-0.28523 -4.80089,-1.36684 -5.89697,-2.41582c-0.79226,-0.75822 -0.56092,-1.29188 0.44417,-1.42174l2.80087,-0.41554c2.15848,-0.69809 4.56878,-1.2723 7.03338,-1.81883c-0.07211,-0.26582 0.04359,-0.4755 0.3249,-0.61312l1.97828,-0.99445l0.33939,0.14891l0.07361,-0.28088c1.76643,-0.06407 3.55431,-0.09229 5.36257,-0.09453c0.47514,-0.12206 0.94357,-0.24735 1.40365,-0.37664c2.01335,-0.91827 4.14831,-1.77674 6.25104,-2.6518c-1.31994,0.12224 -2.61581,0.25919 -3.92467,0.38806c-0.07539,0.02192 -0.15054,0.044 -0.22545,0.06622c-1.32565,0.48274 -2.68569,0.94936 -4.16267,1.36224c-0.0949,0.02653 -0.19027,0.05281 -0.28603,0.07886c-1.76762,0.56576 -3.62214,1.08495 -5.82377,1.40516c-0.32729,0.04761 -0.65877,0.09261 -0.99433,0.13512c-1.76101,0.37316 -3.49784,0.76051 -5.09878,1.22445l-0.08589,0.00004l0.02739,0.01401l-4.65309,1.04735c-0.40991,0.10088 -1.00639,0.11162 -1.76129,0.01197c-1.72859,-0.2282 -3.76403,-0.96606 -5.07023,-1.78917c-0.45215,-0.01443 -0.90654,-0.03041 -1.36302,-0.04787c-1.06296,-0.04064 -3.08217,-0.08952 -5.29285,-0.21957c-3.9013,1.33114 -7.7716,2.69596 -11.50938,4.20379l-0.05237,0.00655l0.00888,0.00999l-4.34643,1.62095c-0.53914,0.20741 -1.18479,0.30559 -1.86601,0.25561c-1.47756,-0.10843 -2.64216,-0.87869 -2.86539,-1.8142c-0.05601,-0.00213 -0.11233,-0.00526 -0.1689,-0.00941c-1.72149,-0.12633 -3.01815,-1.15106 -2.89615,-2.2888c0.00935,-0.08711 0.02672,-0.17237 0.05165,-0.25548l0.64787,-2.32392l0.16921,0.02504l-0.07228,-0.27909c0.94434,-1.22406 1.28658,-2.7637 2.83303,-3.67216c0.26098,-0.15331 0.53878,-0.28995 0.82992,-0.41334c0.02777,-0.02572 0.04415,-0.0393 0.04415,-0.0393zM172.05114,34.93502c0.60693,-0.00698 1.20775,-0.01775 1.7987,-0.03461c1.20684,-0.03444 2.21601,-0.18866 3.25396,-0.32557l-1.14923,-0.014l-0.35943,-0.2461c-1.15198,0.22279 -2.337,0.42753 -3.54399,0.62028zM183.07788,33.61348c0.81287,-0.24684 1.66784,-0.65197 2.57045,-1.09928c-1.47135,-0.02984 -2.93353,-0.05443 -4.38129,-0.06976c0.39823,0.2378 0.73808,0.48436 0.99385,0.72914c0.21309,0.20393 0.35213,0.39162 0.42199,0.55957c0.13177,-0.03983 0.26344,-0.07972 0.395,-0.11967zM217.25426,52.80502c-0.81529,0.39917 -1.5909,0.82113 -2.33714,1.26649c2.2124,-0.58767 4.51638,-1.1259 6.79116,-1.68276c-1.13557,-0.03069 -2.17229,0.0003 -3.03486,0.13576c-0.4931,0.07745 -0.9655,0.17179 -1.41917,0.28052z" data-paper-data="{&quot;index&quot;:null}" fill="#000000" stroke="none" stroke-width="0.5" stroke-linecap="butt"/><g fill="none" stroke="#273239" stroke-width="1.5" stroke-linecap="round"><path d="M159.79859,178.55894c0,0 -0.20864,-2.21189 1.71163,-5.24973c1.7219,-2.72402 4.13958,-3.97752 4.13958,-3.97752"/><path d="M163.29859,180.55894c0,0 -0.20864,-2.21188 1.71163,-5.24972c1.7219,-2.72403 4.13958,-3.97752 4.13958,-3.97752"/></g><g fill="#273239" stroke="#273239"><path d="M169.6391,183.19163c0,0 -0.03615,0.79048 -2.40478,2.12346c-1.5175,0.85399 -2.35387,0.17825 -2.35387,0.17825" stroke-width="1.5" stroke-linecap="round"/><path d="M164.59619,185.26878c0.04215,0.33537 -0.19556,0.6414 -0.53093,0.68355c-0.33537,0.04215 -0.64141,-0.19555 -0.68355,-0.53092c-0.04215,-0.33537 0.19555,-0.64141 0.53092,-0.68356c0.33537,-0.04215 0.64141,0.19556 0.68356,0.53093z" stroke-width="1" stroke-linecap="butt"/></g><g data-paper-data="{&quot;index&quot;:null}" stroke-width="0.7" stroke-linecap="butt"><path d="M155.73036,177.10815c0.07114,0.77459 0.56674,1.59944 0.56674,1.59944c0,0 -1.23468,-2.17666 -1.75711,-3.22374c-0.73793,-1.479 -0.7472,-2.97734 0.94861,-6.06979c0.82461,-1.50376 2.31711,-2.63316 3.86715,-3.01345c1.29528,-0.31779 2.60935,-0.0716 3.81067,0.52805c0.37183,0.1856 -0.86693,-0.03507 -1.29529,0.22715c-1.19245,0.72997 -3.57466,2.3071 -4.88336,4.54902c-1.02463,1.75528 -1.39418,3.9142 -1.25741,5.40333z" data-paper-data="{&quot;index&quot;:null}" fill="#f2f23c" stroke="#533721"/><path d="M156.90077,170.93211c4.93227,-7.07472 6.55095,-3.81661 6.55095,-3.81661c0,0 -2.59046,-0.02854 -4.8117,3.17536c-3.69676,5.3322 -2.43278,8.28862 -2.43278,8.28862c0,0 -3.46979,-1.6756 0.69353,-7.64736z" data-paper-data="{&quot;index&quot;:null}" fill="#b78700" stroke="#533721"/><path d="M156.66131,171.97209c0,0 -2.0086,-0.90688 3.7581,-6.21489c3.28473,-3.02346 7.76657,-1.26301 7.76657,-1.26301l-0.45304,0.75241c0,0 -2.82174,-0.67617 -6.11313,1.27979c-2.10014,1.24805 -4.9585,5.4457 -4.9585,5.4457z" data-paper-data="{&quot;index&quot;:null}" fill="#b78700" stroke="#533721"/><path d="M167.59779,186.2286c0.74481,-8.95924 7.51026,-11.46183 7.51026,-11.46183c0,0 0.38812,-0.06332 0.57868,0.06476c0.44122,0.29654 2.0248,1.68503 2.0248,1.68503l-6.39791,11.43298c0,0 -0.68573,0.06184 -1.45262,-0.08915c-1.07761,-0.21217 -2.3366,-0.74895 -2.26321,-1.63179z" data-paper-data="{&quot;index&quot;:null}" fill="#b78700" stroke="#303133"/><path d="M169.95767,187.31993c-2.29494,-1.84806 5.64157,-12.27319 7.93651,-10.42513c2.29494,1.84806 2.73676,5.67087 0.86152,8.14837c-2.10085,2.77557 -3.46483,3.37127 -5.11479,3.30225c-1.16811,-0.04886 -2.73198,-0.25945 -3.68325,-1.02549z" data-paper-data="{&quot;index&quot;:null}" fill="#f2f23c" stroke="#533721"/><path d="M172.01208,184.02679c-0.47426,-0.24688 -0.50481,-0.65989 -0.50481,-0.65989c0,0 0.48299,-3.44315 5.00273,-7.06666c1.42946,-1.146 2.13253,-0.43905 2.61348,-0.116c0.78917,0.53008 0.74555,1.4023 0.59385,1.54303c-0.77221,0.71634 -1.21354,-1.10131 -1.93548,-0.57464c-0.52659,0.38416 -1.90607,2.01672 -2.7968,3.28779c-1.25864,1.79609 -2.0046,3.30376 -2.0046,3.30376c0,0 -0.51119,0.5206 -0.96836,0.28261z" data-paper-data="{&quot;index&quot;:null}" fill="#b78700" stroke="#533721"/><path d="M176.53994,170.68207l0.74268,-0.82736c0,0 2.09463,0.97647 2.61395,3.18113c0.2462,1.04516 -0.16772,3.60439 -0.16772,3.60439c0,0 -0.54081,0.4896 -1.04547,0.27321c-0.5042,-0.21619 -0.81892,-1.04258 -0.81892,-1.04258c0,0 0.79745,-1.57472 0.6837,-2.42112c-0.22352,-1.66321 -2.00822,-2.76766 -2.00822,-2.76766z" data-paper-data="{&quot;index&quot;:null}" fill="#b78700" stroke="#533721"/><path d="M167.61141,165.27446c0,0 0.04753,-0.27037 0.13217,-0.40526c0.12446,-0.19834 0.54234,-0.66963 0.54234,-0.66963l8.77398,6.14086c0,0 -0.51721,0.47388 -0.72542,0.58353c-0.1404,0.07394 -0.40264,0.01056 -0.40264,0.01056c0,0 -2.67213,-2.09805 -4.16623,-3.11443c-0.77776,-0.52908 -4.1542,-2.54563 -4.1542,-2.54563z" data-paper-data="{&quot;index&quot;:null}" fill="#f2f23c" stroke="#533721"/><path d="M168.14825,164.46632c0,0 -0.32699,-0.30967 0.00381,-0.64641c0.47997,-0.4886 0.71901,-0.39356 0.71901,-0.39356c0,0 3.00175,1.64154 4.53976,2.66145c1.57781,1.0463 4.81077,3.53918 4.81077,3.53918c0,0 0.39464,0.57009 -0.11543,1.11812c-0.26497,0.28471 -1.20059,-0.26689 -1.20059,-0.26689c0,0 -2.59436,-2.03829 -4.074,-3.05407c-1.43829,-0.98738 -4.68334,-2.95782 -4.68334,-2.95782z" data-paper-data="{&quot;index&quot;:null}" fill="#f2f23c" stroke="#533721"/><path d="M171.8285,187.75251l1.13236,1.08522l-4.3406,0.54976c0,0 -0.62323,-0.59576 -0.71101,-0.83304c-0.04638,-0.12538 0.22381,-0.48389 0.22381,-0.48389z" data-paper-data="{&quot;index&quot;:null}" fill="#b78700" stroke="#533721"/><path d="M172.46084,188.51675c-0.2987,-0.25116 -0.7524,-0.84649 -0.7524,-0.84649c0,0 3.22877,-1.66712 3.83575,0.11277c0.45665,1.33906 -2.21226,1.25237 -2.21226,1.25237c0,0 -0.65838,-0.33979 -0.87108,-0.51865z" data-paper-data="{&quot;index&quot;:null}" fill="#b78700" stroke="#533721"/><path d="M165.61032,188.48058c-0.61676,-0.49666 -1.86484,-1.84843 -1.86484,-1.84843l0.74172,-0.52957c0,0 1.58313,0.97553 2.22755,1.37774c0.46819,0.29223 1.28207,0.81281 1.28207,0.81281l-0.86099,1.06919c0,0 -1.04843,-0.49755 -1.52552,-0.88174z" data-paper-data="{&quot;index&quot;:null}" fill="#b78700" stroke="#533721"/><path d="M166.40773,189.47755c0,0 0.49031,-0.61367 0.76497,-0.88945c0.25639,-0.25743 0.83194,-0.71398 0.83194,-0.71398c0,0 0.5887,0.45538 0.8124,0.73541c0.20624,0.25818 0.48168,0.88456 0.48168,0.88456c0,0 -0.43159,0.59884 -1.56552,0.47296c-1.23135,-0.1367 -1.32548,-0.4895 -1.32548,-0.4895z" data-paper-data="{&quot;index&quot;:null}" fill="#f2f23c" stroke="#b78700"/><g data-paper-data="{&quot;index&quot;:null}"><path d="M163.17499,184.13584c1.13947,0.91759 1.70567,1.76969 1.09743,2.52501c-0.60825,0.75533 -1.70374,0.47658 -2.84321,-0.441c-1.13947,-0.91759 -1.60442,-1.89543 -0.99617,-2.65075c0.60825,-0.75533 1.60249,-0.35084 2.74196,0.56675z" fill="#b78700" stroke="#533721"/><g fill="#242424" stroke="none"><path d="M161.78367,184.39247c0.06496,-0.08067 0.18249,-0.09383 0.26251,-0.02939c0.08002,0.06444 0.09222,0.18207 0.02726,0.26274c-0.06496,0.08067 -0.18249,0.09383 -0.26251,0.02939c-0.08002,-0.06444 -0.09223,-0.18207 -0.02727,-0.26274z"/><path d="M161.2498,184.05888c0.06496,-0.08067 0.18249,-0.09383 0.26251,-0.02939c0.08002,0.06444 0.09223,0.18207 0.02726,0.26274c-0.06496,0.08067 -0.18249,0.09383 -0.26251,0.02939c-0.08002,-0.06444 -0.09222,-0.18207 -0.02726,-0.26274z"/><path d="M160.87521,183.62239c0.06496,-0.08067 0.18249,-0.09383 0.26251,-0.02939c0.08002,0.06444 0.09222,0.18207 0.02726,0.26274c-0.06496,0.08067 -0.18249,0.09383 -0.26251,0.02939c-0.08002,-0.06444 -0.09223,-0.18207 -0.02727,-0.26274z"/><path d="M161.60955,183.63586c0.06496,-0.08067 0.18249,-0.09383 0.26251,-0.02939c0.08002,0.06444 0.09223,0.18207 0.02727,0.26274c-0.06496,0.08067 -0.18249,0.09383 -0.26251,0.02939c-0.08002,-0.06444 -0.09223,-0.18207 -0.02726,-0.26274z"/><path d="M162.06446,183.92514c0.06496,-0.08067 0.18249,-0.09383 0.26251,-0.02939c0.08002,0.06444 0.09223,0.18207 0.02727,0.26274c-0.06496,0.08067 -0.18249,0.09383 -0.26251,0.02939c-0.08002,-0.06444 -0.09223,-0.18207 -0.02727,-0.26274z"/></g></g></g></g></g></svg>