<svg version="1.1" xmlns="http://www.w3.org/2000/svg" xmlns:xlink="http://www.w3.org/1999/xlink" width="50.38784" height="44.9244" viewBox="0,0,50.38784,44.9244"><g transform="translate(-218.14702,-143.9109)"><g data-paper-data="{&quot;isPaintingLayer&quot;:true}" fill-rule="nonzero" stroke="#000000" stroke-width="0.7" stroke-linecap="butt" stroke-linejoin="miter" stroke-miterlimit="10" stroke-dasharray="" stroke-dashoffset="0" style="mix-blend-mode: normal"><path d="M264.74513,165.53394c2.13475,12.81686 -4.74254,12.85883 -4.74254,12.85883c0,0 4.30313,-3.79702 2.43033,-15.22536c-1.1253,-6.86683 -5.32294,-8.80598 -5.32294,-8.80598c0,0 5.10611,-4.01154 7.63514,11.17254z" data-paper-data="{&quot;index&quot;:null}" fill="#787878"/><path d="M261.89884,176.38651c1.36165,-2.2956 2.42041,-6.05893 2.11387,-9.67361c-0.3915,-4.61685 -3.02294,-8.98471 -4.38573,-11.07523c-0.48955,-0.75098 -2.65554,-1.34455 -1.9139,-1.35879c2.39605,-0.046 4.70296,0.5642 6.54738,2.06909c2.20718,1.80089 3.74754,4.7652 3.92439,7.82115c0.36371,6.2845 -0.79945,8.69268 -3.12239,10.51128c-1.64454,1.28751 -5.3029,3.85005 -5.3029,3.85005c0,0 1.43101,-0.94986 2.13929,-2.14396z" data-paper-data="{&quot;index&quot;:null}" fill="#464646"/><path d="M260.51445,154.81566c-3.80669,-5.6753 -8.87345,-6.74774 -8.87345,-6.74774l-0.15369,-1.56005c0,0 8.57372,0.59682 11.55161,7.98778c5.228,12.97563 1.29523,12.89822 1.29523,12.89822c0,0 -1.39077,-8.95698 -3.8197,-12.57823z" data-paper-data="{&quot;index&quot;:null}" fill="#787878"/><path d="M230.88074,182.88995c-1.35191,-0.3443 -2.4099,-0.9695 -2.4099,-0.9695l-1.55169,-23.33266c0,0 3.61674,-1.02465 4.55523,-1.16454c0.40534,-0.06041 0.98244,0.33909 0.98244,0.33909c0,0 8.98789,9.21875 3.32267,24.23158c-0.55826,1.47936 -2.99907,1.37985 -4.89875,0.89602z" data-paper-data="{&quot;index&quot;:null}" fill="#787878"/><path d="M232.47349,181.94463c-2.34429,0.50584 -5.30971,-0.35317 -7.43282,-1.16957c-2.9989,-1.15319 -4.925,-3.15873 -6.31741,-9.24283c-1.24287,-5.43073 2.78332,-11.25443 8.43891,-12.47473c5.65559,-1.22029 10.96695,21.66682 5.31134,22.88712z" data-paper-data="{&quot;index&quot;:null}" fill="#464646"/><path d="M229.00672,173.86415c0,0 -0.04708,-3.00198 -0.69956,-6.86178c-0.46176,-2.73154 -1.43435,-6.42033 -1.9888,-7.44313c-0.76012,-1.40222 -2.86449,1.18957 -3.56031,-0.55693c-0.13671,-0.34312 0.46139,-1.78254 2.13974,-2.03224c1.02284,-0.15217 2.69796,-0.75296 4.12396,2.18981c4.50887,9.30466 2.64881,15.22507 2.64881,15.22507c0,0 -0.36578,0.64234 -1.31946,0.67686c-0.91933,0.03329 -1.34439,-1.19765 -1.34439,-1.19765z" data-paper-data="{&quot;index&quot;:null}" fill="#787878"/><path d="M233.2789,150.08059c0,0 -3.72326,0.41264 -5.35817,2.92241c-0.83199,1.27719 -0.75328,4.42674 -0.75328,4.42674c0,0 -1.14061,1.09093 -2.11905,1.05304c-0.97933,-0.03793 -1.4759,-1.24159 -1.4759,-1.24159c0,0 1.29401,-4.44261 2.49183,-5.93871c2.52664,-3.15586 6.65145,-3.12472 6.65145,-3.12472l0.56315,1.90283z" data-paper-data="{&quot;index&quot;:null}" fill="#787878"/><path d="M251.81555,148.20597c0,0 -6.98811,0.66311 -8.6473,0.91994c-3.18736,0.49338 -9.10257,1.82763 -9.10257,1.82763c0,0 -0.47129,-0.0988 -0.64095,-0.32558c-0.2516,-0.33632 -0.72217,-1.49656 -0.72217,-1.49656l18.84941,-3.17504c0,0 0.31244,1.07996 0.36107,1.49505c0.03307,0.28229 -0.09752,0.75455 -0.09752,0.75455z" data-paper-data="{&quot;index&quot;:null}" fill="#787878"/><path d="M251.56948,146.49185c0,0 -6.74093,0.6895 -9.8161,1.1789c-3.16357,0.50349 -8.90763,1.80099 -8.90763,1.80099c0,0 -1.93091,0.17217 -2.13986,-0.48983c-0.40222,-1.27429 0.67081,-1.89083 0.67081,-1.89083c0,0 7.12184,-1.54091 10.46705,-2.01837c3.26084,-0.46541 9.35757,-0.81117 9.35757,-0.81117c0,0 0.45816,0.02997 0.85742,1.18542c0.27517,0.79631 -0.48924,1.04491 -0.48924,1.04491z" data-paper-data="{&quot;index&quot;:null}" fill="#464646"/><path d="M233.50505,184.55292c0,0 0.1608,0.78496 -0.01005,0.95153c-0.32334,0.31519 -1.78452,0.79796 -1.78452,0.79796l-6.57562,-4.21259l2.657,-0.88156z" data-paper-data="{&quot;index&quot;:null}" fill="#787878"/><path d="M224.38526,182.1241c0,0 -4.36865,-1.90557 -2.60637,-3.71416c2.34242,-2.40395 6.26954,2.75773 6.26954,2.75773c0,0 -1.18758,0.61196 -1.86155,0.78792c-0.47993,0.1253 -1.80162,0.16851 -1.80162,0.16851z" data-paper-data="{&quot;index&quot;:null}" fill="#787878"/><path d="M237.25746,187.14715c-1.06347,0.25367 -3.13481,0.25226 -3.13481,0.25226l-0.56852,-2.38332c0,0 1.71088,-0.21543 2.68954,-0.32771c1.34703,-0.15453 4.64658,-0.51383 4.64658,-0.51383l0.78979,1.42205c0,0 -3.04776,1.22255 -4.42258,1.55052z" data-paper-data="{&quot;index&quot;:null}" fill="#787878"/><path d="M235.20805,188.14312c0,0 -0.42209,0.49658 -2.51176,-0.22671c-1.92434,-0.66604 -2.16112,-1.96212 -2.16112,-1.96212c0,0 0.92402,-0.79863 1.45433,-1.05676c0.57518,-0.27998 1.87312,-0.56287 1.87312,-0.56287c0,0 0.57791,1.17702 0.79393,1.78847c0.2314,0.65503 0.55149,2.02 0.55149,2.02z" data-paper-data="{&quot;index&quot;:null}" fill="#464646"/><g data-paper-data="{&quot;index&quot;:null}" fill="#787878"><path d="M249.36697,183.19753c0.40165,1.6837 -1.0972,2.90364 -3.63718,3.50955c-2.53997,0.60589 -4.51948,0.2157 -4.92113,-1.46798c-0.40165,-1.68368 1.16404,-2.62335 3.70403,-3.22925c2.53999,-0.60591 4.45264,-0.49599 4.85429,1.18769z"/><g><path d="M246.3135,183.89237c-0.17837,0.04255 -0.35774,-0.06873 -0.40063,-0.24855c-0.04289,-0.17982 0.06691,-0.36008 0.24528,-0.40264c0.17837,-0.04255 0.35774,0.06872 0.40063,0.24854c0.04291,0.17982 -0.06691,0.36009 -0.24529,0.40265z"/><path d="M247.42973,183.76375c-0.17837,0.04255 -0.35774,-0.06874 -0.40063,-0.24856c-0.04289,-0.17982 0.06691,-0.36007 0.24528,-0.40262c0.17837,-0.04255 0.35774,0.06873 0.40063,0.24855c0.04291,0.17982 -0.06691,0.36008 -0.24529,0.40264z"/><path d="M248.36806,183.34721c-0.17837,0.04255 -0.35774,-0.06873 -0.40063,-0.24855c-0.04291,-0.17982 0.06692,-0.36009 0.24529,-0.40264c0.17837,-0.04254 0.35774,0.06874 0.40063,0.24856c0.04291,0.17982 -0.06691,0.36007 -0.24528,0.40263z"/><path d="M247.174,182.80616c-0.17837,0.04254 -0.35775,-0.06872 -0.40064,-0.24854c-0.04291,-0.17982 0.06692,-0.36009 0.24529,-0.40264c0.17837,-0.04255 0.35775,0.06873 0.40064,0.24855c0.04291,0.17982 -0.06692,0.36008 -0.24529,0.40263z"/><path d="M246.219,182.92385c-0.17837,0.04255 -0.35773,-0.06872 -0.40062,-0.24854c-0.04291,-0.17982 0.06691,-0.36009 0.24529,-0.40264c0.17837,-0.04255 0.35773,0.06872 0.40062,0.24854c0.04291,0.17982 -0.06691,0.36008 -0.24529,0.40264z"/></g></g></g></g></svg>