<svg version="1.1" xmlns="http://www.w3.org/2000/svg" xmlns:xlink="http://www.w3.org/1999/xlink" width="277.5136" height="256.69105" viewBox="0,0,277.5136,256.69105"><g transform="translate(-103.29893,-25.05461)"><g data-paper-data="{&quot;isPaintingLayer&quot;:true}" fill-rule="nonzero" stroke-linejoin="miter" stroke-miterlimit="10" stroke-dasharray="" stroke-dashoffset="0" style="mix-blend-mode: normal"><g stroke-width="1.5" stroke-linecap="butt"><path d="M243.11742,271.90978c-5.1397,7.45416 -15.12234,11.42139 -21.81129,7.62181c-6.68895,-3.79959 -8.73261,-12.52236 -4.26053,-20.3952c4.47208,-7.87284 16.23173,-17.46141 26.49539,-10.82671c6.4605,4.17623 4.66485,16.22033 -0.42356,23.60011z" fill="#43423e" stroke="#000000"/><path d="M240.23114,271.13456c-4.6308,5.84524 -11.41129,7.49193 -15.14464,3.67797c-3.73335,-3.81395 -3.00582,-11.64428 1.62498,-17.48952c4.6308,-5.84524 11.41129,-7.49193 15.14464,-3.67797c3.73335,3.81395 3.00582,11.64428 -1.62498,17.48952z" fill="#c1cbcd" stroke="#000000"/><path d="M238.14456,269.25828c-3.49883,4.41641 -8.49453,5.79065 -11.15822,3.06946c-2.66368,-2.72119 -1.98666,-8.50736 1.51217,-12.92376c3.49883,-4.41641 8.49453,-5.79065 11.15822,-3.06946c2.66368,2.72119 1.98666,8.50736 -1.51217,12.92376z" fill="none" stroke="#8b9394"/></g><path d="M234.50053,263.89852c-0.50705,1.01459 -26.0558,-13.43411 -26.0558,-13.43411l0.82342,-1.79214c0,0 25.69116,14.30824 25.23238,15.22625z" fill="#cbd4d1" stroke="#000000" stroke-width="1" stroke-linecap="butt"/><g stroke="#002c07" stroke-width="1.5"><path d="M276.30374,80.99178l-1.68107,11.86643" fill="none" stroke-linecap="round"/><path d="M278.57813,78.42071c0,1.03766 -0.79692,1.87885 -1.77997,1.87885c-0.98305,0 -1.77997,-0.84119 -1.77997,-1.87885c0,-1.03766 0.79692,-1.87886 1.77997,-1.87886c0.98305,0 1.77997,0.84119 1.77997,1.87886z" fill="#597357" stroke-linecap="butt"/></g><path d="M166.66801,255.1043l-35.34069,-69.39627c0,0 6.97574,-12.31636 18.16441,-23.27803c4.9974,-5.08457 15.38993,-13.39261 15.38993,-13.39261l56.70153,-20.70518l109.90096,-0.13312c0,0 23.46237,-1.96873 28.35791,-5.60627c6.62338,-4.92139 8.56005,-11.41172 8.56005,-11.41172c0,0 6.7344,6.72861 8.77219,9.49359c1.79687,2.43807 2.82299,6.23929 2.82299,6.23929c0,0 -13.76588,19.73659 -36.42342,39.78778c-21.93183,19.40895 -53.53341,36.59766 -73.55804,47.3191c-35.124,18.80583 -103.34782,41.08346 -103.34782,41.08346z" fill="#fffd94" stroke="#002c07" stroke-width="1.5" stroke-linecap="butt"/><path d="M135.82521,180.24629l29.55767,-30.52151l56.38564,-21.29684l53.46148,8.5802l-74.50643,32.95722l-37.58965,35.01942z" fill="#fffd94" stroke="none" stroke-width="0" stroke-linecap="butt"/><path d="M134.86137,182.49524c0,0 9.65338,-12.22459 14.6362,-17.52888c4.97682,-5.2979 15.24275,-14.27774 15.24275,-14.27774c0,0 13.51765,6.76395 18.23476,10.13331c5.01063,3.57902 11.00164,10.74982 11.00164,10.74982l-32.1279,31.16407z" fill="#354245" stroke="#000000" stroke-width="1.5" stroke-linecap="round"/><path d="M164.16787,203.57593l32.13825,-29.46831c0,0 7.23506,13.51659 8.77894,19.94944c1.61711,6.73793 0.71421,19.60533 0.71421,19.60533l-33.52268,9.69092z" fill="#354245" stroke="#000000" stroke-width="1.5" stroke-linecap="round"/><path d="M175.6252,222.45037l-3.64742,0.00221l-2.87533,-8.85161l31.2716,-30.69393l3.55614,9.73939z" fill="#e8e8e8" stroke="none" stroke-width="0" stroke-linecap="butt"/><path d="M179.73233,220.74944l25.21276,-26.55967l0.5183,3.96571l-22.54281,22.10976z" fill="#e8e8e8" stroke="none" stroke-width="0" stroke-linecap="butt"/><path d="M164.1064,203.79565l32.13825,-29.46831c0,0 7.23506,13.51658 8.77894,19.94944c1.61711,6.73793 0.7142,19.60533 0.7142,19.60533l-33.52267,9.69092z" fill="none" stroke="#000000" stroke-width="1.5" stroke-linecap="round"/><path d="M160.8417,166.70512c0,0 2.42029,-4.9423 11.42091,-1.02355c9.98491,4.3473 5.27377,9.23861 5.27377,9.23861" fill="none" stroke="#273239" stroke-width="1.5" stroke-linecap="round"/><path d="M162.37674,167.15194c1.95349,1.15329 2.02342,4.65217 0.15619,7.81497c-1.86724,3.1628 -4.96454,4.79183 -6.91804,3.63854c-1.95349,-1.15329 -2.02342,-4.65217 -0.15619,-7.81497c1.86724,-3.1628 4.96454,-4.79183 6.91804,-3.63854z" fill="#9d9a00" stroke="#273239" stroke-width="1.5" stroke-linecap="butt"/><path d="M163.67342,189.42783c0,0 -1.43894,3.14574 -2.68599,4.13299c-1.11032,0.879 -4.43387,1.50357 -4.43387,1.50357" fill="none" stroke="#273239" stroke-width="1.5" stroke-linecap="round"/><path d="M202.57467,129.34016c1.8604,-1.59077 22.61907,-18.00537 47.60661,-21.5165c37.18734,-5.2254 59.4559,4.95402 59.4559,4.95402c0,0 15.33436,4.82364 20.27816,12.97033c6.96825,11.48271 -4.53548,14.98094 -4.53548,14.98094c0,0 -30.28786,4.11777 -46.87114,5.09933c-17.71837,1.04875 -56.25943,1.00498 -56.25943,1.00498c0,0 -15.1106,0.26167 -19.97933,-1.72914c-15.42395,-6.30681 -3.10247,-12.85057 0.30471,-15.76396z" fill="#fffd94" stroke="#002c07" stroke-width="1.5" stroke-linecap="round"/><path d="M212.61091,145.54816c-8.06611,-0.22137 -11.62776,-1.34382 -15.46936,-6.68118c-3.8416,-5.33737 5.85011,-6.68345 5.85011,-6.68345c0,0 29.26079,8.83277 44.32136,8.93714c22.23021,0.15404 78.38812,-2.31937 78.38812,-2.31937c0,0 -21.01772,4.13245 -49.78187,6.03117c-19.79787,1.30686 -51.8044,1.03141 -63.30835,0.71569z" fill="#6d6b00" stroke="none" stroke-width="0" stroke-linecap="butt"/><path d="M278.03742,108.91312l0.46988,-7.38248l3.19035,0.30136l-0.4699,7.38248c0,0 -1.15117,0.45635 -1.66486,0.40782c-0.54759,-0.05173 -1.52548,-0.70918 -1.52548,-0.70918z" fill="#4b5345" stroke="#000000" stroke-width="1.5" stroke-linecap="butt"/><path d="M266.37881,107.43268l1.79535,-6.70897l2.50188,0.80546l-1.79535,6.70896c0,0 -1.01132,0.22886 -1.41416,0.09917c-0.42943,-0.13825 -1.08772,-0.90462 -1.08772,-0.90462z" fill="#4b5345" stroke="#000000" stroke-width="1.5" stroke-linecap="butt"/><path d="M168.77637,253.49792v-20.88314c0,0 60.96728,-8.75419 91.01474,-22.63402c14.08324,-6.50547 61.61166,-37.42078 73.12491,-45.84479c15.45774,-11.31011 43.48922,-40.68782 43.48922,-40.68782l1.84506,2.82327c0,0 -18.34228,25.48091 -45.59601,48.40437c-15.63813,13.15343 -36.90995,23.95633 -50.97433,32.45937c-28.41775,17.18081 -112.90359,46.36275 -112.90359,46.36275z" fill="#fffb00" stroke="none" stroke-width="0" stroke-linecap="butt"/><path d="M202.65126,170.92919l41.76628,-18.3129" fill="none" stroke="#3a5839" stroke-width="1.5" stroke-linecap="round"/><path d="M208.113,177.03349c0,0 6.80361,15.55916 6.68899,29.23829c-0.15976,19.065 -4.76131,29.55577 -4.76131,29.55577" fill="none" stroke="#2a4327" stroke-width="1.5" stroke-linecap="round"/><path d="M294.53707,158.39929c0,0 2.28279,8.09165 0.04497,19.12069c-1.99067,9.81098 -9.68334,23.28814 -9.68334,23.28814l-33.41302,13.49372c0,0 3.63841,-14.49203 3.97735,-21.21446c0.29844,-5.91914 -2.04968,-17.01774 -2.04968,-17.01774z" fill="none" stroke="#283e25" stroke-width="1.5" stroke-linecap="round"/><path d="M262.08787,184.4229c0,0 1.56427,5.50907 0.42596,11.7918c-1.35139,7.45879 -3.31747,10.05518 -3.31747,10.05518c0,0 -1.19809,1.02773 -1.6089,0.97638c-0.44344,-0.05543 -1.28181,-1.25149 -1.24252,-2.28184c0.03929,-1.03035 0.96022,1.01175 1.33101,-0.03906c0.88221,-2.50018 1.98541,-7.8285 2.21766,-10.53811c0.18964,-2.21242 0.49602,-6.4815 0.04631,-8.93478c-0.28937,-1.57856 -1.58444,-1.02883 -1.3861,-1.9934c0.19834,-0.96457 1.35786,-0.93339 1.95447,-0.77068c0.581,0.15846 1.57959,1.73451 1.57959,1.73451z" fill="#9eb3a4" stroke="#283e25" stroke-width="1.5" stroke-linecap="round"/><path d="M313.4429,172.36873c-0.63824,5.10595 -4.01026,8.88832 -7.5316,8.44815c-3.52134,-0.44017 -5.85856,-4.93619 -5.22032,-10.04214c0.63824,-5.10595 4.01026,-8.88832 7.53161,-8.44815c3.52134,0.44017 5.85856,4.93619 5.22031,10.04214z" fill="#3c5133" stroke="#2a4327" stroke-width="1.5" stroke-linecap="butt"/><path d="M305.98046,174.92101l2.0365,-6.56203l0.67883,7.01459l-3.84671,-4.97809l5.43065,0.67883z" fill="#83a088" stroke="#83a088" stroke-width="1.5" stroke-linecap="round"/><path d="M299.35624,110.20747c0,0 6.38661,7.7288 6.68292,17.65036c0.28328,9.48556 -4.11269,15.44138 -4.11269,15.44138" fill="none" stroke="#002c07" stroke-width="1.5" stroke-linecap="round"/><g stroke="#002c07" stroke-width="1.5" stroke-linecap="round"><path d="M243.1324,147.15455c0,0 4.29809,-12.2833 3.24681,-18.32047c-2.19757,-12.61994 -10.9575,-16.37767 -10.9575,-16.37767l14.45756,-4.17663c0,0 8.21878,8.59765 9.69552,16.37673c2.30648,12.14989 -3.91249,22.49803 -3.91249,22.49803z" fill="#6d6b00"/><path d="M248.27288,143.29918l6.42558,-0.64256" fill="none"/><path d="M255.6623,138.80129l-6.42558,0.64255" fill="none"/><path d="M255.01974,134.94593l-5.14046,0.32128" fill="none"/><path d="M249.558,130.76929l8.67453,-0.96384" fill="none"/><path d="M249.87928,124.9863l5.14046,-0.32128" fill="none"/><path d="M247.30905,121.13095l5.14047,-0.32128" fill="none"/><path d="M253.09206,115.34793l-7.71069,0.96384" fill="none"/></g><path d="M164.96189,186.59719l-5.14046,9.95965" fill="none" stroke="#273239" stroke-width="1.5" stroke-linecap="round"/><path d="M177.81306,176.79817c0,5.76672 -4.74677,10.44157 -10.60221,10.44157c-5.85544,0 -10.60221,-4.67485 -10.60221,-10.44157c0,-5.76672 4.74677,-10.44157 10.60221,-10.44157c5.85544,0 10.60221,4.67485 10.60221,10.44157z" fill="#6c7379" stroke="#273239" stroke-width="1" stroke-linecap="butt"/><path d="M162.71253,190.23015c0,0 -2.69705,1.07287 -4.58562,1.73458c-1.88858,0.66171 -6.85774,-1.46336 -6.85774,-1.46336" fill="none" stroke="#273239" stroke-width="1.5" stroke-linecap="round"/><path d="M162.43918,182.17439c0,0 1.23575,1.42954 3.30967,1.57609c1.75657,0.12413 3.07847,-0.53538 3.07847,-0.53538c0,0 1.60376,3.77203 -2.05265,3.45887c-1.72248,-0.14753 -1.69161,-2.82914 -1.69161,-2.82914" fill="#563838" stroke="#273239" stroke-width="1" stroke-linecap="round"/><path d="M176.47498,174.52564c2.06951,0.92917 2.52765,4.39863 1.02328,7.74927c-1.50437,3.35064 -4.40156,5.31362 -6.47107,4.38445c-2.06951,-0.92917 -2.52765,-4.39862 -1.02328,-7.74926c1.50437,-3.35064 4.40156,-5.31363 6.47107,-4.38446z" fill="#9d9a00" stroke="#273239" stroke-width="1.5" stroke-linecap="butt"/><g stroke-linecap="butt"><path d="M173.73615,228.59876c1.6406,30.4187 -10.76285,27.14808 -10.76285,27.14808c0,0 -51.24401,8.7579 -58.63343,-33.89494c-3.77099,-21.76673 30.36087,-39.67796 30.36087,-39.67796c0,0 37.06495,9.89029 39.0354,46.42482z" fill="#fffb00" stroke="#002c07" stroke-width="1.5"/><path d="M133.25499,252.85536c-26.8771,-9.55058 -26.34488,-28.91511 -26.34488,-28.91511c0,0 3.66951,13.24133 28.83214,16.94944c28.74679,4.2363 36.70878,-7.31107 36.70878,-7.31107c0,0 -0.94812,8.49571 -2.08659,12.13886c-0.97932,3.13382 -4.33899,8.423 -4.33899,8.423c0,0 -20.309,3.14297 -32.77046,-1.28512z" fill="#6d6b00" stroke="none" stroke-width="0"/></g><g><path d="M225.32676,217.34106c0,0 0.45801,-11.98512 -0.05416,-17.90353c-0.44097,-5.09565 -2.83735,-15.50949 -2.83735,-15.50949c0,0 0.28639,-4.49791 2.24895,-4.49791c1.96256,0 4.49791,4.49791 4.49791,4.49791c0,0 2.63641,9.31478 3.00262,14.12783c0.38271,5.02994 -0.75367,15.42985 -0.75367,15.42985c0,0 -0.94542,3.91136 -2.89151,5.14047c-1.94609,1.22911 -3.21279,-1.28511 -3.21279,-1.28511z" fill="#354245" stroke="#000000" stroke-width="1.5" stroke-linecap="round"/><path d="M225.88377,208.27476l-0.70298,-12.79427l4.78028,-7.59221l2.67133,10.68533z" fill="#e8e8e8" stroke="none" stroke-width="0" stroke-linecap="butt"/><path d="M225.40588,217.56078c0,0 0.45801,-11.98512 -0.05416,-17.90353c-0.44097,-5.09565 -2.83735,-15.50949 -2.83735,-15.50949c0,0 0.28639,-4.49791 2.24895,-4.49791c1.96256,0 4.49791,4.49791 4.49791,4.49791c0,0 2.63641,9.31478 3.00262,14.12783c0.38271,5.02994 -0.75367,15.42985 -0.75367,15.42985c0,0 -0.94542,3.91135 -2.89151,5.14046c-1.94609,1.22911 -3.21279,-1.28511 -3.21279,-1.28511z" fill="none" stroke="#000000" stroke-width="1.5" stroke-linecap="round"/></g><g><path d="M236.513,215.73304c0,0 0.45801,-11.98512 -0.05416,-17.90353c-0.44097,-5.09565 -2.83735,-15.50949 -2.83735,-15.50949c0,0 0.28639,-4.49791 2.24895,-4.49791c1.96256,0 4.49791,4.49791 4.49791,4.49791c0,0 2.63641,9.31478 3.00262,14.12783c0.38271,5.02994 -0.75367,15.42985 -0.75367,15.42985c0,0 -0.94542,3.91135 -2.89151,5.14046c-1.94609,1.22911 -3.21279,-1.28511 -3.21279,-1.28511z" fill="#354245" stroke="#000000" stroke-width="1.5" stroke-linecap="round"/><path d="M237.07001,206.66671l-0.70298,-12.79427l4.78028,-7.59221l2.67133,10.68533z" fill="#e8e8e8" stroke="none" stroke-width="0" stroke-linecap="butt"/><path d="M237.43033,210.26073l-0.28119,-2.24954l5.76445,-7.45161l0.42178,1.54656z" fill="#e8e8e8" stroke="none" stroke-width="0" stroke-linecap="butt"/><path d="M236.59212,215.95277c0,0 0.45801,-11.98512 -0.05416,-17.90353c-0.44097,-5.09565 -2.83735,-15.50949 -2.83735,-15.50949c0,0 0.28639,-4.49791 2.24895,-4.49791c1.96256,0 4.49791,4.49791 4.49791,4.49791c0,0 2.63641,9.31478 3.00262,14.12783c0.38271,5.02994 -0.75367,15.42985 -0.75367,15.42985c0,0 -0.94542,3.91136 -2.89151,5.14047c-1.94609,1.22911 -3.21279,-1.28511 -3.21279,-1.28511z" fill="none" stroke="#000000" stroke-width="1.5" stroke-linecap="round"/></g><g stroke-linecap="butt"><path d="M319.39553,169.21462l-0.72196,-14.43791l7.52294,-2.88244l-0.22554,13.58067z" fill="#354245" stroke="#000000" stroke-width="1.5"/><path d="M320.1365,167.74373l-0.31449,-3.23268l5.42604,-11.50289l0.10081,5.76772z" fill="#e8e8e8" stroke="none" stroke-width="0"/></g><g stroke-linecap="butt"><path d="M330.56134,163.38039l-0.72196,-14.43792l7.52294,-2.88244l-0.22553,13.58067z" fill="#354245" stroke="#000000" stroke-width="1.5"/><path d="M331.30231,161.90948l-0.31448,-3.23268l5.42604,-11.50289l0.1008,5.76771z" fill="#e8e8e8" stroke="none" stroke-width="0"/></g><path d="M274.05453,110.97406l0.82362,-9.06755l5.16388,0.37745l-0.82361,9.06754c0,0 -1.86809,0.55796 -2.69954,0.49718c-0.88634,-0.06479 -2.46434,-0.87463 -2.46434,-0.87463z" fill="#4b5345" stroke="#000000" stroke-width="1.5" stroke-linecap="butt"/><path d="M262.02986,108.55468l2.4525,-8.96946l4.03659,0.63504l-2.4525,8.96947c0,0 -1.5979,0.46043 -2.24784,0.35818c-0.69283,-0.10899 -1.78875,-0.99322 -1.78875,-0.99322z" fill="#4b5345" stroke="#000000" stroke-width="1.5" stroke-linecap="butt"/><path d="M263.05289,99.18698l0.7911,-4.25214l19.97516,2.47217l-0.59332,5.53767c0,0 -4.20092,1.11304 -11.019,0.26279c-5.74036,-0.71586 -9.15393,-4.02049 -9.15393,-4.02049z" fill="#4b5345" stroke="#000000" stroke-width="1.5" stroke-linecap="butt"/><path d="M284.0057,97.86501c-0.32052,1.99783 -5.09118,2.9696 -10.6556,2.17052c-5.56441,-0.79908 -9.81543,-3.06642 -9.49491,-5.06425c0.32052,-1.99783 5.09119,-2.9696 10.6556,-2.17052c5.56441,0.79908 9.81543,3.06642 9.49491,5.06425z" fill="#5f6759" stroke="#000000" stroke-width="1.5" stroke-linecap="butt"/><path d="M190.82139,247.22538l10.10779,-3.82124l9.36819,5.17716l-1.97225,2.95838z" fill="#3b503b" stroke="#002c07" stroke-width="1.5" stroke-linecap="butt"/><path d="M236.42969,249.93722l-13.06617,-14.66862l12.32657,-4.93062l7.39594,18.12006c0,0 -7.02472,15.65443 -8.253,15.92738c-0.83425,0.18539 1.59665,-14.44819 1.59665,-14.44819z" fill="#cbd4d1" stroke="#000000" stroke-width="1" stroke-linecap="butt"/><path d="M235.07377,263.37317l2.21878,-13.43596l4.6841,-1.23266z" fill="#b0b6b4" stroke="none" stroke-width="0" stroke-linecap="butt"/><path d="M229.3307,136.31673c0,0 -0.01927,-0.00388 -0.05412,-0.01183c-0.24627,-0.00806 -0.49668,-0.02549 -0.75222,-0.0547c-1.51433,-0.17314 -2.93993,-0.90069 -4.4099,-1.35105l-0.19118,-0.15747l-0.06432,0.04513l-2.21756,-1.07315c-0.08019,-0.03805 -0.15835,-0.07862 -0.23399,-0.1217c-0.98795,-0.56258 -1.17362,-1.33726 -0.41469,-1.73029c0.02494,-0.01291 0.05057,-0.02524 0.07688,-0.03703c-0.65038,-0.52422 -0.69485,-1.14271 -0.04344,-1.48006c0.30032,-0.15553 0.70355,-0.22798 1.14243,-0.2239l3.49651,0.00654l0.0037,0.00684l0.03156,-0.00661c3.09966,0.06425 6.14912,0.02962 9.18671,-0.02826c1.0008,-0.48816 1.97187,-0.89801 2.47092,-1.12147c0.21431,-0.09596 0.42877,-0.19077 0.64339,-0.28433c-0.01661,-0.67269 0.40129,-1.4404 1.08078,-1.88725c0.29674,-0.19513 0.60411,-0.30325 0.89151,-0.32939l3.18275,-0.34724l-0.0023,0.01244l0.04303,-0.01634c1.17944,-0.06613 2.36452,-0.19759 3.55015,-0.34095c0.20262,-0.04205 0.40525,-0.08203 0.60787,-0.11987c1.36309,-0.25457 2.7145,-0.34057 4.06033,-0.38603c0.06917,-0.00483 0.13832,-0.00947 0.20744,-0.01389c1.07579,-0.0688 2.13681,-0.08767 3.19375,-0.09166c0.05559,-0.00283 0.11121,-0.00577 0.16682,-0.00886c0.76025,-0.183 1.52058,-0.35938 2.28098,-0.54791c-1.76559,-0.04995 -3.53379,-0.08521 -5.28983,-0.17445c-0.33567,0.02107 -0.67225,0.04582 -1.00956,0.07349c-0.9071,0.34336 -1.82519,0.66946 -2.76172,0.97301l-0.26567,-0.13059l-0.04861,0.14134l-1.80054,-0.13513c-0.25295,-0.01726 -0.48169,-0.10319 -0.66214,-0.2538c-1.67911,0.18815 -3.35358,0.3517 -5.00291,0.4035l-1.74074,0.31967c-0.60898,0.12463 -1.15955,-0.10608 -1.38061,-0.64744c-0.30584,-0.74896 0.13479,-1.80888 0.98415,-2.36741c0.24183,-0.15902 0.49071,-0.26026 0.7301,-0.30643l0.62708,-0.13476c-0.00055,-0.47445 0.21138,-0.99197 0.57599,-1.40875c-0.27873,-0.10161 -0.5024,-0.30619 -0.6249,-0.60618c-0.30584,-0.74896 0.13477,-1.80888 0.98415,-2.36742c0.24405,-0.16049 0.49531,-0.26211 0.73673,-0.30768l3.22124,-0.67868l-0.00033,0.0037c0.00722,-0.0027 0.01443,-0.00537 0.02164,-0.00805c2.19572,-0.81504 4.37989,-0.86646 6.55829,-1.20936c2.57132,-0.40475 5.14055,-0.59489 7.71582,-0.80177c-1.05354,-0.12319 -2.07577,-0.27235 -3.03748,-0.39996l-0.04339,-0.03196l-0.00983,0.02134l-2.41825,-0.53743c-0.34986,-0.07615 -0.63471,-0.29717 -0.77906,-0.65068c-0.29429,-0.72064 0.10252,-1.72916 0.88957,-2.30195l-0.76598,-0.25499c-0.29935,-0.09552 -0.54038,-0.30559 -0.66933,-0.62137c-0.30584,-0.74894 0.13479,-1.80888 0.98415,-2.36741c0.3098,-0.20372 0.6312,-0.3126 0.92935,-0.33237l2.0479,-0.17028l-0.00334,0.01602l0.04422,-0.01888c0.8156,-0.02392 1.63464,-0.03028 2.4567,-0.03042l0.42804,-0.10904c0.05892,-0.01495 0.1178,-0.03006 0.17665,-0.04535c0.85716,-0.52976 1.77031,-0.70122 2.69343,-0.8078c0.25326,-0.0848 0.50614,-0.17158 0.75873,-0.26c-0.77668,0.06917 -1.55409,0.13786 -2.33299,0.20738c-1.09845,0.09807 -2.31808,0.57816 -3.30524,0.34462c-0.03751,-0.00887 -0.07456,-0.01853 -0.11116,-0.02892l-0.00891,0.02691l-1.52993,-0.09089c-0.44493,-0.02291 -0.81803,-0.2562 -0.99052,-0.6786c-0.30584,-0.74895 0.13477,-1.80888 0.98415,-2.36741c0.30793,-0.20248 0.62728,-0.31128 0.92391,-0.33201l1.85535,-0.16126c0.48449,-0.08899 0.96753,-0.16971 1.44954,-0.24478c0.00655,-0.05249 0.0155,-0.10526 0.02676,-0.15809c-0.06938,-0.08368 -0.12752,-0.18041 -0.17221,-0.28984c-0.30584,-0.74894 0.13479,-1.80888 0.98415,-2.36741c0.09612,-0.0632 0.19334,-0.11728 0.29066,-0.1624l3.18576,-1.53464l0.00289,0.01485c0.04463,-0.02535 0.08937,-0.05037 0.13428,-0.07502c1.38186,-0.7592 2.78444,-1.04932 4.16973,-1.18865c0.84827,-0.37491 1.69619,-0.68661 2.54744,-0.91969l-1.04129,-0.33888c-0.30255,-0.09448 -0.54631,-0.30535 -0.67625,-0.62354c-0.30584,-0.74894 0.13478,-1.80888 0.98415,-2.36741c0.12612,-0.08295 0.25417,-0.15016 0.38178,-0.20204l0.77753,-0.33235c0.3531,-0.8204 1.22761,-1.22855 1.22761,-1.22855l2.28827,-1.06796c0.7739,-0.37593 1.56042,-0.18359 1.83576,0.49071c0.29321,0.718 -0.09964,1.72182 -0.88098,2.29566l-0.29719,0.22173c0.52346,0.02942 1.06223,0.10833 1.64705,0.15567l1.97932,-0.27661c0.57951,-0.09223 1.09518,0.1412 1.30734,0.66076c0.30584,0.74894 -0.13479,1.80888 -0.98415,2.36741l-0.55239,0.36325c0.5228,0.14731 0.91757,0.4119 0.9711,0.95557c0.1198,1.21662 -1.55805,2.56788 -2.68557,3.48769c-0.11202,0.09138 -0.22615,0.18004 -0.34225,0.26604c0.6088,-0.12442 1.15912,0.10631 1.38013,0.64753c0.12342,0.30224 0.12528,0.65515 0.02776,1.00531c0.84941,-0.21655 1.66471,-0.42358 2.37978,-0.65515l0.07673,0.00826l0.00202,-0.02819l2.02621,-0.46407c0.63876,-0.16054 1.22636,0.06633 1.45656,0.63011c0.29321,0.718 -0.09964,1.72182 -0.88098,2.29566l-2.48501,1.85402l-0.0003,-0.00059c-0.00125,0.00122 -0.0025,0.00241 -0.00377,0.00362c-1.7793,1.70684 -4.0177,3.25661 -6.31579,4.59855c0.64784,-0.17212 1.24706,0.05333 1.4801,0.62403c0.07568,0.18531 0.10563,0.38964 0.09504,0.60072c0.14201,0.11071 0.25628,0.25963 0.33196,0.44493c0.30584,0.74896 -0.13479,1.80888 -0.98415,2.36741c-0.10441,0.06865 -0.21014,0.12654 -0.31585,0.17388l-1.48173,0.69155c0.02727,0.67831 -0.39244,1.45901 -1.07999,1.91115c-0.04912,0.03229 -0.09854,0.06221 -0.1481,0.08976l-2.4244,1.37486l-0.01303,-0.04414c-0.0379,0.02563 -0.07601,0.05087 -0.11432,0.0757c0.6,-0.07572 1.2009,-0.1668 1.8046,-0.28752c0.27943,-0.13059 0.55898,-0.25871 0.83875,-0.38239c0.54606,-0.24142 1.06547,-0.73982 1.61398,-0.8473c0.02047,-0.004 0.04092,-0.00793 0.06135,-0.01178l-0.00248,-0.01573l2.08879,-0.93766c0.76529,-0.35884 1.53706,-0.16326 1.80928,0.50334c0.11745,0.28763 0.12482,0.62113 0.04121,0.95447c0.01847,0.67369 -0.39975,1.4437 -1.08068,1.89146v0l-1.58113,1.03972c-1.35794,1.41262 -3.19905,2.08125 -4.83539,3.01014c-0.44253,0.25121 -0.88999,0.50417 -1.34133,0.75614c1.0973,0.00484 2.32989,-0.31441 3.29023,0.0198c0.05002,0.01741 0.09917,0.03613 0.1475,0.05606l0.01241,-0.02536l1.67608,0.43807c0.33129,0.08399 0.59981,0.30138 0.73855,0.64113c0.30584,0.74896 -0.13479,1.80888 -0.98415,2.36741c-0.18264,0.12011 -0.36932,0.20725 -0.55289,0.2626l-0.49553,0.1609c1.54348,-0.23771 3.11957,-0.44315 4.75689,-0.58646l0.27277,0.05983l-0.02233,-0.05593l2.15068,0.10302c2.74733,-0.66658 5.35194,-1.33024 8.60911,-1.70234l-0.37578,0.02027c0,0 1.37416,-0.71164 3.16302,0.30702c1.78885,1.01864 0.41469,1.73029 0.41469,1.73029l-1.08217,0.38608c-3.58036,0.40475 -6.27157,1.18511 -9.33653,1.91498l-1.51997,0.62541l-0.04064,-0.02616c-0.07837,0.04047 -0.15938,0.07955 -0.24334,0.11709c-0.56205,0.25141 -1.40022,0.2753 -2.22479,0.31274l-1.32258,0.83236l-0.04608,-0.02363c-0.08465,0.05918 -0.17425,0.11615 -0.26936,0.17069c-0.91866,0.52675 -2.60907,0.5277 -4.03791,0.6523c-1.67208,0.14581 -3.41521,0.15184 -5.19881,0.07806c-1.19325,0.16738 -2.39627,0.3232 -3.60463,0.46541c-0.53859,0.10441 -1.07824,0.20778 -1.61958,0.30951c-1.14253,0.34214 -2.28492,0.6802 -3.4254,1.00038c2.80493,-0.07608 5.57416,-0.20286 8.3113,-0.49117c0.52002,-0.05478 2.67922,-0.38407 4.6137,-0.60232c0.64617,-0.1316 1.28783,-0.25716 1.92572,-0.37118l0.1075,0.00846l-0.01746,-0.02012l3.17472,-0.3618c0.76367,-0.09861 1.74151,0.08437 2.48006,0.50494c0.98795,0.56258 1.17362,1.33726 0.41469,1.73029c-0.11269,0.05836 -0.23988,0.10502 -0.37799,0.14033l-2.01186,0.55105l-0.03645,-0.02892c-0.06906,0.02907 -0.1405,0.0568 -0.21453,0.08304c-0.91631,0.32485 -2.30078,0.20791 -3.51846,0.25731c-3.65049,0.74144 -7.41548,1.61583 -11.4778,1.78742c-3.39899,0.14357 -7.06056,-0.17968 -10.7157,-0.50963c-3.51814,0.08824 -6.3556,0.11106 -10.08263,-0.4697c-0.39033,0.05443 -0.78027,0.10941 -1.20896,0.10546c-3.13949,-0.02892 -6.67001,-0.7628 -9.84806,-1.39802zM259.13373,129.2661l-0.02053,-0.19519l0.56394,-0.22617c-0.63118,0.12725 -1.26204,0.24012 -1.89427,0.45232c-0.3096,0.1039 -0.61916,0.21284 -0.9287,0.32487c0.76131,-0.13071 1.52136,-0.25107 2.27957,-0.35583zM263.45117,128.20155c-0.09842,0.00449 -0.19684,0.00903 -0.29526,0.01364c0.10186,0.0998 0.18514,0.22292 0.2446,0.36851c0.07138,0.17477 0.10209,0.36646 0.09645,0.56479c0.71232,-0.28372 1.42431,-0.57497 2.1366,-0.87065c-0.81629,-0.05835 -1.57435,-0.10405 -2.18239,-0.07628zM264.92645,111.80843c0.31571,-0.03044 0.62905,-0.07186 0.93901,-0.12594c0.5422,-0.09459 1.08646,-0.27615 1.62996,-0.5083c-1.59249,0.14665 -3.18444,0.30849 -4.77081,0.42741c0.73642,0.08716 1.46848,0.15664 2.20182,0.20683z" data-paper-data="{&quot;index&quot;:null}" fill="#000000" stroke="none" stroke-width="0.5" stroke-linecap="butt"/><path d="M325.86503,28.67045c0,0 0.01909,0.00469 0.05358,0.01411c0.24571,0.01846 0.49516,0.04645 0.74925,0.08644c1.50565,0.23697 2.89925,1.0241 4.34887,1.53617l0.18435,0.16541l0.06618,-0.04238l2.17022,1.16589c0.07851,0.0414 0.15489,0.08524 0.22864,0.13148c0.96329,0.60382 1.11607,1.38565 0.34121,1.74627c-0.02545,0.01185 -0.05159,0.02308 -0.07838,0.03375c0.62765,0.55123 0.64596,1.17105 -0.01912,1.48057c-0.30662,0.1427 -0.71255,0.19805 -1.15086,0.17544l-3.49311,-0.15428l-0.00342,-0.00699l-0.03181,0.00527c-3.09417,-0.19516 -6.14238,-0.28941 -9.17969,-0.35992c-1.02053,0.44543 -2.00805,0.81389 -2.5161,1.01607c-0.21817,0.08682 -0.43645,0.17248 -0.65482,0.25689c-0.01183,0.67279 -0.46179,1.42216 -1.15956,1.8399c-0.30472,0.18242 -0.61638,0.27745 -0.90463,0.29143l-3.19457,0.21245l0.00284,-0.01233l-0.04368,0.01451c-1.18118,0.01624 -2.37076,0.0975 -3.56138,0.19065c-0.20422,0.03345 -0.40835,0.06484 -0.6124,0.09408c-1.37262,0.19675 -2.72646,0.22557 -4.07302,0.21413c-0.06929,0.00191 -0.1386,0.00361 -0.20784,0.0051c-1.07774,0.02328 -2.13861,-0.0027 -3.19478,-0.04337c-0.05566,0.00048 -0.11136,0.00107 -0.16703,0.00179c-0.7673,0.15071 -1.5344,0.29481 -2.3021,0.45105c1.7619,0.12451 3.52703,0.23445 5.27773,0.39779c0.33627,-0.00687 0.67358,-0.01737 1.01175,-0.03077c0.9208,-0.30473 1.85184,-0.59174 2.80037,-0.85545l0.25992,0.1417l0.05454,-0.13916l1.79322,0.21109c0.25199,0.02793 0.4769,0.12345 0.65082,0.28155c1.68556,-0.11704 3.36544,-0.20969 5.01548,-0.19175l1.75269,-0.24583c0.61371,-0.09878 1.15403,0.15498 1.35202,0.70519c0.27391,0.76121 -0.21109,1.80157 -1.0833,2.32372c-0.24833,0.14865 -0.50128,0.23929 -0.74239,0.27531l-0.6322,0.10815c-0.0195,0.47405 -0.2531,0.98215 -0.635,1.38315c0.2742,0.1133 0.48902,0.32714 0.59873,0.63205c0.27392,0.76121 -0.21108,1.80157 -1.08329,2.32372c-0.25061,0.15004 -0.50596,0.24096 -0.74907,0.27628l-3.24704,0.54197l0.00048,-0.00368c-0.00731,0.00238 -0.01464,0.00475 -0.02196,0.00713c-2.22819,0.72154 -4.41257,0.68063 -6.60353,0.93117c-2.58612,0.29573 -5.16111,0.37715 -7.74281,0.47504c1.04739,0.16759 2.06242,0.35982 3.01786,0.52794l0.042,0.03376l0.01071,-0.02091l2.39338,0.63913c0.34633,0.09085 0.62158,0.32373 0.75087,0.68301c0.26357,0.73241 -0.1755,1.72329 -0.98604,2.26231l0.75451,0.28712c0.29505,0.10808 0.52699,0.32815 0.64249,0.64909c0.27392,0.7612 -0.21109,1.80157 -1.0833,2.32372c-0.31813,0.19045 -0.64384,0.28565 -0.94256,0.29281l-2.05327,0.0836l0.00402,-0.01586l-0.04497,0.01699c-0.81588,-0.01055 -1.63447,-0.03883 -2.45579,-0.0734l-0.43227,0.09086c-0.05951,0.01244 -0.11896,0.02505 -0.17841,0.03784c-0.87877,0.49307 -1.79836,0.62579 -2.72517,0.69328c-0.25661,0.07403 -0.51293,0.15004 -0.76903,0.22771c0.77889,-0.03628 1.55853,-0.07206 2.33967,-0.10862c1.10162,-0.05157 2.34044,-0.47969 3.31685,-0.20466c0.0371,0.01046 0.07372,0.02166 0.10984,0.03359l0.01003,-0.02651l1.52472,0.15545c0.44358,0.0417 0.80647,0.29053 0.96096,0.71984c0.27392,0.76121 -0.21108,1.80157 -1.0833,2.32372c-0.31621,0.18929 -0.63989,0.28448 -0.93711,0.29267l-1.86051,0.08273c-0.48782,0.06844 -0.97383,0.12868 -1.45859,0.18331c-0.00876,0.05217 -0.01993,0.10451 -0.0334,0.15682c0.06578,0.08654 0.11979,0.18563 0.15981,0.29686c0.2739,0.76121 -0.21109,1.80157 -1.0833,2.32372c-0.09871,0.05908 -0.19814,0.109 -0.29726,0.14997l-3.24776,1.39866l-0.00226,-0.01496c-0.04568,0.02344 -0.09143,0.04655 -0.13733,0.06928c-1.4127,0.70014 -2.82629,0.93073 -4.21623,1.0114c-0.86336,0.33874 -1.72369,0.61432 -2.58402,0.81123l1.02605,0.38258c0.29829,0.10718 0.53292,0.32816 0.6493,0.65156c0.27392,0.7612 -0.21108,1.80156 -1.08329,2.32372c-0.12951,0.07754 -0.26028,0.13928 -0.38997,0.18573l-0.79088,0.2992c-0.38744,0.80475 -1.27843,1.17558 -1.27843,1.17558l-2.33134,0.97032c-0.78909,0.34289 -1.56678,0.11749 -1.81338,-0.56783c-0.26261,-0.72976 0.17231,-1.71607 0.97719,-2.25639l0.30629,-0.20898c-0.52175,-0.05151 -1.0567,-0.15312 -1.639,-0.22512l-1.98923,0.19274c-0.58289,0.06766 -1.08824,-0.18735 -1.27825,-0.71541c-0.27392,-0.7612 0.21109,-1.80157 1.0833,-2.32372l0.56724,-0.33958c-0.5161,-0.16927 -0.89934,-0.45031 -0.92984,-0.99575c-0.06829,-1.22059 1.66515,-2.49975 2.83053,-3.3711c0.11579,-0.08657 0.23356,-0.17032 0.35318,-0.25134c-0.61351,0.09858 -1.15359,-0.15519 -1.35154,-0.70526c-0.11055,-0.30719 -0.09749,-0.65985 0.01474,-1.00559c-0.8578,0.18046 -1.68111,0.35287 -2.40532,0.55402l-0.07631,-0.01149l-0.00322,0.02808l-2.044,0.37805c-0.64498,0.1334 -1.22246,-0.11809 -1.42864,-0.6911c-0.26261,-0.72975 0.17231,-1.71607 0.97719,-2.25639l2.56114,-1.74737l0.00028,0.0006c0.00132,-0.00116 0.0026,-0.0023 0.00393,-0.00346c1.84984,-1.63013 4.15172,-3.08394 6.50445,-4.32759c-0.65454,0.1446 -1.2437,-0.10598 -1.45241,-0.68601c-0.06778,-0.18834 -0.08909,-0.39376 -0.06957,-0.6042c-0.1372,-0.11661 -0.24509,-0.27022 -0.31287,-0.45856c-0.27391,-0.76121 0.2111,-1.80157 1.0833,-2.32372c0.10722,-0.06418 0.21531,-0.11755 0.32291,-0.16038l1.50962,-0.62832c0.00142,-0.67887 0.45374,-1.44112 1.15978,-1.86381c0.05044,-0.03019 0.10109,-0.05799 0.15176,-0.08342l2.48033,-1.27119l0.01116,0.04465c0.03895,-0.02401 0.07809,-0.04761 0.11742,-0.07081c-0.60267,0.0503 -1.20688,0.11592 -1.81513,0.21101c-0.28469,0.11866 -0.56941,0.23486 -0.85416,0.3466c-0.55577,0.21813 -1.09578,0.69414 -1.64834,0.77834c-0.02062,0.00314 -0.04123,0.00619 -0.0618,0.00918l0.00183,0.01583l-2.12656,0.84857c-0.77977,0.32618 -1.54259,0.09816 -1.78638,-0.57933c-0.10519,-0.29233 -0.09846,-0.62585 -0.00084,-0.95536c0.01001,-0.67388 0.4604,-1.42552 1.15962,-1.84411v0l1.62364,-0.97199c1.41642,-1.35398 3.28414,-1.94422 4.95827,-2.80314c0.45274,-0.23228 0.9105,-0.46611 1.37208,-0.6988c-1.09612,-0.0512 -2.34109,0.21568 -3.28645,-0.15881c-0.04924,-0.01951 -0.09757,-0.04029 -0.14501,-0.06224l-0.01347,0.02482l-1.65607,-0.50849c-0.32745,-0.09792 -0.58653,-0.32646 -0.7108,-0.67177c-0.27391,-0.76121 0.2111,-1.80157 1.08331,-2.32371c0.18755,-0.11229 0.37774,-0.19146 0.56349,-0.23901l0.50188,-0.13981c-1.55214,0.17229 -3.1355,0.31096 -4.77741,0.38495l-0.27,-0.07131l0.01995,0.05682l-2.14441,-0.1938c-2.77303,0.54991 -5.40337,1.10291 -8.67335,1.33707l0.3763,-0.00437c0,0 -1.403,0.65294 -3.14722,-0.44038c-1.74422,-1.09331 -0.34121,-1.74627 -0.34121,-1.74627l1.09752,-0.34001c3.59427,-0.25311 6.31604,-0.91906 9.40911,-1.51878l1.54504,-0.56063l0.0395,0.02785c0.08001,-0.03712 0.1626,-0.07274 0.24807,-0.10671c0.57217,-0.22744 1.41061,-0.2159 2.23601,-0.21845l1.35657,-0.77572l0.04503,0.02555c0.08708,-0.05555 0.17901,-0.10868 0.27634,-0.15915c0.9401,-0.48747 2.62903,-0.41698 4.06186,-0.4811c1.67674,-0.07504 3.41858,-0.0074 5.19745,0.14167c1.19927,-0.11681 2.4078,-0.22165 3.62108,-0.31268c0.54251,-0.08156 1.08605,-0.16204 1.63122,-0.2408c1.15597,-0.29356 2.31162,-0.58304 3.46461,-0.85475c-2.80564,-0.0425 -5.57777,-0.03285 -8.32464,0.13955c-0.52187,0.03276 -2.69306,0.27052 -4.63504,0.40684c-0.65113,0.10419 -1.29755,0.20252 -1.9397,0.28948l-0.10703,-0.01299l0.01659,0.02084l-3.18718,0.22734c-0.76715,0.06625 -1.73639,-0.15788 -2.4565,-0.60927c-0.96329,-0.60382 -1.11607,-1.38565 -0.34121,-1.74627c0.11506,-0.05355 0.24411,-0.09479 0.38358,-0.12424l2.03334,-0.46555l0.03519,0.03044c0.07023,-0.02612 0.14278,-0.05081 0.21786,-0.07391c0.92922,-0.28584 2.3075,-0.11052 3.52619,-0.10842c3.67855,-0.58654 7.47713,-1.30106 11.54307,-1.30085c3.40202,0.00018 7.04667,0.47785 10.6846,0.96194c3.51872,0.06048 6.35461,0.15758 10.05378,0.8953c0.39228,-0.03789 0.7842,-0.07634 1.21234,-0.05428c3.13545,0.16154 6.63183,1.04395 9.78018,1.81288zM295.7907,34.45552l0.01227,0.19589l-0.573,0.20214c0.636,-0.10047 1.27106,-0.18658 1.9117,-0.37188c0.31371,-0.09073 0.6276,-0.18648 0.94159,-0.28533c-0.76613,0.09843 -1.53061,0.18656 -2.29257,0.25919zM291.43213,35.3367c0.09853,-0.00033 0.19703,-0.00072 0.29556,-0.00115c-0.09755,-0.10401 -0.17555,-0.23054 -0.22881,-0.37852c-0.06392,-0.17763 -0.08652,-0.37045 -0.0725,-0.56836c-0.72367,0.25337 -1.44733,0.51428 -2.17148,0.7796c0.8131,0.09279 1.56854,0.17047 2.17723,0.16842zM289.26551,51.65286c-0.31671,0.01707 -0.63154,0.04522 -0.94349,0.08615c-0.54571,0.0716 -1.09715,0.23 -1.64999,0.43898c1.59726,-0.07923 3.19463,-0.17366 4.7846,-0.22546c-0.73208,-0.11818 -1.46055,-0.21855 -2.19112,-0.29968z" data-paper-data="{&quot;index&quot;:null}" fill="#000000" stroke="none" stroke-width="0.5" stroke-linecap="butt"/><g fill="none" stroke="#273239" stroke-width="1.5" stroke-linecap="round"><path d="M159.7986,178.55894c0,0 -0.20864,-2.21188 1.71163,-5.24972c1.7219,-2.72403 4.13958,-3.97752 4.13958,-3.97752"/><path d="M163.2986,180.55894c0,0 -0.20864,-2.21188 1.71163,-5.24972c1.7219,-2.72403 4.13958,-3.97752 4.13958,-3.97752"/></g><g fill="#273239" stroke="#273239"><path d="M169.6391,183.19163c0,0 -0.03615,0.79048 -2.40478,2.12346c-1.5175,0.85399 -2.35387,0.17825 -2.35387,0.17825" stroke-width="1.5" stroke-linecap="round"/><path d="M164.59619,185.26878c0.04215,0.33537 -0.19556,0.6414 -0.53093,0.68355c-0.33537,0.04215 -0.64141,-0.19555 -0.68355,-0.53092c-0.04215,-0.33537 0.19555,-0.64141 0.53092,-0.68356c0.33537,-0.04215 0.64141,0.19556 0.68356,0.53093z" stroke-width="1" stroke-linecap="butt"/></g><g data-paper-data="{&quot;index&quot;:null}" stroke-width="0.7" stroke-linecap="butt"><path d="M155.73036,177.10815c0.07114,0.77459 0.56674,1.59945 0.56674,1.59945c0,0 -1.23469,-2.17667 -1.75711,-3.22375c-0.73793,-1.479 -0.74719,-2.97733 0.94861,-6.06978c0.82461,-1.50376 2.3171,-2.63315 3.86714,-3.01345c1.29528,-0.31779 2.60935,-0.07161 3.81068,0.52804c0.37184,0.18561 -0.86693,-0.03508 -1.29529,0.22715c-1.19245,0.72997 -3.57466,2.3071 -4.88336,4.54903c-1.02463,1.75528 -1.39418,3.9142 -1.25741,5.40332z" data-paper-data="{&quot;index&quot;:null}" fill="#f2f23c" stroke="#533721"/><path d="M156.90077,170.93212c4.93227,-7.07473 6.55095,-3.81661 6.55095,-3.81661c0,0 -2.59046,-0.02855 -4.8117,3.17535c-3.69676,5.3322 -2.43278,8.28861 -2.43278,8.28861c0,0 -3.46979,-1.67559 0.69353,-7.64736z" data-paper-data="{&quot;index&quot;:null}" fill="#b78700" stroke="#533721"/><path d="M156.66131,171.97209c0,0 -2.00859,-0.90688 3.7581,-6.21489c3.28473,-3.02346 7.76657,-1.26301 7.76657,-1.26301l-0.45304,0.75241c0,0 -2.82174,-0.67618 -6.11313,1.27979c-2.10014,1.24805 -4.9585,5.4457 -4.9585,5.4457z" data-paper-data="{&quot;index&quot;:null}" fill="#b78700" stroke="#533721"/><path d="M167.59779,186.22861c0.74481,-8.95924 7.51026,-11.46183 7.51026,-11.46183c0,0 0.38811,-0.06332 0.57868,0.06475c0.44122,0.29654 2.0248,1.68503 2.0248,1.68503l-6.39791,11.43299c0,0 -0.68573,0.06184 -1.45262,-0.08915c-1.07762,-0.21216 -2.3366,-0.74895 -2.26321,-1.63179z" data-paper-data="{&quot;index&quot;:null}" fill="#b78700" stroke="#303133"/><path d="M169.95767,187.31993c-2.29495,-1.84806 5.64158,-12.27319 7.93652,-10.42514c2.29494,1.84805 2.73676,5.67087 0.86153,8.14837c-2.10084,2.77557 -3.46483,3.37127 -5.11479,3.30226c-1.16811,-0.04887 -2.73198,-0.25945 -3.68325,-1.02549z" data-paper-data="{&quot;index&quot;:null}" fill="#f2f23c" stroke="#533721"/><path d="M172.01208,184.02679c-0.47425,-0.24688 -0.50482,-0.65989 -0.50482,-0.65989c0,0 0.48299,-3.44316 5.00274,-7.06666c1.42945,-1.146 2.13253,-0.43905 2.61348,-0.116c0.78917,0.53008 0.74555,1.4023 0.59384,1.54303c-0.77221,0.71634 -1.21355,-1.10131 -1.93548,-0.57464c-0.52659,0.38416 -1.90607,2.01672 -2.7968,3.28779c-1.25864,1.79609 -2.0046,3.30376 -2.0046,3.30376c0,0 -0.51119,0.5206 -0.96836,0.28261z" data-paper-data="{&quot;index&quot;:null}" fill="#b78700" stroke="#533721"/><path d="M176.53994,170.68207l0.74268,-0.82736c0,0 2.09463,0.97648 2.61395,3.18113c0.2462,1.04516 -0.16772,3.60439 -0.16772,3.60439c0,0 -0.54081,0.4896 -1.04547,0.27321c-0.5042,-0.21619 -0.81892,-1.04258 -0.81892,-1.04258c0,0 0.79746,-1.57473 0.68371,-2.42112c-0.22352,-1.66322 -2.00822,-2.76766 -2.00822,-2.76766z" data-paper-data="{&quot;index&quot;:null}" fill="#b78700" stroke="#533721"/><path d="M167.61142,165.27446c0,0 0.04753,-0.27038 0.13217,-0.40526c0.12446,-0.19833 0.54234,-0.66963 0.54234,-0.66963l8.77398,6.14086c0,0 -0.51721,0.47388 -0.72542,0.58353c-0.1404,0.07394 -0.40264,0.01056 -0.40264,0.01056c0,0 -2.67212,-2.09805 -4.16623,-3.11443c-0.77776,-0.52908 -4.15421,-2.54563 -4.15421,-2.54563z" data-paper-data="{&quot;index&quot;:null}" fill="#f2f23c" stroke="#533721"/><path d="M168.14825,164.46632c0,0 -0.32699,-0.30967 0.0038,-0.64641c0.47997,-0.48861 0.71901,-0.39356 0.71901,-0.39356c0,0 3.00175,1.64155 4.53977,2.66145c1.57781,1.0463 4.81077,3.53918 4.81077,3.53918c0,0 0.39464,0.57009 -0.11542,1.11812c-0.26497,0.28471 -1.20059,-0.2669 -1.20059,-0.2669c0,0 -2.59436,-2.03829 -4.074,-3.05406c-1.4383,-0.98738 -4.68333,-2.95782 -4.68333,-2.95782z" data-paper-data="{&quot;index&quot;:null}" fill="#f2f23c" stroke="#533721"/><path d="M171.8285,187.75251l1.13237,1.08522l-4.3406,0.54977c0,0 -0.62322,-0.59577 -0.71101,-0.83304c-0.04638,-0.12538 0.22381,-0.48389 0.22381,-0.48389z" data-paper-data="{&quot;index&quot;:null}" fill="#b78700" stroke="#533721"/><path d="M172.46084,188.51675c-0.2987,-0.25116 -0.7524,-0.84649 -0.7524,-0.84649c0,0 3.22877,-1.66711 3.83575,0.11276c0.45665,1.33906 -2.21227,1.25238 -2.21227,1.25238c0,0 -0.65838,-0.3398 -0.87108,-0.51865z" data-paper-data="{&quot;index&quot;:null}" fill="#b78700" stroke="#533721"/><path d="M165.61032,188.48058c-0.61676,-0.49667 -1.86483,-1.84843 -1.86483,-1.84843l0.74171,-0.52957c0,0 1.58313,0.97553 2.22755,1.37775c0.46819,0.29223 1.28207,0.8128 1.28207,0.8128l-0.86099,1.06919c0,0 -1.04843,-0.49755 -1.52552,-0.88173z" data-paper-data="{&quot;index&quot;:null}" fill="#b78700" stroke="#533721"/><path d="M166.40773,189.47755c0,0 0.49031,-0.61367 0.76497,-0.88945c0.25639,-0.25743 0.83195,-0.71398 0.83195,-0.71398c0,0 0.5887,0.45537 0.81239,0.7354c0.20624,0.25818 0.48168,0.88456 0.48168,0.88456c0,0 -0.43159,0.59885 -1.56552,0.47296c-1.23136,-0.1367 -1.32548,-0.4895 -1.32548,-0.4895z" data-paper-data="{&quot;index&quot;:null}" fill="#f2f23c" stroke="#b78700"/><g data-paper-data="{&quot;index&quot;:null}"><path d="M163.17499,184.13585c1.13947,0.91759 1.70567,1.76969 1.09742,2.52501c-0.60825,0.75532 -1.70374,0.47658 -2.84321,-0.441c-1.13947,-0.91759 -1.60442,-1.89543 -0.99617,-2.65076c0.60825,-0.75532 1.60249,-0.35084 2.74196,0.56675z" fill="#b78700" stroke="#533721"/><g fill="#242424" stroke="none"><path d="M161.78367,184.39247c0.06496,-0.08067 0.18249,-0.09383 0.26251,-0.02939c0.08002,0.06444 0.09222,0.18207 0.02726,0.26274c-0.06496,0.08067 -0.18249,0.09383 -0.26251,0.02939c-0.08002,-0.06444 -0.09223,-0.18207 -0.02726,-0.26274z"/><path d="M161.2498,184.05888c0.06496,-0.08067 0.18249,-0.09383 0.26251,-0.02939c0.08002,0.06444 0.09222,0.18206 0.02726,0.26273c-0.06496,0.08067 -0.18249,0.09384 -0.26251,0.0294c-0.08002,-0.06444 -0.09223,-0.18207 -0.02726,-0.26274z"/><path d="M160.87521,183.6224c0.06496,-0.08067 0.18249,-0.09383 0.26251,-0.0294c0.08002,0.06444 0.09223,0.18207 0.02726,0.26274c-0.06496,0.08067 -0.18249,0.09383 -0.26251,0.02939c-0.08002,-0.06444 -0.09223,-0.18206 -0.02726,-0.26273z"/><path d="M161.60955,183.63586c0.06496,-0.08067 0.18249,-0.09383 0.26251,-0.02939c0.08002,0.06444 0.09223,0.18207 0.02726,0.26274c-0.06496,0.08067 -0.18249,0.09382 -0.26251,0.02939c-0.08002,-0.06444 -0.09223,-0.18207 -0.02726,-0.26274z"/><path d="M162.06447,183.92514c0.06496,-0.08067 0.18248,-0.09383 0.2625,-0.02939c0.08002,0.06444 0.09223,0.18207 0.02726,0.26274c-0.06496,0.08067 -0.18248,0.09383 -0.2625,0.02939c-0.08002,-0.06444 -0.09223,-0.18207 -0.02726,-0.26274z"/></g></g></g></g></g></svg>