<svg version="1.1" xmlns="http://www.w3.org/2000/svg" xmlns:xlink="http://www.w3.org/1999/xlink" width="1863.36336" height="914.41442" viewBox="0,0,1863.36336,914.41442"><defs><linearGradient x1="273.88192" y1="-156.78178" x2="273.88192" y2="532.87759" gradientUnits="userSpaceOnUse" id="color-1"><stop offset="0" stop-color="#ffffff" stop-opacity="0"/><stop offset="1" stop-color="#ffffff" stop-opacity="0"/></linearGradient><radialGradient cx="240" cy="180" r="931.68168" gradientUnits="userSpaceOnUse" id="color-2"><stop offset="0" stop-color="#007a7a" stop-opacity="0"/><stop offset="1" stop-color="#007a7a"/></radialGradient><radialGradient cx="200.43229" cy="167.67991" r="41.97897" gradientUnits="userSpaceOnUse" id="color-3"><stop offset="0" stop-color="#446b6b" stop-opacity="0"/><stop offset="1" stop-color="#446b6b"/></radialGradient><radialGradient cx="234.53084" cy="210.24405" r="82.90238" gradientUnits="userSpaceOnUse" id="color-4"><stop offset="0" stop-color="#446b6b" stop-opacity="0"/><stop offset="1" stop-color="#446b6b"/></radialGradient><linearGradient x1="288.8472" y1="306.62263" x2="288.8472" y2="386.77256" gradientUnits="userSpaceOnUse" id="color-5"><stop offset="0" stop-color="#a56268"/><stop offset="1" stop-color="#5f3e41"/></linearGradient><linearGradient x1="61.59721" y1="264.14756" x2="61.59721" y2="313.64756" gradientUnits="userSpaceOnUse" id="color-6"><stop offset="0" stop-color="#adc3c3"/><stop offset="1" stop-color="#6d7b7b"/></linearGradient><linearGradient x1="6.84721" y1="263.77256" x2="6.84721" y2="313.27256" gradientUnits="userSpaceOnUse" id="color-7"><stop offset="0" stop-color="#adc3c3"/><stop offset="1" stop-color="#6d7b7b"/></linearGradient><linearGradient x1="30.84721" y1="261.27256" x2="30.84721" y2="266.27256" gradientUnits="userSpaceOnUse" id="color-8"><stop offset="0" stop-color="#adc3c3"/><stop offset="1" stop-color="#6f7d7d"/></linearGradient><linearGradient x1="90.26878" y1="259.77256" x2="90.26878" y2="267.77256" gradientUnits="userSpaceOnUse" id="color-9"><stop offset="0" stop-color="#adc3c3"/><stop offset="1" stop-color="#7b8a8a"/></linearGradient></defs><g transform="translate(691.68168,277.20721)"><g data-paper-data="{&quot;isPaintingLayer&quot;:true}" fill-rule="nonzero" stroke-linejoin="miter" stroke-miterlimit="10" stroke-dasharray="" stroke-dashoffset="0" style="mix-blend-mode: normal"><path d="M-182.81377,532.87759v-689.65937h913.39138v689.65937z" fill="url(#color-1)" stroke="none" stroke-width="0" stroke-linecap="butt"/><path d="M1171.68168,180c0,252.50857 -417.1281,457.20721 -931.68168,457.20721c-514.55358,0 -931.68168,-204.69864 -931.68168,-457.20721c0,-252.50857 417.1281,-457.20721 931.68168,-457.20721c514.55358,0 931.68168,204.69864 931.68168,457.20721z" fill="url(#color-2)" stroke="none" stroke-width="0" stroke-linecap="butt"/><path d="M169.23959,209.65888l51.89067,-83.95794l10.49474,0.58304l-47.80938,82.79186z" data-paper-data="{&quot;index&quot;:null}" fill="url(#color-3)" stroke="#000000" stroke-width="0" stroke-linecap="round"/><path d="M297.31409,128.23331l-104.84303,164.31859l-20.70696,-1.44842l96.75089,-162.13154z" data-paper-data="{&quot;index&quot;:null}" fill="url(#color-4)" stroke="#000000" stroke-width="0" stroke-linecap="round"/><path d="M-5.65279,121.90856v-128l87.5,3l39.5,110l53,-0.5l264.8922,0.76119l45.77665,0.00099l10.48039,226.45817l-49.59229,36.31795l-276.40341,-4.51807l-170.15355,10.97977zM429.34721,286.18111l-1.5,-154l-245,-2l0.5,156z" fill="#a56268" stroke="none" stroke-width="0" stroke-linecap="butt"/><path d="M-41.40279,386.77256v-73.52507c0,0 48.28009,8.21618 128.00056,7.71063c5.32373,-0.03376 74.00449,-12.30595 78.99944,-12.30595c18.95382,0 48.97075,10.06752 76.0191,10.25503c54.80606,0.37993 132.72367,-11.03278 194.47357,-12.04801c103.8554,-1.70749 183.00732,6.3883 183.00732,6.3883v73.52507z" fill="url(#color-5)" stroke="none" stroke-width="0" stroke-linecap="butt"/><path d="M179.84864,287.12379v-160.4427h247.99857v160.4427z" fill="none" stroke="#7e3842" stroke-width="15" stroke-linecap="butt"/><path d="M59.84722,14.636l12,21.5l-4,4.5l-1,17.5l-4.5,4.5l-8.5,-2.5l-6.5,-6l-4,12.5l-10,-6l-7,11l-12.5,-0.5l-5,-11.5" fill="#4c4e50" stroke="#000000" stroke-width="1.5" stroke-linecap="round"/><path d="M436.42361,361.99972l3.5,-32.25l31.5,-46.25l33.25,56.5l-4.5,25.75z" fill="#3f5164" stroke="#000000" stroke-width="1.5" stroke-linecap="round"/><path d="M461.92361,365.49972c0,0 -11.36674,-17.20154 -8.95425,-33.78856c2.36822,-16.28269 22.45425,-37.71144 22.45425,-37.71144l25.25,40.5l4.5,28.5z" fill="#2e373e" stroke="#000000" stroke-width="1.5" stroke-linecap="butt"/><path d="M438.67361,359.99972l3,-30.25l29.26813,-42.38894l-24.01812,47.63894l-3.5,25.25z" fill="#495d73" stroke="none" stroke-width="0" stroke-linecap="butt"/><path d="M132.11342,348.68173c0,0 0.66667,-29.9861 0.66667,-41.66667c0,-8.03219 -7,-9.33333 -7,-9.33333l8.66667,-13.33333c0,0 11.66666,6.83976 12,21c0.27451,11.66125 0,43 0,43z" fill="#5f7080" stroke="#000000" stroke-width="1.5" stroke-linecap="butt"/><path d="M133.44675,347.3484c0,0 1.79102,-32.47513 0.66666,-42.66667c-0.66666,-6.04288 -6.66667,-8.66667 -6.66667,-8.66667l3,-5.33333c0,0 6.63275,1.56637 7.85201,12.01726c1.10223,9.4477 1.48132,44.64941 1.48132,44.64941z" fill="#566069" stroke="none" stroke-width="0" stroke-linecap="butt"/><path d="M144.11341,305.34836l-5.66666,1" fill="none" stroke="#5c6366" stroke-width="1.5" stroke-linecap="round"/><path d="M144.44675,317.3484l-6,1.33333" fill="none" stroke="#5c6366" stroke-width="1.5" stroke-linecap="round"/><path d="M141.78009,295.01505l-5,2.66667" fill="none" stroke="#5c6366" stroke-width="1.5" stroke-linecap="round"/><path d="M104.11342,360.70646v-13.66667h77.33334c0,0 4.40185,2.54782 5.67794,4.32524c1.70756,2.37839 3.65539,8.67476 3.65539,8.67476l-9.33334,0.66667z" fill="#3c2e2e" stroke="#000000" stroke-width="1.5" stroke-linecap="butt"/><path d="M169.44675,365.70646v-21.33333h4.66666v21.33333z" fill="#3c2e2e" stroke="#000000" stroke-width="1.5" stroke-linecap="butt"/><path d="M-3.55325,365.03018v-48.33333h72l-0.25525,28.35331l-5.41141,14.31336z" fill="#363f47" stroke="#000000" stroke-width="1.5" stroke-linecap="butt"/><path d="M99.11342,369.36344l-8,-32.66667l13.33333,-4.66667c0,0 3.35618,10.59337 3.92103,15.52294c0.64635,5.64092 -0.25436,16.47706 -0.25436,16.47706z" fill="#554919" stroke="#000000" stroke-width="1.5" stroke-linecap="butt"/><path d="M73.11342,368.68173l-10,-7.64194l10,-27.69139l21,1.66667c0,0 4.10123,6.8118 7.23467,13.24252c3.19921,6.5657 5.432,12.77658 5.432,15.10585c0,1.22177 -11.33334,5.31829 -11.33334,5.31829z" fill="#3d2f10" stroke="#000000" stroke-width="1.5" stroke-linecap="butt"/><path d="M-1.90278,203.27258l131,1l28.5,11l-47.5,87.5l-43,14l-93,-0.5z" fill="#70838b" stroke="#000000" stroke-width="1.5" stroke-linecap="round"/><path d="M156.89721,215.57258l-48.23334,86.9l-39.96667,12.9l61.2,-109.9z" fill="#343838" stroke="none" stroke-width="0" stroke-linecap="round"/><path d="M59.34721,313.64756c0,0 -1.5,-0.30604 -1.5,-1.24718c0,-0.33551 1.5,-1.07907 1.5,-1.46162c0,-6.04986 0,-46.7912 0,-46.7912h4.5c0,0 0,41.11129 0,46.9912c0,0.40584 1.5,1.04308 1.5,1.38662c0,0.80651 -1.5,1.12218 -1.5,1.12218z" fill="url(#color-6)" stroke="#000000" stroke-width="1.5" stroke-linecap="butt"/><path d="M-2.55325,214.01506l2,-8.66666l127.33334,1l-3,7.33333c0,0 -14.05645,2.55091 -32.66596,1.9772c-14.69934,-0.45316 -32.36476,-4.10943 -47.31761,-3.81368c-13.20098,0.2611 -25.39579,4.11452 -31.01741,4.12936c-7.45199,0.01966 -15.33234,-1.95954 -15.33234,-1.95954z" fill="#566069" stroke="none" stroke-width="0" stroke-linecap="butt"/><path d="M116.59722,237.27258l10,-16l24.5,-4l-5.5,14z" fill="#af9f5b" stroke="none" stroke-width="0" stroke-linecap="butt"/><path d="M98.59722,266.77257l10.72464,-16l26.77536,-5l-9.89855,17z" fill="#af9f5b" stroke="none" stroke-width="0" stroke-linecap="butt"/><path d="M110.11342,329.68171l-0.66667,-27.33333l48,-85.66667l1.33334,25.66667z" fill="#1f2120" stroke="#000000" stroke-width="1.5" stroke-linecap="butt"/><path d="M79.09722,302.77257l10.22464,-20l26.27536,-7l-7.39855,16.5z" fill="#af9f5b" stroke="none" stroke-width="0" stroke-linecap="butt"/><path d="M19.53009,226.34838c0,0.75 -0.75,0.75 -0.75,0.75l-0.57051,-0.03849c-0.9956,-0.38482 -1.53176,0.03429 -2.59616,0.03849c-3.17625,0.01254 -6.23339,0.13214 -9.3767,0.65646c0,0 -0.73979,0.1233 -0.8631,-0.6165c-0.1233,-0.73979 0.6165,-0.86309 0.6165,-0.86309c3.55635,-0.59224 9.2678,-1.66804 12.69381,-0.63838l0.09616,-0.03849c0,0 0.75,0 0.75,0.75z" fill="#5c6366" stroke="none" stroke-width="0.5" stroke-linecap="butt"/><path d="M76.19291,222.93926c0.07581,0.74616 -0.67036,0.82197 -0.67036,0.82197l-0.82994,0.08393c-2.41186,0.40165 -4.76143,1.0906 -7.14854,1.61792c-0.6112,0.13497 -3.85837,1.36315 -4.24441,1.28742c-1.2947,-0.25397 -2.29158,-3.06685 -3.16881,-3.72187c-0.48821,-0.36454 -1.14705,0.41505 -1.70203,0.66653c-1.70654,0.77329 -3.25243,1.91253 -4.96807,2.6513c-0.63887,0.2751 -1.28945,0.84926 -1.96767,0.69485c-0.78124,-0.17786 -0.595,-1.68881 -1.33334,-2c-0.73116,-0.30817 -1.5862,0.05709 -2.37965,0.05709c0,0 -0.75,0 -0.75,-0.75c0,-0.75 0.75,-0.75 0.75,-0.75c0.13458,0 2.79498,-0.01962 2.95368,0.05709c0.56238,0.27184 1.00449,0.77888 1.35097,1.29861c0.12973,0.19459 -0.25052,0.67989 -0.01764,0.70139c0.80212,0.07405 1.29688,-0.96471 2.00402,-1.35046c1.43798,-0.78443 4.99215,-3.48017 6.69152,-2.63686c0.84621,0.41994 2.0541,3.44746 2.83119,3.61146c0.27478,0.05799 0.30906,-0.51056 0.5659,-0.62414c0.95437,-0.42204 2.04188,-0.43203 3.06084,-0.65711c2.42915,-0.5364 4.8184,-1.23056 7.27283,-1.63994l0.87754,-0.08954c0,0 0.74616,-0.07581 0.82196,0.67036z" fill="#5c6366" stroke="none" stroke-width="0.5" stroke-linecap="butt"/><path d="M24.52944,250.6391c-0.62404,0.41602 -1.04006,-0.20802 -1.04006,-0.20802l-0.11653,-0.66967c-0.02999,0.93069 -1.42444,2.53601 -2.25943,2.67031c-1.4173,0.22797 -0.74108,-1.23268 -1.76621,-1.33997c-2.13045,-0.22297 -4.94991,-0.93468 -5.49835,2.07039c0,0 -0.14709,0.73543 -0.88252,0.58835c-0.73544,-0.14709 -0.58835,-0.88252 -0.58835,-0.88252c0.50268,-2.35116 2.49456,-4.31079 5.23467,-3.58433c0.36742,0.09741 0.55868,0.5924 0.93364,0.65472c0.34661,0.05761 0.65607,-0.40524 1,-0.33334c0.66994,0.14005 0.92614,1.56668 1.56712,1.3267c0.39575,-0.14817 1.92682,-2.32194 2.40724,-2.66302l1.2168,1.33033c0,0 0.41603,0.62404 -0.20801,1.04006z" fill="#5c6366" stroke="none" stroke-width="0.5" stroke-linecap="butt"/><path d="M86.84103,266.16648c0.1819,0.7276 -0.5457,0.90951 -0.5457,0.90951l-1.33334,0.33333c0,0 -0.72761,0.1819 -0.90951,-0.5457c-0.1819,-0.7276 0.5457,-0.90951 0.5457,-0.90951l1.33334,-0.33333c0,0 0.72761,-0.1819 0.90951,0.5457z" fill="#5c6366" stroke="none" stroke-width="0.5" stroke-linecap="butt"/><path d="M68.44675,344.68173v-28.66667l41,-13.66667l1,27.66667z" fill="#1f2120" stroke="#000000" stroke-width="1.5" stroke-linecap="butt"/><path d="M29.83564,296.89515c0.10478,-0.1581 0.28861,-0.29677 0.61111,-0.29677c0.75,0 0.75,0.75 0.75,0.75l-0.75,1.08333c-1.74773,-0.07752 -1.9489,-1.51168 -3.44134,-1.67448c-1.23491,-0.13471 -1.95525,0.17925 -2.6449,0.73924l-0.61661,0.92491c-0.13354,0.20677 -0.36603,0.34366 -0.63049,0.34366c-0.33738,0 -0.62273,-0.22276 -0.71698,-0.52923l-0.32786,-0.9836l0.03452,-0.0115l-0.06332,-0.10553c0.13527,-2.37725 -2.9355,-0.32199 -3.21484,0.7837c0,0 -0.23717,0.71151 -0.94868,0.47434c-0.71151,-0.23717 -0.47434,-0.94869 -0.47434,-0.94869c0.89319,-2.34242 5.46123,-4.45814 6.0584,-1.12075c0.86121,-1.39119 3.74377,-1.36966 5.04742,-0.6134c0.84167,0.48827 0.78026,1.02628 1.32793,1.18476z" fill="#5c6366" stroke="none" stroke-width="0.5" stroke-linecap="butt"/><path d="M633.09722,316.27257l-93,0.5l-43,-14l-47.5,-87.5l28.5,-11l131,-1z" data-paper-data="{&quot;index&quot;:null}" fill="#70838b" stroke="#000000" stroke-width="1.5" stroke-linecap="round"/><path d="M477.29723,205.47258l61.2,109.9l-39.96666,-12.9l-48.23333,-86.9z" data-paper-data="{&quot;index&quot;:null}" fill="#343838" stroke="none" stroke-width="0" stroke-linecap="round"/><path d="M461.59722,231.27258l-5.5,-14l24.5,4l10,16z" data-paper-data="{&quot;index&quot;:null}" fill="#af9f5b" stroke="none" stroke-width="0" stroke-linecap="butt"/><path d="M4.59721,313.27256c0,0 -1.5,-0.30604 -1.5,-1.24718c0,-0.33551 1.5,-1.07907 1.5,-1.46162c0,-6.04986 0,-46.7912 0,-46.7912h4.5c0,0 0,41.11129 0,46.9912c0,0.40584 1.5,1.04308 1.5,1.38662c0,0.80652 -1.5,1.12218 -1.5,1.12218z" fill="url(#color-7)" stroke="#000000" stroke-width="1.5" stroke-linecap="butt"/><path d="M480.99577,262.77257l-9.89855,-17l26.77536,5l10.72464,16z" data-paper-data="{&quot;index&quot;:null}" fill="#af9f5b" stroke="none" stroke-width="0" stroke-linecap="butt"/><path d="M498.99577,292.27257l-7.39855,-16.5l26.27536,7l10.22464,20z" data-paper-data="{&quot;index&quot;:null}" fill="#af9f5b" stroke="none" stroke-width="0" stroke-linecap="butt"/><path d="M448.94675,242.84838l1.33333,-25.66667l48,85.66667l-0.66666,27.33333z" data-paper-data="{&quot;index&quot;:null}" fill="#1f2120" stroke="#000000" stroke-width="1.5" stroke-linecap="butt"/><path d="M463.42361,362.99972c0,0 -8.75,-15.84199 -9,-27.25c-0.05037,-2.2984 1.67728,-10.04544 5.1701,-16.43047c6.11665,-11.18151 15.5799,-22.31953 15.5799,-22.31953c0,0 -13.75,27.84785 -13.75,45c0,17.15215 2,21 2,21z" fill="#3c4851" stroke="none" stroke-width="0" stroke-linecap="butt"/><path d="M452.92361,336.99972c0,0 4.79802,-1.16981 7.30527,-1.40125c2.86226,-0.26421 8.94473,-0.09875 8.94473,-0.09875" fill="none" stroke="#000000" stroke-width="1.5" stroke-linecap="round"/><path d="M446.17361,331.99969l-6,-1.5" fill="none" stroke="#000000" stroke-width="1.5" stroke-linecap="round"/><path d="M63.34722,-1.364l-2,21l8.5,8l-10.5,-1.5l-1,4.5l-7.5,7.5l4,11l-4.5,-1.5l-11,4l-7,-5l-5.5,10.5l-15,5l-6,-2l-0.5,-7.5l-6,4l-10.5,-1.5l-1.5,-63.22744l75,-3z" fill="#757e81" stroke="#000000" stroke-width="1.5" stroke-linecap="round"/><path d="M51.09722,7.52228c0,19.12909 -14.32689,34.63628 -32,34.63628c-17.67311,0 -107.5,2.24281 -107.5,-16.88628c0,-19.12909 107.57689,-94.63628 125.25,-94.63628c17.67311,0 14.25,57.75719 14.25,76.88628z" fill="#697173" stroke="none" stroke-width="0" stroke-linecap="butt"/><path d="M183.34721,142.18112c0,1.38071 -1.11929,2.5 -2.5,2.5c-1.38071,0 -2.5,-1.11929 -2.5,-2.5c0,-1.38071 1.11929,-2.5 2.5,-2.5c1.38071,0 2.5,1.11929 2.5,2.5z" fill="#a6616d" stroke="#000000" stroke-width="1.5" stroke-linecap="butt"/><path d="M181.34721,164.93112c0,0.69036 -0.44772,1.25 -1,1.25c-0.55228,0 -1,-0.55964 -1,-1.25c0,-0.69036 0.44772,-1.25 1,-1.25c0.55228,0 1,0.55964 1,1.25z" fill="#a6616d" stroke="#000000" stroke-width="1.5" stroke-linecap="butt"/><path d="M181.84721,283.18111c0,1.38071 -1.00736,2.5 -2.25,2.5c-1.24264,0 -2.25,-1.11929 -2.25,-2.5c0,-1.38071 1.00736,-2.5 2.25,-2.5c1.24264,0 2.25,1.11929 2.25,2.5z" fill="#a6616d" stroke="#000000" stroke-width="1.5" stroke-linecap="butt"/><path d="M345.84721,285.43111c0,0.9665 -0.89543,1.75 -2,1.75c-1.10457,0 -2,-0.7835 -2,-1.75c0,-0.9665 0.89543,-1.75 2,-1.75c1.10457,0 2,0.7835 2,1.75z" fill="#a6616d" stroke="#000000" stroke-width="1.5" stroke-linecap="butt"/><path d="M428.84721,251.4311c0,1.24264 -1.11929,2.25 -2.5,2.25c-1.38071,0 -2.5,-1.00736 -2.5,-2.25c0,-1.24264 1.11929,-2.25 2.5,-2.25c1.38071,0 2.5,1.00736 2.5,2.25z" fill="#a6616d" stroke="#000000" stroke-width="1.5" stroke-linecap="butt"/><path d="M429.84721,207.18112c0,1.10457 -1.00736,2 -2.25,2c-1.24264,0 -2.25,-0.89543 -2.25,-2c0,-1.10457 1.00736,-2 2.25,-2c1.24264,0 2.25,0.89543 2.25,2z" fill="#a6616d" stroke="#000000" stroke-width="1.5" stroke-linecap="butt"/><path d="M430.34721,145.68112c0,1.38071 -1.00736,2.5 -2.25,2.5c-1.24264,0 -2.25,-1.11929 -2.25,-2.5c0,-1.38071 1.00736,-2.5 2.25,-2.5c1.24264,0 2.25,1.11929 2.25,2.5z" fill="#a6616d" stroke="#000000" stroke-width="1.5" stroke-linecap="butt"/><path d="M356.84721,126.93112c0,0.9665 -0.7835,1.75 -1.75,1.75c-0.9665,0 -1.75,-0.7835 -1.75,-1.75c0,-0.9665 0.7835,-1.75 1.75,-1.75c0.9665,0 1.75,0.7835 1.75,1.75z" fill="#a6616d" stroke="#000000" stroke-width="1.5" stroke-linecap="butt"/><path d="M172.75435,295.1238v-175.9427h262.59286v175.9427z" fill="none" stroke="#000000" stroke-width="1.5" stroke-linecap="butt"/><path d="M83.04575,-3.85541l14.42277,-4.25468l37.18016,95.78261c0,0 256.56895,-2.30191 353.71965,0.50551c85.29946,2.46495 9.76561,17.51417 9.27527,18.39543c-1.15228,2.07097 -376.12741,1.01945 -376.12741,1.01945c0,0 -8.37968,-26.51421 -14.56848,-42.02495c-7.886,-19.76438 -23.90196,-69.42337 -23.90196,-69.42337z" fill="#823b46" stroke="#000000" stroke-width="1.5" stroke-linecap="butt"/><path d="M98.34721,8.65856c0,1.24264 -0.89543,2.25 -2,2.25c-1.10457,0 -2,-1.00736 -2,-2.25c0,-1.24264 0.89543,-2.25 2,-2.25c1.10457,0 2,1.00736 2,2.25z" fill="#a6616d" stroke="#000000" stroke-width="1.5" stroke-linecap="butt"/><path d="M109.34721,46.15856c0,0.9665 -0.89543,1.75 -2,1.75c-1.10457,0 -2,-0.7835 -2,-1.75c0,-0.9665 0.89543,-1.75 2,-1.75c1.10457,0 2,0.7835 2,1.75z" fill="#a6616d" stroke="#000000" stroke-width="1.5" stroke-linecap="butt"/><path d="M130.84721,95.15856c0,1.51878 -1.11929,2.75 -2.5,2.75c-1.38071,0 -2.5,-1.23122 -2.5,-2.75c0,-1.51878 1.11929,-2.75 2.5,-2.75c1.38071,0 2.5,1.23122 2.5,2.75z" fill="#a6616d" stroke="#000000" stroke-width="1.5" stroke-linecap="butt"/><path d="M219.84722,96.15856c0,1.51878 -1.11929,2.75 -2.5,2.75c-1.38071,0 -2.5,-1.23122 -2.5,-2.75c0,-1.51878 1.11929,-2.75 2.5,-2.75c1.38071,0 2.5,1.23122 2.5,2.75z" fill="#a6616d" stroke="#000000" stroke-width="1.5" stroke-linecap="butt"/><path d="M300.34722,95.65856c0,1.51878 -1.11929,2.75 -2.5,2.75c-1.38071,0 -2.5,-1.23122 -2.5,-2.75c0,-1.51878 1.11929,-2.75 2.5,-2.75c1.38071,0 2.5,1.23122 2.5,2.75z" fill="#a6616d" stroke="#000000" stroke-width="1.5" stroke-linecap="butt"/><path d="M389.34722,96.65856c0,1.51878 -1.11929,2.75 -2.5,2.75c-1.38071,0 -2.5,-1.23122 -2.5,-2.75c0,-1.51878 1.11929,-2.75 2.5,-2.75c1.38071,0 2.5,1.23122 2.5,2.75z" fill="#a6616d" stroke="#000000" stroke-width="1.5" stroke-linecap="butt"/><path d="M474.34722,94.15856c0,1.51878 -1.11929,2.75 -2.5,2.75c-1.38071,0 -2.5,-1.23122 -2.5,-2.75c0,-1.51878 1.11929,-2.75 2.5,-2.75c1.38071,0 2.5,1.23122 2.5,2.75z" fill="#a6616d" stroke="#000000" stroke-width="1.5" stroke-linecap="butt"/><path d="M71.59721,130.02256c-0.75,0 -0.75,-0.75 -0.75,-0.75l0.01596,-0.16843c-2.58709,1.00316 -5.54279,1.33217 -8.22956,2.13399c-3.35601,1.00152 -11.34617,4.5518 -14.14047,0.93491c-0.27198,-0.35205 -0.06205,-0.94032 -0.33447,-1.29203c-0.3353,-0.4329 -1.08922,0.11584 -1.63541,0.15449c-1.90608,0.13488 -4.73543,1.76754 -6.50369,1.48305c-1.44299,-0.23216 -1.88926,-2.15753 -2.75365,-3.0731c-2.16092,-0.18282 -4.17829,0.14721 -6.28213,0.05059c-2.15142,-0.09881 -4.10562,-0.62008 -6.38935,-0.36077c-3.78596,0.42989 -7.17844,1.86448 -10.99723,1.88731c0,0 -0.75,0 -0.75,-0.75c0,-0.75 0.75,-0.75 0.75,-0.75c3.7525,0.02634 7.09956,-1.45437 10.828,-1.87773c2.34993,-0.26683 4.41464,0.23807 6.63147,0.35296c2.37667,0.12318 4.39732,-0.29879 6.87182,0.10191c0.42571,0.41144 0.92008,0.76208 1.27714,1.23433c0.3921,0.51859 0.32181,1.75221 0.96921,1.69256c2.38858,-0.22007 4.79193,-1.6302 7.41751,-1.50401c2.31926,0.11146 1.48637,2.09945 3.67716,2.52005c3.40559,0.65381 7.72054,-1.28249 10.93514,-2.24186c2.75141,-0.82112 5.85374,-1.11214 8.44936,-2.22958l1.13443,-0.48232c0.09416,-0.04259 0.19869,-0.0663 0.30876,-0.0663c0.41421,0 0.75,0.33579 0.75,0.75c0,0.12597 -0.03106,0.24468 -0.08593,0.34891l-0.49325,0.9865l0.07918,0.16459c0,0 0,0.75 -0.75,0.75z" fill="#a65158" stroke="none" stroke-width="0.5" stroke-linecap="butt"/><path d="M89.34721,150.77256c0,0.75 -0.75,0.75 -0.75,0.75l-0.16459,-0.07918c-0.40624,0.20312 -2.17857,1.13244 -2.4941,1.0622c-1.46947,-0.32711 -1.36867,-3.23393 -2.19288,-3.50944c-0.6993,-0.23375 -1.4148,0.60013 -2.14843,0.52642c-0.32975,-0.03313 -0.73533,-0.45401 -0.96967,-0.21967c-0.24889,0.24889 0.09896,1.9202 0.44964,3.36213l0.1593,-0.06372l0.55077,1.37692c0.0386,0.09037 0.05996,0.18986 0.05996,0.29434c0,0.41421 -0.33579,0.75 -0.75,0.75c-0.1134,0 -0.22092,-0.02517 -0.31729,-0.07022l-0.86134,-0.37937c-1.71337,0.66289 -2.91843,1.6377 -4.35285,2.78524c0,0 -0.58565,0.46852 -1.05417,-0.11713c-0.46852,-0.58565 0.11713,-1.05417 0.11713,-1.05417c1.79862,-1.4389 3.16274,-2.43925 5.37765,-3.12291c-0.84944,-1.33312 -1.42803,-3.8332 -0.43946,-4.82177c0.58635,-0.58635 2.09746,-0.08277 2.91019,-0.20999c0.6153,-0.09631 1.24374,-0.67358 1.81775,-0.43195c0.34634,0.14579 1.73242,3.41805 1.96107,3.43925c0.58882,0.05459 0.97699,-0.67334 1.5059,-0.9378l0.83541,-0.07918c0,0 0.75,0 0.75,0.75z" fill="#a65158" stroke="none" stroke-width="0.5" stroke-linecap="butt"/><path d="M89.57854,98.33441c-0.85516,-0.17331 -1.92218,-0.41618 -2.0746,-0.60302c-0.78302,-0.95983 0.27803,-2.28126 0.27591,-3.20979c-0.00283,-1.23656 -0.81503,-2.84434 -1.35345,-3.91363c0,0 -0.33541,-0.67082 0.33541,-1.00623c0.67082,-0.33541 1.00623,0.33541 1.00623,0.33541c0.643,1.29422 1.49397,3.08823 1.51177,4.57299c0.0095,0.79254 -1.16923,1.76331 -0.58931,2.30359c0.4812,0.44831 1.31399,0.08684 1.96201,0.20883h1.44472c0.41421,0 0.75,0.33579 0.75,0.75c0,0.41421 -0.33579,0.75 -0.75,0.75h-2c0,0 -0.29832,0 -0.51867,-0.18815z" fill="#a65158" stroke="none" stroke-width="0.5" stroke-linecap="butt"/><path d="M126.62754,173.24223c0.53033,0.53033 0,1.06066 0,1.06066l-1.04819,0.71946c-1.17474,-0.0362 -1.72477,0.06305 -2.87644,-0.6118c-0.52349,-0.30676 -0.89294,-1.28185 -1.68426,-1.25255c-2.50085,0.09261 -5.31458,2.5332 -7.68427,3.32608c0,0 -0.71151,0.23717 -0.94868,-0.47434c-0.23717,-0.71151 0.47434,-0.94868 0.47434,-0.94868c2.52355,-0.83778 5.52094,-3.45994 8.22616,-3.40153c1.83292,0.03957 2.51887,1.83266 4.52887,1.86326l-0.04819,-0.28054c0,0 0.53033,-0.53033 1.06066,0z" fill="#a65158" stroke="none" stroke-width="0.5" stroke-linecap="butt"/><path d="M474.84721,134.27256c0,0.75 -0.75,0.75 -0.75,0.75l-1.17231,-0.02006c-0.79481,-0.38207 -1.58076,-0.78299 -2.35802,-1.19961c-1.23332,-2.46664 -2.31392,-0.63999 -4.07704,0.32451c-1.26838,0.69386 -2.84206,1.32171 -4.18431,1.86444c-0.75394,0.30485 -2.22647,0.89815 -3.10262,0.41871c-0.5141,-0.28132 -0.93728,-0.99732 -1.51406,-0.89361c-2.78291,0.50038 -5.20743,1.80239 -7.90974,2.48323c0,0 -0.72761,0.1819 -0.90951,-0.54571c-0.1819,-0.72761 0.54571,-0.90951 0.54571,-0.90951c2.69195,-0.66727 5.25581,-2.35313 8.09026,-2.51677c0.66183,-0.03821 1.38028,-0.16316 1.98594,0.10639c0.40597,0.18068 0.56041,1.02691 0.98556,0.89767c2.86039,-0.86951 5.20117,-3.0619 7.89762,-3.97592c1.536,-0.52066 2.64427,0.46874 3.25285,1.6859c0.55598,0.24827 1.10327,0.5166 1.64198,0.80039l0.82769,-0.02006c0,0 0.75,0 0.75,0.75z" fill="#a65158" stroke="none" stroke-width="0.5" stroke-linecap="butt"/><path d="M479.06688,183.80289c-0.53033,-0.53033 0,-1.06066 0,-1.06066l1.03033,-0.71967c0.49533,0 0.99364,0.3566 1.46967,0.21967c0.316,-0.0909 -2.15606,-2.23533 -2.20684,-2.25816c-1.813,-0.81521 -5.43545,1.71332 -6.92742,2.45931c0,0 -0.67082,0.33541 -1.00623,-0.33541c-0.33541,-0.67082 0.33541,-1.00623 0.33541,-1.00623c2.03946,-1.01973 5.62286,-3.48172 8.07258,-2.54069c1.26009,0.48405 4.32275,3.04216 2.79316,4.74184c-0.24031,0.26703 -2.06283,0.21967 -2.53033,0.21967l0.03033,0.28033c0,0 -0.53033,0.53033 -1.06066,0z" fill="#a65158" stroke="none" stroke-width="0.5" stroke-linecap="butt"/><path d="M-27.40279,266.27256v-5h116.5v5z" fill="url(#color-8)" stroke="#000000" stroke-width="1.5" stroke-linecap="butt"/><path d="M93.09721,263.77256c0,2.20914 -1.79086,4 -4,4c-2.20914,0 -2.20914,-8 0,-8c2.20914,0 4,1.79086 4,4z" fill="url(#color-9)" stroke="#000000" stroke-width="1.5" stroke-linecap="butt"/><path d="M186.64814,279.48082v-145h234v145z" fill="none" stroke="#000000" stroke-width="1.5" stroke-linecap="butt"/></g></g></svg>