<svg version="1.1" xmlns="http://www.w3.org/2000/svg" xmlns:xlink="http://www.w3.org/1999/xlink" width="64.39073" height="130.94387" viewBox="0,0,64.39073,130.94387"><g transform="translate(-204.67958,-138.30598)"><g data-paper-data="{&quot;isPaintingLayer&quot;:true}" fill-rule="nonzero" stroke-linejoin="miter" stroke-miterlimit="10" stroke-dasharray="" stroke-dashoffset="0" style="mix-blend-mode: normal"><path d="M261.74611,178.47103c1.49066,-2.214 2.76284,-5.91064 2.66346,-9.53694c-0.12692,-4.63168 -2.50433,-9.14284 -3.74538,-11.30786c-0.44582,-0.77773 -2.57432,-1.49416 -1.83309,-1.46599c2.39476,0.09106 4.66301,0.83215 6.41837,2.44003c2.10062,1.92414 3.46898,4.97165 3.47084,8.03272c0.00383,6.29502 -1.29511,8.63275 -3.71822,10.31558c-1.71546,1.19138 -5.51434,3.54058 -5.51434,3.54058c0,0 1.48298,-0.86649 2.25836,-2.01814z" data-paper-data="{&quot;index&quot;:null}" fill="#f2f23c" stroke="#533721" stroke-width="0.7" stroke-linecap="butt"/><path d="M263.83875,167.79895c1.39851,12.91794 -5.46993,12.56666 -5.46993,12.56666c0,0 4.51317,-3.5448 3.2968,-15.06151c-0.73088,-6.91993 -4.81078,-9.0959 -4.81078,-9.0959c0,0 5.3271,-3.71306 6.98391,11.59077z" data-paper-data="{&quot;index&quot;:null}" fill="#b78700" stroke="#533721" stroke-width="0.7" stroke-linecap="butt"/><path d="M259.69907,177.46996c0,0 4.31791,16.76076 -6.52615,25.96745c-9.30257,7.89795 -15.14052,-11.11566 -15.14052,-11.11566c0,0 -10.46321,1.172 -17.37987,11.21162c-6.62705,9.61923 -7.45346,19.78837 -7.45346,19.78837" fill="none" stroke="#000000" stroke-width="2" stroke-linecap="round"/><path d="M247.36175,262.52811c0,0 2.47305,-12.05626 -1.08174,-20.44703c-3.86729,-9.12841 -11.0754,-11.63173 -11.0754,-11.63173c0,0 -5.123,-12.12189 -1.82757,-25.72469c3.17566,-13.1084 8.16031,-17.92807 8.16031,-17.92807" fill="none" stroke="#000000" stroke-width="2" stroke-linecap="round"/><path d="M263.51283,168.87182c0,11.27936 -9.14372,20.42308 -20.42308,20.42308c-11.27936,0 -20.42309,-9.14372 -20.42309,-20.42308c0,-11.27936 9.14373,-20.42308 20.42309,-20.42308c11.27936,0 20.42308,9.14373 20.42308,20.42308z" fill="#ebf5ff" stroke="#000000" stroke-width="2" stroke-linecap="butt"/><path d="M262.08797,168.15938c0,9.70549 -7.86786,17.57335 -17.57335,17.57335c-9.70549,0 -17.57335,-7.86786 -17.57335,-17.57335c0,-9.70549 7.86786,-17.57335 17.57335,-17.57335c9.70549,0 17.57335,7.86786 17.57335,17.57335z" fill="#ffffff" stroke="none" stroke-width="0" stroke-linecap="butt"/><path d="M245.78352,141.98281c0,0 0.33835,-1.14435 1.33484,-2.01435c1.47523,-1.28799 2.24812,-0.83538 2.24812,-0.83538" fill="none" stroke="#000000" stroke-width="1.5" stroke-linecap="round"/><path d="M252.86611,139.13309c0,0 1.23854,-0.12126 1.8777,0.41451c0.63916,0.53577 0.95535,1.96026 0.95535,1.96026" fill="none" stroke="#000000" stroke-width="1.5" stroke-linecap="round"/><path d="M249.98546,152.71509c0,0 5.46494,5.36487 6.70698,12.93693c1.38862,8.46573 -1.71995,14.56039 -1.71995,14.56039" fill="none" stroke="#000000" stroke-width="2" stroke-linecap="round"/><path d="M236.40878,182.05957c0,0 1.97694,-0.24815 2.71244,-0.16708c0.68223,0.07521 1.55278,0.63726 1.55278,0.63726" fill="none" stroke="#000000" stroke-width="1.5" stroke-linecap="round"/><path d="M235.06299,230.52593c0,0 -2.45818,13.13508 -3.98128,19.39726c-3.03759,10.01135 -10.53453,17.24936 -10.53453,17.24936" fill="none" stroke="#000000" stroke-width="2" stroke-linecap="round"/><path d="M233.75619,267.42782c0,2.41207 -13.55712,0 -13.55712,0c0,0 3.03486,-4.36744 6.77856,-4.36744c3.7437,0 6.77856,1.95537 6.77856,4.36744z" fill="#9a5e4f" stroke="#000000" stroke-width="1.5" stroke-linecap="butt"/><path d="M260.75619,263.03132c0,2.17917 -13.55712,0 -13.55712,0c0,0 3.03486,-3.94573 6.77856,-3.94573c3.74369,0 6.77856,1.76657 6.77856,3.94573z" fill="#9a5e4f" stroke="#000000" stroke-width="1.5" stroke-linecap="butt"/><path d="M209.92399,230.82489c-1.09793,2.77563 -0.88197,5.46922 -2.76447,5.76849c-2.32769,0.37005 -2.09176,-3.43702 -0.56059,-6.80403c1.67614,-3.6858 5.70874,-6.21085 5.70874,-6.21085c0,0 -1.28576,4.47076 -2.38368,7.24639z" fill="#ffffff" stroke="#000000" stroke-width="1.5" stroke-linecap="butt"/><path d="M212.52554,231.4752c-0.19147,2.97875 0.8421,5.4755 -0.85724,6.339c-2.1012,1.06771 -3.04708,-2.62752 -2.62515,-6.3022c0.46187,-4.02259 3.52294,-7.66507 3.52294,-7.66507c0,0 0.15092,4.64953 -0.04055,7.62827z" fill="#ffffff" stroke="#000000" stroke-width="1.5" stroke-linecap="butt"/><path d="M214.11526,223.66685c0,0 2.85878,1.84459 4.2193,4.33845c1.24285,2.27817 1.64924,4.78352 0.07017,4.43125c-1.27706,-0.2849 -1.30883,-2.03943 -2.22363,-3.90971c-0.9148,-1.87028 -2.06585,-4.86 -2.06585,-4.86z" data-paper-data="{&quot;index&quot;:null}" fill="#ffffff" stroke="#000000" stroke-width="1.5" stroke-linecap="butt"/><path d="M256.52001,153.37959c0,0 4.39501,4.86497 5.39389,11.73148c1.11676,7.6769 -1.38322,13.20368 -1.38322,13.20368" fill="none" stroke="#000000" stroke-width="2" stroke-linecap="round"/><path d="M260.22777,156.85631c-3.476,-5.88364 -8.47316,-7.244 -8.47316,-7.244l-0.06425,-1.56628c0,0 8.52557,1.08601 11.07605,8.63513c4.47763,13.25329 0.55571,12.95118 0.55571,12.95118c0,0 -0.87642,-9.02184 -3.09435,-12.77603z" data-paper-data="{&quot;index&quot;:null}" fill="#b78700" stroke="#533721" stroke-width="0.7" stroke-linecap="butt"/><path d="M229.0375,183.1905c-1.33002,-0.42103 -2.35053,-1.10569 -2.35053,-1.10569l-0.21521,-23.3832c0,0 3.6694,-0.8162 4.61436,-0.9022c0.40813,-0.03713 0.96145,0.3947 0.96145,0.3947c0,0 8.44614,9.71752 1.93189,24.38191c-0.64192,1.44502 -3.07305,1.20613 -4.94196,0.61448z" data-paper-data="{&quot;index&quot;:null}" fill="#b78700" stroke="#303133" stroke-width="0.7" stroke-linecap="butt"/><path d="M229.34946,182.2615c-2.14592,0.38378 -4.77472,-0.62717 -6.64531,-1.55202c-2.64221,-1.30638 -4.26691,-3.40824 -5.17648,-9.5544c-0.81189,-5.48612 3.15688,-11.09209 8.3339,-12.01793c5.17702,-0.92584 8.66495,22.19851 3.48791,23.12435z" data-paper-data="{&quot;index&quot;:null}" fill="#f2f23c" stroke="#533721" stroke-width="0.7" stroke-linecap="butt"/><path d="M227.68255,174.07233c0,0 0.12462,-2.99976 -0.30612,-6.89055c-0.30484,-2.75347 -1.06494,-6.49183 -1.56002,-7.54466c-0.67872,-1.44339 -2.92781,1.02386 -3.52265,-0.75956c-0.11687,-0.35037 0.56255,-1.75325 2.25242,-1.90659c1.02987,-0.09345 2.73659,-0.59749 3.99202,2.42199c3.96955,9.54722 1.77405,15.3516 1.77405,15.3516c0,0 -0.4019,0.62038 -1.35599,0.60032c-0.91973,-0.01933 -1.27372,-1.27256 -1.27372,-1.27256z" data-paper-data="{&quot;index&quot;:null}" fill="#b78700" stroke="#533721" stroke-width="0.7" stroke-linecap="butt"/><path d="M233.30747,150.57193c0,0 -3.74076,0.1991 -5.51648,2.6113c-0.90364,1.22753 -1.00513,4.37643 -1.00513,4.37643c0,0 -1.20112,1.02394 -2.17579,0.93017c-0.97556,-0.09385 -1.4025,-1.32394 -1.4025,-1.32394c0,0 1.54588,-4.36137 2.82727,-5.78654c2.70293,-3.00625 6.81921,-2.73934 6.81921,-2.73934l0.45344,1.93191z" data-paper-data="{&quot;index&quot;:null}" fill="#b78700" stroke="#533721" stroke-width="0.7" stroke-linecap="butt"/><path d="M251.92098,149.76011c0,0 -7.01459,0.26251 -8.68575,0.42406c-3.21035,0.31035 -9.19217,1.30424 -9.19217,1.30424c0,0 -0.46488,-0.12558 -0.62129,-0.36169c-0.23196,-0.35015 -0.63543,-1.53539 -0.63543,-1.53539l19.0001,-2.09221c0,0 0.25019,1.09606 0.27501,1.51324c0.01688,0.28371 -0.14049,0.74775 -0.14049,0.74775z" data-paper-data="{&quot;index&quot;:null}" fill="#f2f23c" stroke="#533721" stroke-width="0.7" stroke-linecap="butt"/><path d="M251.7733,148.03474c0,0 -6.76932,0.30299 -9.86744,0.61578c-3.18718,0.3218 -8.99602,1.28879 -8.99602,1.28879c0,0 -1.9376,0.0615 -2.10835,-0.61137c-0.32872,-1.2952 0.77781,-1.84939 0.77781,-1.84939c0,0 7.19829,-1.13122 10.56532,-1.41666c3.28211,-0.27822 9.38864,-0.27486 9.38864,-0.27486c0,0 0.4557,0.05611 0.78825,1.2325c0.22919,0.81074 -0.54818,1.01523 -0.54818,1.01523z" data-paper-data="{&quot;index&quot;:null}" fill="#f2f23c" stroke="#533721" stroke-width="0.7" stroke-linecap="butt"/><path d="M231.56245,185.00079c0,0 0.11566,0.79287 -0.06443,0.9494c-0.34084,0.29619 -1.82722,0.69463 -1.82722,0.69463l-6.32403,-4.58163l2.70305,-0.72822z" data-paper-data="{&quot;index&quot;:null}" fill="#b78700" stroke="#533721" stroke-width="0.7" stroke-linecap="butt"/><path d="M222.59643,182.05456c0,0 -4.25257,-2.15222 -2.38977,-3.85709c2.47603,-2.2661 6.10162,3.11165 6.10162,3.11165c0,0 -1.22062,0.54307 -1.90355,0.68021c-0.48631,0.09766 -1.80831,0.06523 -1.80831,0.06523z" data-paper-data="{&quot;index&quot;:null}" fill="#b78700" stroke="#533721" stroke-width="0.7" stroke-linecap="butt"/><path d="M235.16041,187.80531c-1.07623,0.19246 -3.1441,0.07262 -3.1441,0.07262l-0.43134,-2.41192c0,0 1.7204,-0.11727 2.70388,-0.17341c1.35366,-0.07726 4.66836,-0.24734 4.66836,-0.24734l0.70719,1.46488c0,0 -3.11267,1.04631 -4.504,1.29515z" data-paper-data="{&quot;index&quot;:null}" fill="#b78700" stroke="#533721" stroke-width="0.7" stroke-linecap="butt"/><path d="M233.05741,188.68248c0,0 -0.44978,0.47164 -2.4947,-0.36993c-1.88311,-0.77497 -2.04541,-2.08246 -2.04541,-2.08246c0,0 0.96817,-0.7445 1.51237,-0.97189c0.59025,-0.24664 1.90224,-0.45487 1.90224,-0.45487c0,0 0.50967,1.20813 0.69038,1.83094c0.19357,0.66719 0.4351,2.04822 0.4351,2.04822z" data-paper-data="{&quot;index&quot;:null}" fill="#f2f23c" stroke="#b78700" stroke-width="0.7" stroke-linecap="butt"/><g data-paper-data="{&quot;index&quot;:null}" stroke-width="0.7" stroke-linecap="butt"><path d="M247.47591,184.55445c0.30473,1.7039 -1.26141,2.83616 -3.83188,3.29586c-2.57045,0.45969 -4.52442,-0.04303 -4.82916,-1.74693c-0.30474,-1.70389 1.31211,-2.55251 3.88259,-3.01221c2.57047,-0.4597 4.47371,-0.24062 4.77845,1.46328z" fill="#b78700" stroke="#533721"/><g fill="#242424" stroke="none"><path d="M244.38771,185.07359c-0.18052,0.03229 -0.35323,-0.08907 -0.38576,-0.27105c-0.03254,-0.18198 0.08739,-0.35567 0.2679,-0.38796c0.18052,-0.03229 0.35323,0.08907 0.38577,0.27104c0.03256,0.18198 -0.08739,0.35568 -0.26791,0.38796z"/><path d="M245.50947,185.009c-0.18052,0.03229 -0.35322,-0.08908 -0.38576,-0.27106c-0.03254,-0.18198 0.08738,-0.35565 0.2679,-0.38794c0.18052,-0.03229 0.35323,0.08907 0.38577,0.27104c0.03256,0.18198 -0.08739,0.35567 -0.26791,0.38796z"/><path d="M246.47008,184.64678c-0.18052,0.03229 -0.35323,-0.08907 -0.38577,-0.27104c-0.03256,-0.18198 0.08739,-0.35567 0.26791,-0.38796c0.18051,-0.03227 0.35322,0.08908 0.38576,0.27106c0.03256,0.18198 -0.08739,0.35566 -0.2679,0.38794z"/><path d="M245.3089,184.03835c-0.18051,0.03227 -0.35323,-0.08907 -0.38577,-0.27104c-0.03256,-0.18198 0.08739,-0.35567 0.26791,-0.38796c0.18052,-0.03229 0.35324,0.08907 0.38577,0.27105c0.03256,0.18198 -0.0874,0.35567 -0.26791,0.38795z"/><path d="M244.34873,184.10125c-0.18052,0.03229 -0.35322,-0.08906 -0.38576,-0.27104c-0.03256,-0.18198 0.08739,-0.35567 0.26791,-0.38796c0.18052,-0.03229 0.35322,0.08906 0.38576,0.27104c0.03256,0.18198 -0.08739,0.35567 -0.26791,0.38796z"/></g></g></g></g></svg>