<svg version="1.1" xmlns="http://www.w3.org/2000/svg" xmlns:xlink="http://www.w3.org/1999/xlink" width="50.38783" height="130.94387" viewBox="0,0,50.38783,130.94387"><defs><linearGradient x1="236.79629" y1="193.32959" x2="233.92534" y2="211.88493" gradientUnits="userSpaceOnUse" id="color-1"><stop offset="0" stop-color="#606060"/><stop offset="1" stop-color="#191919"/></linearGradient></defs><g transform="translate(-217.23263,-138.30598)"><g data-paper-data="{&quot;isPaintingLayer&quot;:true}" fill-rule="nonzero" stroke-linejoin="miter" stroke-miterlimit="10" stroke-dasharray="" stroke-dashoffset="0" style="mix-blend-mode: normal"><path d="M261.4402,179.66447c1.18957,1.29002 -4.14294,11.51038 -4.14294,11.51038c0,0 -4.7713,9.60831 -5.87134,13.13579c-1.2752,4.08915 -1.33232,9.96397 -1.33232,9.96397c0,0 -2.08235,3.09755 -3.97766,3.37307c-1.79187,0.26049 -3.37666,-2.32111 -4.22235,-1.63632c-0.97368,0.78843 -1.2887,1.93379 -1.2887,1.93379c0,0 -1.93363,1.38736 -2.42268,-0.30115c-0.39894,-1.37741 -0.36129,-5.02284 -0.36129,-5.02284c0,0 -2.29233,2.52023 -3.4257,2.56186c-0.83762,0.03077 -2.75968,-2.3346 -2.75968,-2.3346l2.18983,-2.23671c0,0 -3.29454,0.06021 -4.63266,-2.28728c-0.88308,-1.5492 -1.61801,-7.40675 -1.61801,-7.40675c0,0 -3.56421,-0.15343 -5.3644,-6.19108c-0.50239,-1.68496 -0.45964,-7.08956 -2.65534,-8.94118c-6.10871,-5.15145 13.72808,-27.26677 13.72808,-27.26677c0,0 24.73194,17.43139 28.15715,21.14582z" data-paper-data="{&quot;index&quot;:null}" fill="#2f2f2f" stroke="none" stroke-width="0" stroke-linecap="butt"/><path d="M247.36175,262.52811c0,0 2.47305,-12.05626 -1.08174,-20.44703c-3.86729,-9.12841 -11.0754,-11.63173 -11.0754,-11.63173c0,0 -5.123,-12.12189 -1.82757,-25.72469c3.17566,-13.1084 8.16031,-17.92807 8.16031,-17.92807" fill="none" stroke="#5f5f5f" stroke-width="2" stroke-linecap="round"/><path d="M241.56923,141.98281c0,0 0.48216,-1.14435 1.90217,-2.01435c2.10223,-1.28799 3.2036,-0.83538 3.2036,-0.83538" fill="none" stroke="#000000" stroke-width="1.5" stroke-linecap="round"/><path d="M251.66203,139.13309c0,0 1.76494,-0.12126 2.67575,0.41451c0.91081,0.53577 1.36138,1.96026 1.36138,1.96026" fill="none" stroke="#000000" stroke-width="1.5" stroke-linecap="round"/><path d="M235.06299,230.52593c0,0 -2.45818,13.13508 -3.98128,19.39726c-3.03759,10.01135 -10.53453,17.24936 -10.53453,17.24936" fill="none" stroke="#5f5f5f" stroke-width="2" stroke-linecap="round"/><path d="M233.75619,267.42782c0,2.41207 -13.55712,0 -13.55712,0c0,0 3.03486,-4.36744 6.77856,-4.36744c3.7437,0 6.77856,1.95537 6.77856,4.36744z" fill="#5f5f5f" stroke="#000000" stroke-width="1.5" stroke-linecap="butt"/><path d="M260.75619,263.03132c0,2.17917 -13.55712,0 -13.55712,0c0,0 3.03486,-3.94573 6.77856,-3.94573c3.74369,0 6.77856,1.76657 6.77856,3.94573z" fill="#5f5f5f" stroke="#000000" stroke-width="1.5" stroke-linecap="butt"/><path d="M230.09131,189.01382c0,0 -10.08123,-10.57455 -11.13242,-19.87991c-0.92759,-8.21113 2.63111,-15.96491 3.10585,-16.35522c1.398,-1.14938 5.45916,-3.33474 5.45916,-3.33474l-0.26596,-6.38485c0,0 3.88124,2.73719 7.08224,2.82005c1.86383,0.04825 4.16538,-2.06325 7.39577,-2.50765c4.59101,-0.63159 10.04119,0.32231 10.04119,0.32231c0,0 3.09954,2.55297 6.0715,6.51606c2.74898,3.66574 5.35267,8.64716 6.15344,11.33056c0.28021,0.93901 1.72607,3.40046 1.92219,6.13378c0.22507,3.13672 -0.82978,6.5943 -1.01627,7.89336c-0.2616,1.82233 -1.49438,-3.13664 -1.49438,-3.13664l-1.98746,3.59718c0,0 1.81012,1.2641 0.96509,-0.87927c-1.05905,-2.68621 1.50304,-7.90572 0.02203,-12.36875c-0.7426,-2.23783 -12.22623,-7.58856 -14.77911,-8.88528c-2.64361,-1.34281 -6.08521,-1.96972 -6.08521,-1.96972c0,0 -0.82167,1.01581 -2.80286,3.02601c-3.40533,3.4552 -8.95551,9.46602 -10.39966,15.54644c-1.57998,6.65237 5.42905,14.42464 4.74404,16.47825c-0.5934,1.77898 -2.35531,-2.63159 -2.35531,-2.63159z" data-paper-data="{&quot;index&quot;:null}" fill="#2f2f2f" stroke="none" stroke-width="0" stroke-linecap="butt"/><g data-paper-data="{&quot;index&quot;:null}" stroke="#000000" stroke-width="0.7" stroke-linecap="butt"><path d="M260.98446,177.42846c1.36165,-2.29561 2.42041,-6.05893 2.11387,-9.67361c-0.39151,-4.61684 -3.02294,-8.98472 -4.38573,-11.07524c-0.48955,-0.75098 -2.65554,-1.34455 -1.9139,-1.35879c2.39605,-0.04599 4.70295,0.5642 6.54737,2.06909c2.20719,1.80089 3.74754,4.76519 3.92439,7.82115c0.36371,6.28451 -0.79945,8.69268 -3.12239,10.51128c-1.64455,1.28751 -5.30291,3.85005 -5.30291,3.85005c0,0 1.43102,-0.94985 2.13929,-2.14395z" data-paper-data="{&quot;index&quot;:null}" fill="#5f5f5f"/><path d="M263.83074,166.5759c2.13475,12.81686 -4.74253,12.85882 -4.74253,12.85882c0,0 4.30312,-3.79701 2.43033,-15.22536c-1.1253,-6.86683 -5.32293,-8.80599 -5.32293,-8.80599c0,0 5.1061,-4.01154 7.63513,11.17254z" data-paper-data="{&quot;index&quot;:null}" fill="#b1b1b1"/><path d="M259.60007,155.85761c-3.80669,-5.6753 -8.87345,-6.74773 -8.87345,-6.74773l-0.15369,-1.56005c0,0 8.57372,0.59682 11.55161,7.98778c5.228,12.97562 1.29523,12.89822 1.29523,12.89822c0,0 -1.39077,-8.95698 -3.81971,-12.57822z" data-paper-data="{&quot;index&quot;:null}" fill="#5f5f5f"/><path d="M229.96635,183.93189c-1.35192,-0.34431 -2.4099,-0.9695 -2.4099,-0.9695l-1.55169,-23.33265c0,0 3.61674,-1.02465 4.55523,-1.16454c0.40534,-0.0604 0.98244,0.33909 0.98244,0.33909c0,0 8.98789,9.21875 3.32267,24.23158c-0.55825,1.47936 -2.99906,1.37985 -4.89874,0.89601z" data-paper-data="{&quot;index&quot;:null}" fill="#b1b1b1"/><path d="M230.2247,182.98658c-2.12047,0.50584 -4.80276,-0.35317 -6.72318,-1.16956c-2.71257,-1.15319 -4.45478,-3.15873 -5.71424,-9.24283c-1.12421,-5.43073 2.51757,-11.25443 7.63319,-12.47472c5.11562,-1.2203 9.91988,21.66682 4.80424,22.88713z" data-paper-data="{&quot;index&quot;:null}" fill="#5f5f5f"/><path d="M228.09233,174.9061c0,0 -0.04708,-3.00198 -0.69955,-6.86178c-0.46176,-2.73153 -1.43435,-6.42033 -1.9888,-7.44314c-0.76012,-1.40222 -2.86449,1.18957 -3.56031,-0.55693c-0.13671,-0.34312 0.46139,-1.78253 2.13974,-2.03224c1.02285,-0.15218 2.69796,-0.75297 4.12396,2.1898c4.50888,9.30466 2.64881,15.22507 2.64881,15.22507c0,0 -0.36578,0.64234 -1.31946,0.67686c-0.91933,0.03328 -1.34439,-1.19765 -1.34439,-1.19765z" data-paper-data="{&quot;index&quot;:null}" fill="#5f5f5f"/><path d="M232.36452,151.12255c0,0 -3.72327,0.41264 -5.35817,2.92241c-0.83198,1.27718 -0.75328,4.42673 -0.75328,4.42673c0,0 -1.14062,1.09094 -2.11905,1.05304c-0.97933,-0.03792 -1.4759,-1.24159 -1.4759,-1.24159c0,0 1.29401,-4.44262 2.49183,-5.93871c2.52664,-3.15586 6.65145,-3.12472 6.65145,-3.12472l0.56314,1.90283z" data-paper-data="{&quot;index&quot;:null}" fill="#5f5f5f"/><path d="M250.90117,149.24792c0,0 -6.98811,0.66311 -8.6473,0.91994c-3.18736,0.49338 -9.10257,1.82763 -9.10257,1.82763c0,0 -0.47129,-0.0988 -0.64095,-0.32558c-0.2516,-0.33631 -0.72217,-1.49656 -0.72217,-1.49656l18.84941,-3.17504c0,0 0.31244,1.07996 0.36107,1.49504c0.03308,0.28229 -0.09751,0.75455 -0.09751,0.75455z" data-paper-data="{&quot;index&quot;:null}" fill="#b1b1b1"/><path d="M250.6551,147.53381c0,0 -6.74093,0.6895 -9.8161,1.1789c-3.16357,0.50349 -8.90763,1.80099 -8.90763,1.80099c0,0 -1.93092,0.17218 -2.13985,-0.48983c-0.40222,-1.27429 0.67081,-1.89083 0.67081,-1.89083c0,0 7.12184,-1.54091 10.46705,-2.01837c3.26084,-0.4654 9.35757,-0.81117 9.35757,-0.81117c0,0 0.45816,0.02997 0.85742,1.18541c0.27517,0.79631 -0.48924,1.04491 -0.48924,1.04491z" data-paper-data="{&quot;index&quot;:null}" fill="#5f5f5f"/><path d="M232.59067,185.59486c0,0 0.1608,0.78497 -0.01005,0.95153c-0.32334,0.31519 -1.78452,0.79796 -1.78452,0.79796l-6.57562,-4.21259l2.657,-0.88157z" data-paper-data="{&quot;index&quot;:null}" fill="#b1b1b1"/><path d="M223.47088,183.16605c0,0 -4.36865,-1.90558 -2.60637,-3.71416c2.34242,-2.40395 6.26954,2.75773 6.26954,2.75773c0,0 -1.18757,0.61196 -1.86155,0.78792c-0.47993,0.1253 -1.80162,0.16851 -1.80162,0.16851z" data-paper-data="{&quot;index&quot;:null}" fill="#b1b1b1"/><path d="M236.34308,188.1891c-1.06347,0.25368 -3.13481,0.25225 -3.13481,0.25225l-0.56853,-2.38332c0,0 1.71088,-0.21543 2.68954,-0.32771c1.34702,-0.15452 4.64658,-0.51383 4.64658,-0.51383l0.78979,1.42205c0,0 -3.04777,1.22255 -4.42258,1.55052z" data-paper-data="{&quot;index&quot;:null}" fill="#b1b1b1"/><path d="M234.29367,189.18507c0,0 -0.42208,0.49658 -2.51176,-0.22671c-1.92434,-0.66604 -2.16113,-1.96212 -2.16113,-1.96212c0,0 0.92402,-0.79863 1.45433,-1.05676c0.57518,-0.27998 1.87312,-0.56287 1.87312,-0.56287c0,0 0.57791,1.17702 0.79393,1.78847c0.2314,0.65503 0.55149,2.02 0.55149,2.02z" data-paper-data="{&quot;index&quot;:null}" fill="#b1b1b1"/><g data-paper-data="{&quot;index&quot;:null}"><path d="M248.45259,184.23947c0.40164,1.6837 -1.0972,2.90364 -3.63719,3.50954c-2.53997,0.60589 -4.51948,0.2157 -4.92113,-1.46799c-0.40165,-1.68368 1.16404,-2.62335 3.70403,-3.22925c2.53998,-0.60591 4.45264,-0.49599 4.85429,1.18769z" fill="#5f5f5f"/><g fill="#b1b1b1"><path d="M245.39912,184.93431c-0.17837,0.04255 -0.35774,-0.06873 -0.40063,-0.24855c-0.04289,-0.17982 0.06692,-0.36009 0.24529,-0.40264c0.17837,-0.04255 0.35774,0.06873 0.40063,0.24855c0.04291,0.17983 -0.06692,0.36009 -0.24529,0.40264z"/><path d="M246.51535,184.8057c-0.17837,0.04255 -0.35774,-0.06875 -0.40063,-0.24857c-0.04289,-0.17982 0.06691,-0.36007 0.24528,-0.40262c0.17837,-0.04255 0.35774,0.06873 0.40063,0.24855c0.04291,0.17983 -0.06692,0.36009 -0.24529,0.40264z"/><path d="M247.45368,184.38916c-0.17837,0.04255 -0.35774,-0.06873 -0.40063,-0.24855c-0.04291,-0.17983 0.06692,-0.36009 0.24529,-0.40264c0.17836,-0.04254 0.35774,0.06874 0.40063,0.24856c0.04291,0.17983 -0.06691,0.36007 -0.24528,0.40263z"/><path d="M246.25962,183.84811c-0.17836,0.04254 -0.35774,-0.06873 -0.40063,-0.24855c-0.04291,-0.17983 0.06692,-0.36008 0.24529,-0.40264c0.17837,-0.04255 0.35775,0.06873 0.40064,0.24855c0.04291,0.17983 -0.06692,0.36008 -0.24529,0.40264z"/><path d="M245.30461,183.9658c-0.17837,0.04255 -0.35773,-0.06872 -0.40062,-0.24854c-0.04291,-0.17983 0.06692,-0.36009 0.24529,-0.40264c0.17837,-0.04255 0.35773,0.06872 0.40062,0.24854c0.04291,0.17983 -0.06692,0.36008 -0.24529,0.40264z"/></g></g></g><path d="M249.7809,155.19686c0,0 -6.79245,-2.63584 -9.84819,-4.66154c-1.88375,-1.24877 5.39186,2.41062 5.39186,2.41062c0,0 -0.87633,-2.74708 -0.18264,-1.58931c1.19575,1.99572 3.08076,1.98622 3.08076,1.98622c0,0 0.51528,-3.00672 0.40438,-1.6168c-0.21695,2.71901 1.22732,3.40456 1.22732,3.40456l-9.18899,-2.49913l7.74076,0.93183l1.37473,1.63354z" data-paper-data="{&quot;index&quot;:null}" fill="#000000" stroke="#000000" stroke-width="0.5" stroke-linecap="round"/><path d="M238.97098,212.6656c0,0 -3.32753,-0.57471 -4.87558,-0.84599c-1.67722,-0.29392 -4.83129,-0.85507 -4.83129,-0.85507c0,0 0.56998,-4.67526 0.99803,-7.44179c0.4212,-2.72226 -2.17775,-8.07844 -0.57657,-10.15246c0.5732,-0.74247 1.87633,-3.72119 3.95408,-3.39971c1.54794,0.2395 6.15277,2.13032 7.63154,1.16601c0.57183,-0.37289 1.2715,3.0821 1.2715,3.0821c0,0 0.69228,0.51089 0.92443,1.28394c1.05306,3.50669 -3.44763,7.41218 -3.84981,10.01155c-0.44319,2.86436 -0.64634,7.15142 -0.64634,7.15142z" data-paper-data="{&quot;index&quot;:null}" fill="url(#color-1)" stroke="#1c1c1c" stroke-width="0.5" stroke-linecap="butt"/><path d="M252.69472,155.79686l1.37473,-1.63354l7.74076,-0.93183l-9.18899,2.49913c0,0 1.44427,-0.68555 1.22732,-3.40456c-0.1109,-1.38992 0.40438,1.6168 0.40438,1.6168c0,0 1.88501,0.0095 3.08076,-1.98622c0.69369,-1.15777 -0.18264,1.58931 -0.18264,1.58931c0,0 7.27561,-3.65939 5.39186,-2.41062c-3.05574,2.0257 -9.84819,4.66154 -9.84819,4.66154z" data-paper-data="{&quot;index&quot;:null}" fill="#000000" stroke="#000000" stroke-width="0.5" stroke-linecap="round"/></g></g></svg>