<svg version="1.1" xmlns="http://www.w3.org/2000/svg" xmlns:xlink="http://www.w3.org/1999/xlink" width="643.29999" height="502.61605" viewBox="0,0,643.29999,502.61605"><defs><linearGradient x1="240" y1="-58.80803" x2="240" y2="418.80803" gradientUnits="userSpaceOnUse" id="color-1"><stop offset="0" stop-color="#fffd00"/><stop offset="1" stop-color="#6d6b00"/></linearGradient><linearGradient x1="-69.14999" y1="180" x2="549.14999" y2="180" gradientUnits="userSpaceOnUse" id="color-2"><stop offset="0" stop-color="#b9a100"/><stop offset="1" stop-color="#faff00"/></linearGradient><linearGradient x1="98.79999" y1="114.63332" x2="98.79999" y2="253.63332" gradientUnits="userSpaceOnUse" id="color-3"><stop offset="0" stop-color="#fffd00"/><stop offset="1" stop-color="#6d6b00"/></linearGradient><linearGradient x1="27.29999" y1="184.13332" x2="170.29999" y2="184.13332" gradientUnits="userSpaceOnUse" id="color-4"><stop offset="0" stop-color="#b9a100"/><stop offset="1" stop-color="#faff00"/></linearGradient><linearGradient x1="240" y1="110.5" x2="240" y2="249.5" gradientUnits="userSpaceOnUse" id="color-5"><stop offset="0" stop-color="#fffd00"/><stop offset="1" stop-color="#6d6b00"/></linearGradient><linearGradient x1="167" y1="180" x2="313" y2="180" gradientUnits="userSpaceOnUse" id="color-6"><stop offset="0" stop-color="#b9a100"/><stop offset="1" stop-color="#faff00"/></linearGradient><linearGradient x1="386.79999" y1="67.63332" x2="386.79999" y2="238.63332" gradientUnits="userSpaceOnUse" id="color-7"><stop offset="0" stop-color="#fffd00"/><stop offset="1" stop-color="#6d6b00"/></linearGradient><linearGradient x1="320.69366" y1="155.36547" x2="476.29999" y2="155.36547" gradientUnits="userSpaceOnUse" id="color-8"><stop offset="0" stop-color="#b9a100"/><stop offset="1" stop-color="#faff00"/></linearGradient></defs><g transform="translate(81.64999,71.30803)"><g data-paper-data="{&quot;isPaintingLayer&quot;:true}" fill-rule="nonzero" stroke-width="25" stroke-linecap="butt" stroke-linejoin="miter" stroke-miterlimit="10" stroke-dasharray="" stroke-dashoffset="0" style="mix-blend-mode: normal"><path d="M-69.14999,418.80803v-477.61605h618.29999v477.61605z" fill="url(#color-1)" stroke="url(#color-2)"/><path d="M170.29999,184.13332c0,38.38379 -32.01164,69.5 -71.5,69.5c-39.48836,0 -71.5,-31.11621 -71.5,-69.5c0,-38.38379 32.01164,-69.5 71.5,-69.5c39.48836,0 71.5,31.11621 71.5,69.5z" fill="url(#color-3)" stroke="url(#color-4)"/><path d="M313,180c0,38.38379 -32.68321,69.5 -73,69.5c-40.31679,0 -73,-31.11621 -73,-69.5c0,-38.38379 32.68321,-69.5 73,-69.5c40.31679,0 73,31.11621 73,69.5z" fill="url(#color-5)" stroke="url(#color-6)"/><path d="M364.29999,258.63332c0,0 23.10054,-78.08591 -0.64108,-77.22387c-46.66536,1.69439 -49.76487,-24.52479 -35.35892,-23.77613c14.68804,0.76333 28.9999,0.19133 34.78733,-9.70889c15.0958,-25.82353 1.21267,-80.29111 1.21267,-80.29111c0,0 83.06094,-23.88054 100.58497,-14.24518c10.60248,5.82963 11.41503,42.24518 11.41503,42.24518c0,0 -49.49005,-1.03677 -64.97296,15.02607c-14.84668,15.40278 3.10574,47.97765 55.97296,45.97393c7.12329,-0.26998 13.73636,34.51259 3.91788,34.95292c-26.48565,1.1878 -49.22441,-14.7496 -61.09591,-5.59121c-26.20251,20.21419 -18.82197,73.63829 -18.82197,73.63829z" fill="url(#color-7)" stroke="url(#color-8)"/></g></g></svg>