<svg version="1.1" xmlns="http://www.w3.org/2000/svg" xmlns:xlink="http://www.w3.org/1999/xlink" width="42.73019" height="60.47375" viewBox="0,0,42.73019,60.47375"><g transform="translate(-218.6349,-149.76312)"><g data-paper-data="{&quot;isPaintingLayer&quot;:true}" fill="#2f2f2f" fill-rule="nonzero" stroke="none" stroke-width="0" stroke-linecap="butt" stroke-linejoin="miter" stroke-miterlimit="10" stroke-dasharray="" stroke-dashoffset="0" style="mix-blend-mode: normal"><path d="M261.30251,177.25789c0.83062,1.54574 -6.88029,10.11505 -6.88029,10.11505c0,0 -7.01491,8.11641 -8.95919,11.25854c-2.25387,3.64244 -3.77301,9.31773 -3.77301,9.31773c0,0 -2.78848,2.481 -4.69267,2.27558c-1.80026,-0.19421 -2.69181,-3.08926 -3.68145,-2.63679c-1.13942,0.52095 -1.72989,1.55169 -1.72989,1.55169c0,0 -2.21833,0.8618 -2.27123,-0.89531c-0.04315,-1.43337 0.90164,-4.95444 0.90164,-4.95444c0,0 -2.84799,1.86957 -3.95599,1.62748c-0.81887,-0.17891 -2.09093,-2.94859 -2.09093,-2.94859l2.67809,-1.62053c0,0 -3.20564,-0.76258 -3.91663,-3.36945c-0.46921,-1.72037 0.27855,-7.5763 0.27855,-7.5763c0,0 -3.41356,-1.03668 -3.65258,-7.33246c-0.06671,-1.75699 1.32135,-6.98049 -0.34373,-9.32081c-4.63246,-6.51108 20.08912,-22.98617 20.08912,-22.98617c0,0 19.60854,23.04404 22.0002,27.49477z" data-paper-data="{&quot;index&quot;:null}"/></g></g></svg>