<svg version="1.1" xmlns="http://www.w3.org/2000/svg" xmlns:xlink="http://www.w3.org/1999/xlink" width="340.05401" height="233.6542" viewBox="0,0,340.05401,233.6542"><g transform="translate(-103.81156,-48.53962)"><g data-paper-data="{&quot;isPaintingLayer&quot;:true}" fill-rule="nonzero" stroke-linejoin="miter" stroke-miterlimit="10" stroke-dasharray="" stroke-dashoffset="0" style="mix-blend-mode: normal"><g stroke-width="1.5" stroke-linecap="butt"><path d="M243.63006,272.35794c-5.1397,7.45416 -15.12234,11.42139 -21.81129,7.62181c-6.68895,-3.79959 -8.73261,-12.52236 -4.26053,-20.3952c4.47208,-7.87284 16.23173,-17.46141 26.49539,-10.82671c6.4605,4.17623 4.66485,16.22033 -0.42356,23.60011z" fill="#43423e" stroke="#000000"/><path d="M240.74378,271.58273c-4.6308,5.84524 -11.41129,7.49193 -15.14464,3.67797c-3.73335,-3.81395 -3.00582,-11.64428 1.62498,-17.48952c4.6308,-5.84524 11.41129,-7.49193 15.14464,-3.67797c3.73335,3.81395 3.00582,11.64428 -1.62498,17.48952z" fill="#c1cbcd" stroke="#000000"/><path d="M238.6572,269.70644c-3.49883,4.41641 -8.49453,5.79065 -11.15822,3.06946c-2.66368,-2.72119 -1.98666,-8.50736 1.51217,-12.92376c3.49883,-4.41641 8.49453,-5.79065 11.15822,-3.06946c2.66368,2.72119 1.98666,8.50736 -1.51217,12.92376z" fill="none" stroke="#8b9394"/></g><path d="M235.01317,264.34668c-0.50705,1.01459 -26.0558,-13.43411 -26.0558,-13.43411l0.82342,-1.79214c0,0 25.69116,14.30824 25.23238,15.22625z" fill="#cbd4d1" stroke="#000000" stroke-width="1" stroke-linecap="butt"/><g stroke="#002c07" stroke-width="1.5"><path d="M275.13531,93.30638l1.68107,-11.86643" fill="none" stroke-linecap="round"/><path d="M279.09078,78.86888c0,1.03766 -0.79692,1.87885 -1.77997,1.87885c-0.98305,0 -1.77997,-0.84119 -1.77997,-1.87885c0,-1.03766 0.79692,-1.87886 1.77997,-1.87886c0.98305,0 1.77997,0.84119 1.77997,1.87886z" fill="#597357" stroke-linecap="butt"/></g><path d="M167.18065,255.55247l-35.34069,-69.39627c0,0 6.97574,-12.31636 18.16441,-23.27803c4.9974,-5.08457 15.38993,-13.39261 15.38993,-13.39261l56.70153,-20.70518l109.90096,-0.13312c0,0 23.46237,-1.96873 28.35791,-5.60627c6.62338,-4.92139 8.56005,-11.41172 8.56005,-11.41172c0,0 6.7344,6.72861 8.77219,9.49359c1.79687,2.43807 2.82299,6.23929 2.82299,6.23929c0,0 -13.76588,19.73659 -36.42342,39.78778c-21.93183,19.40895 -53.53341,36.59766 -73.55804,47.3191c-35.124,18.80583 -103.34782,41.08346 -103.34782,41.08346z" fill="#fffd94" stroke="#002c07" stroke-width="1.5" stroke-linecap="butt"/><path d="M136.33784,180.69446l29.55767,-30.52151l56.38564,-21.29684l53.46148,8.5802l-74.50643,32.95722l-37.58965,35.01942z" fill="#fffd94" stroke="none" stroke-width="0" stroke-linecap="butt"/><path d="M135.37401,182.94341c0,0 9.65338,-12.22459 14.6362,-17.52888c4.97682,-5.2979 15.24275,-14.27774 15.24275,-14.27774c0,0 13.51765,6.76395 18.23476,10.13331c5.01063,3.57902 11.00164,10.74982 11.00164,10.74982l-32.1279,31.16407z" fill="#354245" stroke="#000000" stroke-width="1.5" stroke-linecap="round"/><path d="M164.68051,204.0241l32.13825,-29.46831c0,0 7.23506,13.51659 8.77894,19.94944c1.61711,6.73793 0.71421,19.60533 0.71421,19.60533l-33.52268,9.69092z" fill="#354245" stroke="#000000" stroke-width="1.5" stroke-linecap="round"/><path d="M176.13784,222.89854l-3.64742,0.00221l-2.87533,-8.85161l31.2716,-30.69393l3.55614,9.73939z" fill="#e8e8e8" stroke="none" stroke-width="0" stroke-linecap="butt"/><path d="M180.24497,221.19761l25.21276,-26.55967l0.5183,3.96571l-22.54281,22.10976z" fill="#e8e8e8" stroke="none" stroke-width="0" stroke-linecap="butt"/><path d="M164.61904,204.24382l32.13825,-29.46831c0,0 7.23506,13.51658 8.77894,19.94944c1.61711,6.73793 0.7142,19.60533 0.7142,19.60533l-33.52267,9.69092z" fill="none" stroke="#000000" stroke-width="1.5" stroke-linecap="round"/><path d="M161.35435,167.15329c0,0 2.42029,-4.9423 11.42091,-1.02355c9.98491,4.3473 5.27377,9.23861 5.27377,9.23861" fill="none" stroke="#273239" stroke-width="1.5" stroke-linecap="round"/><path d="M162.88938,167.60011c1.95349,1.15329 2.02342,4.65217 0.15619,7.81497c-1.86724,3.1628 -4.96454,4.79183 -6.91804,3.63854c-1.95349,-1.15329 -2.02342,-4.65217 -0.15619,-7.81497c1.86724,-3.1628 4.96454,-4.79183 6.91804,-3.63854z" fill="#9d9a00" stroke="#273239" stroke-width="1.5" stroke-linecap="butt"/><path d="M164.18606,189.876c0,0 -1.43894,3.14574 -2.68599,4.13299c-1.11032,0.879 -4.43387,1.50357 -4.43387,1.50357" fill="none" stroke="#273239" stroke-width="1.5" stroke-linecap="round"/><path d="M203.08731,129.78832c1.8604,-1.59077 22.61907,-18.00537 47.60661,-21.5165c37.18734,-5.2254 59.4559,4.95402 59.4559,4.95402c0,0 15.33436,4.82364 20.27816,12.97033c6.96825,11.48271 -4.53548,14.98094 -4.53548,14.98094c0,0 -30.28786,4.11777 -46.87114,5.09933c-17.71837,1.04875 -56.25943,1.00498 -56.25943,1.00498c0,0 -15.1106,0.26167 -19.97933,-1.72914c-15.42395,-6.30681 -3.10247,-12.85057 0.30471,-15.76396z" fill="#fffd94" stroke="#002c07" stroke-width="1.5" stroke-linecap="round"/><path d="M213.12355,145.99633c-8.06611,-0.22137 -11.62776,-1.34382 -15.46936,-6.68118c-3.8416,-5.33737 5.85011,-6.68345 5.85011,-6.68345c0,0 29.26079,8.83277 44.32136,8.93714c22.23021,0.15404 78.38812,-2.31937 78.38812,-2.31937c0,0 -21.01772,4.13245 -49.78187,6.03117c-19.79787,1.30686 -51.8044,1.03141 -63.30835,0.71569z" fill="#6d6b00" stroke="none" stroke-width="0" stroke-linecap="butt"/><path d="M278.55006,109.36129l0.46988,-7.38248l3.19035,0.30136l-0.4699,7.38248c0,0 -1.15117,0.45635 -1.66486,0.40782c-0.54759,-0.05173 -1.52548,-0.70918 -1.52548,-0.70918z" fill="#4b5345" stroke="#000000" stroke-width="1.5" stroke-linecap="butt"/><path d="M266.89146,107.88085l1.79535,-6.70897l2.50188,0.80546l-1.79535,6.70896c0,0 -1.01132,0.22886 -1.41416,0.09917c-0.42943,-0.13825 -1.08772,-0.90462 -1.08772,-0.90462z" fill="#4b5345" stroke="#000000" stroke-width="1.5" stroke-linecap="butt"/><path d="M169.28901,253.94609v-20.88314c0,0 60.96728,-8.75419 91.01474,-22.63402c14.08324,-6.50547 61.61166,-37.42078 73.12491,-45.84479c15.45774,-11.31011 43.48922,-40.68782 43.48922,-40.68782l1.84506,2.82327c0,0 -18.34228,25.48091 -45.59601,48.40437c-15.63813,13.15343 -36.90995,23.95633 -50.97433,32.45937c-28.41775,17.18081 -112.90359,46.36275 -112.90359,46.36275z" fill="#fffb00" stroke="none" stroke-width="0" stroke-linecap="butt"/><path d="M244.93018,153.06446l-41.76628,18.3129" fill="none" stroke="#3a5839" stroke-width="1.5" stroke-linecap="round"/><path d="M208.62564,177.48166c0,0 6.80361,15.55916 6.68899,29.23829c-0.15976,19.065 -4.76131,29.55577 -4.76131,29.55577" fill="none" stroke="#2a4327" stroke-width="1.5" stroke-linecap="round"/><path d="M295.04971,158.84746c0,0 2.28279,8.09165 0.04497,19.12069c-1.99067,9.81098 -9.68334,23.28814 -9.68334,23.28814l-33.41302,13.49372c0,0 3.63841,-14.49203 3.97735,-21.21446c0.29844,-5.91914 -2.04968,-17.01774 -2.04968,-17.01774z" fill="none" stroke="#283e25" stroke-width="1.5" stroke-linecap="round"/><path d="M262.60051,184.87107c0,0 1.56427,5.50907 0.42596,11.7918c-1.35139,7.45879 -3.31747,10.05518 -3.31747,10.05518c0,0 -1.19809,1.02773 -1.6089,0.97638c-0.44344,-0.05543 -1.28181,-1.25149 -1.24252,-2.28184c0.03929,-1.03035 0.96022,1.01175 1.33101,-0.03906c0.88221,-2.50018 1.98541,-7.8285 2.21766,-10.53811c0.18964,-2.21242 0.49602,-6.4815 0.04631,-8.93478c-0.28937,-1.57856 -1.58444,-1.02883 -1.3861,-1.9934c0.19834,-0.96457 1.35786,-0.93339 1.95447,-0.77068c0.581,0.15846 1.57959,1.73451 1.57959,1.73451z" fill="#9eb3a4" stroke="#283e25" stroke-width="1.5" stroke-linecap="round"/><path d="M313.95554,172.8169c-0.63824,5.10595 -4.01026,8.88832 -7.5316,8.44815c-3.52134,-0.44017 -5.85856,-4.93619 -5.22032,-10.04214c0.63824,-5.10595 4.01026,-8.88832 7.53161,-8.44815c3.52134,0.44017 5.85856,4.93619 5.22031,10.04214z" fill="#3c5133" stroke="#2a4327" stroke-width="1.5" stroke-linecap="butt"/><path d="M306.49311,175.36918l2.0365,-6.56203l0.67883,7.01459l-3.84671,-4.97809l5.43065,0.67883z" fill="#83a088" stroke="#83a088" stroke-width="1.5" stroke-linecap="round"/><path d="M299.86888,110.65564c0,0 6.38661,7.7288 6.68292,17.65036c0.28328,9.48556 -4.11269,15.44138 -4.11269,15.44138" fill="none" stroke="#002c07" stroke-width="1.5" stroke-linecap="round"/><g stroke="#002c07" stroke-width="1.5" stroke-linecap="round"><path d="M243.64504,147.6027c0,0 4.29809,-12.2833 3.24681,-18.32047c-2.19757,-12.61994 -10.9575,-16.37767 -10.9575,-16.37767l14.45756,-4.17663c0,0 8.21878,8.59765 9.69552,16.37673c2.30648,12.14989 -3.91249,22.49803 -3.91249,22.49803z" fill="#6d6b00"/><path d="M248.78552,143.74733l6.42558,-0.64256" fill="none"/><path d="M249.74936,139.89201l6.42558,-0.64255" fill="none"/><path d="M250.39192,135.71538l5.14046,-0.32128" fill="none"/><path d="M258.74517,130.25362l-8.67453,0.96384" fill="none"/><path d="M255.53238,125.11319l-5.14046,0.32128" fill="none"/><path d="M252.96216,121.25784l-5.14047,0.32128" fill="none"/><path d="M245.89401,116.75994l7.71069,-0.96384" fill="none"/></g><path d="M165.47453,187.04536l-5.14046,9.95965" fill="none" stroke="#273239" stroke-width="1.5" stroke-linecap="round"/><path d="M178.3257,177.24634c0,5.76672 -4.74677,10.44157 -10.60221,10.44157c-5.85544,0 -10.60221,-4.67485 -10.60221,-10.44157c0,-5.76672 4.74677,-10.44157 10.60221,-10.44157c5.85544,0 10.60221,4.67485 10.60221,10.44157z" fill="#6c7379" stroke="#273239" stroke-width="1" stroke-linecap="butt"/><path d="M163.22517,190.67832c0,0 -2.69705,1.07287 -4.58562,1.73458c-1.88858,0.66171 -6.85774,-1.46336 -6.85774,-1.46336" fill="none" stroke="#273239" stroke-width="1.5" stroke-linecap="round"/><path d="M162.95182,182.62256c0,0 1.23575,1.42954 3.30967,1.57609c1.75657,0.12413 3.07847,-0.53538 3.07847,-0.53538c0,0 1.60376,3.77203 -2.05265,3.45887c-1.72248,-0.14753 -1.69161,-2.82914 -1.69161,-2.82914" fill="#563838" stroke="#273239" stroke-width="1" stroke-linecap="round"/><path d="M176.98762,174.97381c2.06951,0.92917 2.52765,4.39863 1.02328,7.74927c-1.50437,3.35064 -4.40156,5.31362 -6.47107,4.38445c-2.06951,-0.92917 -2.52765,-4.39862 -1.02328,-7.74926c1.50437,-3.35064 4.40156,-5.31363 6.47107,-4.38446z" fill="#9d9a00" stroke="#273239" stroke-width="1.5" stroke-linecap="butt"/><g stroke-linecap="butt"><path d="M174.24879,229.04693c1.6406,30.4187 -10.76285,27.14808 -10.76285,27.14808c0,0 -51.24401,8.7579 -58.63343,-33.89494c-3.77099,-21.76673 30.36087,-39.67796 30.36087,-39.67796c0,0 37.06495,9.89029 39.0354,46.42482z" fill="#fffb00" stroke="#002c07" stroke-width="1.5"/><path d="M133.76763,253.30353c-26.8771,-9.55058 -26.34488,-28.91511 -26.34488,-28.91511c0,0 3.66951,13.24133 28.83214,16.94944c28.74679,4.2363 36.70878,-7.31107 36.70878,-7.31107c0,0 -0.94812,8.49571 -2.08659,12.13886c-0.97932,3.13382 -4.33899,8.423 -4.33899,8.423c0,0 -20.309,3.14297 -32.77046,-1.28512z" fill="#6d6b00" stroke="none" stroke-width="0"/></g><g><path d="M225.8394,217.78923c0,0 0.45801,-11.98512 -0.05416,-17.90353c-0.44097,-5.09565 -2.83735,-15.50949 -2.83735,-15.50949c0,0 0.28639,-4.49791 2.24895,-4.49791c1.96256,0 4.49791,4.49791 4.49791,4.49791c0,0 2.63641,9.31478 3.00262,14.12783c0.38271,5.02994 -0.75367,15.42985 -0.75367,15.42985c0,0 -0.94542,3.91136 -2.89151,5.14047c-1.94609,1.22911 -3.21279,-1.28511 -3.21279,-1.28511z" fill="#354245" stroke="#000000" stroke-width="1.5" stroke-linecap="round"/><path d="M226.39641,208.72293l-0.70298,-12.79427l4.78028,-7.59221l2.67133,10.68533z" fill="#e8e8e8" stroke="none" stroke-width="0" stroke-linecap="butt"/><path d="M225.91852,218.00895c0,0 0.45801,-11.98512 -0.05416,-17.90353c-0.44097,-5.09565 -2.83735,-15.50949 -2.83735,-15.50949c0,0 0.28639,-4.49791 2.24895,-4.49791c1.96256,0 4.49791,4.49791 4.49791,4.49791c0,0 2.63641,9.31478 3.00262,14.12783c0.38271,5.02994 -0.75367,15.42985 -0.75367,15.42985c0,0 -0.94542,3.91135 -2.89151,5.14046c-1.94609,1.22911 -3.21279,-1.28511 -3.21279,-1.28511z" fill="none" stroke="#000000" stroke-width="1.5" stroke-linecap="round"/></g><g><path d="M237.02564,216.18121c0,0 0.45801,-11.98512 -0.05416,-17.90353c-0.44097,-5.09565 -2.83735,-15.50949 -2.83735,-15.50949c0,0 0.28639,-4.49791 2.24895,-4.49791c1.96256,0 4.49791,4.49791 4.49791,4.49791c0,0 2.63641,9.31478 3.00262,14.12783c0.38271,5.02994 -0.75367,15.42985 -0.75367,15.42985c0,0 -0.94542,3.91135 -2.89151,5.14046c-1.94609,1.22911 -3.21279,-1.28511 -3.21279,-1.28511z" fill="#354245" stroke="#000000" stroke-width="1.5" stroke-linecap="round"/><path d="M237.58265,207.11488l-0.70298,-12.79427l4.78028,-7.59221l2.67133,10.68533z" fill="#e8e8e8" stroke="none" stroke-width="0" stroke-linecap="butt"/><path d="M237.94297,210.7089l-0.28119,-2.24954l5.76445,-7.45161l0.42178,1.54656z" fill="#e8e8e8" stroke="none" stroke-width="0" stroke-linecap="butt"/><path d="M237.10476,216.40094c0,0 0.45801,-11.98512 -0.05416,-17.90353c-0.44097,-5.09565 -2.83735,-15.50949 -2.83735,-15.50949c0,0 0.28639,-4.49791 2.24895,-4.49791c1.96256,0 4.49791,4.49791 4.49791,4.49791c0,0 2.63641,9.31478 3.00262,14.12783c0.38271,5.02994 -0.75367,15.42985 -0.75367,15.42985c0,0 -0.94542,3.91136 -2.89151,5.14047c-1.94609,1.22911 -3.21279,-1.28511 -3.21279,-1.28511z" fill="none" stroke="#000000" stroke-width="1.5" stroke-linecap="round"/></g><g stroke-linecap="butt"><path d="M319.90817,169.66279l-0.72196,-14.43791l7.52294,-2.88244l-0.22554,13.58067z" fill="#354245" stroke="#000000" stroke-width="1.5"/><path d="M320.64914,168.1919l-0.31449,-3.23268l5.42604,-11.50289l0.10081,5.76772z" fill="#e8e8e8" stroke="none" stroke-width="0"/></g><g stroke-linecap="butt"><path d="M331.07398,163.82856l-0.72196,-14.43792l7.52294,-2.88244l-0.22553,13.58067z" fill="#354245" stroke="#000000" stroke-width="1.5"/><path d="M331.81495,162.35763l-0.31448,-3.23268l5.42604,-11.50289l0.1008,5.76771z" fill="#e8e8e8" stroke="none" stroke-width="0"/></g><path d="M274.56717,111.42223l0.82362,-9.06755l5.16388,0.37745l-0.82361,9.06754c0,0 -1.86809,0.55796 -2.69954,0.49718c-0.88634,-0.06479 -2.46434,-0.87463 -2.46434,-0.87463z" fill="#4b5345" stroke="#000000" stroke-width="1.5" stroke-linecap="butt"/><path d="M262.54251,109.00285l2.4525,-8.96946l4.03659,0.63504l-2.4525,8.96947c0,0 -1.5979,0.46043 -2.24784,0.35818c-0.69283,-0.10899 -1.78875,-0.99322 -1.78875,-0.99322z" fill="#4b5345" stroke="#000000" stroke-width="1.5" stroke-linecap="butt"/><path d="M263.56552,99.63515l0.7911,-4.25214l19.97516,2.47217l-0.59332,5.53767c0,0 -4.20092,1.11304 -11.019,0.26279c-5.74036,-0.71586 -9.15393,-4.02049 -9.15393,-4.02049z" fill="#4b5345" stroke="#000000" stroke-width="1.5" stroke-linecap="butt"/><path d="M284.51835,98.31318c-0.32052,1.99783 -5.09118,2.9696 -10.6556,2.17052c-5.56441,-0.79908 -9.81543,-3.06642 -9.49491,-5.06425c0.32052,-1.99783 5.09119,-2.9696 10.6556,-2.17052c5.56441,0.79908 9.81543,3.06642 9.49491,5.06425z" fill="#5f6759" stroke="#000000" stroke-width="1.5" stroke-linecap="butt"/><path d="M191.33403,247.67355l10.10779,-3.82124l9.36819,5.17716l-1.97225,2.95838z" fill="#3b503b" stroke="#002c07" stroke-width="1.5" stroke-linecap="butt"/><path d="M236.94233,250.38539l-13.06617,-14.66862l12.32657,-4.93062l7.39594,18.12006c0,0 -7.02472,15.65443 -8.253,15.92738c-0.83425,0.18539 1.59665,-14.44819 1.59665,-14.44819z" fill="#cbd4d1" stroke="#000000" stroke-width="1" stroke-linecap="butt"/><path d="M235.58641,263.82133l2.21878,-13.43596l4.6841,-1.23266z" fill="#b0b6b4" stroke="none" stroke-width="0" stroke-linecap="butt"/><path d="M442.42431,71.19867c-1.44201,2.60777 -2.97435,5.5209 -5.87626,7.75496c-0.39624,0.30506 -0.90125,0.54906 -1.40525,0.79366c-2.09636,2.96441 -4.83992,4.95558 -8.38965,7.39013c-2.64728,2.77031 -5.31723,5.54134 -8.89064,7.86012c-4.27078,2.7713 -9.99456,4.93096 -15.28178,7.08571c-1.27515,0.83187 -2.29771,1.8766 -3.9673,2.33817c-0.13491,0.0373 -0.27101,0.07191 -0.40815,0.10407l0.03685,0.04227l-3.26543,1.10613c-0.21797,0.07738 -0.45358,0.14055 -0.70435,0.18679c-1.6888,0.31145 -3.42497,-0.26239 -3.87783,-1.28172c-0.33854,-0.762 0.13591,-1.55725 1.10253,-2.0403l3.89965,-2.03566l0.03313,0.02383l0.08093,-0.08076c0.88556,-0.38541 1.80316,-0.76689 2.73992,-1.14809c2.37072,-1.24167 5.22835,-2.57861 5.85605,-2.91461c3.30384,-1.76856 6.23939,-3.65212 9.08361,-5.58986c-1.87034,0.62259 -3.7866,1.23631 -5.71311,1.8478c-0.76379,0.32423 -1.53,0.64633 -2.29778,0.96709c-1.49537,0.77223 -3.0193,1.53292 -4.5625,2.28011c-1.5071,1.30197 -3.17284,2.52976 -5.11629,3.62748c-1.66075,0.93804 -3.26402,2.13148 -5.43413,2.47934c-0.22469,0.03602 -0.45019,0.06673 -0.67639,0.09272l0.01468,0.04605l-3.30694,0.45852c-0.87331,0.56103 -1.72606,1.13941 -2.87889,1.39272c-0.17218,0.03783 -0.34536,0.07273 -0.51946,0.10496l0.02607,0.04365l-2.9831,0.71621c-4.70413,1.7478 -9.17891,3.20273 -13.56873,5.50036l-1.97778,0.54374c0,0 -3.05784,0.56394 -3.87783,-1.28172c-0.81999,-1.84566 2.23785,-2.4096 2.23785,-2.4096l-0.40591,0.25385c4.00316,-2.088 8.10789,-3.54848 12.355,-5.10807l1.78257,-1.57798l0.11689,0.04774l0.11066,-0.22686c1.90433,-1.07459 3.90405,-2.07044 5.95253,-3.0248l-0.86641,0.25806c-0.31048,0.09803 -0.70233,0.18009 -1.17176,0.24045c-2.18295,0.28075 -5.21626,-0.01374 -6.77513,-0.65777c-0.70715,-0.29216 -0.9894,-0.60606 -0.88295,-0.88806l0.50617,-1.43422l0.07437,0.00573c-0.0034,-0.04551 -0.00305,-0.09093 0.00135,-0.13621c0.0846,-0.86931 2.03992,-1.55749 3.06718,-2.33532c-1.04937,0.1748 -2.09751,0.3463 -3.1366,0.51531c-3.8423,0.62497 -7.23624,1.54331 -12.00881,1.6952l-4.06361,0.52263v0c-1.75002,0.22508 -4.04657,0.08044 -5.69182,-0.3176c-0.90191,-0.13144 -1.71805,-0.32723 -2.31672,-0.57456c-1.38744,-0.57321 -1.13925,-1.23011 0.47119,-1.5656l4.2925,-0.93954l0.03648,0.01075c0.02885,-0.01223 0.05792,-0.02443 0.08718,-0.0366c0.78473,-0.32601 2.50677,-0.40807 3.61978,-0.6558c0.57022,-0.12693 1.15119,-0.25117 1.73814,-0.37392c0.86967,-0.35742 1.66359,-0.7298 2.41871,-1.11033c-0.0976,0.01288 -0.19598,0.02537 -0.29514,0.03749l0.09659,0.03443l-5.68937,0.92675c-0.11494,0.01926 -0.23557,0.03707 -0.3618,0.05331c-1.76708,0.22727 -4.09141,0.07758 -5.73976,-0.32932l-3.1101,0.6514c-0.21694,0.04761 -0.45994,0.08921 -0.72828,0.12373c-2.18295,0.28075 -5.21626,-0.01374 -6.77513,-0.65777c-0.38568,-0.15935 -0.64498,-0.32516 -0.78375,-0.48874c-0.53099,-0.11314 -1.00694,-0.25107 -1.39264,-0.41043c-1.18784,-0.49074 -1.1768,-1.04284 -0.13843,-1.40206c-5.48852,0.85634 -11.43345,1.55175 -17.33126,1.83312c-0.00418,0.0002 -0.00833,0.0004 -0.01251,0.0006l0.00116,0.00055l-6.92944,0.69573c-2.15631,0.22395 -5.00589,-0.07222 -6.50033,-0.68964c-1.17346,-0.48479 -1.17689,-1.02947 -0.17573,-1.38891l3.06435,-1.16598l0.07147,0.01467l0.05228,-0.05891c1.24875,-0.37274 2.53188,-0.83029 3.8708,-1.30651c-0.95659,-0.13122 -1.82583,-0.3342 -2.45494,-0.59411c-1.12648,-0.4654 -1.17474,-0.98597 -0.2911,-1.34488c-0.32221,0.03286 -0.64909,0.06281 -0.98074,0.08971c-3.33804,0.27075 -8.26215,0.68367 -11.15145,-0.09621c-1.29113,-0.3485 -1.57031,-0.77855 -1.43878,-1.232l-1.41968,0.18259c-2.18295,0.28075 -5.21627,-0.01375 -6.77513,-0.65777c-1.08139,-0.44677 -1.16915,-0.9444 -0.39269,-1.30103l2.55728,-1.23999c0.43703,-0.44013 0.75251,-0.86578 1.17566,-1.25233l-0.82872,0.0832c-2.15631,0.22395 -5.00589,-0.07222 -6.50033,-0.68964c-1.40344,-0.57981 -1.1333,-1.24528 0.52748,-1.57708l4.80299,-1.00597c0,0 1.83557,-0.38446 4.19484,-0.16502l1.55664,-0.35927c0.24894,-0.06049 0.5361,-0.11252 0.86024,-0.1542c2.18295,-0.28075 5.21628,0.01375 6.77512,0.65777c0.66228,0.27361 0.95188,0.5663 0.89852,0.83399l-0.14975,0.92917c1.38147,-0.46806 2.95382,-0.88885 4.6825,-1.27376c1.65583,-0.89885 3.70018,-1.72376 6.88272,-2.26595c0.10339,-0.01762 0.2075,-0.03493 0.31234,-0.05197l-0.03393,-0.01053l6.8048,-1.37322c0.20352,-0.04295 0.42907,-0.08072 0.67609,-0.1125c2.18295,-0.28075 5.21627,0.01375 6.77513,0.65777c0.22777,0.0941 0.41144,0.19045 0.55227,0.28728c0.14106,0.02224 0.27975,0.04607 0.41552,0.07145c0.64178,-0.29757 1.29846,-0.59262 1.97695,-0.88398l2.15516,-1.21834c0.3321,-0.19766 0.90306,-0.36107 1.69444,-0.46285c2.18295,-0.28075 5.21628,0.01375 6.77513,0.65778c0.87919,0.36323 1.1016,0.76007 0.73677,1.08744l-1.22464,1.13258l-0.07486,-0.00908c-0.00901,0.0318 -0.02027,0.06347 -0.03389,0.09504c-0.35851,0.83073 -2.6985,1.41783 -3.98084,2.13767c-0.90928,0.51043 -1.81509,1.02029 -2.72134,1.52936c0.45745,-0.12788 0.91112,-0.25691 1.36027,-0.38733c1.13731,-0.59113 2.42531,-1.13814 4.5446,-1.44083c0.09345,-0.03284 0.18652,-0.06578 0.27921,-0.09886l0.67452,-0.24003c0.77892,-0.58056 1.57028,-1.15545 2.40175,-1.71786l0.08846,-0.02044l-0.04271,-0.00679l2.35978,-1.34919c0.33117,-0.19929 0.90429,-0.36408 1.70051,-0.46648c2.18295,-0.28075 5.21627,0.01375 6.77513,0.65777c0.65724,0.27153 0.94744,0.56184 0.89969,0.82786l-0.09608,0.68675c2.15908,-0.22859 5.02407,0.06748 6.52397,0.68717c0.73578,0.30398 1.01155,0.63149 0.86813,0.92212l-0.9638,2.01522l-0.06198,-0.00526l0.03777,0.04891c-0.59585,0.75221 -1.1958,1.55949 -1.88955,2.37404c2.94956,-1.70077 5.85209,-3.40685 9.28625,-4.99176c2.90941,-1.34273 5.10487,-2.8561 9.19597,-3.94123c0.01345,-0.00356 0.02689,-0.00713 0.04036,-0.01069l-0.00945,-0.00189l4.72579,-1.88742c0.34112,-0.14447 0.82991,-0.26387 1.45715,-0.34454c2.18295,-0.28075 5.21627,0.01375 6.77514,0.65778c0.62439,0.25796 0.91751,0.53287 0.9043,0.78781c1.37399,-0.01936 2.85199,0.1267 4.02247,0.39822l0.92649,-0.36591c0.34068,-0.1427 0.82625,-0.26063 1.44775,-0.34057c2.18295,-0.28075 5.21626,0.01374 6.77513,0.65777c1.12677,0.46551 1.17477,0.98623 0.29041,1.34516l-2.43757,1.04686c-1.68985,1.13538 -3.67935,2.22466 -5.73396,3.30314c0.20082,0.21353 0.19624,0.42419 -0.0007,0.61273l-1.37169,1.34901l-0.39486,-0.04644l0.07071,0.26229c-1.63617,0.48803 -3.3105,0.95015 -5.01705,1.39465c-0.38775,0.22243 -0.76757,0.44604 -1.1375,0.67109c-1.44284,1.29135 -3.0304,2.56045 -4.57926,3.83608c1.18549,-0.42935 2.34088,-0.86561 3.51255,-1.29802c0.06025,-0.03751 0.1202,-0.07512 0.17984,-0.11276c1.01084,-0.74427 2.06226,-1.48293 3.25092,-2.20348c0.07638,-0.0463 0.15331,-0.0925 0.23074,-0.13859c1.3868,-0.92463 2.87892,-1.83003 4.79818,-2.64735c0.28531,-0.1215 0.57589,-0.24177 0.87155,-0.36086c1.47673,-0.75552 2.92352,-1.51746 4.20375,-2.31275l0.0811,-0.02105l-0.03287,-0.00548l3.8713,-2.04965c0.33674,-0.18806 0.89468,-0.34338 1.65732,-0.44147c1.74636,-0.2246 4.03698,-0.08104 5.68151,0.31511c0.43418,-0.09811 0.87128,-0.19541 1.31109,-0.29195c1.02413,-0.2248 2.95539,-0.67647 5.10804,-1.10441c3.01964,-2.11247 5.99316,-4.24663 8.77016,-6.47274l0.04619,-0.01852l-0.01336,-0.00653l3.29529,-2.47345c0.40558,-0.31233 0.9663,-0.55573 1.63457,-0.67898c1.44951,-0.26733 2.93391,0.11754 3.61181,0.8765c0.05398,-0.01186 0.10872,-0.02292 0.1642,-0.03315c1.6888,-0.31145 3.42497,0.26239 3.87783,1.28172c0.03467,0.07805 0.06082,0.15645 0.07877,0.23483l0.54851,2.17962l-0.17232,0.01964l0.2076,0.22502c-0.28064,1.29565 0.1649,2.71839 -0.84193,3.88695c-0.1699,0.1972 -0.36404,0.38403 -0.57738,0.56259c-0.01338,0.02916 -0.02206,0.04499 -0.02206,0.04499zM396.79695,88.22042c0.97665,-0.47569 1.99352,-0.94377 3.03713,-1.4068c-0.56967,0.15462 -1.1317,0.31102 -1.68135,0.47032c-1.12251,0.3253 -1.99853,0.7064 -2.91039,1.0795l1.0923,-0.26908l0.46231,0.12605zM390.08062,90.66162c-0.64441,0.41362 -1.24953,0.97518 -1.8786,1.5851c1.40438,-0.33414 2.79751,-0.6706 4.17239,-1.0116c-0.49481,-0.10935 -0.93887,-0.2406 -1.30262,-0.39089c-0.30306,-0.12521 -0.52808,-0.2544 -0.67791,-0.38337c-0.10455,0.06689 -0.20898,0.13381 -0.31328,0.20076zM348.22318,82.33545c0.57061,-0.54668 1.09242,-1.10347 1.57477,-1.67343c-1.7959,1.05255 -3.70299,2.08451 -5.57316,3.12553c1.08773,-0.25123 2.05129,-0.53191 2.79824,-0.86083c0.42701,-0.18803 0.82603,-0.38569 1.20015,-0.59128z" data-paper-data="{&quot;index&quot;:null}" fill="#000000" stroke="none" stroke-width="0.5" stroke-linecap="butt"/><path d="M116.22956,84.75553c1.55799,-2.28032 3.22204,-4.8257 6.17813,-6.82092c0.40365,-0.27244 0.90946,-0.49506 1.41435,-0.71817c2.21584,-2.60362 5.00339,-4.38582 8.60165,-6.56975c2.74025,-2.45035 5.5026,-4.90186 9.11701,-6.98676c4.31977,-2.49178 10.01677,-4.49348 15.28876,-6.48005c1.29005,-0.74779 2.34702,-1.67246 3.99877,-2.11144c0.13348,-0.03547 0.26794,-0.06867 0.40327,-0.09977l-0.03334,-0.03545l3.24264,-1.03357c0.21665,-0.07204 0.44964,-0.13229 0.69636,-0.17837c1.66152,-0.31026 3.31648,0.1402 3.69644,1.00613c0.28404,0.64733 -0.22484,1.34359 -1.19398,1.78348l-3.91497,1.84939l-0.03082,-0.01969l-0.08353,0.07152c-0.88447,0.35383 -1.79987,0.70506 -2.73389,1.05655c-2.38028,1.12786 -5.23992,2.34988 -5.87059,2.65474c-3.31943,1.60463 -6.28738,3.29903 -9.16973,5.03777c1.85666,-0.58256 3.75745,-1.15864 5.66807,-1.73305c0.76236,-0.29813 1.52695,-0.59449 2.29299,-0.88972c1.50073,-0.70197 3.02857,-1.39472 4.57437,-2.07634c1.54365,-1.15816 3.23725,-2.25646 5.19328,-3.24974c1.67151,-0.8488 3.30227,-1.91596 5.43422,-2.26959c0.22074,-0.03661 0.44195,-0.06868 0.66356,-0.0967l-0.01154,-0.03927l3.24453,-0.47727c0.88299,-0.50467 1.747,-1.02373 2.88365,-1.27055c0.16976,-0.03686 0.34032,-0.07122 0.51162,-0.10331l-0.02277,-0.03692l2.9448,-0.69094c4.68051,-1.62176 9.12046,-2.98575 13.52789,-5.07286l1.95648,-0.51739c0,0 3.00846,-0.56177 3.69644,1.00613c0.68798,1.5679 -2.32048,2.12967 -2.32048,2.12967l0.41,-0.22862c-4.01878,1.89703 -8.09906,3.25655 -12.32374,4.70491l-1.82808,1.40259l-0.11088,-0.03817l-0.12116,0.19801c-1.9166,0.97242 -3.92132,1.87945 -5.971,2.75198l0.85827,-0.24375c0.30788,-0.09212 0.694,-0.17254 1.15428,-0.23623c2.14044,-0.29619 5.07399,-0.11856 6.55228,0.39672c0.6706,0.23376 0.92653,0.49685 0.80619,0.74221l-0.57775,1.24695l-0.07201,-0.00308c0.00061,0.03908 -0.00245,0.07817 -0.00942,0.11726c-0.13401,0.75026 -2.07722,1.39138 -3.12291,2.08648c1.03131,-0.17667 2.06123,-0.35046 3.08219,-0.52189c3.77527,-0.63391 7.13179,-1.50909 11.78396,-1.7591l3.98448,-0.55136v0c1.71595,-0.23745 3.94161,-0.17038 5.51857,0.13105c0.86965,0.09058 1.65201,0.23867 2.21974,0.43656c1.31572,0.45862 1.0352,1.03017 -0.55152,1.35915l-4.23197,0.91587l-0.03485,-0.00833c-0.0288,0.01125 -0.05781,0.02248 -0.087,0.03368c-0.78283,0.30018 -2.46306,0.41385 -3.56062,0.65488c-0.56233,0.12349 -1.13491,0.24494 -1.71326,0.36524c-0.86735,0.32935 -1.6619,0.66967 -2.41915,1.01604c0.09572,-0.01352 0.19217,-0.02673 0.28937,-0.03965l-0.09191,-0.02722l5.59019,-0.93979c0.11297,-0.01945 0.23138,-0.03779 0.35516,-0.05491c1.73268,-0.23977 3.98506,-0.16904 5.56451,0.13993l3.0645,-0.63835c0.21389,-0.0464 0.45277,-0.08827 0.71589,-0.12469c2.14045,-0.29619 5.07399,-0.11856 6.55228,0.39672c0.36576,0.12749 0.60816,0.26371 0.73344,0.40102c0.50987,0.08409 0.9647,0.19091 1.33047,0.31841c1.12644,0.39265 1.08286,0.86806 0.05129,1.20317c5.39062,-0.87418 11.21567,-1.62126 16.97027,-2.01085c0.00407,-0.00027 0.00813,-0.00055 0.0122,-0.00082l-0.00109,-0.00044l6.7829,-0.77197c2.11115,-0.24664 4.86583,-0.06298 6.28302,0.43102c1.11281,0.38789 1.08375,0.85655 0.08837,1.19093l-3.05059,1.08006l-0.06865,-0.01084l-0.05436,0.052c-1.23705,0.352 -2.5126,0.77785 -3.84352,1.22116c0.92283,0.08901 1.75644,0.24198 2.35303,0.44994c1.06824,0.37237 1.08424,0.81917 0.20322,1.15014c0.31543,-0.03633 0.63522,-0.07027 0.95949,-0.10172c3.26361,-0.31645 8.07875,-0.79491 10.8433,-0.19596c1.2354,0.26765 1.48142,0.63077 1.32649,1.02431l1.39203,-0.19262c2.14044,-0.29619 5.07399,-0.11856 6.55228,0.39672c1.02549,0.35747 1.08127,0.78353 0.30467,1.10986l-2.56168,1.13107c-0.45136,0.38971 -0.78359,0.76391 -1.21827,1.10715l0.8112,-0.09232c2.11115,-0.24664 4.86583,-0.06298 6.28302,0.43102c1.3309,0.46391 1.0285,1.04338 -0.60697,1.37044l-4.73257,0.98582c0,0 -1.80866,0.37676 -4.09089,0.24688l-1.5358,0.34811c-0.24576,0.05827 -0.52823,0.11023 -0.84607,0.15421c-2.14044,0.29619 -5.07399,0.11856 -6.55227,-0.39672c-0.62804,-0.21892 -0.89238,-0.46357 -0.82455,-0.69528l0.20095,-0.8034c-1.37184,0.43735 -2.92657,0.8388 -4.63127,1.21327c-1.66438,0.81496 -3.70236,1.57598 -6.83084,2.12215c-0.10162,0.01774 -0.20396,0.03525 -0.30696,0.05253l0.03238,0.00822l-6.70194,1.35191c-0.20055,0.04205 -0.42224,0.0802 -0.66446,0.11372c-2.14044,0.29619 -5.07399,0.11856 -6.55228,-0.39672c-0.21599,-0.07529 -0.38896,-0.15362 -0.5202,-0.23342c-0.13591,-0.01561 -0.26941,-0.03266 -0.39998,-0.05111c-0.64206,0.27212 -1.29849,0.54246 -1.97592,0.81018l-2.16917,1.10239c-0.33485,0.17841 -0.90005,0.33332 -1.67602,0.44069c-2.14045,0.29619 -5.07399,0.11856 -6.55227,-0.39673c-0.83375,-0.29062 -1.02652,-0.62658 -0.65212,-0.91743l1.2588,-1.00533l0.07229,0.00595c0.01065,-0.02758 0.0235,-0.05513 0.03863,-0.08264c0.39819,-0.7239 2.70964,-1.28766 4.00002,-1.93921c0.91499,-0.46201 1.82654,-0.92345 2.7385,-1.38421c-0.45266,0.1215 -0.90171,0.24388 -1.34642,0.36735c-1.14164,0.53717 -2.42725,1.04013 -4.50705,1.3536c-0.09287,0.03059 -0.18538,0.06128 -0.27751,0.09206l-0.67052,0.22344c-0.79234,0.5191 -1.59642,1.03365 -2.43879,1.53846l-0.08728,0.01981l0.04115,0.00478l-2.37602,1.22013c-0.33404,0.17979 -0.90142,0.33594 -1.68214,0.44396c-2.14044,0.29619 -5.07399,0.11856 -6.55228,-0.39672c-0.62326,-0.21725 -0.88832,-0.45984 -0.82604,-0.68998l0.13432,-0.59342c-2.11412,0.2507 -4.8838,0.06751 -6.30617,-0.42829c-0.69774,-0.24321 -0.94656,-0.51818 -0.78974,-0.77189l1.05752,-1.75841l0.05998,0.00298l-0.03383,-0.04115c0.62442,-0.66225 1.25613,-1.37201 1.97951,-2.09037c-2.97074,1.53743 -5.89601,3.07827 -9.3313,4.52811c-2.91036,1.2283 -5.13629,2.5856 -9.18098,3.62175c-0.0133,0.0034 -0.0266,0.0068 -0.03991,0.0102l0.00908,0.00138l-4.70988,1.74248c-0.34047,0.13286 -0.82309,0.24783 -1.43813,0.33293c-2.14044,0.29619 -5.07399,0.11856 -6.55228,-0.39673c-0.59211,-0.2064 -0.86093,-0.43566 -0.83292,-0.65539c-1.33789,0.051 -2.76711,-0.03775 -3.8897,-0.24216l-0.92313,0.33807c-0.33992,0.13132 -0.81934,0.24496 -1.42874,0.32929c-2.14045,0.29619 -5.07399,0.11856 -6.55228,-0.39672c-1.06853,-0.37246 -1.08424,-0.81941 -0.20253,-1.15041l2.43373,-0.96188c1.71155,-1.01936 3.71188,-2.00654 5.77492,-2.98606c-0.18268,-0.17875 -0.16569,-0.36017 0.03712,-0.52734l1.41473,-1.19527l0.38139,0.0301l-0.0532,-0.22396c1.62083,-0.46091 3.27724,-0.90046 4.96394,-1.32566c0.39047,-0.20112 0.77329,-0.40305 1.14657,-0.60598c1.48052,-1.14741 3.10051,-2.27931 4.68322,-3.41585c-1.17887,0.39914 -2.32888,0.80347 -3.49451,1.20489c-0.06084,0.03379 -0.1214,0.06765 -0.18167,0.10154c-1.02772,0.66579 -2.09454,1.32778 -3.29382,1.97761c-0.07706,0.04176 -0.15465,0.08344 -0.23273,0.12504c-1.40418,0.83042 -2.90968,1.64692 -4.82551,2.39828c-0.28481,0.1117 -0.57465,0.22246 -0.86938,0.33235c-1.48161,0.68712 -2.93449,1.37902 -4.22731,2.09546l-0.08015,0.02014l0.03165,0.0039l-3.88821,1.86073c-0.33879,0.17026 -0.89084,0.31788 -1.63864,0.42136c-1.71237,0.23695 -3.93233,0.17066 -5.50868,-0.12917c-0.42826,0.09528 -0.85928,0.18996 -1.2929,0.28403c-1.00972,0.21907 -2.91549,0.65606 -5.03519,1.07816c-3.06338,1.8935 -6.0832,3.80452 -8.91728,5.78975l-0.04604,0.01709l0.01262,0.00528l-3.35303,2.21105c-0.41316,0.27894 -0.97315,0.50242 -1.63063,0.6252c-1.4261,0.26629 -2.84735,-0.02781 -3.46173,-0.66403c-0.0532,0.01155 -0.10713,0.02244 -0.16172,0.03263c-1.66152,0.31026 -3.31648,-0.1402 -3.69644,-1.00613c-0.02909,-0.0663 -0.04987,-0.13312 -0.06268,-0.20012l-0.40399,-1.8621l0.1688,-0.02121l-0.18859,-0.18848c0.35008,-1.12208 0.00124,-2.33537 1.05026,-3.36621c0.17703,-0.17396 0.377,-0.3396 0.59518,-0.4986c0.01475,-0.02544 0.02415,-0.03927 0.02415,-0.03927zM158.59337,70.25248c0.56342,-0.1473 1.11951,-0.29596 1.66373,-0.44679c1.11141,-0.30803 1.98635,-0.65791 2.89566,-1.00179l-1.07867,0.25888l-0.44228,-0.09693c-0.97846,0.4338 -1.99559,0.86205 -3.03843,1.28663zM168.31119,66.69704c0.65153,-0.37207 1.27364,-0.87049 1.92192,-1.41112c-1.38618,0.32267 -2.76153,0.64707 -4.11941,0.9749c0.47489,0.08174 0.89909,0.18359 1.24405,0.30384c0.2874,0.10018 0.49863,0.20574 0.63673,0.31299c0.10569,-0.06018 0.21126,-0.12038 0.31672,-0.1806zM208.53827,72.81632c-0.58766,0.48474 -1.12842,0.97696 -1.63159,1.47953c1.80979,-0.95073 3.72652,-1.88652 5.60791,-2.82919c-1.07317,0.2434 -2.0273,0.50904 -2.77355,0.81079c-0.4266,0.1725 -0.82655,0.35258 -1.20278,0.53887z" data-paper-data="{&quot;index&quot;:null}" fill="#000000" stroke="none" stroke-width="0.5" stroke-linecap="butt"/><g fill="none" stroke="#273239" stroke-width="1.5" stroke-linecap="round"><path d="M159.79859,178.55895c0,0 -0.20864,-2.21188 1.71163,-5.24972c1.7219,-2.72403 4.13958,-3.97752 4.13958,-3.97752"/><path d="M163.29859,180.55895c0,0 -0.20864,-2.21188 1.71163,-5.24972c1.7219,-2.72403 4.13958,-3.97752 4.13958,-3.97752"/></g><g fill="#273239" stroke="#273239"><path d="M169.6391,183.19164c0,0 -0.03615,0.79048 -2.40477,2.12346c-1.51751,0.854 -2.35387,0.17825 -2.35387,0.17825" stroke-width="1.5" stroke-linecap="round"/><path d="M164.59619,185.26878c0.04215,0.33537 -0.19556,0.6414 -0.53093,0.68355c-0.33537,0.04215 -0.64141,-0.19555 -0.68355,-0.53093c-0.04215,-0.33537 0.19556,-0.64141 0.53093,-0.68356c0.33537,-0.04215 0.64141,0.19556 0.68356,0.53093z" stroke-width="1" stroke-linecap="butt"/></g><g data-paper-data="{&quot;index&quot;:null}" stroke-width="0.7" stroke-linecap="butt"><path d="M155.73036,177.10815c0.07114,0.77459 0.56674,1.59945 0.56674,1.59945c0,0 -1.23469,-2.17667 -1.75711,-3.22375c-0.73793,-1.479 -0.74719,-2.97733 0.94861,-6.06978c0.82461,-1.50376 2.3171,-2.63315 3.86714,-3.01345c1.29528,-0.31779 2.60935,-0.07161 3.81068,0.52804c0.37184,0.18561 -0.86693,-0.03508 -1.29529,0.22715c-1.19245,0.72997 -3.57466,2.3071 -4.88336,4.54903c-1.02463,1.75528 -1.39418,3.9142 -1.25741,5.40332z" data-paper-data="{&quot;index&quot;:null}" fill="#f2f23c" stroke="#533721"/><path d="M156.90077,170.93212c4.93227,-7.07473 6.55095,-3.81661 6.55095,-3.81661c0,0 -2.59046,-0.02855 -4.8117,3.17535c-3.69676,5.3322 -2.43278,8.28861 -2.43278,8.28861c0,0 -3.46979,-1.67559 0.69353,-7.64736z" data-paper-data="{&quot;index&quot;:null}" fill="#b78700" stroke="#533721"/><path d="M156.66131,171.97209c0,0 -2.00859,-0.90688 3.7581,-6.21489c3.28473,-3.02346 7.76657,-1.26301 7.76657,-1.26301l-0.45304,0.75241c0,0 -2.82174,-0.67618 -6.11313,1.27979c-2.10014,1.24805 -4.9585,5.4457 -4.9585,5.4457z" data-paper-data="{&quot;index&quot;:null}" fill="#b78700" stroke="#533721"/><path d="M167.59779,186.22861c0.74481,-8.95924 7.51026,-11.46183 7.51026,-11.46183c0,0 0.38811,-0.06332 0.57868,0.06475c0.44122,0.29654 2.0248,1.68503 2.0248,1.68503l-6.39791,11.43299c0,0 -0.68573,0.06184 -1.45262,-0.08915c-1.07762,-0.21216 -2.3366,-0.74895 -2.26321,-1.63179z" data-paper-data="{&quot;index&quot;:null}" fill="#b78700" stroke="#303133"/><path d="M169.95767,187.31993c-2.29495,-1.84806 5.64158,-12.27319 7.93652,-10.42514c2.29494,1.84805 2.73676,5.67087 0.86153,8.14837c-2.10084,2.77557 -3.46483,3.37127 -5.11479,3.30226c-1.16811,-0.04887 -2.73198,-0.25945 -3.68325,-1.02549z" data-paper-data="{&quot;index&quot;:null}" fill="#f2f23c" stroke="#533721"/><path d="M172.01208,184.02679c-0.47425,-0.24688 -0.50482,-0.65989 -0.50482,-0.65989c0,0 0.48299,-3.44316 5.00274,-7.06666c1.42945,-1.146 2.13253,-0.43905 2.61348,-0.116c0.78917,0.53008 0.74555,1.4023 0.59384,1.54303c-0.77221,0.71634 -1.21355,-1.10131 -1.93548,-0.57464c-0.52659,0.38416 -1.90607,2.01672 -2.7968,3.28779c-1.25864,1.79609 -2.0046,3.30376 -2.0046,3.30376c0,0 -0.51119,0.5206 -0.96836,0.28261z" data-paper-data="{&quot;index&quot;:null}" fill="#b78700" stroke="#533721"/><path d="M176.53994,170.68207l0.74268,-0.82736c0,0 2.09463,0.97648 2.61395,3.18113c0.2462,1.04516 -0.16772,3.60439 -0.16772,3.60439c0,0 -0.54081,0.4896 -1.04547,0.27321c-0.5042,-0.21619 -0.81892,-1.04258 -0.81892,-1.04258c0,0 0.79746,-1.57473 0.68371,-2.42112c-0.22352,-1.66322 -2.00822,-2.76766 -2.00822,-2.76766z" data-paper-data="{&quot;index&quot;:null}" fill="#b78700" stroke="#533721"/><path d="M167.61142,165.27446c0,0 0.04753,-0.27038 0.13217,-0.40526c0.12446,-0.19833 0.54234,-0.66963 0.54234,-0.66963l8.77398,6.14086c0,0 -0.51721,0.47388 -0.72542,0.58353c-0.1404,0.07394 -0.40264,0.01056 -0.40264,0.01056c0,0 -2.67212,-2.09805 -4.16623,-3.11443c-0.77776,-0.52908 -4.15421,-2.54563 -4.15421,-2.54563z" data-paper-data="{&quot;index&quot;:null}" fill="#f2f23c" stroke="#533721"/><path d="M168.14825,164.46632c0,0 -0.32699,-0.30967 0.0038,-0.64641c0.47997,-0.48861 0.71901,-0.39356 0.71901,-0.39356c0,0 3.00175,1.64155 4.53977,2.66145c1.57781,1.0463 4.81077,3.53918 4.81077,3.53918c0,0 0.39464,0.57009 -0.11542,1.11812c-0.26497,0.28471 -1.20059,-0.2669 -1.20059,-0.2669c0,0 -2.59436,-2.03829 -4.074,-3.05406c-1.4383,-0.98738 -4.68333,-2.95782 -4.68333,-2.95782z" data-paper-data="{&quot;index&quot;:null}" fill="#f2f23c" stroke="#533721"/><path d="M171.8285,187.75251l1.13237,1.08522l-4.3406,0.54977c0,0 -0.62322,-0.59577 -0.71101,-0.83304c-0.04638,-0.12538 0.22381,-0.48389 0.22381,-0.48389z" data-paper-data="{&quot;index&quot;:null}" fill="#b78700" stroke="#533721"/><path d="M172.46084,188.51675c-0.2987,-0.25116 -0.7524,-0.84649 -0.7524,-0.84649c0,0 3.22877,-1.66711 3.83575,0.11276c0.45665,1.33906 -2.21227,1.25238 -2.21227,1.25238c0,0 -0.65838,-0.3398 -0.87108,-0.51865z" data-paper-data="{&quot;index&quot;:null}" fill="#b78700" stroke="#533721"/><path d="M165.61032,188.48058c-0.61676,-0.49667 -1.86483,-1.84843 -1.86483,-1.84843l0.74171,-0.52957c0,0 1.58313,0.97553 2.22755,1.37775c0.46819,0.29223 1.28207,0.8128 1.28207,0.8128l-0.86099,1.06919c0,0 -1.04843,-0.49755 -1.52552,-0.88173z" data-paper-data="{&quot;index&quot;:null}" fill="#b78700" stroke="#533721"/><path d="M166.40773,189.47755c0,0 0.49031,-0.61367 0.76497,-0.88945c0.25639,-0.25743 0.83195,-0.71398 0.83195,-0.71398c0,0 0.5887,0.45537 0.81239,0.7354c0.20624,0.25818 0.48168,0.88456 0.48168,0.88456c0,0 -0.43159,0.59885 -1.56552,0.47296c-1.23136,-0.1367 -1.32548,-0.4895 -1.32548,-0.4895z" data-paper-data="{&quot;index&quot;:null}" fill="#f2f23c" stroke="#b78700"/><g data-paper-data="{&quot;index&quot;:null}"><path d="M163.17499,184.13585c1.13947,0.91759 1.70567,1.76969 1.09742,2.52501c-0.60825,0.75532 -1.70374,0.47658 -2.84321,-0.441c-1.13947,-0.91759 -1.60442,-1.89543 -0.99617,-2.65076c0.60825,-0.75532 1.60249,-0.35084 2.74196,0.56675z" fill="#b78700" stroke="#533721"/><g fill="#242424" stroke="none"><path d="M161.78367,184.39247c0.06496,-0.08067 0.18249,-0.09383 0.26251,-0.02939c0.08002,0.06444 0.09222,0.18207 0.02726,0.26274c-0.06496,0.08067 -0.18249,0.09383 -0.26251,0.02939c-0.08002,-0.06444 -0.09223,-0.18207 -0.02726,-0.26274z"/><path d="M161.2498,184.05888c0.06496,-0.08067 0.18249,-0.09383 0.26251,-0.02939c0.08002,0.06444 0.09222,0.18206 0.02726,0.26273c-0.06496,0.08067 -0.18249,0.09384 -0.26251,0.0294c-0.08002,-0.06444 -0.09223,-0.18207 -0.02726,-0.26274z"/><path d="M160.87521,183.6224c0.06496,-0.08067 0.18249,-0.09383 0.26251,-0.0294c0.08002,0.06444 0.09223,0.18207 0.02726,0.26274c-0.06496,0.08067 -0.18249,0.09383 -0.26251,0.02939c-0.08002,-0.06444 -0.09223,-0.18206 -0.02726,-0.26273z"/><path d="M161.60955,183.63586c0.06496,-0.08067 0.18249,-0.09383 0.26251,-0.02939c0.08002,0.06444 0.09223,0.18207 0.02726,0.26274c-0.06496,0.08067 -0.18249,0.09382 -0.26251,0.02939c-0.08002,-0.06444 -0.09223,-0.18207 -0.02726,-0.26274z"/><path d="M162.06447,183.92514c0.06496,-0.08067 0.18248,-0.09383 0.2625,-0.02939c0.08002,0.06444 0.09223,0.18207 0.02726,0.26274c-0.06496,0.08067 -0.18248,0.09383 -0.2625,0.02939c-0.08002,-0.06444 -0.09223,-0.18207 -0.02726,-0.26274z"/></g></g></g></g></g></svg>