<svg version="1.1" xmlns="http://www.w3.org/2000/svg" xmlns:xlink="http://www.w3.org/1999/xlink" width="63.88519" height="130.94386" viewBox="0,0,63.88519,130.94386"><defs><linearGradient x1="236.7963" y1="193.32959" x2="233.92535" y2="211.88493" gradientUnits="userSpaceOnUse" id="color-1"><stop offset="0" stop-color="#606060"/><stop offset="1" stop-color="#191919"/></linearGradient></defs><g transform="translate(-204.67958,-138.30599)"><g data-paper-data="{&quot;isPaintingLayer&quot;:true}" fill-rule="nonzero" stroke-linejoin="miter" stroke-miterlimit="10" stroke-dasharray="" stroke-dashoffset="0" style="mix-blend-mode: normal"><path d="M259.69907,177.46996c0,0 4.31791,16.76076 -6.52615,25.96745c-9.30257,7.89795 -15.14052,-11.11566 -15.14052,-11.11566c0,0 -10.46321,1.172 -17.37987,11.21162c-6.62705,9.61923 -7.45346,19.78837 -7.45346,19.78837" fill="none" stroke="#000000" stroke-width="2" stroke-linecap="round"/><path d="M247.36175,262.52811c0,0 2.47305,-12.05626 -1.08174,-20.44703c-3.86729,-9.12841 -11.0754,-11.63173 -11.0754,-11.63173c0,0 -5.123,-12.12189 -1.82757,-25.72469c3.17566,-13.1084 8.16031,-17.92807 8.16031,-17.92807" fill="none" stroke="#000000" stroke-width="2" stroke-linecap="round"/><path d="M263.51283,168.87182c0,11.27936 -9.14372,20.42308 -20.42308,20.42308c-11.27936,0 -20.42309,-9.14372 -20.42309,-20.42308c0,-11.27936 9.14373,-20.42308 20.42309,-20.42308c11.27936,0 20.42308,9.14373 20.42308,20.42308z" fill="#ebf5ff" stroke="#000000" stroke-width="2" stroke-linecap="butt"/><path d="M262.08797,168.15938c0,9.70549 -7.86786,17.57335 -17.57335,17.57335c-9.70549,0 -17.57335,-7.86786 -17.57335,-17.57335c0,-9.70549 7.86786,-17.57335 17.57335,-17.57335c9.70549,0 17.57335,7.86786 17.57335,17.57335z" fill="#ffffff" stroke="none" stroke-width="0" stroke-linecap="butt"/><path d="M244.28351,141.98282c0,0 0.38954,-1.14435 1.53677,-2.01435c1.6984,-1.28799 2.58821,-0.83538 2.58821,-0.83538" fill="none" stroke="#000000" stroke-width="1.5" stroke-linecap="round"/><path d="M252.43754,139.13309c0,0 1.4259,-0.12126 2.16175,0.41451c0.73585,0.53577 1.09987,1.96026 1.09987,1.96026" fill="none" stroke="#000000" stroke-width="1.5" stroke-linecap="round"/><path d="M248.81879,152.38175c0,0 5.46494,5.55997 6.70698,13.40741c1.38862,8.7736 -1.71995,15.08991 -1.71995,15.08991" fill="none" stroke="#000000" stroke-width="2" stroke-linecap="round"/><path d="M236.40878,182.05957c0,0 1.97694,-0.24815 2.71244,-0.16708c0.68223,0.07521 1.55278,0.63726 1.55278,0.63726" fill="none" stroke="#000000" stroke-width="1.5" stroke-linecap="round"/><path d="M235.06299,230.52593c0,0 -2.45818,13.13508 -3.98128,19.39726c-3.03759,10.01135 -10.53453,17.24936 -10.53453,17.24936" fill="none" stroke="#000000" stroke-width="2" stroke-linecap="round"/><path d="M233.75619,267.42782c0,2.41207 -13.55712,0 -13.55712,0c0,0 3.03486,-4.36744 6.77856,-4.36744c3.7437,0 6.77856,1.95537 6.77856,4.36744z" fill="#9a5e4f" stroke="#000000" stroke-width="1.5" stroke-linecap="butt"/><path d="M260.75619,263.03133c0,2.17917 -13.55712,0 -13.55712,0c0,0 3.03486,-3.94573 6.77856,-3.94573c3.74369,0 6.77856,1.76657 6.77856,3.94573z" fill="#9a5e4f" stroke="#000000" stroke-width="1.5" stroke-linecap="butt"/><path d="M209.92399,230.82489c-1.09793,2.77563 -0.88197,5.46922 -2.76447,5.76849c-2.32769,0.37005 -2.09176,-3.43702 -0.56059,-6.80403c1.67614,-3.6858 5.70874,-6.21085 5.70874,-6.21085c0,0 -1.28576,4.47076 -2.38368,7.24639z" fill="#ffffff" stroke="#000000" stroke-width="1.5" stroke-linecap="butt"/><path d="M212.52554,231.4752c-0.19147,2.97875 0.8421,5.4755 -0.85724,6.339c-2.1012,1.06771 -3.04708,-2.62752 -2.62515,-6.3022c0.46187,-4.02259 3.52294,-7.66507 3.52294,-7.66507c0,0 0.15092,4.64953 -0.04055,7.62827z" fill="#ffffff" stroke="#000000" stroke-width="1.5" stroke-linecap="butt"/><path d="M214.11526,223.66685c0,0 2.85878,1.84459 4.2193,4.33845c1.24285,2.27817 1.64924,4.78352 0.07017,4.43125c-1.27706,-0.2849 -1.30883,-2.03943 -2.22363,-3.90971c-0.9148,-1.87028 -2.06585,-4.86 -2.06585,-4.86z" data-paper-data="{&quot;index&quot;:null}" fill="#ffffff" stroke="#000000" stroke-width="1.5" stroke-linecap="butt"/><path d="M255.68668,153.54626c0,0 4.39501,4.86497 5.39389,11.73148c1.11676,7.6769 -1.38322,13.20368 -1.38322,13.20368" fill="none" stroke="#000000" stroke-width="2" stroke-linecap="round"/><path d="M247.36176,262.52811c0,0 2.47305,-12.05626 -1.08174,-20.44703c-3.86729,-9.12841 -11.0754,-11.63173 -11.0754,-11.63173c0,0 -5.123,-12.12189 -1.82757,-25.72469c3.17566,-13.1084 8.16031,-17.92807 8.16031,-17.92807" fill="none" stroke="#5f5f5f" stroke-width="2" stroke-linecap="round"/><path d="M235.063,230.52593c0,0 -2.45818,13.13508 -3.98128,19.39726c-3.03759,10.01135 -10.53453,17.24936 -10.53453,17.24936" fill="none" stroke="#5f5f5f" stroke-width="2" stroke-linecap="round"/><path d="M233.7562,267.42782c0,2.41207 -13.55712,0 -13.55712,0c0,0 3.03486,-4.36744 6.77856,-4.36744c3.7437,0 6.77856,1.95537 6.77856,4.36744z" fill="#5f5f5f" stroke="#000000" stroke-width="1.5" stroke-linecap="butt"/><path d="M260.7562,263.03132c0,2.17917 -13.55712,0 -13.55712,0c0,0 3.03486,-3.94573 6.77856,-3.94573c3.74369,0 6.77856,1.76657 6.77856,3.94573z" fill="#5f5f5f" stroke="#000000" stroke-width="1.5" stroke-linecap="butt"/><path d="M230.09132,189.01382c0,0 -10.08123,-10.57455 -11.13242,-19.87991c-0.92759,-8.21113 2.63111,-15.96491 3.10585,-16.35522c1.398,-1.14938 5.45916,-3.33474 5.45916,-3.33474l-0.26596,-6.38485c0,0 3.88124,2.73719 7.08224,2.82005c1.86383,0.04825 4.16538,-2.06325 7.39577,-2.50765c4.59101,-0.63159 10.04119,0.32231 10.04119,0.32231c0,0 3.09954,2.55297 6.0715,6.51606c2.74898,3.66574 5.35267,8.64716 6.15344,11.33056c0.28021,0.93901 1.72607,3.40046 1.92219,6.13378c0.22507,3.13672 -0.82978,6.5943 -1.01627,7.89336c-0.2616,1.82233 -1.49438,-3.13664 -1.49438,-3.13664l-1.98746,3.59718c0,0 1.81012,1.2641 0.96509,-0.87927c-1.05905,-2.68621 1.50304,-7.90572 0.02203,-12.36875c-0.7426,-2.23783 -12.22623,-7.58856 -14.77911,-8.88528c-2.64361,-1.34281 -6.08521,-1.96972 -6.08521,-1.96972c0,0 -0.82167,1.01581 -2.80286,3.02601c-3.40533,3.4552 -8.95551,9.46602 -10.39966,15.54644c-1.57998,6.65237 5.42905,14.42464 4.74404,16.47825c-0.5934,1.77898 -2.35531,-2.63159 -2.35531,-2.63159z" data-paper-data="{&quot;index&quot;:null}" fill="#2f2f2f" stroke="none" stroke-width="0" stroke-linecap="butt"/><g data-paper-data="{&quot;index&quot;:null}" stroke="#000000" stroke-width="0.7" stroke-linecap="butt"><path d="M261.74946,177.42846c1.40049,-2.29561 2.48946,-6.05893 2.17417,-9.67361c-0.40268,-4.61684 -3.10917,-8.98472 -4.51084,-11.07524c-0.50352,-0.75098 -2.73129,-1.34455 -1.9685,-1.35879c2.4644,-0.04599 4.83711,0.5642 6.73414,2.06909c2.27015,1.80089 3.85444,4.76519 4.03634,7.82115c0.37409,6.28451 -0.82226,8.69268 -3.21146,10.51128c-1.69146,1.28751 -5.45418,3.85005 -5.45418,3.85005c0,0 1.47184,-0.94985 2.20032,-2.14395z" data-paper-data="{&quot;index&quot;:null}" fill="#5f5f5f"/><path d="M264.67694,166.5759c2.19565,12.81686 -4.87782,12.85882 -4.87782,12.85882c0,0 4.42587,-3.79701 2.49966,-15.22536c-1.1574,-6.86683 -5.47477,-8.80599 -5.47477,-8.80599c0,0 5.25176,-4.01154 7.85293,11.17254z" data-paper-data="{&quot;index&quot;:null}" fill="#b1b1b1"/><path d="M260.32558,155.85761c-3.91528,-5.6753 -9.12658,-6.74773 -9.12658,-6.74773l-0.15807,-1.56005c0,0 8.8183,0.59682 11.88113,7.98778c5.37714,12.97562 1.33218,12.89822 1.33218,12.89822c0,0 -1.43044,-8.95698 -3.92867,-12.57822z" data-paper-data="{&quot;index&quot;:null}" fill="#5f5f5f"/><path d="M229.84652,183.93189c-1.39049,-0.34431 -2.47865,-0.9695 -2.47865,-0.9695l-1.59595,-23.33265c0,0 3.71991,-1.02465 4.68517,-1.16454c0.4169,-0.0604 1.01047,0.33909 1.01047,0.33909c0,0 9.24428,9.21875 3.41745,24.23158c-0.57417,1.47936 -3.08461,1.37985 -5.03848,0.89601z" data-paper-data="{&quot;index&quot;:null}" fill="#b1b1b1"/><path d="M230.11224,182.98658c-2.18096,0.50584 -4.93976,-0.35317 -6.91497,-1.16956c-2.78995,-1.15319 -4.58186,-3.15873 -5.87725,-9.24283c-1.15628,-5.43073 2.58939,-11.25443 7.85094,-12.47472c5.26155,-1.2203 10.20286,21.66682 4.94129,22.88713z" data-paper-data="{&quot;index&quot;:null}" fill="#5f5f5f"/><path d="M227.91904,174.9061c0,0 -0.04842,-3.00198 -0.71951,-6.86178c-0.47493,-2.73153 -1.47527,-6.42033 -2.04553,-7.44314c-0.7818,-1.40222 -2.9462,1.18957 -3.66187,-0.55693c-0.14061,-0.34312 0.47455,-1.78253 2.20078,-2.03224c1.05203,-0.15218 2.77492,-0.75297 4.2416,2.1898c4.6375,9.30466 2.72437,15.22507 2.72437,15.22507c0,0 -0.37621,0.64234 -1.3571,0.67686c-0.94556,0.03328 -1.38274,-1.19765 -1.38274,-1.19765z" data-paper-data="{&quot;index&quot;:null}" fill="#5f5f5f"/><path d="M232.3131,151.12255c0,0 -3.82948,0.41264 -5.51102,2.92241c-0.85571,1.27718 -0.77477,4.42673 -0.77477,4.42673c0,0 -1.17316,1.09094 -2.1795,1.05304c-1.00727,-0.03792 -1.518,-1.24159 -1.518,-1.24159c0,0 1.33092,-4.44262 2.56291,-5.93871c2.59872,-3.15586 6.84119,-3.12472 6.84119,-3.12472l0.5792,1.90283z" data-paper-data="{&quot;index&quot;:null}" fill="#5f5f5f"/><path d="M251.37854,149.24792c0,0 -7.18745,0.66311 -8.89398,0.91994c-3.27828,0.49338 -9.36223,1.82763 -9.36223,1.82763c0,0 -0.48473,-0.0988 -0.65923,-0.32558c-0.25878,-0.33631 -0.74277,-1.49656 -0.74277,-1.49656l19.38711,-3.17504c0,0 0.32135,1.07996 0.37137,1.49504c0.03402,0.28229 -0.10029,0.75455 -0.10029,0.75455z" data-paper-data="{&quot;index&quot;:null}" fill="#b1b1b1"/><path d="M251.12545,147.53381c0,0 -6.93322,0.6895 -10.09612,1.1789c-3.25381,0.50349 -9.16173,1.80099 -9.16173,1.80099c0,0 -1.986,0.17218 -2.20089,-0.48983c-0.41369,-1.27429 0.68995,-1.89083 0.68995,-1.89083c0,0 7.325,-1.54091 10.76564,-2.01837c3.35386,-0.4654 9.62451,-0.81117 9.62451,-0.81117c0,0 0.47123,0.02997 0.88188,1.18541c0.28302,0.79631 -0.5032,1.04491 -0.5032,1.04491z" data-paper-data="{&quot;index&quot;:null}" fill="#5f5f5f"/><path d="M232.5457,185.59486c0,0 0.16539,0.78497 -0.01034,0.95153c-0.33256,0.31519 -1.83543,0.79796 -1.83543,0.79796l-6.7632,-4.21259l2.73279,-0.88157z" data-paper-data="{&quot;index&quot;:null}" fill="#b1b1b1"/><path d="M223.16576,183.16605c0,0 -4.49327,-1.90558 -2.68072,-3.71416c2.40924,-2.40395 6.44839,2.75773 6.44839,2.75773c0,0 -1.22145,0.61196 -1.91465,0.78792c-0.49362,0.1253 -1.85301,0.16851 -1.85301,0.16851z" data-paper-data="{&quot;index&quot;:null}" fill="#b1b1b1"/><path d="M236.40516,188.1891c-1.09381,0.25368 -3.22423,0.25225 -3.22423,0.25225l-0.58475,-2.38332c0,0 1.75969,-0.21543 2.76626,-0.32771c1.38545,-0.15452 4.77913,-0.51383 4.77913,-0.51383l0.81232,1.42205c0,0 -3.13471,1.22255 -4.54874,1.55052z" data-paper-data="{&quot;index&quot;:null}" fill="#b1b1b1"/><path d="M234.29729,189.18507c0,0 -0.43412,0.49658 -2.58341,-0.22671c-1.97923,-0.66604 -2.22278,-1.96212 -2.22278,-1.96212c0,0 0.95038,-0.79863 1.49582,-1.05676c0.59159,-0.27998 1.92655,-0.56287 1.92655,-0.56287c0,0 0.5944,1.17702 0.81658,1.78847c0.238,0.65503 0.56722,2.02 0.56722,2.02z" data-paper-data="{&quot;index&quot;:null}" fill="#b1b1b1"/><g data-paper-data="{&quot;index&quot;:null}"><path d="M248.86011,184.23947c0.4131,1.6837 -1.1285,2.90364 -3.74095,3.50954c-2.61243,0.60589 -4.6484,0.2157 -5.06151,-1.46799c-0.41311,-1.68368 1.19725,-2.62335 3.80969,-3.22925c2.61244,-0.60591 4.57966,-0.49599 4.99276,1.18769z" fill="#5f5f5f"/><g fill="#b1b1b1"><path d="M245.71953,184.93431c-0.18346,0.04255 -0.36794,-0.06873 -0.41206,-0.24855c-0.04411,-0.17982 0.06883,-0.36009 0.25229,-0.40264c0.18346,-0.04255 0.36794,0.06873 0.41206,0.24855c0.04413,0.17983 -0.06883,0.36009 -0.25229,0.40264z"/><path d="M246.8676,184.8057c-0.18346,0.04255 -0.36794,-0.06875 -0.41206,-0.24857c-0.04411,-0.17982 0.06882,-0.36007 0.25228,-0.40262c0.18346,-0.04255 0.36794,0.06873 0.41206,0.24855c0.04413,0.17983 -0.06883,0.36009 -0.25229,0.40264z"/><path d="M247.8327,184.38916c-0.18346,0.04255 -0.36794,-0.06873 -0.41206,-0.24855c-0.04413,-0.17983 0.06883,-0.36009 0.25229,-0.40264c0.18345,-0.04254 0.36794,0.06874 0.41206,0.24856c0.04413,0.17983 -0.06882,0.36007 -0.25228,0.40263z"/><path d="M246.60458,183.84811c-0.18345,0.04254 -0.36794,-0.06873 -0.41206,-0.24855c-0.04413,-0.17983 0.06883,-0.36008 0.25229,-0.40264c0.18346,-0.04255 0.36796,0.06873 0.41207,0.24855c0.04413,0.17983 -0.06883,0.36008 -0.25229,0.40264z"/><path d="M245.62233,183.9658c-0.18346,0.04255 -0.36793,-0.06872 -0.41205,-0.24854c-0.04413,-0.17983 0.06883,-0.36009 0.25229,-0.40264c0.18346,-0.04255 0.36793,0.06872 0.41205,0.24854c0.04413,0.17983 -0.06883,0.36008 -0.25229,0.40264z"/></g></g></g><path d="M249.78091,155.19686c0,0 -6.79245,-2.63584 -9.84819,-4.66154c-1.88375,-1.24877 5.39186,2.41062 5.39186,2.41062c0,0 -0.87633,-2.74708 -0.18264,-1.58931c1.19575,1.99572 3.08076,1.98622 3.08076,1.98622c0,0 0.51528,-3.00672 0.40438,-1.6168c-0.21695,2.71901 1.22732,3.40456 1.22732,3.40456l-9.18899,-2.49913l7.74076,0.93183l1.37473,1.63354z" data-paper-data="{&quot;index&quot;:null}" fill="#000000" stroke="#000000" stroke-width="0.5" stroke-linecap="round"/><path d="M238.97099,212.6656c0,0 -3.32753,-0.57471 -4.87558,-0.84599c-1.67722,-0.29392 -4.83129,-0.85507 -4.83129,-0.85507c0,0 0.56998,-4.67526 0.99803,-7.44179c0.4212,-2.72226 -2.17775,-8.07844 -0.57657,-10.15246c0.5732,-0.74247 1.87633,-3.72119 3.95408,-3.39971c1.54794,0.2395 6.15277,2.13032 7.63154,1.16601c0.57183,-0.37289 1.2715,3.0821 1.2715,3.0821c0,0 0.69228,0.51089 0.92443,1.28394c1.05306,3.50669 -3.44763,7.41218 -3.84981,10.01155c-0.44319,2.86436 -0.64634,7.15142 -0.64634,7.15142z" data-paper-data="{&quot;index&quot;:null}" fill="url(#color-1)" stroke="#1c1c1c" stroke-width="0.5" stroke-linecap="butt"/><path d="M252.69473,155.79686l1.37473,-1.63354l7.74076,-0.93183l-9.18899,2.49913c0,0 1.44427,-0.68555 1.22732,-3.40456c-0.1109,-1.38992 0.40438,1.6168 0.40438,1.6168c0,0 1.88501,0.0095 3.08076,-1.98622c0.69369,-1.15777 -0.18264,1.58931 -0.18264,1.58931c0,0 7.27561,-3.65939 5.39186,-2.41062c-3.05574,2.0257 -9.84819,4.66154 -9.84819,4.66154z" data-paper-data="{&quot;index&quot;:null}" fill="#000000" stroke="#000000" stroke-width="0.5" stroke-linecap="round"/></g></g></svg>