<svg version="1.1" xmlns="http://www.w3.org/2000/svg" xmlns:xlink="http://www.w3.org/1999/xlink" width="62.94089" height="130.94387" viewBox="0,0,62.94089,130.94387"><defs><linearGradient x1="236.7963" y1="193.32959" x2="233.92535" y2="211.88493" gradientUnits="userSpaceOnUse" id="color-1"><stop offset="0" stop-color="#606060"/><stop offset="1" stop-color="#191919"/></linearGradient></defs><g transform="translate(-204.67958,-138.30598)"><g data-paper-data="{&quot;isPaintingLayer&quot;:true}" fill-rule="nonzero" stroke-linejoin="miter" stroke-miterlimit="10" stroke-dasharray="" stroke-dashoffset="0" style="mix-blend-mode: normal"><path d="M259.69907,177.46996c0,0 4.31791,16.76076 -6.52615,25.96745c-9.30257,7.89795 -15.14052,-11.11566 -15.14052,-11.11566c0,0 -10.46321,1.172 -17.37987,11.21162c-6.62705,9.61923 -7.45346,19.78837 -7.45346,19.78837" fill="none" stroke="#000000" stroke-width="2" stroke-linecap="round"/><path d="M247.36175,262.52811c0,0 2.47305,-12.05626 -1.08174,-20.44703c-3.86729,-9.12841 -11.0754,-11.63173 -11.0754,-11.63173c0,0 -5.123,-12.12189 -1.82757,-25.72469c3.17566,-13.1084 8.16031,-17.92807 8.16031,-17.92807" fill="none" stroke="#000000" stroke-width="2" stroke-linecap="round"/><path d="M263.65569,168.72896c0,11.27936 -9.14372,20.42308 -20.42308,20.42308c-11.27936,0 -20.42309,-9.14372 -20.42309,-20.42308c0,-11.27936 9.14373,-20.42308 20.42309,-20.42308c11.27936,0 20.42308,9.14373 20.42308,20.42308z" fill="#ebf5ff" stroke="#000000" stroke-width="2" stroke-linecap="butt"/><path d="M262.08797,168.15938c0,9.70549 -7.86786,17.57335 -17.57335,17.57335c-9.70549,0 -17.57335,-7.86786 -17.57335,-17.57335c0,-9.70549 7.86786,-17.57335 17.57335,-17.57335c9.70549,0 17.57335,7.86786 17.57335,17.57335z" fill="#ffffff" stroke="none" stroke-width="0" stroke-linecap="butt"/><path d="M250.65213,152.38175c0,0 6.10962,5.36487 7.49818,12.93693c1.55243,8.46573 -1.92285,14.56039 -1.92285,14.56039" fill="none" stroke="#000000" stroke-width="2" stroke-linecap="round"/><path d="M235.06299,230.52593c0,0 -2.45818,13.13508 -3.98128,19.39726c-3.03759,10.01135 -10.53453,17.24936 -10.53453,17.24936" fill="none" stroke="#000000" stroke-width="2" stroke-linecap="round"/><path d="M233.75619,267.42782c0,2.41207 -13.55712,0 -13.55712,0c0,0 3.03486,-4.36744 6.77856,-4.36744c3.7437,0 6.77856,1.95537 6.77856,4.36744z" fill="#9a5e4f" stroke="#000000" stroke-width="1.5" stroke-linecap="butt"/><path d="M260.75619,263.03132c0,2.17917 -13.55712,0 -13.55712,0c0,0 3.03486,-3.94573 6.77856,-3.94573c3.74369,0 6.77856,1.76657 6.77856,3.94573z" fill="#9a5e4f" stroke="#000000" stroke-width="1.5" stroke-linecap="butt"/><path d="M209.92399,230.82489c-1.09793,2.77563 -0.88197,5.46922 -2.76447,5.76849c-2.32769,0.37005 -2.09176,-3.43702 -0.56059,-6.80403c1.67614,-3.6858 5.70874,-6.21085 5.70874,-6.21085c0,0 -1.28576,4.47076 -2.38368,7.24639z" fill="#ffffff" stroke="#000000" stroke-width="1.5" stroke-linecap="butt"/><path d="M212.52554,231.4752c-0.19147,2.97875 0.8421,5.4755 -0.85724,6.339c-2.1012,1.06771 -3.04708,-2.62752 -2.62515,-6.3022c0.46187,-4.02259 3.52294,-7.66507 3.52294,-7.66507c0,0 0.15092,4.64953 -0.04055,7.62827z" fill="#ffffff" stroke="#000000" stroke-width="1.5" stroke-linecap="butt"/><path d="M214.11526,223.66685c0,0 2.85878,1.84459 4.2193,4.33845c1.24285,2.27817 1.64924,4.78352 0.07017,4.43125c-1.27706,-0.2849 -1.30883,-2.03943 -2.22363,-3.90971c-0.9148,-1.87028 -2.06585,-4.86 -2.06585,-4.86z" data-paper-data="{&quot;index&quot;:null}" fill="#ffffff" stroke="#000000" stroke-width="1.5" stroke-linecap="butt"/><g stroke="none" stroke-linecap="butt"><g><path d="M239.49897,182.77517c-0.01306,0.55897 -0.75899,0.99676 -1.6661,0.97784c-0.9071,-0.01891 -1.63188,-0.48738 -1.61882,-1.04635c0.01306,-0.55897 0.759,-0.99677 1.6661,-0.97785c0.9071,0.01891 1.63187,0.48739 1.61881,1.04635z" fill="#c05f5f" stroke-width="0"/><path d="M238.89713,182.8649l0.13293,-0.07622c-0.09793,-0.29632 -0.38412,-0.57339 -0.70128,-0.65439c0,0 -0.19274,-0.07081 -0.33645,-0.23369c-0.28729,0.06451 -0.56653,0.16146 -0.83776,0.32693c-0.15108,0.09217 -1.24301,1.06022 -0.38586,1.07695c0.67048,0.01309 1.40256,-0.081 2.13318,-0.18317c-0.02462,-0.14301 -0.00476,-0.25641 -0.00476,-0.25641zM240.40897,182.2308l-0.02588,0.70079c0.11155,-0.01064 0.22196,-0.01974 0.33097,-0.02693l0.56783,0.00893c0,0 0.74982,0.01563 0.73327,0.72411c-0.01655,0.70847 -0.76637,0.69284 -0.76637,0.69284l-0.43193,-0.01191c-1.1252,0.07204 -3.32557,0.63935 -4.36041,0.37209c-4.33493,-1.11963 0.85621,-4.11364 2.6086,-4.37713c0,0 0.74068,-0.11135 0.85853,0.58849c0.0405,0.2405 -0.02039,0.41152 -0.11777,0.53238c0.24633,0.2356 0.45349,0.50751 0.60316,0.79636z" fill="#000000" stroke-width="0.5"/></g><path d="M241.42912,180.43396c0.14651,0.69499 -0.58905,0.83341 -0.58905,0.83341l-0.42077,0.0421c-0.24119,0.12999 -0.48238,0.25997 -0.72357,0.38996c0,0 -0.65148,0.3511 -1.02306,-0.26446c-0.37159,-0.61556 0.27989,-0.96664 0.27989,-0.96664c0.24119,-0.12999 0.48238,-0.25997 0.72357,-0.38994l0.87094,-0.20098c0,0 0.73555,-0.13843 0.88206,0.55656z" fill="#000000" stroke-width="0.5"/></g><path d="M247.42637,141.98281c0,0 0.28229,-1.14435 1.11368,-2.01435c1.23081,-1.28799 1.87564,-0.83538 1.87564,-0.83538" fill="none" stroke="#000000" stroke-width="1.5" stroke-linecap="round"/><path d="M253.3355,139.13309c0,0 1.03334,-0.12126 1.5666,0.41451c0.53326,0.53577 0.79706,1.96026 0.79706,1.96026" fill="none" stroke="#000000" stroke-width="1.5" stroke-linecap="round"/><path d="M247.36176,262.52811c0,0 2.47305,-12.05626 -1.08174,-20.44703c-3.86729,-9.12841 -11.0754,-11.63173 -11.0754,-11.63173c0,0 -5.123,-12.12189 -1.82757,-25.72469c3.17566,-13.1084 8.16031,-17.92807 8.16031,-17.92807" fill="none" stroke="#5f5f5f" stroke-width="2" stroke-linecap="round"/><path d="M235.063,230.52593c0,0 -2.45818,13.13508 -3.98128,19.39726c-3.03759,10.01135 -10.53453,17.24936 -10.53453,17.24936" fill="none" stroke="#5f5f5f" stroke-width="2" stroke-linecap="round"/><path d="M233.7562,267.42782c0,2.41207 -13.55712,0 -13.55712,0c0,0 3.03486,-4.36744 6.77856,-4.36744c3.7437,0 6.77856,1.95537 6.77856,4.36744z" fill="#5f5f5f" stroke="#000000" stroke-width="1.5" stroke-linecap="butt"/><path d="M260.7562,263.03132c0,2.17917 -13.55712,0 -13.55712,0c0,0 3.03486,-3.94573 6.77856,-3.94573c3.74369,0 6.77856,1.76657 6.77856,3.94573z" fill="#5f5f5f" stroke="#000000" stroke-width="1.5" stroke-linecap="butt"/><path d="M230.09132,189.01382c0,0 -10.08123,-10.57455 -11.13242,-19.87991c-0.92759,-8.21113 2.63111,-15.96491 3.10585,-16.35522c1.398,-1.14938 5.45916,-3.33474 5.45916,-3.33474l-0.26596,-6.38485c0,0 3.88124,2.73719 7.08224,2.82005c1.86383,0.04825 4.16538,-2.06325 7.39577,-2.50765c4.59101,-0.63159 10.04119,0.32231 10.04119,0.32231c0,0 3.09954,2.55297 6.0715,6.51606c2.74898,3.66574 5.35267,8.64716 6.15344,11.33056c0.28021,0.93901 1.72607,3.40046 1.92219,6.13378c0.22507,3.13672 -0.82978,6.5943 -1.01627,7.89336c-0.2616,1.82233 -1.49438,-3.13664 -1.49438,-3.13664l-1.98746,3.59718c0,0 1.81012,1.2641 0.96509,-0.87927c-1.05905,-2.68621 1.50304,-7.90572 0.02203,-12.36875c-0.7426,-2.23783 -12.22623,-7.58856 -14.77911,-8.88528c-2.64361,-1.34281 -6.08521,-1.96972 -6.08521,-1.96972c0,0 -0.82167,1.01581 -2.80286,3.02601c-3.40533,3.4552 -8.95551,9.46602 -10.39966,15.54644c-1.57998,6.65237 5.42905,14.42464 4.74404,16.47825c-0.5934,1.77898 -2.35531,-2.63159 -2.35531,-2.63159z" data-paper-data="{&quot;index&quot;:null}" fill="#2f2f2f" stroke="none" stroke-width="0" stroke-linecap="butt"/><g data-paper-data="{&quot;index&quot;:null}" stroke="#000000" stroke-width="0.7" stroke-linecap="butt"><path d="M260.98447,177.42846c1.36165,-2.29561 2.42041,-6.05893 2.11387,-9.67361c-0.39151,-4.61684 -3.02294,-8.98472 -4.38573,-11.07524c-0.48955,-0.75098 -2.65554,-1.34455 -1.9139,-1.35879c2.39605,-0.04599 4.70295,0.5642 6.54737,2.06909c2.20719,1.80089 3.74754,4.76519 3.92439,7.82115c0.36371,6.28451 -0.79945,8.69268 -3.12239,10.51128c-1.64455,1.28751 -5.30291,3.85005 -5.30291,3.85005c0,0 1.43102,-0.94985 2.13929,-2.14395z" data-paper-data="{&quot;index&quot;:null}" fill="#5f5f5f"/><path d="M263.83074,166.5759c2.13475,12.81686 -4.74253,12.85882 -4.74253,12.85882c0,0 4.30312,-3.79701 2.43033,-15.22536c-1.1253,-6.86683 -5.32293,-8.80599 -5.32293,-8.80599c0,0 5.1061,-4.01154 7.63513,11.17254z" data-paper-data="{&quot;index&quot;:null}" fill="#b1b1b1"/><path d="M259.60008,155.85761c-3.80669,-5.6753 -8.87345,-6.74773 -8.87345,-6.74773l-0.15369,-1.56005c0,0 8.57372,0.59682 11.55161,7.98778c5.228,12.97562 1.29523,12.89822 1.29523,12.89822c0,0 -1.39077,-8.95698 -3.81971,-12.57822z" data-paper-data="{&quot;index&quot;:null}" fill="#5f5f5f"/><path d="M229.96636,183.93189c-1.35192,-0.34431 -2.4099,-0.9695 -2.4099,-0.9695l-1.55169,-23.33265c0,0 3.61674,-1.02465 4.55523,-1.16454c0.40534,-0.0604 0.98244,0.33909 0.98244,0.33909c0,0 8.98789,9.21875 3.32267,24.23158c-0.55825,1.47936 -2.99906,1.37985 -4.89874,0.89601z" data-paper-data="{&quot;index&quot;:null}" fill="#b1b1b1"/><path d="M230.22471,182.98658c-2.12047,0.50584 -4.80276,-0.35317 -6.72318,-1.16956c-2.71257,-1.15319 -4.45478,-3.15873 -5.71424,-9.24283c-1.12421,-5.43073 2.51757,-11.25443 7.63319,-12.47472c5.11562,-1.2203 9.91988,21.66682 4.80424,22.88713z" data-paper-data="{&quot;index&quot;:null}" fill="#5f5f5f"/><path d="M228.09234,174.9061c0,0 -0.04708,-3.00198 -0.69955,-6.86178c-0.46176,-2.73153 -1.43435,-6.42033 -1.9888,-7.44314c-0.76012,-1.40222 -2.86449,1.18957 -3.56031,-0.55693c-0.13671,-0.34312 0.46139,-1.78253 2.13974,-2.03224c1.02285,-0.15218 2.69796,-0.75297 4.12396,2.1898c4.50888,9.30466 2.64881,15.22507 2.64881,15.22507c0,0 -0.36578,0.64234 -1.31946,0.67686c-0.91933,0.03328 -1.34439,-1.19765 -1.34439,-1.19765z" data-paper-data="{&quot;index&quot;:null}" fill="#5f5f5f"/><path d="M232.36453,151.12255c0,0 -3.72327,0.41264 -5.35817,2.92241c-0.83198,1.27718 -0.75328,4.42673 -0.75328,4.42673c0,0 -1.14062,1.09094 -2.11905,1.05304c-0.97933,-0.03792 -1.4759,-1.24159 -1.4759,-1.24159c0,0 1.29401,-4.44262 2.49183,-5.93871c2.52664,-3.15586 6.65145,-3.12472 6.65145,-3.12472l0.56314,1.90283z" data-paper-data="{&quot;index&quot;:null}" fill="#5f5f5f"/><path d="M250.90118,149.24792c0,0 -6.98811,0.66311 -8.6473,0.91994c-3.18736,0.49338 -9.10257,1.82763 -9.10257,1.82763c0,0 -0.47129,-0.0988 -0.64095,-0.32558c-0.2516,-0.33631 -0.72217,-1.49656 -0.72217,-1.49656l18.84941,-3.17504c0,0 0.31244,1.07996 0.36107,1.49504c0.03308,0.28229 -0.09751,0.75455 -0.09751,0.75455z" data-paper-data="{&quot;index&quot;:null}" fill="#b1b1b1"/><path d="M250.65511,147.53381c0,0 -6.74093,0.6895 -9.8161,1.1789c-3.16357,0.50349 -8.90763,1.80099 -8.90763,1.80099c0,0 -1.93092,0.17218 -2.13985,-0.48983c-0.40222,-1.27429 0.67081,-1.89083 0.67081,-1.89083c0,0 7.12184,-1.54091 10.46705,-2.01837c3.26084,-0.4654 9.35757,-0.81117 9.35757,-0.81117c0,0 0.45816,0.02997 0.85742,1.18541c0.27517,0.79631 -0.48924,1.04491 -0.48924,1.04491z" data-paper-data="{&quot;index&quot;:null}" fill="#5f5f5f"/><path d="M232.59068,185.59486c0,0 0.1608,0.78497 -0.01005,0.95153c-0.32334,0.31519 -1.78452,0.79796 -1.78452,0.79796l-6.57562,-4.21259l2.657,-0.88157z" data-paper-data="{&quot;index&quot;:null}" fill="#b1b1b1"/><path d="M223.47089,183.16605c0,0 -4.36865,-1.90558 -2.60637,-3.71416c2.34242,-2.40395 6.26954,2.75773 6.26954,2.75773c0,0 -1.18757,0.61196 -1.86155,0.78792c-0.47993,0.1253 -1.80162,0.16851 -1.80162,0.16851z" data-paper-data="{&quot;index&quot;:null}" fill="#b1b1b1"/><path d="M236.34309,188.1891c-1.06347,0.25368 -3.13481,0.25225 -3.13481,0.25225l-0.56853,-2.38332c0,0 1.71088,-0.21543 2.68954,-0.32771c1.34702,-0.15452 4.64658,-0.51383 4.64658,-0.51383l0.78979,1.42205c0,0 -3.04777,1.22255 -4.42258,1.55052z" data-paper-data="{&quot;index&quot;:null}" fill="#b1b1b1"/><path d="M234.29368,189.18507c0,0 -0.42208,0.49658 -2.51176,-0.22671c-1.92434,-0.66604 -2.16113,-1.96212 -2.16113,-1.96212c0,0 0.92402,-0.79863 1.45433,-1.05676c0.57518,-0.27998 1.87312,-0.56287 1.87312,-0.56287c0,0 0.57791,1.17702 0.79393,1.78847c0.2314,0.65503 0.55149,2.02 0.55149,2.02z" data-paper-data="{&quot;index&quot;:null}" fill="#b1b1b1"/><g data-paper-data="{&quot;index&quot;:null}"><path d="M248.4526,184.23947c0.40164,1.6837 -1.0972,2.90364 -3.63719,3.50954c-2.53997,0.60589 -4.51948,0.2157 -4.92113,-1.46799c-0.40165,-1.68368 1.16404,-2.62335 3.70403,-3.22925c2.53998,-0.60591 4.45264,-0.49599 4.85429,1.18769z" fill="#5f5f5f"/><g fill="#b1b1b1"><path d="M245.39913,184.93431c-0.17837,0.04255 -0.35774,-0.06873 -0.40063,-0.24855c-0.04289,-0.17982 0.06692,-0.36009 0.24529,-0.40264c0.17837,-0.04255 0.35774,0.06873 0.40063,0.24855c0.04291,0.17983 -0.06692,0.36009 -0.24529,0.40264z"/><path d="M246.51536,184.8057c-0.17837,0.04255 -0.35774,-0.06875 -0.40063,-0.24857c-0.04289,-0.17982 0.06691,-0.36007 0.24528,-0.40262c0.17837,-0.04255 0.35774,0.06873 0.40063,0.24855c0.04291,0.17983 -0.06692,0.36009 -0.24529,0.40264z"/><path d="M247.45369,184.38916c-0.17837,0.04255 -0.35774,-0.06873 -0.40063,-0.24855c-0.04291,-0.17983 0.06692,-0.36009 0.24529,-0.40264c0.17836,-0.04254 0.35774,0.06874 0.40063,0.24856c0.04291,0.17983 -0.06691,0.36007 -0.24528,0.40263z"/><path d="M246.25963,183.84811c-0.17836,0.04254 -0.35774,-0.06873 -0.40063,-0.24855c-0.04291,-0.17983 0.06692,-0.36008 0.24529,-0.40264c0.17837,-0.04255 0.35775,0.06873 0.40064,0.24855c0.04291,0.17983 -0.06692,0.36008 -0.24529,0.40264z"/><path d="M245.30462,183.9658c-0.17837,0.04255 -0.35773,-0.06872 -0.40062,-0.24854c-0.04291,-0.17983 0.06692,-0.36009 0.24529,-0.40264c0.17837,-0.04255 0.35773,0.06872 0.40062,0.24854c0.04291,0.17983 -0.06692,0.36008 -0.24529,0.40264z"/></g></g></g><path d="M249.78091,155.19686c0,0 -6.79245,-2.63584 -9.84819,-4.66154c-1.88375,-1.24877 5.39186,2.41062 5.39186,2.41062c0,0 -0.87633,-2.74708 -0.18264,-1.58931c1.19575,1.99572 3.08076,1.98622 3.08076,1.98622c0,0 0.51528,-3.00672 0.40438,-1.6168c-0.21695,2.71901 1.22732,3.40456 1.22732,3.40456l-9.18899,-2.49913l7.74076,0.93183l1.37473,1.63354z" data-paper-data="{&quot;index&quot;:null}" fill="#000000" stroke="#000000" stroke-width="0.5" stroke-linecap="round"/><path d="M238.97099,212.6656c0,0 -3.32753,-0.57471 -4.87558,-0.84599c-1.67722,-0.29392 -4.83129,-0.85507 -4.83129,-0.85507c0,0 0.56998,-4.67526 0.99803,-7.44179c0.4212,-2.72226 -2.17775,-8.07844 -0.57657,-10.15246c0.5732,-0.74247 1.87633,-3.72119 3.95408,-3.39971c1.54794,0.2395 6.15277,2.13032 7.63154,1.16601c0.57183,-0.37289 1.2715,3.0821 1.2715,3.0821c0,0 0.69228,0.51089 0.92443,1.28394c1.05306,3.50669 -3.44763,7.41218 -3.84981,10.01155c-0.44319,2.86436 -0.64634,7.15142 -0.64634,7.15142z" data-paper-data="{&quot;index&quot;:null}" fill="url(#color-1)" stroke="#1c1c1c" stroke-width="0.5" stroke-linecap="butt"/><path d="M252.69473,155.79686l1.37473,-1.63354l7.74076,-0.93183l-9.18899,2.49913c0,0 1.44427,-0.68555 1.22732,-3.40456c-0.1109,-1.38992 0.40438,1.6168 0.40438,1.6168c0,0 1.88501,0.0095 3.08076,-1.98622c0.69369,-1.15777 -0.18264,1.58931 -0.18264,1.58931c0,0 7.27561,-3.65939 5.39186,-2.41062c-3.05574,2.0257 -9.84819,4.66154 -9.84819,4.66154z" data-paper-data="{&quot;index&quot;:null}" fill="#000000" stroke="#000000" stroke-width="0.5" stroke-linecap="round"/></g></g></svg>