<svg version="1.1" xmlns="http://www.w3.org/2000/svg" xmlns:xlink="http://www.w3.org/1999/xlink" width="64.59454" height="130.94387" viewBox="0,0,64.59454,130.94387"><defs><linearGradient x1="236.7963" y1="193.32959" x2="233.92535" y2="211.88493" gradientUnits="userSpaceOnUse" id="color-1"><stop offset="0" stop-color="#606060"/><stop offset="1" stop-color="#191919"/></linearGradient></defs><g transform="translate(-204.67958,-138.30598)"><g data-paper-data="{&quot;isPaintingLayer&quot;:true}" fill-rule="nonzero" stroke-linejoin="miter" stroke-miterlimit="10" stroke-dasharray="" stroke-dashoffset="0" style="mix-blend-mode: normal"><path d="M247.36176,262.52811c0,0 2.47305,-12.05626 -1.08174,-20.44703c-3.86729,-9.12841 -11.0754,-11.63173 -11.0754,-11.63173c0,0 -5.123,-12.12189 -1.82757,-25.72469c3.17566,-13.1084 8.16031,-17.92807 8.16031,-17.92807" fill="none" stroke="#5f5f5f" stroke-width="2" stroke-linecap="round"/><path d="M259.69907,177.46996c0,0 4.31791,16.76076 -6.52615,25.96745c-9.30257,7.89795 -15.14052,-11.11566 -15.14052,-11.11566c0,0 -10.46321,1.172 -17.37987,11.21162c-6.62705,9.61923 -7.45346,19.78837 -7.45346,19.78837" fill="none" stroke="#000000" stroke-width="2" stroke-linecap="round"/><path d="M263.51283,168.87182c0,11.27936 -9.14372,20.42308 -20.42308,20.42308c-11.27936,0 -20.42309,-9.14372 -20.42309,-20.42308c0,-11.27936 9.14373,-20.42308 20.42309,-20.42308c11.27936,0 20.42308,9.14373 20.42308,20.42308z" fill="#ebf5ff" stroke="#000000" stroke-width="2" stroke-linecap="butt"/><path d="M262.08797,168.15938c0,9.70549 -7.86786,17.57335 -17.57335,17.57335c-9.70549,0 -17.57335,-7.86786 -17.57335,-17.57335c0,-9.70549 7.86786,-17.57335 17.57335,-17.57335c9.70549,0 17.57335,7.86786 17.57335,17.57335z" fill="#ffffff" stroke="none" stroke-width="0" stroke-linecap="butt"/><path d="M245.78352,141.98281c0,0 0.33835,-1.14435 1.33484,-2.01435c1.47523,-1.28799 2.24812,-0.83538 2.24812,-0.83538" fill="none" stroke="#000000" stroke-width="1.5" stroke-linecap="round"/><path d="M252.86611,139.13309c0,0 1.23854,-0.12126 1.8777,0.41451c0.63916,0.53577 0.95535,1.96026 0.95535,1.96026" fill="none" stroke="#000000" stroke-width="1.5" stroke-linecap="round"/><path d="M249.98546,152.71509c0,0 5.46494,5.36487 6.70698,12.93693c1.38862,8.46573 -1.71995,14.56039 -1.71995,14.56039" fill="none" stroke="#000000" stroke-width="2" stroke-linecap="round"/><path d="M236.40878,182.05957c0,0 1.97694,-0.24815 2.71244,-0.16708c0.68223,0.07521 1.55278,0.63726 1.55278,0.63726" fill="none" stroke="#000000" stroke-width="1.5" stroke-linecap="round"/><path d="M235.06299,230.52593c0,0 -2.45818,13.13508 -3.98128,19.39726c-3.03759,10.01135 -10.53453,17.24936 -10.53453,17.24936" fill="none" stroke="#000000" stroke-width="2" stroke-linecap="round"/><path d="M233.75619,267.42782c0,2.41207 -13.55712,0 -13.55712,0c0,0 3.03486,-4.36744 6.77856,-4.36744c3.7437,0 6.77856,1.95537 6.77856,4.36744z" fill="#9a5e4f" stroke="#000000" stroke-width="1.5" stroke-linecap="butt"/><path d="M260.75619,263.03132c0,2.17917 -13.55712,0 -13.55712,0c0,0 3.03486,-3.94573 6.77856,-3.94573c3.74369,0 6.77856,1.76657 6.77856,3.94573z" fill="#9a5e4f" stroke="#000000" stroke-width="1.5" stroke-linecap="butt"/><path d="M209.92399,230.82489c-1.09793,2.77563 -0.88197,5.46922 -2.76447,5.76849c-2.32769,0.37005 -2.09176,-3.43702 -0.56059,-6.80403c1.67614,-3.6858 5.70874,-6.21085 5.70874,-6.21085c0,0 -1.28576,4.47076 -2.38368,7.24639z" fill="#ffffff" stroke="#000000" stroke-width="1.5" stroke-linecap="butt"/><path d="M212.52554,231.4752c-0.19147,2.97875 0.8421,5.4755 -0.85724,6.339c-2.1012,1.06771 -3.04708,-2.62752 -2.62515,-6.3022c0.46187,-4.02259 3.52294,-7.66507 3.52294,-7.66507c0,0 0.15092,4.64953 -0.04055,7.62827z" fill="#ffffff" stroke="#000000" stroke-width="1.5" stroke-linecap="butt"/><path d="M214.11526,223.66685c0,0 2.85878,1.84459 4.2193,4.33845c1.24285,2.27817 1.64924,4.78352 0.07017,4.43125c-1.27706,-0.2849 -1.30883,-2.03943 -2.22363,-3.90971c-0.9148,-1.87028 -2.06585,-4.86 -2.06585,-4.86z" data-paper-data="{&quot;index&quot;:null}" fill="#ffffff" stroke="#000000" stroke-width="1.5" stroke-linecap="butt"/><path d="M256.52001,153.37959c0,0 4.39501,4.86497 5.39389,11.73148c1.11676,7.6769 -1.38322,13.20368 -1.38322,13.20368" fill="none" stroke="#000000" stroke-width="2" stroke-linecap="round"/><path d="M235.063,230.52593c0,0 -2.45818,13.13508 -3.98128,19.39726c-3.03759,10.01135 -10.53453,17.24936 -10.53453,17.24936" fill="none" stroke="#5f5f5f" stroke-width="2" stroke-linecap="round"/><path d="M233.7562,267.42782c0,2.41207 -13.55712,0 -13.55712,0c0,0 3.03486,-4.36744 6.77856,-4.36744c3.7437,0 6.77856,1.95537 6.77856,4.36744z" fill="#5f5f5f" stroke="#000000" stroke-width="1.5" stroke-linecap="butt"/><path d="M260.7562,263.03132c0,2.17917 -13.55712,0 -13.55712,0c0,0 3.03486,-3.94573 6.77856,-3.94573c3.74369,0 6.77856,1.76657 6.77856,3.94573z" fill="#5f5f5f" stroke="#000000" stroke-width="1.5" stroke-linecap="butt"/><path d="M230.09132,189.01382c0,0 -10.08123,-10.57455 -11.13242,-19.87991c-0.92759,-8.21113 2.63111,-15.96491 3.10585,-16.35522c1.398,-1.14938 5.45916,-3.33474 5.45916,-3.33474l-0.26596,-6.38485c0,0 3.88124,2.73719 7.08224,2.82005c1.86383,0.04825 4.16538,-2.06325 7.39577,-2.50765c4.59101,-0.63159 10.04119,0.32231 10.04119,0.32231c0,0 3.09954,2.55297 6.0715,6.51606c2.74898,3.66574 5.35267,8.64716 6.15344,11.33056c0.28021,0.93901 1.72607,3.40046 1.92219,6.13378c0.22507,3.13672 -0.82978,6.5943 -1.01627,7.89336c-0.2616,1.82233 -1.49438,-3.13664 -1.49438,-3.13664l-1.98746,3.59718c0,0 1.81012,1.2641 0.96509,-0.87927c-1.05905,-2.68621 1.50304,-7.90572 0.02203,-12.36875c-0.7426,-2.23783 -12.22623,-7.58856 -14.77911,-8.88528c-2.64361,-1.34281 -6.08521,-1.96972 -6.08521,-1.96972c0,0 -0.82167,1.01581 -2.80286,3.02601c-3.40533,3.4552 -8.95551,9.46602 -10.39966,15.54644c-1.57998,6.65237 5.42905,14.42464 4.74404,16.47825c-0.5934,1.77898 -2.35531,-2.63159 -2.35531,-2.63159z" data-paper-data="{&quot;index&quot;:null}" fill="#2f2f2f" stroke="none" stroke-width="0" stroke-linecap="butt"/><path d="M249.78091,155.19686c0,0 -6.79245,-2.63584 -9.84819,-4.66154c-1.88375,-1.24877 5.39186,2.41062 5.39186,2.41062c0,0 -0.87633,-2.74708 -0.18264,-1.58931c1.19575,1.99572 3.08076,1.98622 3.08076,1.98622c0,0 0.51528,-3.00672 0.40438,-1.6168c-0.21695,2.71901 1.22732,3.40456 1.22732,3.40456l-9.18899,-2.49913l7.74076,0.93183l1.37473,1.63354z" data-paper-data="{&quot;index&quot;:null}" fill="#000000" stroke="#000000" stroke-width="0.5" stroke-linecap="round"/><path d="M238.97099,212.6656c0,0 -3.32753,-0.57471 -4.87558,-0.84599c-1.67722,-0.29392 -4.83129,-0.85507 -4.83129,-0.85507c0,0 0.56998,-4.67526 0.99803,-7.44179c0.4212,-2.72226 -2.17775,-8.07844 -0.57657,-10.15246c0.5732,-0.74247 1.87633,-3.72119 3.95408,-3.39971c1.54794,0.2395 6.15277,2.13032 7.63154,1.16601c0.57183,-0.37289 1.2715,3.0821 1.2715,3.0821c0,0 0.69228,0.51089 0.92443,1.28394c1.05306,3.50669 -3.44763,7.41218 -3.84981,10.01155c-0.44319,2.86436 -0.64634,7.15142 -0.64634,7.15142z" data-paper-data="{&quot;index&quot;:null}" fill="url(#color-1)" stroke="#1c1c1c" stroke-width="0.5" stroke-linecap="butt"/><path d="M252.69473,155.79686l1.37473,-1.63354l7.74076,-0.93183l-9.18899,2.49913c0,0 1.44427,-0.68555 1.22732,-3.40456c-0.1109,-1.38992 0.40438,1.6168 0.40438,1.6168c0,0 1.88501,0.0095 3.08076,-1.98622c0.69369,-1.15777 -0.18264,1.58931 -0.18264,1.58931c0,0 7.27561,-3.65939 5.39186,-2.41062c-3.05574,2.0257 -9.84819,4.66154 -9.84819,4.66154z" data-paper-data="{&quot;index&quot;:null}" fill="#000000" stroke="#000000" stroke-width="0.5" stroke-linecap="round"/><g data-paper-data="{&quot;index&quot;:null}" stroke="#000000" stroke-width="0.7" stroke-linecap="butt"><path d="M262.42891,177.42846c1.40697,-2.29561 2.50096,-6.05893 2.18422,-9.67361c-0.40454,-4.61684 -3.12355,-8.98472 -4.53169,-11.07524c-0.50584,-0.75098 -2.74392,-1.34455 -1.9776,-1.35879c2.47579,-0.04599 4.85947,0.5642 6.76527,2.06909c2.28065,1.80089 3.87226,4.76519 4.055,7.82115c0.37581,6.28451 -0.82606,8.69268 -3.22631,10.51128c-1.69928,1.28751 -5.47939,3.85005 -5.47939,3.85005c0,0 1.47865,-0.94985 2.21049,-2.14395z" data-paper-data="{&quot;index&quot;:null}" fill="#5f5f5f"/><path d="M265.36991,166.5759c2.2058,12.81686 -4.90036,12.85882 -4.90036,12.85882c0,0 4.44633,-3.79701 2.51121,-15.22536c-1.16275,-6.86683 -5.50008,-8.80599 -5.50008,-8.80599c0,0 5.27603,-4.01154 7.88923,11.17254z" data-paper-data="{&quot;index&quot;:null}" fill="#b1b1b1"/><path d="M260.99845,155.85761c-3.93338,-5.6753 -9.16876,-6.74773 -9.16876,-6.74773l-0.1588,-1.56005c0,0 8.85906,0.59682 11.93606,7.98778c5.40199,12.97562 1.33834,12.89822 1.33834,12.89822c0,0 -1.43706,-8.95698 -3.94683,-12.57822z" data-paper-data="{&quot;index&quot;:null}" fill="#5f5f5f"/><path d="M230.3785,183.93189c-1.39691,-0.34431 -2.4901,-0.9695 -2.4901,-0.9695l-1.60333,-23.33265c0,0 3.73711,-1.02465 4.70683,-1.16454c0.41883,-0.0604 1.01514,0.33909 1.01514,0.33909c0,0 9.28701,9.21875 3.43325,24.23158c-0.57683,1.47936 -3.09887,1.37985 -5.06177,0.89601z" data-paper-data="{&quot;index&quot;:null}" fill="#b1b1b1"/><path d="M230.64545,182.98658c-2.19104,0.50584 -4.9626,-0.35317 -6.94693,-1.16956c-2.80285,-1.15319 -4.60304,-3.15873 -5.90441,-9.24283c-1.16162,-5.43073 2.60136,-11.25443 7.88723,-12.47472c5.28587,-1.2203 10.25002,21.66682 4.96413,22.88713z" data-paper-data="{&quot;index&quot;:null}" fill="#5f5f5f"/><path d="M228.44211,174.9061c0,0 -0.04865,-3.00198 -0.72283,-6.86178c-0.47713,-2.73153 -1.48209,-6.42033 -2.05499,-7.44314c-0.78542,-1.40222 -2.95982,1.18957 -3.6788,-0.55693c-0.14126,-0.34312 0.47675,-1.78253 2.21095,-2.03224c1.05689,-0.15218 2.78775,-0.75297 4.26121,2.1898c4.65894,9.30466 2.73696,15.22507 2.73696,15.22507c0,0 -0.37795,0.64234 -1.36337,0.67686c-0.94993,0.03328 -1.38913,-1.19765 -1.38913,-1.19765z" data-paper-data="{&quot;index&quot;:null}" fill="#5f5f5f"/><path d="M232.85648,151.12255c0,0 -3.84718,0.41264 -5.53649,2.92241c-0.85967,1.27718 -0.77835,4.42673 -0.77835,4.42673c0,0 -1.17858,1.09094 -2.18957,1.05304c-1.01192,-0.03792 -1.52502,-1.24159 -1.52502,-1.24159c0,0 1.33708,-4.44262 2.57476,-5.93871c2.61073,-3.15586 6.87281,-3.12472 6.87281,-3.12472l0.58188,1.90283z" data-paper-data="{&quot;index&quot;:null}" fill="#5f5f5f"/><path d="M252.01004,149.24792c0,0 -7.22068,0.66311 -8.93509,0.91994c-3.29344,0.49338 -9.40551,1.82763 -9.40551,1.82763c0,0 -0.48697,-0.0988 -0.66228,-0.32558c-0.25997,-0.33631 -0.7462,-1.49656 -0.7462,-1.49656l19.47673,-3.17504c0,0 0.32284,1.07996 0.37309,1.49504c0.03418,0.28229 -0.10076,0.75455 -0.10076,0.75455z" data-paper-data="{&quot;index&quot;:null}" fill="#b1b1b1"/><path d="M251.75578,147.53381c0,0 -6.96527,0.6895 -10.14279,1.1789c-3.26886,0.50349 -9.20408,1.80099 -9.20408,1.80099c0,0 -1.99518,0.17218 -2.21107,-0.48983c-0.41561,-1.27429 0.69314,-1.89083 0.69314,-1.89083c0,0 7.35886,-1.54091 10.8154,-2.01837c3.36936,-0.4654 9.669,-0.81117 9.669,-0.81117c0,0 0.47341,0.02997 0.88596,1.18541c0.28433,0.79631 -0.50552,1.04491 -0.50552,1.04491z" data-paper-data="{&quot;index&quot;:null}" fill="#5f5f5f"/><path d="M233.09016,185.59486c0,0 0.16615,0.78497 -0.01038,0.95153c-0.3341,0.31519 -1.84391,0.79796 -1.84391,0.79796l-6.79446,-4.21259l2.74543,-0.88157z" data-paper-data="{&quot;index&quot;:null}" fill="#b1b1b1"/><path d="M223.66685,183.16605c0,0 -4.51404,-1.90558 -2.69311,-3.71416c2.42038,-2.40395 6.47819,2.75773 6.47819,2.75773c0,0 -1.22709,0.61196 -1.9235,0.78792c-0.4959,0.1253 -1.86158,0.16851 -1.86158,0.16851z" data-paper-data="{&quot;index&quot;:null}" fill="#b1b1b1"/><path d="M236.96745,188.1891c-1.09886,0.25368 -3.23914,0.25225 -3.23914,0.25225l-0.58745,-2.38332c0,0 1.76782,-0.21543 2.77905,-0.32771c1.39185,-0.15452 4.80122,-0.51383 4.80122,-0.51383l0.81607,1.42205c0,0 -3.1492,1.22255 -4.56977,1.55052z" data-paper-data="{&quot;index&quot;:null}" fill="#b1b1b1"/><path d="M234.84983,189.18507c0,0 -0.43613,0.49658 -2.59535,-0.22671c-1.98838,-0.66604 -2.23305,-1.96212 -2.23305,-1.96212c0,0 0.95477,-0.79863 1.50273,-1.05676c0.59432,-0.27998 1.93546,-0.56287 1.93546,-0.56287c0,0 0.59714,1.17702 0.82035,1.78847c0.2391,0.65503 0.56984,2.02 0.56984,2.02z" data-paper-data="{&quot;index&quot;:null}" fill="#b1b1b1"/><g data-paper-data="{&quot;index&quot;:null}"><path d="M249.47997,184.23947c0.41501,1.6837 -1.13372,2.90364 -3.75824,3.50954c-2.6245,0.60589 -4.66989,0.2157 -5.08491,-1.46799c-0.41502,-1.68368 1.20278,-2.62335 3.8273,-3.22925c2.62451,-0.60591 4.60083,-0.49599 5.01584,1.18769z" fill="#5f5f5f"/><g fill="#b1b1b1"><path d="M246.32488,184.93431c-0.18431,0.04255 -0.36965,-0.06873 -0.41396,-0.24855c-0.04432,-0.17982 0.06915,-0.36009 0.25345,-0.40264c0.18431,-0.04255 0.36965,0.06873 0.41396,0.24855c0.04434,0.17983 -0.06915,0.36009 -0.25345,0.40264z"/><path d="M247.47826,184.8057c-0.18431,0.04255 -0.36965,-0.06875 -0.41396,-0.24857c-0.04432,-0.17982 0.06914,-0.36007 0.25344,-0.40262c0.18431,-0.04255 0.36965,0.06873 0.41396,0.24855c0.04434,0.17983 -0.06915,0.36009 -0.25345,0.40264z"/><path d="M248.44782,184.38916c-0.18431,0.04255 -0.36965,-0.06873 -0.41396,-0.24855c-0.04434,-0.17983 0.06915,-0.36009 0.25345,-0.40264c0.1843,-0.04254 0.36965,0.06874 0.41396,0.24856c0.04434,0.17983 -0.06914,0.36007 -0.25344,0.40263z"/><path d="M247.21402,183.84811c-0.1843,0.04254 -0.36965,-0.06873 -0.41396,-0.24855c-0.04434,-0.17983 0.06915,-0.36008 0.25345,-0.40264c0.18431,-0.04255 0.36966,0.06873 0.41397,0.24855c0.04434,0.17983 -0.06915,0.36008 -0.25345,0.40264z"/><path d="M246.22723,183.9658c-0.18431,0.04255 -0.36964,-0.06872 -0.41395,-0.24854c-0.04434,-0.17983 0.06915,-0.36009 0.25345,-0.40264c0.18431,-0.04255 0.36964,0.06872 0.41395,0.24854c0.04434,0.17983 -0.06915,0.36008 -0.25345,0.40264z"/></g></g></g></g></g></svg>