<svg version="1.1" xmlns="http://www.w3.org/2000/svg" xmlns:xlink="http://www.w3.org/1999/xlink" width="334.4092" height="259.97152" viewBox="0,0,334.4092,259.97152"><g transform="translate(-103.44176,-22.56506)"><g data-paper-data="{&quot;isPaintingLayer&quot;:true}" fill-rule="nonzero" stroke-linejoin="miter" stroke-miterlimit="10" stroke-dasharray="" stroke-dashoffset="0" style="mix-blend-mode: normal"><g stroke-width="1.5" stroke-linecap="butt"><path d="M243.26026,272.7007c-5.1397,7.45416 -15.12234,11.42139 -21.81129,7.62181c-6.68895,-3.79959 -8.73261,-12.52236 -4.26053,-20.3952c4.47208,-7.87284 16.23173,-17.46141 26.49539,-10.82671c6.4605,4.17623 4.66485,16.22033 -0.42356,23.60011z" fill="#43423e" stroke="#000000"/><path d="M240.37398,271.92547c-4.6308,5.84524 -11.41129,7.49193 -15.14464,3.67797c-3.73335,-3.81395 -3.00582,-11.64428 1.62498,-17.48952c4.6308,-5.84524 11.41129,-7.49193 15.14464,-3.67797c3.73335,3.81395 3.00582,11.64428 -1.62498,17.48952z" fill="#c1cbcd" stroke="#000000"/><path d="M238.2874,270.0492c-3.49883,4.41641 -8.49453,5.79065 -11.15822,3.06946c-2.66368,-2.72119 -1.98666,-8.50736 1.51217,-12.92376c3.49883,-4.41641 8.49453,-5.79065 11.15822,-3.06946c2.66368,2.72119 1.98666,8.50736 -1.51217,12.92376z" fill="none" stroke="#8b9394"/></g><path d="M234.64337,264.68944c-0.50705,1.01459 -26.0558,-13.43411 -26.0558,-13.43411l0.82342,-1.79214c0,0 25.69116,14.30824 25.23238,15.22625z" fill="#cbd4d1" stroke="#000000" stroke-width="1" stroke-linecap="butt"/><g stroke="#002c07" stroke-width="1.5"><path d="M274.76551,93.64913l1.68107,-11.86643" fill="none" stroke-linecap="round"/><path d="M278.72098,79.21162c0,1.03766 -0.79692,1.87885 -1.77997,1.87885c-0.98305,0 -1.77997,-0.84119 -1.77997,-1.87885c0,-1.03766 0.79692,-1.87886 1.77997,-1.87886c0.98305,0 1.77997,0.84119 1.77997,1.87886z" fill="#597357" stroke-linecap="butt"/></g><path d="M166.81085,255.89521l-35.34069,-69.39627c0,0 6.97574,-12.31636 18.16441,-23.27803c4.9974,-5.08457 15.38993,-13.39261 15.38993,-13.39261l56.70153,-20.70518l109.90096,-0.13312c0,0 23.46237,-1.96873 28.35791,-5.60627c6.62338,-4.92139 8.56005,-11.41172 8.56005,-11.41172c0,0 6.7344,6.72861 8.77219,9.49359c1.79687,2.43807 2.82299,6.23929 2.82299,6.23929c0,0 -13.76588,19.73659 -36.42342,39.78778c-21.93183,19.40895 -53.53341,36.59766 -73.55804,47.3191c-35.124,18.80583 -103.34782,41.08346 -103.34782,41.08346z" fill="#fffd94" stroke="#002c07" stroke-width="1.5" stroke-linecap="butt"/><path d="M135.96806,181.03721l29.55767,-30.52151l56.38564,-21.29684l53.46148,8.5802l-74.50643,32.95722l-37.58965,35.01942z" fill="#fffd94" stroke="none" stroke-width="0" stroke-linecap="butt"/><path d="M135.00422,183.28615c0,0 9.65338,-12.22459 14.6362,-17.52888c4.97682,-5.2979 15.24275,-14.27774 15.24275,-14.27774c0,0 13.51765,6.76395 18.23476,10.13331c5.01063,3.57902 11.00164,10.74982 11.00164,10.74982l-32.1279,31.16407z" fill="#354245" stroke="#000000" stroke-width="1.5" stroke-linecap="round"/><path d="M164.31071,204.36685l32.13825,-29.46831c0,0 7.23506,13.51659 8.77894,19.94944c1.61711,6.73793 0.71421,19.60533 0.71421,19.60533l-33.52268,9.69092z" fill="#354245" stroke="#000000" stroke-width="1.5" stroke-linecap="round"/><path d="M175.76804,223.24128l-3.64742,0.00221l-2.87533,-8.85161l31.2716,-30.69393l3.55614,9.73939z" fill="#e8e8e8" stroke="none" stroke-width="0" stroke-linecap="butt"/><path d="M179.87517,221.54035l25.21276,-26.55967l0.5183,3.96571l-22.54281,22.10976z" fill="#e8e8e8" stroke="none" stroke-width="0" stroke-linecap="butt"/><path d="M164.24924,204.58656l32.13825,-29.46831c0,0 7.23506,13.51658 8.77894,19.94944c1.61711,6.73793 0.7142,19.60533 0.7142,19.60533l-33.52267,9.69092z" fill="none" stroke="#000000" stroke-width="1.5" stroke-linecap="round"/><path d="M160.98455,167.49603c0,0 2.42029,-4.9423 11.42091,-1.02355c9.98491,4.3473 5.27377,9.23861 5.27377,9.23861" fill="none" stroke="#273239" stroke-width="1.5" stroke-linecap="round"/><path d="M162.51958,167.94285c1.95349,1.15329 2.02342,4.65217 0.15619,7.81497c-1.86724,3.1628 -4.96454,4.79183 -6.91804,3.63854c-1.95349,-1.15329 -2.02342,-4.65217 -0.15619,-7.81497c1.86724,-3.1628 4.96454,-4.79183 6.91804,-3.63854z" fill="#9d9a00" stroke="#273239" stroke-width="1.5" stroke-linecap="butt"/><path d="M163.81627,190.21875c0,0 -1.43894,3.14574 -2.68599,4.13299c-1.11032,0.879 -4.43387,1.50357 -4.43387,1.50357" fill="none" stroke="#273239" stroke-width="1.5" stroke-linecap="round"/><path d="M202.71751,130.13108c1.8604,-1.59077 22.61907,-18.00537 47.60661,-21.5165c37.18734,-5.2254 59.4559,4.95402 59.4559,4.95402c0,0 15.33436,4.82364 20.27816,12.97033c6.96825,11.48271 -4.53548,14.98094 -4.53548,14.98094c0,0 -30.28786,4.11777 -46.87114,5.09933c-17.71837,1.04875 -56.25943,1.00498 -56.25943,1.00498c0,0 -15.1106,0.26167 -19.97933,-1.72914c-15.42395,-6.30681 -3.10247,-12.85057 0.30471,-15.76396z" fill="#fffd94" stroke="#002c07" stroke-width="1.5" stroke-linecap="round"/><path d="M212.75375,146.33907c-8.06611,-0.22137 -11.62776,-1.34382 -15.46936,-6.68118c-3.8416,-5.33737 5.85011,-6.68345 5.85011,-6.68345c0,0 29.26079,8.83277 44.32136,8.93714c22.23021,0.15404 78.38812,-2.31937 78.38812,-2.31937c0,0 -21.01772,4.13245 -49.78187,6.03117c-19.79787,1.30686 -51.8044,1.03141 -63.30835,0.71569z" fill="#6d6b00" stroke="none" stroke-width="0" stroke-linecap="butt"/><path d="M268.59652,108.58994l0.73884,-6.93253l4.63233,0.28858l-0.73883,6.93252c0,0 -1.6758,0.42658 -2.42166,0.38012c-0.7951,-0.04953 -2.21067,-0.66869 -2.21067,-0.66869z" fill="#4b5345" stroke="#000000" stroke-width="1.5" stroke-linecap="butt"/><path d="M168.91921,254.28883v-20.88314c0,0 60.96728,-8.75419 91.01474,-22.63402c14.08324,-6.50547 61.61166,-37.42078 73.12491,-45.84479c15.45774,-11.31011 43.48922,-40.68782 43.48922,-40.68782l1.84506,2.82327c0,0 -18.34228,25.48091 -45.59601,48.40437c-15.63813,13.15343 -36.90995,23.95633 -50.97433,32.45937c-28.41775,17.18081 -112.90359,46.36275 -112.90359,46.36275z" fill="#fffb00" stroke="none" stroke-width="0" stroke-linecap="butt"/><path d="M244.56038,153.4072l-41.76628,18.3129" fill="none" stroke="#3a5839" stroke-width="1.5" stroke-linecap="round"/><path d="M208.25584,177.82441c0,0 6.80361,15.55916 6.68899,29.23829c-0.15976,19.065 -4.76131,29.55577 -4.76131,29.55577" fill="none" stroke="#2a4327" stroke-width="1.5" stroke-linecap="round"/><path d="M294.67991,159.19019c0,0 2.28279,8.09165 0.04497,19.12069c-1.99067,9.81098 -9.68334,23.28814 -9.68334,23.28814l-33.41302,13.49372c0,0 3.63841,-14.49203 3.97735,-21.21446c0.29844,-5.91914 -2.04968,-17.01774 -2.04968,-17.01774z" fill="none" stroke="#283e25" stroke-width="1.5" stroke-linecap="round"/><path d="M262.23071,185.21382c0,0 1.56427,5.50907 0.42596,11.7918c-1.35139,7.45879 -3.31747,10.05518 -3.31747,10.05518c0,0 -1.19809,1.02773 -1.6089,0.97638c-0.44344,-0.05543 -1.28181,-1.25149 -1.24252,-2.28184c0.03929,-1.03035 0.96022,1.01175 1.33101,-0.03906c0.88221,-2.50018 1.98541,-7.8285 2.21766,-10.53811c0.18964,-2.21242 0.49602,-6.4815 0.04631,-8.93478c-0.28937,-1.57856 -1.58444,-1.02883 -1.3861,-1.9934c0.19834,-0.96457 1.35786,-0.93339 1.95447,-0.77068c0.581,0.15846 1.57959,1.73451 1.57959,1.73451z" fill="#9eb3a4" stroke="#283e25" stroke-width="1.5" stroke-linecap="round"/><path d="M313.58574,173.15965c-0.63824,5.10595 -4.01026,8.88832 -7.5316,8.44815c-3.52134,-0.44017 -5.85856,-4.93619 -5.22032,-10.04214c0.63824,-5.10595 4.01026,-8.88832 7.53161,-8.44815c3.52134,0.44017 5.85856,4.93619 5.22031,10.04214z" fill="#3c5133" stroke="#2a4327" stroke-width="1.5" stroke-linecap="butt"/><path d="M306.12331,175.71192l2.0365,-6.56203l0.67883,7.01459l-3.84671,-4.97809l5.43065,0.67883z" fill="#83a088" stroke="#83a088" stroke-width="1.5" stroke-linecap="round"/><path d="M299.49909,110.99839c0,0 6.38661,7.7288 6.68292,17.65036c0.28328,9.48556 -4.11269,15.44138 -4.11269,15.44138" fill="none" stroke="#002c07" stroke-width="1.5" stroke-linecap="round"/><g stroke="#002c07" stroke-width="1.5" stroke-linecap="round"><path d="M243.27524,147.94546c0,0 4.29809,-12.2833 3.24681,-18.32047c-2.19757,-12.61994 -10.9575,-16.37767 -10.9575,-16.37767l14.45756,-4.17663c0,0 8.21878,8.59765 9.69552,16.37673c2.30648,12.14989 -3.91249,22.49803 -3.91249,22.49803z" fill="#6d6b00"/><path d="M248.41572,144.09008l6.42558,-0.64256" fill="none"/><path d="M255.80514,139.5922l-6.42558,0.64255" fill="none"/><path d="M255.16258,135.73685l-5.14046,0.32128" fill="none"/><path d="M258.37537,130.59636l-8.67453,0.96384" fill="none"/><path d="M250.02212,125.77722l5.14046,-0.32128" fill="none"/><path d="M247.45189,121.92187l5.14047,-0.32128" fill="none"/><path d="M245.52421,117.10269l7.71069,-0.96384" fill="none"/></g><path d="M159.96428,197.34775l5.14046,-9.95965" fill="none" stroke="#273239" stroke-width="1.5" stroke-linecap="round"/><path d="M177.9559,177.58909c0,5.76672 -4.74677,10.44157 -10.60221,10.44157c-5.85544,0 -10.60221,-4.67485 -10.60221,-10.44157c0,-5.76672 4.74677,-10.44157 10.60221,-10.44157c5.85544,0 10.60221,4.67485 10.60221,10.44157z" fill="#6c7379" stroke="#273239" stroke-width="1" stroke-linecap="butt"/><path d="M162.85537,191.02107c0,0 -2.69705,1.07287 -4.58562,1.73458c-1.88858,0.66171 -6.85774,-1.46336 -6.85774,-1.46336" fill="none" stroke="#273239" stroke-width="1.5" stroke-linecap="round"/><path d="M162.58203,182.96531c0,0 1.23575,1.42954 3.30967,1.57609c1.75657,0.12413 3.07847,-0.53538 3.07847,-0.53538c0,0 1.60376,3.77203 -2.05265,3.45887c-1.72248,-0.14753 -1.69161,-2.82914 -1.69161,-2.82914" fill="#563838" stroke="#273239" stroke-width="1" stroke-linecap="round"/><path d="M176.61782,175.31656c2.06951,0.92917 2.52765,4.39863 1.02328,7.74927c-1.50437,3.35064 -4.40156,5.31362 -6.47107,4.38445c-2.06951,-0.92917 -2.52765,-4.39862 -1.02328,-7.74926c1.50437,-3.35064 4.40156,-5.31363 6.47107,-4.38446z" fill="#9d9a00" stroke="#273239" stroke-width="1.5" stroke-linecap="butt"/><g stroke-linecap="butt"><path d="M173.87899,229.38968c1.6406,30.4187 -10.76285,27.14808 -10.76285,27.14808c0,0 -51.24401,8.7579 -58.63343,-33.89494c-3.77099,-21.76673 30.36087,-39.67796 30.36087,-39.67796c0,0 37.06495,9.89029 39.0354,46.42482z" fill="#fffb00" stroke="#002c07" stroke-width="1.5"/><path d="M133.39783,253.64627c-26.8771,-9.55058 -26.34488,-28.91511 -26.34488,-28.91511c0,0 3.66951,13.24133 28.83214,16.94944c28.74679,4.2363 36.70878,-7.31107 36.70878,-7.31107c0,0 -0.94812,8.49571 -2.08659,12.13886c-0.97932,3.13382 -4.33899,8.423 -4.33899,8.423c0,0 -20.309,3.14297 -32.77046,-1.28512z" fill="#6d6b00" stroke="none" stroke-width="0"/></g><g><path d="M225.4696,218.13198c0,0 0.45801,-11.98512 -0.05416,-17.90353c-0.44097,-5.09565 -2.83735,-15.50949 -2.83735,-15.50949c0,0 0.28639,-4.49791 2.24895,-4.49791c1.96256,0 4.49791,4.49791 4.49791,4.49791c0,0 2.63641,9.31478 3.00262,14.12783c0.38271,5.02994 -0.75367,15.42985 -0.75367,15.42985c0,0 -0.94542,3.91136 -2.89151,5.14047c-1.94609,1.22911 -3.21279,-1.28511 -3.21279,-1.28511z" fill="#354245" stroke="#000000" stroke-width="1.5" stroke-linecap="round"/><path d="M226.02661,209.06568l-0.70298,-12.79427l4.78028,-7.59221l2.67133,10.68533z" fill="#e8e8e8" stroke="none" stroke-width="0" stroke-linecap="butt"/><path d="M225.54872,218.35169c0,0 0.45801,-11.98512 -0.05416,-17.90353c-0.44097,-5.09565 -2.83735,-15.50949 -2.83735,-15.50949c0,0 0.28639,-4.49791 2.24895,-4.49791c1.96256,0 4.49791,4.49791 4.49791,4.49791c0,0 2.63641,9.31478 3.00262,14.12783c0.38271,5.02994 -0.75367,15.42985 -0.75367,15.42985c0,0 -0.94542,3.91135 -2.89151,5.14046c-1.94609,1.22911 -3.21279,-1.28511 -3.21279,-1.28511z" fill="none" stroke="#000000" stroke-width="1.5" stroke-linecap="round"/></g><g><path d="M236.65584,216.52396c0,0 0.45801,-11.98512 -0.05416,-17.90353c-0.44097,-5.09565 -2.83735,-15.50949 -2.83735,-15.50949c0,0 0.28639,-4.49791 2.24895,-4.49791c1.96256,0 4.49791,4.49791 4.49791,4.49791c0,0 2.63641,9.31478 3.00262,14.12783c0.38271,5.02994 -0.75367,15.42985 -0.75367,15.42985c0,0 -0.94542,3.91135 -2.89151,5.14046c-1.94609,1.22911 -3.21279,-1.28511 -3.21279,-1.28511z" fill="#354245" stroke="#000000" stroke-width="1.5" stroke-linecap="round"/><path d="M237.21285,207.45762l-0.70298,-12.79427l4.78028,-7.59221l2.67133,10.68533z" fill="#e8e8e8" stroke="none" stroke-width="0" stroke-linecap="butt"/><path d="M237.57317,211.05164l-0.28119,-2.24954l5.76445,-7.45161l0.42178,1.54656z" fill="#e8e8e8" stroke="none" stroke-width="0" stroke-linecap="butt"/><path d="M236.73496,216.74369c0,0 0.45801,-11.98512 -0.05416,-17.90353c-0.44097,-5.09565 -2.83735,-15.50949 -2.83735,-15.50949c0,0 0.28639,-4.49791 2.24895,-4.49791c1.96256,0 4.49791,4.49791 4.49791,4.49791c0,0 2.63641,9.31478 3.00262,14.12783c0.38271,5.02994 -0.75367,15.42985 -0.75367,15.42985c0,0 -0.94542,3.91136 -2.89151,5.14047c-1.94609,1.22911 -3.21279,-1.28511 -3.21279,-1.28511z" fill="none" stroke="#000000" stroke-width="1.5" stroke-linecap="round"/></g><g stroke-linecap="butt"><path d="M319.53837,170.00553l-0.72196,-14.43791l7.52294,-2.88244l-0.22554,13.58067z" fill="#354245" stroke="#000000" stroke-width="1.5"/><path d="M320.27935,168.53465l-0.31449,-3.23268l5.42604,-11.50289l0.10081,5.76772z" fill="#e8e8e8" stroke="none" stroke-width="0"/></g><g stroke-linecap="butt"><path d="M330.70418,164.1713l-0.72196,-14.43792l7.52294,-2.88244l-0.22553,13.58067z" fill="#354245" stroke="#000000" stroke-width="1.5"/><path d="M331.44515,162.70039l-0.31448,-3.23268l5.42604,-11.50289l0.1008,5.76771z" fill="#e8e8e8" stroke="none" stroke-width="0"/></g><path d="M271.239,111.76498l0.73884,-9.06755l4.63233,0.37745l-0.73883,9.06754c0,0 -1.6758,0.55796 -2.42166,0.49718c-0.7951,-0.06479 -2.21067,-0.87463 -2.21067,-0.87463z" fill="#4b5345" stroke="#000000" stroke-width="1.5" stroke-linecap="butt"/><path d="M262.17271,109.3456l1.38099,-8.96946l2.27299,0.63504l-1.38099,8.96947c0,0 -0.89977,0.46043 -1.26575,0.35818c-0.39013,-0.10899 -1.00724,-0.99322 -1.00724,-0.99322z" fill="#4b5345" stroke="#000000" stroke-width="1.5" stroke-linecap="butt"/><path d="M280.89211,111.76002l0.34329,-9.06866l2.33082,0.37019l-0.3433,9.06866c0,0 -0.84103,0.56058 -1.21632,0.50097c-0.40006,-0.06354 -1.11449,-0.87116 -1.11449,-0.87116z" fill="#4b5345" stroke="#000000" stroke-width="1.5" stroke-linecap="butt"/><path d="M263.19573,99.9779l0.7911,-4.25214l19.97516,2.47217l-0.59332,5.53767c0,0 -4.20092,1.11304 -11.019,0.26279c-5.74036,-0.71586 -9.15393,-4.02049 -9.15393,-4.02049z" fill="#4b5345" stroke="#000000" stroke-width="1.5" stroke-linecap="butt"/><path d="M284.14855,98.65593c-0.32052,1.99783 -5.09118,2.9696 -10.6556,2.17052c-5.56441,-0.79908 -9.81543,-3.06642 -9.49491,-5.06425c0.32052,-1.99783 5.09119,-2.9696 10.6556,-2.17052c5.56441,0.79908 9.81543,3.06642 9.49491,5.06425z" fill="#5f6759" stroke="#000000" stroke-width="1.5" stroke-linecap="butt"/><path d="M190.96423,248.0163l10.10779,-3.82124l9.36819,5.17716l-1.97225,2.95838z" fill="#3b503b" stroke="#002c07" stroke-width="1.5" stroke-linecap="butt"/><path d="M236.57253,250.72813l-13.06617,-14.66862l12.32657,-4.93062l7.39594,18.12006c0,0 -7.02472,15.65443 -8.253,15.92738c-0.83425,0.18539 1.59665,-14.44819 1.59665,-14.44819z" fill="#cbd4d1" stroke="#000000" stroke-width="1" stroke-linecap="butt"/><path d="M235.21661,264.16409l2.21878,-13.43596l4.6841,-1.23266z" fill="#b0b6b4" stroke="none" stroke-width="0" stroke-linecap="butt"/><path d="M117.51819,105.18486c0,0 -0.0151,-0.01735 -0.04042,-0.0499c-0.28137,-0.16977 -0.54781,-0.35396 -0.79538,-0.55624c-1.46708,-1.19865 -1.64643,-3.03392 -2.46964,-4.55089l0.10347,-0.32112l-0.17405,0.01481l-0.40364,-2.78147c-0.01622,-0.09962 -0.02457,-0.20112 -0.02457,-0.3041c0,-1.34496 1.42403,-2.43526 3.18065,-2.43526c0.05771,0 0.11506,0.00118 0.17202,0.0035c0.32756,-1.07804 1.59026,-1.88125 3.09798,-1.88125c0.69511,0 1.33814,0.17072 1.86147,0.4604l4.22453,2.2753l-0.01006,0.01096l0.05232,0.01219c3.6206,2.09023 7.39087,4.02413 11.19621,5.9212c2.25231,0.03773 4.30192,0.15419 5.38253,0.198c0.46406,0.01881 0.92585,0.03917 1.38517,0.06117c1.41183,-0.85299 3.55269,-1.54325 5.32755,-1.66212c0.77509,-0.05191 1.37783,0.01202 1.78189,0.16563l4.59729,1.62891l-0.02926,0.01407l0.08696,0.00743c1.57049,0.68194 3.28687,1.28575 5.02928,1.875c0.33511,0.07874 0.66584,0.16006 0.99203,0.24407c2.19426,0.56508 4.01548,1.33364 5.74367,2.14935c0.09413,0.0388 0.18782,0.07783 0.28103,0.11712c1.45053,0.61139 2.77685,1.27573 4.06656,1.95604c0.07342,0.0325 0.14711,0.06487 0.22106,0.09707c1.31113,0.26382 2.60825,0.53598 3.93135,0.79296c-2.03391,-1.20733 -4.10224,-2.39796 -6.04094,-3.64829c-0.45177,-0.19125 -0.91243,-0.37852 -1.38022,-0.56258c-1.83052,-0.15825 -3.63758,-0.34525 -5.41903,-0.57243l-0.04405,-0.33577l-0.35978,0.14544l-1.89493,-1.33665c-0.26987,-0.18564 -0.36425,-0.44151 -0.26239,-0.74709c-2.43593,-0.85315 -4.81388,-1.73409 -6.92343,-2.73866l-2.7906,-0.72845c-1.00352,-0.23882 -1.17979,-0.88465 -0.29536,-1.70578c1.2236,-1.13602 4.01401,-2.17739 6.23259,-2.32597c0.63165,-0.04229 1.14885,-0.00767 1.53732,0.08972l1.04701,0.23786c1.00932,-0.59438 2.36786,-1.10492 3.69707,-1.39034c-0.12159,-0.30794 0.04279,-0.70913 0.53289,-1.16415c1.2236,-1.13602 4.01401,-2.17739 6.23259,-2.32598c0.63748,-0.04269 1.15839,-0.00702 1.54805,0.09244l5.34949,1.23889l-0.00828,0.00442c0.01447,0.00131 0.02892,0.00263 0.04337,0.00396c4.39663,0.40322 7.15372,1.75504 10.52431,2.73818c3.97852,1.16047 7.49769,2.58828 11.05981,3.99903c-1.01488,-0.83733 -1.93648,-1.68691 -2.83061,-2.47023l0.01542,-0.06814l-0.05734,0.02036l-1.78734,-2.24085c-0.26202,-0.32217 -0.13678,-0.7836 0.44075,-1.3198c1.17731,-1.09306 3.80522,-2.09849 5.97857,-2.30532l-0.3857,-0.8159c-0.15953,-0.31368 -0.00453,-0.73299 0.51135,-1.21195c1.2236,-1.13601 4.01401,-2.17739 6.23259,-2.32597c0.80922,-0.0542 1.43059,0.01787 1.8341,0.18642l2.84494,1.11465l-0.03816,0.01789l0.09378,0.00503c1.03959,0.49888 2.04594,1.02199 3.04276,1.55481l0.751,0.14101c0.10324,0.01949 0.20679,0.03874 0.31066,0.05777c2.16675,-0.10751 3.63867,0.26991 4.98455,0.73501c0.48752,0.05804 0.97878,0.11336 1.47319,0.16642c-1.08869,-0.41699 -2.1773,-0.83506 -3.26949,-1.25304c-1.54029,-0.58945 -4.0407,-0.77915 -4.74019,-1.71161c-0.02658,-0.03544 -0.05094,-0.07154 -0.07318,-0.10828l-0.06809,0.02792l-1.66111,-1.10579c-0.49057,-0.31718 -0.44625,-0.85115 0.24385,-1.49186c1.22358,-1.13602 4.014,-2.17739 6.23258,-2.32598c0.80429,-0.05387 1.42301,0.01701 1.82671,0.18337l2.59233,1.00108c0.77674,0.20272 1.53409,0.41485 2.27819,0.6334c0.11969,-0.06148 0.24284,-0.12174 0.36896,-0.18059c0.09403,-0.14975 0.22946,-0.30857 0.40824,-0.47455c1.2236,-1.13601 4.01401,-2.17739 6.23259,-2.32597c0.25106,-0.0168 0.48403,-0.02147 0.69804,-0.01487l7.1286,0.14421l-0.02812,0.02047c0.10807,-0.0028 0.21556,-0.00511 0.32248,-0.00687c3.29124,-0.05458 5.609,0.49162 7.58482,1.21539c1.82634,0.08062 3.51771,0.24014 5.04576,0.50025l-0.54084,-1.09947c-0.16564,-0.31446 -0.01223,-0.73654 0.50761,-1.21917c1.22358,-1.13601 4.014,-2.17739 6.23258,-2.32597c0.32943,-0.02207 0.62773,-0.02319 0.89289,-0.00542l1.64999,0.08804c2.17445,-0.79823 4.10336,-0.74221 4.10336,-0.74221l5.04722,0.14657c1.73837,0.03111 2.28232,0.7819 1.18072,1.80465c-1.17302,1.08908 -3.78607,2.09117 -5.95478,2.30303l-0.83226,0.08492c0.57192,0.37623 1.05702,0.82436 1.66517,1.26283l2.98817,0.93704c0.8988,0.26029 1.02698,0.88689 0.17817,1.67496c-1.2236,1.13601 -4.01401,2.17739 -6.23259,2.32597l-1.44285,0.09663c0.32013,0.52341 0.23542,1.11067 -0.85701,1.82606c-2.44464,1.60091 -7.35499,2.20484 -10.67979,2.6254c-0.33034,0.04178 -0.65739,0.07878 -0.98119,0.11118c1.00282,0.23897 1.17877,0.88466 0.29457,1.70559c-0.4938,0.45846 -1.24278,0.90151 -2.10639,1.27668c1.49063,0.27963 2.91965,0.54904 4.27939,0.72275l0.07542,0.06009l0.06244,-0.03397l3.44405,0.73274c1.11604,0.21318 1.34538,0.87821 0.4243,1.73335c-1.17302,1.08908 -3.78607,2.09117 -5.95478,2.30303l-6.95905,0.71004l0.00088,-0.00092c-0.0041,0.0007 -0.00818,0.00139 -0.01228,0.00208c-5.79027,0.98333 -11.80269,1.47234 -17.44506,1.66244c1.15171,0.20454 1.39814,0.87535 0.46577,1.74099c-0.30275,0.28108 -0.7014,0.55635 -1.16357,0.81375c-0.06355,0.23069 -0.24201,0.49123 -0.54474,0.7723c-1.2236,1.13602 -4.01401,2.17739 -6.23259,2.32597c-0.27272,0.01827 -0.52411,0.02219 -0.75301,0.01291l-3.26825,-0.0949c-1.41091,0.86696 -3.58155,1.57228 -5.37748,1.69255c-0.12829,0.00859 -0.25187,0.014 -0.3706,0.01636l-5.86554,0.1494l0.07815,-0.06372c-0.10051,0.00752 -0.20043,0.01442 -0.29976,0.02066c0.8885,0.29425 1.81081,0.5698 2.79957,0.81009c0.61672,0.01768 1.22832,0.03853 1.83074,0.06507c1.17585,0.05179 2.86645,-0.23544 3.76013,-0.01436c0.03333,0.00825 0.06649,0.0166 0.09945,0.02503l0.03048,-0.02131l4.52806,0.18037c1.69155,0.04693 2.21074,0.79222 1.1217,1.80331c-0.46991,0.43628 -1.17091,0.85861 -1.98186,1.22175c-1.41171,0.85546 -3.55781,1.54836 -5.3364,1.66747v0l-4.12994,0.27659c-4.65317,0.88818 -8.30831,0.53157 -12.2692,0.63357c-1.07117,0.02758 -2.15209,0.05418 -3.2356,0.07702c1.31983,0.71754 3.49359,1.11702 3.94623,2.15815c0.02357,0.05424 0.04331,0.10954 0.05948,0.16581l0.06905,-0.02372l1.09922,1.63522c0.22279,0.31997 0.08551,0.76625 -0.46955,1.2816c-1.2236,1.13602 -4.01401,2.17739 -6.23259,2.32597c-0.47709,0.03196 -0.88886,0.02002 -1.22922,-0.0297l-0.94318,-0.11985c2.37702,0.70316 4.72488,1.46786 7.01467,2.35005l0.20328,0.25177l0.09198,-0.08452l2.38774,1.52347c4.74927,0.94675 9.31932,1.80465 14.05975,3.45067l-0.49866,-0.21829c0,0 3.18065,0 3.18065,2.43526c0,2.43526 -3.18065,2.43526 -3.18065,2.43526l-2.13366,-0.21829c-5.20171,-1.81471 -10.12515,-2.58262 -15.39418,-3.6561l-3.17383,-0.20251l0.00642,-0.0591c-0.18114,-0.00015 -0.36254,-0.00375 -0.54423,-0.01116c-1.21652,-0.04964 -2.28338,-0.56319 -3.3626,-1.05097l-3.3751,0.18458l-0.00556,-0.05947c-0.22856,0.01919 -0.45847,0.03245 -0.68987,0.03906c-2.2349,0.06385 -4.28602,-1.031 -6.28331,-1.80144c-2.33728,-0.9016 -4.46313,-2.02428 -6.46814,-3.27311c-1.80276,-0.56414 -3.59276,-1.14907 -5.36023,-1.75451c-0.87514,-0.21848 -1.74935,-0.43897 -2.62213,-0.66259c-2.1133,-0.31243 -4.21771,-0.6299 -6.28176,-0.96851c3.56206,1.72343 7.18878,3.36026 11.12046,4.774c0.74698,0.2686 4.06532,1.25632 6.87485,2.23737c1.06341,0.2542 2.10852,0.51304 3.12451,0.78389l0.1123,0.08028l0.02167,-0.03652l4.61856,1.60547c1.13563,0.3717 1.93143,1.23483 1.93143,2.24024c0,1.34496 -1.42403,2.43526 -3.18065,2.43526c-0.26084,0 -0.51434,-0.02404 -0.75694,-0.06939l-3.6118,-0.61452l0.01737,-0.05984c-0.14558,-0.00838 -0.29121,-0.01999 -0.43684,-0.03513c-1.80227,-0.1874 -3.23158,-1.23148 -4.81281,-1.95918c-6.00343,-1.43863 -12.42865,-2.78505 -17.71823,-5.2042c-4.42584,-2.02412 -8.17628,-4.80297 -11.90462,-7.58604c-4.45254,-2.17063 -7.94064,-3.98187 -11.22224,-7.12556c-0.58902,-0.18494 -1.17875,-0.36894 -1.68999,-0.65184c-3.74409,-2.07183 -6.46154,-5.27984 -8.96172,-8.13577zM168.65413,115.68126l0.39062,-0.25771l1.16506,0.08249c-1.03601,-0.24992 -2.04099,-0.51766 -3.2591,-0.66191c-0.59647,-0.07065 -1.20361,-0.13498 -1.81732,-0.19541c1.20108,0.32996 2.37862,0.67209 3.52074,1.03255zM176.15386,117.1478c-0.12887,-0.05819 -0.25785,-0.11631 -0.38693,-0.17437c-0.08896,0.19098 -0.25011,0.39915 -0.48799,0.62c-0.28552,0.26509 -0.65637,0.52502 -1.08537,0.76967c1.46744,0.10662 2.95049,0.20363 4.44337,0.29526c-0.86529,-0.60233 -1.6869,-1.15108 -2.4831,-1.51056zM212.83879,97.57961c0.4475,0.1666 0.91554,0.3179 1.40637,0.45117c0.8586,0.23313 1.90484,0.35871 3.05788,0.42044c-2.24261,-0.84893 -4.51684,-1.67851 -6.69297,-2.55822c0.70717,0.5866 1.44665,1.14826 2.22873,1.68661z" data-paper-data="{&quot;index&quot;:null}" fill="#000000" stroke="none" stroke-width="0.5" stroke-linecap="butt"/><path d="M434.10819,48.94469c0,0 0.01487,0.01456 0.03978,0.04187c0.27683,0.14244 0.53895,0.29698 0.78253,0.46669c1.44337,1.00567 1.61983,2.5455 2.42974,3.81826l-0.1018,0.26943l0.17123,-0.01242l0.39713,2.33369c0.01595,0.08358 0.02416,0.16874 0.02416,0.25514c0,1.12843 -1.40103,2.04321 -3.12928,2.04321c-0.05678,0 -0.11322,-0.00098 -0.16924,-0.00293c-0.32227,0.90449 -1.56458,1.57839 -3.04795,1.57839c-0.68389,0 -1.31653,-0.14324 -1.83141,-0.38628l-4.1563,-1.909l0.00991,-0.00919l-0.05147,-0.01023c-3.56212,-1.75373 -7.27151,-3.37629 -11.01538,-4.96795c-2.21592,-0.03165 -4.23245,-0.12937 -5.2956,-0.16613c-0.45656,-0.01578 -0.91088,-0.03287 -1.3628,-0.05132c-1.38901,0.71567 -3.49529,1.29481 -5.2415,1.39454c-0.76258,0.04355 -1.35559,-0.01009 -1.75312,-0.13896l-4.52303,-1.36668l0.02878,-0.01181l-0.08555,-0.00624c-1.54513,-0.57216 -3.23379,-1.07876 -4.94806,-1.57314c-0.3297,-0.06606 -0.65508,-0.13429 -0.97601,-0.20477c-2.15882,-0.4741 -3.95063,-1.11894 -5.65091,-1.80333c-0.09261,-0.03255 -0.18479,-0.0653 -0.27649,-0.09826c-1.4271,-0.51296 -2.73199,-1.07036 -4.00089,-1.64114c-0.07224,-0.02727 -0.14474,-0.05442 -0.21749,-0.08144c-1.28997,-0.22134 -2.56614,-0.44969 -3.86787,-0.66529c2.00105,1.01296 4.03598,2.01193 5.94337,3.06096c0.44447,0.16047 0.89769,0.31758 1.35793,0.47201c1.80095,0.13278 3.57883,0.28966 5.33151,0.48027l0.04333,0.28172l0.35397,-0.12203l1.86433,1.12147c0.26551,0.15574 0.35837,0.37043 0.25815,0.62682c2.39659,0.7158 4.73613,1.45492 6.81161,2.29776l2.74553,0.61117c0.9873,0.20037 1.16074,0.74223 0.29059,1.43117c-1.20383,0.95313 -3.94918,1.82685 -6.13193,1.95151c-0.62145,0.03549 -1.1303,0.00644 -1.51249,-0.07528l-1.0301,-0.19957c-0.99302,0.49869 -2.32961,0.92704 -3.63736,1.16651c0.11963,0.25836 -0.0421,0.59496 -0.52428,0.97673c-1.20383,0.95313 -3.94919,1.82686 -6.13193,1.95152c-0.6272,0.03582 -1.13968,0.0059 -1.52305,-0.07755l-5.26309,-1.03945l0.00815,-0.00371c-0.01423,-0.0011 -0.02845,-0.0022 -0.04267,-0.00331c-4.32562,-0.33831 -7.03818,-1.47249 -10.35433,-2.29736c-3.91427,-0.97365 -7.37659,-2.1716 -10.88119,-3.35523c0.99849,0.70253 1.90522,1.41533 2.7849,2.07255l-0.01517,0.05717l0.05641,-0.01708l1.75847,1.8801c0.25779,0.27031 0.13457,0.65746 -0.43363,1.10733c-1.1583,0.91709 -3.74376,1.76066 -5.88201,1.93419l0.37947,0.68455c0.15696,0.26318 0.00447,0.61499 -0.50308,1.01684c-1.20383,0.95313 -3.94919,1.82685 -6.13193,1.95151c-0.79615,0.04547 -1.40749,-0.01499 -1.80448,-0.15641l-2.79899,-0.9352l0.03754,-0.01501l-0.09226,-0.00423c-1.0228,-0.41856 -2.01289,-0.85746 -2.99362,-1.3045l-0.73889,-0.11831c-0.10156,-0.01635 -0.20344,-0.0325 -0.30563,-0.04846c-2.13174,0.0902 -3.57989,-0.22645 -4.90405,-0.61668c-0.47963,-0.04869 -0.96297,-0.09511 -1.4494,-0.13963c1.07112,0.34986 2.14213,0.70063 3.21669,1.05131c1.51541,0.49456 3.97544,0.65371 4.66363,1.43607c0.02615,0.02973 0.05012,0.06002 0.072,0.09085l0.06699,-0.02342l1.63429,0.92777c0.48264,0.26612 0.43904,0.71413 -0.23992,1.25169c-1.20382,0.95313 -3.94917,1.82686 -6.13192,1.95152c-0.7913,0.0452 -1.40003,-0.01427 -1.79721,-0.15385l-2.55046,-0.83992c-0.76421,-0.17009 -1.50933,-0.34807 -2.2414,-0.53142c-0.11775,0.05159 -0.2389,0.10214 -0.36298,0.15152c-0.09251,0.12564 -0.22576,0.25889 -0.40165,0.39815c-1.20383,0.95313 -3.94919,1.82685 -6.13193,1.95151c-0.24701,0.0141 -0.47623,0.01801 -0.68678,0.01247l-7.01348,-0.12099l0.02766,-0.01718c-0.10632,0.00235 -0.21209,0.00428 -0.31727,0.00577c-3.23808,0.04579 -5.51841,-0.41248 -7.46232,-1.01973c-1.79685,-0.06764 -3.4609,-0.20149 -4.96427,-0.41972l0.5321,0.92247c0.16296,0.26384 0.01203,0.61797 -0.49941,1.0229c-1.20382,0.95313 -3.94918,1.82685 -6.13192,1.95151c-0.32412,0.01851 -0.61761,0.01946 -0.87846,0.00454l-1.62335,-0.07387c-2.13933,0.66972 -4.03709,0.62272 -4.03709,0.62272l-4.96571,-0.12298c-1.71029,-0.0261 -2.24546,-0.65603 -1.16165,-1.51413c1.15408,-0.91374 3.72492,-1.75451 5.8586,-1.93227l0.81882,-0.07125c-0.56269,-0.31566 -1.03995,-0.69165 -1.63828,-1.05953l-2.93991,-0.78619c-0.88428,-0.21839 -1.01039,-0.74411 -0.17529,-1.40531c1.20383,-0.95313 3.94919,-1.82685 6.13193,-1.95151l1.41954,-0.08107c-0.31496,-0.43915 -0.23162,-0.93186 0.84317,-1.53208c2.40515,-1.34318 7.2362,-1.84988 10.5073,-2.20275c0.32501,-0.03506 0.64677,-0.0661 0.96535,-0.09328c-0.98662,-0.2005 -1.15972,-0.74225 -0.28981,-1.43101c0.48583,-0.38466 1.22272,-0.75638 2.07237,-1.07115c-1.46654,-0.23461 -2.87248,-0.46065 -4.21026,-0.60639l-0.0742,-0.05041l-0.06143,0.0285l-3.38842,-0.61478c-1.098,-0.17887 -1.32364,-0.73682 -0.41743,-1.4543c1.15408,-0.91374 3.72492,-1.75451 5.8586,-1.93227l6.84666,-0.59574l-0.00086,0.00078c0.00403,-0.00058 0.00805,-0.00116 0.01208,-0.00175c5.69676,-0.82503 11.61206,-1.23531 17.16331,-1.3948c-1.13311,-0.17161 -1.37556,-0.73443 -0.45825,-1.46071c0.29786,-0.23583 0.69007,-0.46678 1.14478,-0.68274c0.06252,-0.19356 0.23809,-0.41215 0.53595,-0.64797c1.20383,-0.95313 3.94918,-1.82685 6.13193,-1.95151c0.26832,-0.01532 0.51564,-0.01861 0.74085,-0.01083l3.21546,0.07963c1.38812,-0.72739 3.52371,-1.31915 5.29063,-1.42006c0.12622,-0.00722 0.2478,-0.01175 0.36461,-0.01374l5.7708,-0.12535l-0.07688,0.05346c0.09889,-0.00631 0.19719,-0.0121 0.29492,-0.01733c-0.87413,-0.24688 -1.78156,-0.47808 -2.75436,-0.67969c-0.60677,-0.01483 -1.20848,-0.03232 -1.80119,-0.05459c-1.15686,-0.04346 -2.82016,0.19754 -3.6994,0.01205c-0.03279,-0.00692 -0.06541,-0.01392 -0.09785,-0.021l-0.02999,0.01787l-4.45493,-0.15132c-1.66423,-0.03938 -2.17503,-0.66469 -1.10358,-1.51301c0.46233,-0.36605 1.15201,-0.72038 1.94987,-1.02506c1.38891,-0.71774 3.50035,-1.29909 5.25021,-1.39903v0l4.06323,-0.23206c4.57801,-0.74519 8.17412,-0.44599 12.07104,-0.53157c1.05385,-0.02315 2.11732,-0.04546 3.18334,-0.06462c-1.29854,-0.60204 -3.43718,-0.9372 -3.88251,-1.81072c-0.02319,-0.04551 -0.04262,-0.0919 -0.05852,-0.13912l-0.06793,0.0199l-1.08147,-1.37196c-0.2192,-0.26846 -0.08414,-0.64291 0.46196,-1.07529c1.20383,-0.95313 3.94919,-1.82685 6.13193,-1.95151c0.46938,-0.02681 0.87451,-0.0168 1.20937,0.02492l0.92796,0.10056c-2.33862,-0.58995 -4.64857,-1.23154 -6.90138,-1.97172l-0.20001,-0.21124l-0.0905,0.07092l-2.34918,-1.27822c-4.67256,-0.79434 -9.16881,-1.51412 -13.83268,-2.89516l0.49061,0.18315c0,0 -3.12928,0 -3.12928,-2.04321c0,-2.04321 3.12928,-2.04321 3.12928,-2.04321l2.0992,0.18315c5.1177,1.52257 9.96162,2.16685 15.14555,3.06751l3.12257,0.16991l-0.00632,0.04959c0.17822,0.00012 0.35669,0.00315 0.53545,0.00937c1.19688,0.04165 2.2465,0.47252 3.30829,0.88178l3.32059,-0.15487l0.00547,0.0499c0.22487,-0.0161 0.45107,-0.02723 0.67873,-0.03277c2.19881,-0.05356 4.21679,0.86502 6.18183,1.51143c2.29953,0.75645 4.39105,1.6984 6.36367,2.74617c1.77365,0.47332 3.53474,0.96409 5.27365,1.47205c0.861,0.18331 1.72109,0.3683 2.57978,0.55592c2.07917,0.26214 4.14959,0.5285 6.18031,0.81259c-3.50455,-1.44597 -7.07268,-2.8193 -10.94086,-4.00544c-0.73492,-0.22535 -3.99966,-1.05406 -6.76382,-1.87718c-1.04623,-0.21328 -2.07446,-0.43045 -3.07404,-0.65769l-0.11048,-0.06736l-0.02132,0.03065l-4.54397,-1.34701c-1.11729,-0.31187 -1.90024,-1.03603 -1.90024,-1.8796c0,-1.12843 1.40103,-2.04321 3.12928,-2.04321c0.25663,0 0.50604,0.02017 0.74472,0.05822l3.55345,0.51559l-0.01709,0.05021c0.14323,0.00702 0.2865,0.01677 0.42979,0.02947c1.77316,0.15724 3.17938,1.03324 4.73508,1.64378c5.90646,1.20702 12.22791,2.33668 17.43205,4.36638c4.35436,1.69827 8.04423,4.02974 11.71235,6.36478c4.38062,1.82118 7.81236,3.34082 11.04098,5.97842c0.57951,0.15517 1.15971,0.30955 1.6627,0.5469c3.68363,1.73831 6.35719,4.42985 8.81698,6.82601zM387.26198,41.00444c-1.18168,-0.27684 -2.3402,-0.56389 -3.46388,-0.86632l-0.38431,0.21622l-1.14623,-0.06921c1.01927,0.20968 2.00802,0.43432 3.20646,0.55536c0.58684,0.05927 1.18416,0.11324 1.78797,0.16395zM376.41951,38.90766c0.12679,0.04882 0.25368,0.09758 0.38068,0.14629c0.08753,-0.16023 0.24607,-0.33489 0.48011,-0.52019c0.28091,-0.22242 0.64577,-0.44051 1.06784,-0.64576c-1.44374,-0.08945 -2.90283,-0.17085 -4.37161,-0.24773c0.85131,0.50537 1.65966,0.96578 2.44299,1.26739zM340.32706,55.32561c-0.44029,-0.13976 -0.90076,-0.26671 -1.38366,-0.37853c-0.84473,-0.1956 -1.87408,-0.30096 -3.00849,-0.35276c2.20641,0.71226 4.44389,1.4083 6.58487,2.14637c-0.69575,-0.49216 -1.42327,-0.96341 -2.19273,-1.41509z" data-paper-data="{&quot;index&quot;:null}" fill="#000000" stroke="none" stroke-width="0.5" stroke-linecap="butt"/><g fill="none" stroke="#273239" stroke-width="1.5" stroke-linecap="round"><path d="M159.79859,178.55894c0,0 -0.20864,-2.21188 1.71163,-5.24972c1.7219,-2.72403 4.13958,-3.97752 4.13958,-3.97752"/><path d="M163.29859,180.55894c0,0 -0.20864,-2.21188 1.71163,-5.24972c1.7219,-2.72403 4.13958,-3.97752 4.13958,-3.97752"/></g><g fill="#273239" stroke="#273239"><path d="M169.6391,183.19163c0,0 -0.03615,0.79048 -2.40478,2.12346c-1.5175,0.85399 -2.35387,0.17825 -2.35387,0.17825" stroke-width="1.5" stroke-linecap="round"/><path d="M164.59619,185.26878c0.04215,0.33537 -0.19556,0.6414 -0.53093,0.68355c-0.33537,0.04215 -0.64141,-0.19555 -0.68355,-0.53092c-0.04215,-0.33537 0.19555,-0.64141 0.53092,-0.68356c0.33537,-0.04215 0.64141,0.19556 0.68356,0.53093z" stroke-width="1" stroke-linecap="butt"/></g><g data-paper-data="{&quot;index&quot;:null}" stroke-width="0.7" stroke-linecap="butt"><path d="M155.73036,177.10815c0.07114,0.77459 0.56674,1.59945 0.56674,1.59945c0,0 -1.23469,-2.17667 -1.75711,-3.22375c-0.73793,-1.479 -0.74719,-2.97733 0.94861,-6.06978c0.82461,-1.50376 2.3171,-2.63315 3.86714,-3.01345c1.29528,-0.31779 2.60935,-0.07161 3.81068,0.52804c0.37184,0.18561 -0.86693,-0.03508 -1.29529,0.22715c-1.19245,0.72997 -3.57466,2.3071 -4.88336,4.54903c-1.02463,1.75528 -1.39418,3.9142 -1.25741,5.40332z" data-paper-data="{&quot;index&quot;:null}" fill="#f2f23c" stroke="#533721"/><path d="M156.90077,170.93212c4.93227,-7.07473 6.55095,-3.81661 6.55095,-3.81661c0,0 -2.59046,-0.02855 -4.8117,3.17535c-3.69676,5.3322 -2.43278,8.28861 -2.43278,8.28861c0,0 -3.46979,-1.67559 0.69353,-7.64736z" data-paper-data="{&quot;index&quot;:null}" fill="#b78700" stroke="#533721"/><path d="M156.66131,171.97209c0,0 -2.00859,-0.90688 3.7581,-6.21489c3.28473,-3.02346 7.76657,-1.26301 7.76657,-1.26301l-0.45304,0.75241c0,0 -2.82174,-0.67618 -6.11313,1.27979c-2.10014,1.24805 -4.9585,5.4457 -4.9585,5.4457z" data-paper-data="{&quot;index&quot;:null}" fill="#b78700" stroke="#533721"/><path d="M167.59779,186.22861c0.74481,-8.95924 7.51026,-11.46183 7.51026,-11.46183c0,0 0.38811,-0.06332 0.57868,0.06475c0.44122,0.29654 2.0248,1.68503 2.0248,1.68503l-6.39791,11.43299c0,0 -0.68573,0.06184 -1.45262,-0.08915c-1.07762,-0.21216 -2.3366,-0.74895 -2.26321,-1.63179z" data-paper-data="{&quot;index&quot;:null}" fill="#b78700" stroke="#303133"/><path d="M169.95767,187.31993c-2.29495,-1.84806 5.64158,-12.27319 7.93652,-10.42514c2.29494,1.84805 2.73676,5.67087 0.86153,8.14837c-2.10084,2.77557 -3.46483,3.37127 -5.11479,3.30226c-1.16811,-0.04887 -2.73198,-0.25945 -3.68325,-1.02549z" data-paper-data="{&quot;index&quot;:null}" fill="#f2f23c" stroke="#533721"/><path d="M172.01208,184.02679c-0.47425,-0.24688 -0.50482,-0.65989 -0.50482,-0.65989c0,0 0.48299,-3.44316 5.00274,-7.06666c1.42945,-1.146 2.13253,-0.43905 2.61348,-0.116c0.78917,0.53008 0.74555,1.4023 0.59384,1.54303c-0.77221,0.71634 -1.21355,-1.10131 -1.93548,-0.57464c-0.52659,0.38416 -1.90607,2.01672 -2.7968,3.28779c-1.25864,1.79609 -2.0046,3.30376 -2.0046,3.30376c0,0 -0.51119,0.5206 -0.96836,0.28261z" data-paper-data="{&quot;index&quot;:null}" fill="#b78700" stroke="#533721"/><path d="M176.53994,170.68207l0.74268,-0.82736c0,0 2.09463,0.97648 2.61395,3.18113c0.2462,1.04516 -0.16772,3.60439 -0.16772,3.60439c0,0 -0.54081,0.4896 -1.04547,0.27321c-0.5042,-0.21619 -0.81892,-1.04258 -0.81892,-1.04258c0,0 0.79746,-1.57473 0.68371,-2.42112c-0.22352,-1.66322 -2.00822,-2.76766 -2.00822,-2.76766z" data-paper-data="{&quot;index&quot;:null}" fill="#b78700" stroke="#533721"/><path d="M167.61142,165.27446c0,0 0.04753,-0.27038 0.13217,-0.40526c0.12446,-0.19833 0.54234,-0.66963 0.54234,-0.66963l8.77398,6.14086c0,0 -0.51721,0.47388 -0.72542,0.58353c-0.1404,0.07394 -0.40264,0.01056 -0.40264,0.01056c0,0 -2.67212,-2.09805 -4.16623,-3.11443c-0.77776,-0.52908 -4.15421,-2.54563 -4.15421,-2.54563z" data-paper-data="{&quot;index&quot;:null}" fill="#f2f23c" stroke="#533721"/><path d="M168.14825,164.46632c0,0 -0.32699,-0.30967 0.0038,-0.64641c0.47997,-0.48861 0.71901,-0.39356 0.71901,-0.39356c0,0 3.00175,1.64155 4.53977,2.66145c1.57781,1.0463 4.81077,3.53918 4.81077,3.53918c0,0 0.39464,0.57009 -0.11542,1.11812c-0.26497,0.28471 -1.20059,-0.2669 -1.20059,-0.2669c0,0 -2.59436,-2.03829 -4.074,-3.05406c-1.4383,-0.98738 -4.68333,-2.95782 -4.68333,-2.95782z" data-paper-data="{&quot;index&quot;:null}" fill="#f2f23c" stroke="#533721"/><path d="M171.8285,187.75251l1.13237,1.08522l-4.3406,0.54977c0,0 -0.62322,-0.59577 -0.71101,-0.83304c-0.04638,-0.12538 0.22381,-0.48389 0.22381,-0.48389z" data-paper-data="{&quot;index&quot;:null}" fill="#b78700" stroke="#533721"/><path d="M172.46084,188.51675c-0.2987,-0.25116 -0.7524,-0.84649 -0.7524,-0.84649c0,0 3.22877,-1.66711 3.83575,0.11276c0.45665,1.33906 -2.21227,1.25238 -2.21227,1.25238c0,0 -0.65838,-0.3398 -0.87108,-0.51865z" data-paper-data="{&quot;index&quot;:null}" fill="#b78700" stroke="#533721"/><path d="M165.61032,188.48058c-0.61676,-0.49667 -1.86483,-1.84843 -1.86483,-1.84843l0.74171,-0.52957c0,0 1.58313,0.97553 2.22755,1.37775c0.46819,0.29223 1.28207,0.8128 1.28207,0.8128l-0.86099,1.06919c0,0 -1.04843,-0.49755 -1.52552,-0.88173z" data-paper-data="{&quot;index&quot;:null}" fill="#b78700" stroke="#533721"/><path d="M166.40773,189.47755c0,0 0.49031,-0.61367 0.76497,-0.88945c0.25639,-0.25743 0.83195,-0.71398 0.83195,-0.71398c0,0 0.5887,0.45537 0.81239,0.7354c0.20624,0.25818 0.48168,0.88456 0.48168,0.88456c0,0 -0.43159,0.59885 -1.56552,0.47296c-1.23136,-0.1367 -1.32548,-0.4895 -1.32548,-0.4895z" data-paper-data="{&quot;index&quot;:null}" fill="#f2f23c" stroke="#b78700"/><g data-paper-data="{&quot;index&quot;:null}"><path d="M163.17499,184.13585c1.13947,0.91759 1.70567,1.76969 1.09742,2.52501c-0.60825,0.75532 -1.70374,0.47658 -2.84321,-0.441c-1.13947,-0.91759 -1.60442,-1.89543 -0.99617,-2.65076c0.60825,-0.75532 1.60249,-0.35084 2.74196,0.56675z" fill="#b78700" stroke="#533721"/><g fill="#242424" stroke="none"><path d="M161.78367,184.39247c0.06496,-0.08067 0.18249,-0.09383 0.26251,-0.02939c0.08002,0.06444 0.09222,0.18207 0.02726,0.26274c-0.06496,0.08067 -0.18249,0.09383 -0.26251,0.02939c-0.08002,-0.06444 -0.09223,-0.18207 -0.02726,-0.26274z"/><path d="M161.2498,184.05888c0.06496,-0.08067 0.18249,-0.09383 0.26251,-0.02939c0.08002,0.06444 0.09222,0.18206 0.02726,0.26273c-0.06496,0.08067 -0.18249,0.09384 -0.26251,0.0294c-0.08002,-0.06444 -0.09223,-0.18207 -0.02726,-0.26274z"/><path d="M160.87521,183.6224c0.06496,-0.08067 0.18249,-0.09383 0.26251,-0.0294c0.08002,0.06444 0.09223,0.18207 0.02726,0.26274c-0.06496,0.08067 -0.18249,0.09383 -0.26251,0.02939c-0.08002,-0.06444 -0.09223,-0.18206 -0.02726,-0.26273z"/><path d="M161.60955,183.63586c0.06496,-0.08067 0.18249,-0.09383 0.26251,-0.02939c0.08002,0.06444 0.09223,0.18207 0.02726,0.26274c-0.06496,0.08067 -0.18249,0.09382 -0.26251,0.02939c-0.08002,-0.06444 -0.09223,-0.18207 -0.02726,-0.26274z"/><path d="M162.06447,183.92514c0.06496,-0.08067 0.18248,-0.09383 0.2625,-0.02939c0.08002,0.06444 0.09223,0.18207 0.02726,0.26274c-0.06496,0.08067 -0.18248,0.09383 -0.2625,0.02939c-0.08002,-0.06444 -0.09223,-0.18207 -0.02726,-0.26274z"/></g></g></g></g></g></svg>